<svg xmlns="http://www.w3.org/2000/svg" xmlns:xlink="http://www.w3.org/1999/xlink" fill="none" version="1.1" width="66" height="65" viewBox="0 0 66 65"><defs><mask id="master_svg0_0_2440" style="mask-type:alpha" maskUnits="userSpaceOnUse"><g><g><path d="M0,0C0,0,66,0,66,0C66,0,66,65,66,65C66,65,0,65,0,65C0,65,0,0,0,0C0,0,0,0,0,0Z" fill="#000000" fill-opacity="1"/></g></g></mask></defs><g><g mask="url(#master_svg0_0_2440)"><g><g><path d="M65.79419492797851,32.482079296875C65.79419492797851,33.012879296875,65.78169492797852,33.542479296875,65.75459492797852,34.073279296875C65.72859492797852,34.602879296875,65.68899492797851,35.131479296875,65.63579492797851,35.659979296875C65.58379492797852,36.187379296875,65.51819492797851,36.714779296875,65.43909492797852,37.238879296875C65.35989492797852,37.764079296875,65.26829492797852,38.286979296875,65.16319492797851,38.806579296875C65.05799492797851,39.327279296875,64.94039492797852,39.844679296875,64.80929492797851,40.359879296875C64.67809492797852,40.873879296875,64.53559492797852,41.385679296875,64.37839492797852,41.892979296875C64.22239492797851,42.401479296875,64.05389492797852,42.904379296875,63.87299492797852,43.403879296875C63.69089492797852,43.903479296875,63.49759492797852,44.398479296875,63.291794927978515,44.889179296875C63.08599492797852,45.379779296875,62.867794927978515,45.863679296875,62.63819492797852,46.344279296875C62.40749492797852,46.823679296875,62.16669492797852,47.297579296875,61.912294927978515,47.764779296875C61.65899492797852,48.233179296875,61.39319492797851,48.694779296875,61.11729492797851,49.149679296875C60.84029492797852,49.604679296875,60.55309492797851,50.052879296875,60.25339492797852,50.494479296875C59.954894927978515,50.935979296875,59.64509492797851,51.368579296875,59.32399492797852,51.795679296875C59.00399492797852,52.221579296875,58.672594927978515,52.639779296875,58.331194927978515,53.050079296875C57.99079492797851,53.460479296875,57.63909492797852,53.861879296875,57.27729492797852,54.254379296875C56.916594927978515,54.647979296875,56.545694927978516,55.031479296875,56.16459492797851,55.407279296875C55.784694927978514,55.781979296875,55.39459492797852,56.147679296875,54.996594927978514,56.504479296875C54.59739492797851,56.861279296875,54.19029492797851,57.206979296875,53.77419492797851,57.543679296875C53.35809492797851,57.880479296875,52.934094927978514,58.207179296875,52.50209492797852,58.522679296875C52.07019492797851,58.839379296875,51.63029492797852,59.144879296875,51.18249492797852,59.439279296875C50.734694927978516,59.733679296875,50.281294927978514,60.017979296875,49.818794927978516,60.290079296875C49.357494927978514,60.563179296875,48.88929492797852,60.825279296875,48.41559492797852,61.074979296875C47.940594927978516,61.324779296875,47.46009492797852,61.563379296875,46.97379492797852,61.790879296875C46.48759492797851,62.017179296875,45.99569492797851,62.232479296875,45.49819492797852,62.435379296875C45.001794927978516,62.638279296875,44.49969492797852,62.828979296875,43.993194927978514,63.008479296875C43.486594927978516,63.186879296875,42.97549492797852,63.353079296875,42.46099492797852,63.506879296875C41.94539492797851,63.660779296875,41.427494927978515,63.802379296875,40.90509492797852,63.931779296875C40.383794927978514,64.059979296875,39.85799492797852,64.177079296875,39.33109492797852,64.280779296875C38.80299492797852,64.383379296875,38.27269492797851,64.474779296875,37.74119492797852,64.552779296875C37.20859492797852,64.629779296875,36.674894927978514,64.695579296875,36.13889492797851,64.746879296875C35.604094927978515,64.799279296875,35.06699492797851,64.838279296875,34.52989492797852,64.863879296875C33.992794927978515,64.890679296875,33.454494927978516,64.902979296875,32.91629492797851,64.902979296875C32.37799492797851,64.902979296875,31.840894927978514,64.890679296875,31.303794927978515,64.863879296875C30.765594927978515,64.838279296875,30.229594927978514,64.799279296875,29.693594927978516,64.746879296875C29.158794927978516,64.695579296875,28.625094927978516,64.629779296875,28.092494927978514,64.552779296875C27.559894927978515,64.474779296875,27.029594927978515,64.383379296875,26.502594927978517,64.280779296875C25.974594927978515,64.177079296875,25.449894927978516,64.059979296875,24.927494927978515,63.931779296875C24.406194927978515,63.802379296875,23.887194927978516,63.660779296875,23.372694927978515,63.506879296875C22.857094927978515,63.353079296875,22.347094927978517,63.186879296875,21.840494927978515,63.008479296875C21.333894927978516,62.828979296875,20.831894927978517,62.638279296875,20.334294927978515,62.435379296875C19.837894927978514,62.232479296875,19.346094927978516,62.017179296875,18.858694927978515,61.790879296875C18.372494927978515,61.563379296875,17.891894927978516,61.324779296875,17.418094927978515,61.074979296875C16.943194927978517,60.825279296875,16.475094927978514,60.563179296875,16.013694927978516,60.290079296875C15.552394927978515,60.017979296875,15.097794927978516,59.733679296875,14.649994927978515,59.439279296875C14.203394927978515,59.144879296875,13.763494927978515,58.839379296875,13.330394927978515,58.522679296875C12.898494927978515,58.207179296875,12.474494927978515,57.880479296875,12.058294927978515,57.543679296875C11.643394927978516,57.206979296875,11.235194927978515,56.861279296875,10.837094927978516,56.504479296875C10.437994927978515,56.147679296875,10.048994927978516,55.781979296875,9.667914927978515,55.407279296875C9.287984927978515,55.031479296875,8.917094927978516,54.647979296875,8.555254927978515,54.254379296875C8.194544927978516,53.861879296875,7.8428749279785155,53.460479296875,7.501384927978515,53.050079296875C7.159894927978516,52.639779296875,6.828584927978516,52.221579296875,6.508584927978515,51.795679296875C6.1874449279785155,51.368579296875,5.878754927978516,50.935979296875,5.579104927978515,50.494479296875C5.2805849279785155,50.052879296875,4.992234927978515,49.604679296875,4.716334927978516,49.149679296875C4.439294927978516,48.694779296875,4.174704927978516,48.233179296875,3.9202849279785155,47.764779296875C3.6669949279785157,47.297579296875,3.425014927978516,46.823679296875,3.1954649279785157,46.344279296875C2.9647949279785157,45.863679296875,2.7465549279785155,45.379779296875,2.5407549279785155,44.889179296875C2.3349649279785156,44.398479296875,2.1416049279785154,43.903479296875,1.9606849279785157,43.403879296875C1.7786249279785156,42.904379296875,1.6101449279785156,42.401479296875,1.4541049279785156,41.892979296875C1.2980549279785156,41.385679296875,1.1544549279785157,40.873879296875,1.0232839279785155,40.359879296875C0.8932469279785156,39.844679296875,0.7745169279785157,39.327279296875,0.6704879279785156,38.806579296875C0.5653279279785156,38.286979296875,0.4726049279785156,37.764079296875,0.39458292797851563,37.238879296875C0.3154299279785156,36.714779296875,0.24984592797851563,36.187379296875,0.19670092797851563,35.659979296875C0.14355492797851563,35.131479296875,0.10397882797851563,34.602879296875,0.07797142797851563,34.073279296875C0.051964227978515624,33.542479296875,0.038394927978515625,33.012879296875,0.038394927978515625,32.482079296875C0.038394927978515625,31.951379296875,0.051964227978515624,31.421679296875,0.07797142797851563,30.890979296875C0.10397882797851563,30.361279296875,0.14355492797851563,29.832779296875,0.19670092797851563,29.304279296875C0.24984592797851563,28.775679296875,0.3154299279785156,28.249479296875,0.39458292797851563,27.725379296875C0.4726049279785156,27.200179296875,0.5653279279785156,26.677179296875,0.6704879279785156,26.156479296875C0.7745169279785157,25.636879296875,0.8932469279785156,25.119479296875,1.0232839279785155,24.604379296875C1.1544549279785157,24.089179296875,1.2980549279785156,23.578579296875,1.4541049279785156,23.071179296875C1.6101449279785156,22.562779296875,1.7786249279785156,22.058779296875,1.9606849279785157,21.559179296875C2.1416049279785154,21.059679296875,2.3349649279785156,20.565679296875,2.5407549279785155,20.075079296875C2.7465549279785155,19.584479296875,2.9647949279785157,19.099479296875,3.1954649279785157,18.619979296875C3.425014927978516,18.140479296875,3.6669949279785157,17.666579296875,3.9202849279785155,17.198279296875C4.174704927978516,16.731079296875,4.439294927978516,16.269479296875,4.716334927978516,15.814579296875C4.992234927978515,15.359579296875,5.2805849279785155,14.911379296875,5.579104927978515,14.469779296875C5.878754927978516,14.028279296875,6.1874449279785155,13.594479296875,6.508584927978515,13.168579296875C6.828584927978516,12.742579296875,7.159894927978516,12.324479296875,7.501384927978515,11.914079296875C7.8428749279785155,11.503779296875,8.194544927978516,11.102379296875,8.555254927978515,10.708779296875C8.917094927978516,10.316279296875,9.287984927978515,9.931589296875,9.667914927978515,9.556939296875C10.048994927978516,9.181169296875,10.437994927978515,8.815439296875,10.837094927978516,8.459739296875C11.235194927978515,8.102929296875,11.643394927978516,7.757269296875,12.058294927978515,7.420529296875C12.474494927978515,7.083789296875,12.898494927978515,6.757079296875,13.330394927978515,6.441529296875C13.763494927978515,6.124849296875,14.203394927978515,5.819329296875,14.649994927978515,5.524959296875C15.097794927978516,5.230589296875,15.552394927978515,4.946259296875,16.013694927978516,4.673079296875C16.475094927978514,4.401009296875,16.943194927978517,4.138969296875,17.418094927978515,3.889199296875C17.891894927978516,3.639439296875,18.372494927978515,3.400819296875,18.858694927978515,3.173349296875C19.346094927978516,2.946999296875,19.837894927978514,2.731789296875,20.334294927978515,2.528859296875C20.831894927978517,2.325919296875,21.333894927978516,2.135249296875,21.840494927978515,1.955729296875C22.347094927978517,1.777319296875,22.857094927978515,1.611179296875,23.372694927978515,1.457309296875C23.887194927978516,1.303429296875,24.406194927978515,1.161819296875,24.927494927978515,1.032477296875C25.449894927978516,0.903132296875,25.974594927978515,0.787168296875,26.502594927978517,0.683470296875C27.029594927978515,0.579772296875,27.559894927978515,0.489454296875,28.092494927978514,0.411401296875C28.625094927978516,0.334463296875,29.158794927978516,0.268676296875,29.693594927978516,0.217384296875C30.229594927978514,0.164977296875,30.765594927978515,0.125951296875,31.303794927978515,0.100305296875C31.840894927978514,0.073544396875,32.37799492797851,0.061279296875,32.91629492797851,0.061279296875C33.454494927978516,0.061279296875,33.992794927978515,0.073544396875,34.52989492797852,0.100305296875C35.06699492797851,0.125951296875,35.604094927978515,0.164977296875,36.13889492797851,0.217384296875C36.674894927978514,0.268676296875,37.20859492797852,0.334463296875,37.74119492797852,0.411401296875C38.27269492797851,0.489454296875,38.80299492797852,0.579772296875,39.33109492797852,0.683470296875C39.85799492797852,0.787168296875,40.383794927978514,0.903132296875,40.90509492797852,1.032477296875C41.427494927978515,1.161819296875,41.94539492797851,1.303429296875,42.46099492797852,1.457309296875C42.97549492797852,1.611179296875,43.486594927978516,1.777319296875,43.993194927978514,1.955729296875C44.49969492797852,2.135249296875,45.001794927978516,2.325919296875,45.49819492797852,2.528859296875C45.99569492797851,2.731789296875,46.48759492797851,2.946999296875,46.97379492797852,3.173349296875C47.46009492797852,3.400819296875,47.940594927978516,3.639439296875,48.41559492797852,3.889199296875C48.88929492797852,4.138969296875,49.357494927978514,4.401009296875,49.818794927978516,4.673079296875C50.281294927978514,4.946259296875,50.734694927978516,5.230589296875,51.18249492797852,5.524959296875C51.63029492797852,5.819329296875,52.07019492797851,6.124849296875,52.50209492797852,6.441529296875C52.934094927978514,6.757079296875,53.35809492797851,7.083789296875,53.77419492797851,7.420529296875C54.19029492797851,7.757269296875,54.59739492797851,8.102929296875,54.996594927978514,8.459739296875C55.39459492797852,8.815439296875,55.784694927978514,9.181169296875,56.16459492797851,9.556939296875C56.545694927978516,9.931589296875,56.916594927978515,10.316279296875,57.27729492797852,10.708779296875C57.63909492797852,11.102379296875,57.99079492797851,11.503779296875,58.331194927978515,11.914079296875C58.672594927978515,12.324479296875,59.00399492797852,12.742579296875,59.32399492797852,13.168579296875C59.64509492797851,13.594479296875,59.954894927978515,14.028279296875,60.25339492797852,14.469779296875C60.55309492797851,14.911379296875,60.84029492797852,15.359579296875,61.11729492797851,15.814579296875C61.39319492797851,16.269479296875,61.65899492797852,16.731079296875,61.912294927978515,17.198279296875C62.16669492797852,17.666579296875,62.40749492797852,18.140479296875,62.63819492797852,18.619979296875C62.867794927978515,19.099479296875,63.08599492797852,19.584479296875,63.291794927978515,20.075079296875C63.49759492797852,20.565679296875,63.69089492797852,21.059679296875,63.87299492797852,21.559179296875C64.05389492797852,22.058779296875,64.22239492797851,22.562779296875,64.37839492797852,23.071179296875C64.53559492797852,23.578579296875,64.67809492797852,24.089179296875,64.80929492797851,24.604379296875C64.94039492797852,25.119479296875,65.05799492797851,25.636879296875,65.16319492797851,26.156479296875C65.26829492797852,26.677179296875,65.35989492797852,27.200179296875,65.43909492797852,27.725379296875C65.51819492797851,28.249479296875,65.58379492797852,28.775679296875,65.63579492797851,29.304279296875C65.68899492797851,29.832779296875,65.72859492797852,30.361279296875,65.75459492797852,30.890979296875C65.78169492797852,31.421679296875,65.79419492797851,31.951379296875,65.79419492797851,32.482079296875C65.79419492797851,32.482079296875,65.79419492797851,32.482079296875,65.79419492797851,32.482079296875Z" fill="#DDE53D" fill-opacity="1"/></g></g></g><g><path d="M53.104,43C53.104,43,12.89603,43,12.89603,43C11.849904,43,11,42.209900000000005,11,41.2399C11,41.2399,11,35.4912,11,35.4912C11,35.4912,55,35.4912,55,35.4912C55,35.4912,55,41.2399,55,41.2399C55,42.209900000000005,54.1489,43,53.104,43C53.104,43,53.104,43,53.104,43ZM42.6864,31.139400000000002C42.6864,31.139400000000002,41.0918,29.2366,41.0918,29.2366C40.902699999999996,29.0106,40.9464,28.684710000000003,41.1899,28.509140000000002C41.4334,28.33248,41.7845,28.374180000000003,41.973600000000005,28.60022C41.973600000000005,28.60022,43.2455,30.1167,43.2455,30.1167C43.2455,30.1167,44.5174,28.60022,44.5174,28.60022C44.7066,28.37308,45.0577,28.33248,45.3012,28.509140000000002C45.5447,28.684710000000003,45.5884,29.0106,45.3993,29.2366C45.3993,29.2366,43.8035,31.139400000000002,43.8035,31.139400000000002C43.8035,31.139400000000002,43.8035,33.0816,43.8035,33.0816C43.8035,33.368,43.5541,33.6006,43.2455,33.6006C42.937,33.6006,42.6864,33.368,42.6864,33.0816C42.6864,33.0816,42.6864,31.139400000000002,42.6864,31.139400000000002C42.6864,31.139400000000002,42.6864,31.139400000000002,42.6864,31.139400000000002ZM39.3908,33.6006C39.3908,33.6006,36.9416,33.6006,36.9416,33.6006C36.6331,33.6006,36.383700000000005,33.368,36.383700000000005,33.0816C36.383700000000005,33.0816,36.383700000000005,28.933799999999998,36.383700000000005,28.933799999999998C36.383700000000005,28.647399999999998,36.6331,28.41478,36.9416,28.41478C37.2501,28.41478,37.500699999999995,28.647399999999998,37.500699999999995,28.933799999999998C37.500699999999995,28.933799999999998,37.500699999999995,32.5636,37.500699999999995,32.5636C37.500699999999995,32.5636,39.3908,32.5636,39.3908,32.5636C39.6994,32.5636,39.9488,32.7952,39.9488,33.0816C39.9488,33.368,39.6994,33.6006,39.3908,33.6006C39.3908,33.6006,39.3908,33.6006,39.3908,33.6006ZM33.7287,31.4422C33.7287,31.4422,32.4852,31.4422,32.4852,31.4422C32.4852,31.4422,32.4852,33.0816,32.4852,33.0816C32.4852,33.368,32.2358,33.6006,31.9273,33.6006C31.6188,33.6006,31.3682,33.368,31.3682,33.0816C31.3682,33.0816,31.3682,28.933799999999998,31.3682,28.933799999999998C31.3682,28.647399999999998,31.6188,28.41478,31.9273,28.41478C31.9273,28.41478,33.7287,28.41478,33.7287,28.41478C34.6271,28.41478,35.3588,29.094,35.3588,29.9279C35.3588,30.762999999999998,34.6271,31.4422,33.7287,31.4422C33.7287,31.4422,33.7287,31.4422,33.7287,31.4422ZM32.4852,30.4042C32.4852,30.4042,33.7287,30.4042,33.7287,30.4042C34.0113,30.4042,34.2406,30.1913,34.2406,29.929000000000002C34.2406,29.6657,34.0113,29.4528,33.7287,29.4528C33.7287,29.4528,32.4852,29.4528,32.4852,29.4528C32.4852,29.4528,32.4852,30.4042,32.4852,30.4042C32.4852,30.4042,32.4852,30.4042,32.4852,30.4042ZM28.7132,31.4422C28.7132,31.4422,27.4709,31.4422,27.4709,31.4422C27.4709,31.4422,27.4709,33.0816,27.4709,33.0816C27.4709,33.368,27.2203,33.6006,26.9118,33.6006C26.6033,33.6006,26.3538,33.368,26.3538,33.0816C26.3538,33.0816,26.3538,28.933799999999998,26.3538,28.933799999999998C26.3538,28.647399999999998,26.6033,28.41478,26.9118,28.41478C26.9118,28.41478,28.7132,28.41478,28.7132,28.41478C29.6116,28.41478,30.3433,29.094,30.3433,29.9279C30.3433,30.762999999999998,29.6116,31.4422,28.7132,31.4422C28.7132,31.4422,28.7132,31.4422,28.7132,31.4422ZM27.4709,30.4042C27.4709,30.4042,28.7132,30.4042,28.7132,30.4042C28.9958,30.4042,29.2263,30.1913,29.2263,29.9279C29.2263,29.6657,28.9958,29.4528,28.7132,29.4528C28.7132,29.4528,27.4709,29.4528,27.4709,29.4528C27.4709,29.4528,27.4709,30.4042,27.4709,30.4042C27.4709,30.4042,27.4709,30.4042,27.4709,30.4042ZM24.7699,33.6006C24.5512,33.6006,24.3431,33.481,24.2533,33.2813C24.2533,33.2813,23.7935,32.2575,23.7935,32.2575C23.7935,32.2575,22.018,32.2575,22.018,32.2575C22.018,32.2575,21.557000000000002,33.2813,21.557000000000002,33.2813C21.4388,33.5457,21.1114,33.6708,20.82651,33.561099999999996C20.54281,33.4503,20.40805,33.1463,20.52626,32.882999999999996C20.52626,32.882999999999996,21.1244,31.550800000000002,21.1244,31.550800000000002C21.1279,31.5432,21.131500000000003,31.5355,21.134999999999998,31.5289C21.134999999999998,31.5289,22.3904,28.734090000000002,22.3904,28.734090000000002C22.4767,28.54097,22.68,28.415869999999998,22.9058,28.415869999999998C23.131500000000003,28.415869999999998,23.3348,28.54097,23.4211,28.734090000000002C23.4211,28.734090000000002,24.6753,31.5256,24.6753,31.5256C24.68,31.5355,24.6848,31.5443,24.688299999999998,31.5541C24.688299999999998,31.5541,25.2853,32.882999999999996,25.2853,32.882999999999996C25.4035,33.1463,25.2699,33.4503,24.985,33.561099999999996C24.914099999999998,33.5874,24.8408,33.6006,24.7699,33.6006C24.7699,33.6006,24.7699,33.6006,24.7699,33.6006ZM22.483800000000002,31.220599999999997C22.483800000000002,31.220599999999997,23.3278,31.220599999999997,23.3278,31.220599999999997C23.3278,31.220599999999997,22.9058,30.2813,22.9058,30.2813C22.9058,30.2813,22.483800000000002,31.220599999999997,22.483800000000002,31.220599999999997C22.483800000000002,31.220599999999997,22.483800000000002,31.220599999999997,22.483800000000002,31.220599999999997ZM41.979600000000005,38.0501C41.979600000000005,38.0501,24.020400000000002,38.0501,24.020400000000002,38.0501C23.7119,38.0501,23.4613,37.8186,23.4613,37.5322C23.4613,37.2458,23.7119,37.0132,24.020400000000002,37.0132C24.020400000000002,37.0132,41.979600000000005,37.0132,41.979600000000005,37.0132C42.2881,37.0132,42.5375,37.2458,42.5375,37.5322C42.5375,37.8186,42.2881,38.0501,41.979600000000005,38.0501C41.979600000000005,38.0501,41.979600000000005,38.0501,41.979600000000005,38.0501ZM41.979600000000005,40.4411C41.979600000000005,40.4411,24.020400000000002,40.4411,24.020400000000002,40.4411C23.7119,40.4411,23.4613,40.2085,23.4613,39.9221C23.4613,39.6357,23.7119,39.403099999999995,24.020400000000002,39.403099999999995C24.020400000000002,39.403099999999995,41.979600000000005,39.403099999999995,41.979600000000005,39.403099999999995C42.2881,39.403099999999995,42.5375,39.6357,42.5375,39.9221C42.5375,40.2085,42.2881,40.4411,41.979600000000005,40.4411C41.979600000000005,40.4411,41.979600000000005,40.4411,41.979600000000005,40.4411ZM41.979600000000005,22.59583C41.979600000000005,22.59583,24.020400000000002,22.59583,24.020400000000002,22.59583C23.7119,22.59583,23.4613,22.3643,23.4613,22.07791C23.4613,21.79151,23.7119,21.558889999999998,24.020400000000002,21.558889999999998C24.020400000000002,21.558889999999998,41.979600000000005,21.558889999999998,41.979600000000005,21.558889999999998C42.2881,21.558889999999998,42.5375,21.79151,42.5375,22.07791C42.5375,22.3643,42.2881,22.59583,41.979600000000005,22.59583C41.979600000000005,22.59583,41.979600000000005,22.59583,41.979600000000005,22.59583ZM41.979600000000005,24.98683C41.979600000000005,24.98683,24.020400000000002,24.98683,24.020400000000002,24.98683C23.7119,24.98683,23.4613,24.75421,23.4613,24.46781C23.4613,24.18142,23.7119,23.94989,24.020400000000002,23.94989C24.020400000000002,23.94989,41.979600000000005,23.94989,41.979600000000005,23.94989C42.2881,23.94989,42.5375,24.18142,42.5375,24.46781C42.5375,24.75421,42.2881,24.98683,41.979600000000005,24.98683C41.979600000000005,24.98683,41.979600000000005,24.98683,41.979600000000005,24.98683ZM11,34.4543C11,34.4543,11,27.54572,11,27.54572C11,27.54572,55,27.54572,55,27.54572C55,27.54572,55,34.4543,55,34.4543C55,34.4543,11,34.4543,11,34.4543C11,34.4543,11,34.4543,11,34.4543ZM11,26.50878C11,26.50878,11,20.76006,11,20.76006C11,19.788954,11.849904,19,12.89603,19C12.89603,19,53.104,19,53.104,19C54.1501,19,55,19.788954,55,20.76006C55,20.76006,55,26.50878,55,26.50878C55,26.50878,11,26.50878,11,26.50878C11,26.50878,11,26.50878,11,26.50878Z" fill-rule="evenodd" fill="#030036" fill-opacity="1"/></g></g></svg>