<svg xmlns="http://www.w3.org/2000/svg" xmlns:xlink="http://www.w3.org/1999/xlink" fill="none" version="1.1" width="157.99972534179688" height="129.00027465820312" viewBox="0 0 157.99972534179688 129.00027465820312"><g><path d="M101.821,20.4441C108.174,21.444,114.373,22.8786,120.291,24.9199C124.073,26.2322,127.731,27.7892,131.232,29.6483C138.156,33.3455,144.353,38.303,147.816,44.6248C148.519,45.8382,149.111,47.1114,149.614,48.4341C151.898,54.545,152.036,61.5984,150.819,68.3499C150.436,70.6151,149.689,72.8153,148.673,74.9529C146.415,79.7672,142.812,84.2586,138.794,88.3646C131.619,95.5639,122.816,101.365,113.476,106.273C108.339,108.924,103.064,111.348,97.6763,113.462C93.2236,115.206,88.6925,116.74,84.1478,118.112C78.9679,119.672,73.769,121.143,68.416,121.864C62.3629,122.666,56.2475,122.739,43.6329,121.604C31.0209,120.455,17.0302,117.646,10.2065,107.848C6.76762,103.484,5.56185,97.1496,7.04608,87.935C8.54653,78.7205,14.8782,69.1102,21.2558,59.5858C21.2423,59.5858,21.4504,59.289,21.4369,59.289C23.1537,56.7529,24.7839,54.1544,26.7466,51.7929C37.0552,39.4513,50.4106,29.466,65.1826,21.8606C67.3914,20.7306,69.6245,19.6578,71.8684,18.6163C81.7768,17.9524,92.9397,19.0824,101.821,20.4441C101.821,20.4441,101.821,20.4441,101.821,20.4441ZM114.63,0.057059C108.52,0.403353,101.81,1.98641,94.7267,3.658C91.5555,4.40005,88.2058,5.2749,84.5236,6.38929C78.876,8.07129,73.4067,10.1126,68.4674,12.4117C53.9792,14.1327,40.221,20.0484,29.9422,25.7974C19.6742,31.5464,12.7694,35.1994,6.14581,39.407C4.17224,40.6646,1.45249,44.0312,1.67959,44.8956C2.14459,46.6688,3.98028,48.3351,8.46813,46.6922C12.9857,45.0336,19.777,39.6674,24.1513,36.6965C26.7439,34.9442,27.2171,34.6083,29.8097,32.8482C37.0119,28.7917,43.4274,25.5032,50.5485,22.9437C41.7458,28.7448,33.2135,35.1499,25.9599,42.784C22.0966,46.851,18.5901,51.2331,15.4621,55.8833C11.9854,61.0022,8.68712,66.4101,5.989,72.0758C3.46391,77.3691,1.55252,82.8708,0.549514,88.6146C-0.0506672,91.976,-0.180437,95.504,0.265644,99.0034C0.83068,103.354,2.3825,107.614,5.0671,111.311C8.74659,116.099,13.4994,119.544,18.774,122.109C27.7064,126.449,38.3177,128.355,50.5241,128.91C62.7413,129.467,75.4722,127.405,87.7165,123.866C97.7898,120.958,107.631,117.084,116.86,112.324C118.772,111.335,120.659,110.304,122.522,109.233C130.246,104.719,137.421,99.2742,143.606,92.856C145.721,90.6793,147.751,88.3412,149.56,85.8547C153.153,80.9545,156.056,75.5127,157.44,66.8423C158.827,58.1615,157.697,49.2907,153.369,41.6592C150.982,37.5401,147.816,33.9652,144.182,30.9085C141.127,28.336,137.74,26.1333,134.225,24.2898C125.677,19.7854,116.463,16.8198,106.99,14.9034C102.856,14.0755,98.6982,13.185,94.4915,12.7267C92.399,12.5054,90.2956,12.37,88.2031,12.245C98.0439,8.47226,108.082,6.34242,117.693,6.00915C119.672,5.95968,123.022,5.86074,121.567,9.16485C120.018,12.6877,120.951,13.7656,123.571,13.0965C125.755,12.5289,127.721,11.1671,128.721,6.77725C128.537,3.0279,126.142,1.39797,124.187,0.924096C120.967,0.140378,117.772,-0.130409,114.63,0.057059C114.63,0.057059,114.63,0.057059,114.63,0.057059Z" fill="#FF37D0" fill-opacity="1"/></g></svg>