<svg xmlns="http://www.w3.org/2000/svg" xmlns:xlink="http://www.w3.org/1999/xlink" fill="none" version="1.1" width="161.951171875" height="39.996826171875" viewBox="0 0 161.951171875 39.996826171875"><g><g transform="matrix(0.992992103099823,-0.11818042397499084,0.15747153759002686,0.9875234961509705,-0.2437472512247041,13.8207094175159)"><g transform="matrix(1,-2.832410972430921e-10,3.6665228630994307e-9,1,-2.464160786530556e-8,3.292290529088859e-8)"><g transform="matrix(1,-2.832410972430921e-10,3.6665228630994307e-9,1,-2.464160786530556e-8,3.292290529088859e-8)"><g transform="matrix(1,-2.832410972430921e-10,3.6665228630994307e-9,1,-2.464160786530556e-8,3.292290529088859e-8)"><path d="M139.57652813560307,15.199472644102947C139.54242813560307,12.668732644102946,139.17342813560305,9.554732644102947,136.82722813560306,7.779252644102947C134.24632813560305,5.800133644102946,131.73162813560305,6.848020644102946,129.78632813560307,8.854822644102946C129.72022813560307,8.767822644102946,129.62002813560306,8.651172644102946,129.55172813560307,8.534522644102946C127.74082813560307,6.120431644102946,123.91854813560306,6.294420644102947,121.70674813560306,8.156892644102946C119.32638813560305,10.193342644102946,118.11911813560306,13.510992644102945,117.41526813560306,16.247362644102946C116.67723713560306,19.244702644102944,116.44261713560306,22.329002644102946,116.24216562560306,25.383702644102947C116.04171413560306,28.177402644102948,121.06894813560307,28.177402644102948,121.27167813560305,25.383702644102947C121.50629813560306,21.71810264410295,121.77280813560306,17.993202644102947,123.21469813560306,14.501542644102948C123.55181813560306,13.744292644102947,123.91854813560306,12.987052644102945,124.42195813560306,12.259462644102946C124.59051813560306,12.028132644102946,125.02558813560306,11.241232644102947,125.42877813560305,11.154242644102947C125.42877813560305,11.154242644102947,125.46066813560306,11.154242644102947,125.46066813560306,11.124582644102947C125.46066813560306,11.183892644102947,125.46066813560306,11.213552644102947,125.52899813560306,11.270892644102947C125.93217813560307,11.737492644102947,125.79778813560306,13.103702644102945,125.82967813560306,13.657302644102947C125.86384813560306,14.705182644102946,125.79778813560306,15.780752644102947,125.66338813560306,16.828602644102947C125.39460813560306,19.244702644102944,130.15532813560307,19.826002644102946,130.62452813560307,17.411902644102945C130.89332813560307,15.840062644102947,131.46282813560305,14.384892644102946,132.43542813560305,13.046362644102945C132.77032813560305,12.639072644102946,133.50832813560305,12.115132644102946,133.94342813560306,11.620842644102947C134.01172813560305,12.085472644102946,134.27822813560306,12.552082644102946,134.34662813560305,13.016702644102946C135.15072813560306,16.85830264410295,134.27822813560306,21.136802644102946,133.84322813560306,25.006102644102945C133.50832813560305,27.799802644102947,138.53782813560306,27.770102644102945,138.87272813560307,25.006102644102945C139.24172813560307,21.747802644102947,139.64262813560305,18.457802644102948,139.57652813560307,15.199472644102947C139.57652813560307,15.199472644102947,139.57652813560307,15.199472644102947,139.57652813560307,15.199472644102947Z" fill="#E1E336" fill-opacity="1"/></g></g></g></g><g transform="matrix(0.992992103099823,-0.11818042397499084,0.15747153759002686,0.9875234961509705,-0.3166015208698809,12.633791236905381)"><g transform="matrix(1,-2.832410972430921e-10,3.6665228630994307e-9,1,-2.4698906031517254e-8,3.007777049646165e-8)"><g transform="matrix(1,-2.832410972430921e-10,3.6665228630994307e-9,1,-2.4698906031517254e-8,3.007777049646165e-8)"><g transform="matrix(1,-2.832410972430921e-10,3.6665228630994307e-9,1,-2.4698906031517254e-8,3.007777049646165e-8)"><path d="M107.70518626060306,8.820498169439324C107.03549626060305,14.059928169439324,106.53208926060306,19.327028169439323,106.19724375060306,24.621828169439326C105.99679226060306,27.415528169439327,111.02402626060307,27.415528169439327,111.22675626060305,24.621828169439326C111.56160626060306,19.327028169439323,112.06500626060306,14.059928169439324,112.73470626060306,8.820498169439324C113.06954626060306,6.026796169439323,108.04003626060306,6.056453169439323,107.70518626060306,8.820498169439324C107.70518626060306,8.820498169439324,107.70518626060306,8.820498169439324,107.70518626060306,8.820498169439324Z" fill="#E1E336" fill-opacity="1"/></g></g></g></g><g transform="matrix(0.992992103099823,-0.11818042397499084,0.15747153759002686,0.9875234961509705,-0.40448501842911355,14.03149207776005)"><g transform="matrix(1,-2.832410972430921e-10,3.6665228630994307e-9,1,-2.8656344852606708e-8,3.3395342491360225e-8)"><g transform="matrix(1,-2.832410972430921e-10,3.6665228630994307e-9,1,-2.8656344852606708e-8,3.3395342491360225e-8)"><g transform="matrix(1,-2.832410972430921e-10,3.6665228630994307e-9,1,-2.8656344852606708e-8,3.3395342491360225e-8)"><path d="" fill="#000000" fill-opacity="0"/></g></g></g></g><g transform="matrix(0.992992103099823,-0.11818042397499084,0.15747153759002686,0.9875234961509705,-0.4772460936801508,12.845494135690387)"><g transform="matrix(1,-2.832410972430921e-10,3.6665228630994307e-9,1,-2.8712747734971344e-8,3.055242014937676e-8)"><g transform="matrix(1,-2.832410972430921e-10,3.6665228630994307e-9,1,-2.8712747734971344e-8,3.055242014937676e-8)"><g transform="matrix(1,-2.832410972430921e-10,3.6665228630994307e-9,1,-2.8712747734971344e-8,3.055242014937676e-8)"><path d="" fill="#000000" fill-opacity="0"/></g></g></g></g><g transform="matrix(0.992992103099823,-0.11818042397499084,0.15747153759002686,0.9875234961509705,-1.6446213539747987,7.329812689727987)"><g transform="matrix(1,8.17219447668549e-9,3.4585290187294504e-9,1,-4.545314169490666e-8,-4.955190959776701e-7)"><g transform="matrix(1,-6.55956666761881e-9,3.4585290187294504e-9,1,-4.545314169490666e-8,3.9773778759411016e-7)"><g transform="matrix(1,-6.55956666761881e-9,3.4585290187294504e-9,1,-4.545314880033402e-8,3.9773778759411016e-7)"><path d="M83.71206564703965,16.22811505027063C83.34306564703965,13.46406405027063,78.31356564703965,13.434406050270631,78.71676564703965,16.22811505027063C79.15186564703964,19.45876505027063,78.98556564703965,22.659755050270633,77.94686564703966,25.801435050270634C77.60976564703965,26.73263505027063,77.10856564703965,28.798835050270633,75.80106564703965,29.091435050270633C74.15646564703965,29.46903505027063,74.12456564703965,26.82163505027063,74.05626564703965,25.94773505027063C73.82166564703965,23.18373505027063,68.86046564703965,23.124385050270632,69.06092564703965,25.94773505027063C69.09508564703965,26.64563505027063,68.79213564703966,28.77113505027063,67.45275564703965,28.36383505027063C66.41176564703964,28.04353505027063,66.17715564703965,25.657135050270632,66.01086564703965,24.89983505027063C65.44140564703964,21.90251505027063,65.54162564703965,18.847825050270632,66.17715564703965,15.878155050270632C66.74889564703965,13.143766230270632,61.91983564703965,11.949575050270631,61.31619864703965,14.71559505027063C60.71256574703965,17.596295050270633,60.44605664703965,20.50664505027063,60.78090164703965,23.444635050270634C61.04968864703965,25.91813505027063,61.38453464703965,28.88773505027063,63.26149564703965,30.89453505027063C65.64185564703965,33.39763505027063,68.72607564703965,33.19393505027063,71.00616564703965,31.681435050270633C71.34106564703966,32.029435050270635,71.74426564703965,32.34973505027063,72.21346564703965,32.640335050270636C74.62576564703966,34.09553505027063,77.74416564703965,33.65863505027063,79.82376564703965,31.91283505027063C81.93536564703965,30.16693505027063,82.77366564703965,27.40293505027063,83.31116564703964,25.016535050270633C83.98086564703965,22.10615505027063,84.14716564703966,19.168125050270632,83.71206564703965,16.22811505027063C83.71206564703965,16.22811505027063,83.71206564703965,16.22811505027063,83.71206564703965,16.22811505027063Z" fill="#E1E336" fill-opacity="1"/></g></g></g></g><g transform="matrix(0.992992103099823,-0.11818042397499084,0.15747153759002686,0.9875234961509705,-0.9172101640724577,10.591444428282557)"><g transform="matrix(1,8.17219447668549e-9,3.4585290187294504e-9,1,-3.377977009222377e-8,-7.23973432315006e-7)"><g transform="matrix(1,-6.55956666761881e-9,3.4585290187294504e-9,1,-3.377977009222377e-8,5.811109868858466e-7)"><g transform="matrix(1,-6.55956666761881e-9,3.4585290187294504e-9,1,-3.377977009222377e-8,5.811109868858466e-7)"><path d="" fill="#000000" fill-opacity="0"/></g></g></g></g><g transform="matrix(0.992992103099823,-0.11818042397499084,0.15747153759002686,0.9875234961509705,-1.8790273992344737,4.750578332226723)"><g transform="matrix(1,-2.832410972430921e-10,3.6665228630994307e-9,1,-5.007453296457243e-8,1.0977252884458721e-8)"><g transform="matrix(1,-2.832410972430921e-10,3.6665228630994307e-9,1,-5.007453296457243e-8,1.0977252884458721e-8)"><g transform="matrix(1,-2.832410972430921e-10,3.6665228630994307e-9,1,-5.0074540069999784e-8,1.0977252884458721e-8)"><path d="M55.74115933004016,16.98565776793801C52.99175933004017,13.057070767938011,45.818779330040165,12.56278776793801,42.23114933004017,15.734127767938011C38.70958083004017,18.35383776793801,38.20845233004017,24.435527767938012,39.21298833004017,27.84012776793801C39.916849330040165,30.167227767938012,41.693579330040166,32.61302776793801,44.44295933004017,33.36822776793801C47.29255933004016,34.18282776793801,50.44515933004017,33.281227767938006,52.69105933004017,31.68172776793801C54.97125933004017,30.02292776793801,56.37895933004017,27.60682776793801,56.84815933004017,25.07612776793801C57.28325933004017,22.57306776793801,57.317459330040165,19.22575776793801,55.74115933004016,16.98565776793801C55.74115933004016,16.98565776793801,55.74115933004016,16.98565776793801,55.74115933004016,16.98565776793801ZM49.641059330040164,28.30482776793801C49.538559330040165,28.364127767938008,49.47245933004017,28.421427767938013,49.372259330040166,28.50842776793801C48.299369330040165,29.295327767938012,46.588699330040164,29.615627767938008,45.44976933004017,28.85842776793801C44.71173933004017,28.39182776793801,44.37689933004017,27.60682776793801,44.14227933004017,26.84962776793801C43.807429330040165,25.59812776793801,43.73909933004017,24.28922776793801,43.90765933004017,23.01001776793801C44.07393933004017,21.84547776793801,44.41105933004017,20.36063776793801,45.18097933004017,19.39974776793801C45.884839330040165,18.55748776793801,47.05793933004017,18.03353776793801,48.26519933004017,18.00388776793801C50.344859330040165,17.97422776793801,51.68425933004016,19.19610776793801,51.91885933004016,20.88458776793801C52.32205933004017,23.44498776793801,51.88695933004017,26.44232776793801,49.641059330040164,28.30482776793801C49.641059330040164,28.30482776793801,49.641059330040164,28.30482776793801,49.641059330040164,28.30482776793801Z" fill="#E1E336" fill-opacity="1"/></g></g></g></g><g transform="matrix(0.992992103099823,-0.11818042397499084,0.15747153759002686,0.9875234961509705,-2.0397104172443505,4.962284277033177)"><g transform="matrix(1,-2.832410972430921e-10,3.6665228630994307e-9,1,-5.4089269951873575e-8,1.1451902537373826e-8)"><g transform="matrix(1,-2.832410972430921e-10,3.6665228630994307e-9,1,-5.4089269951873575e-8,1.1451902537373826e-8)"><g transform="matrix(1,-2.832410972430921e-10,3.6665228630994307e-9,1,-5.4089269951873575e-8,1.1451902537373826e-8)"><path d="" fill="#000000" fill-opacity="0"/></g></g></g></g><g transform="matrix(0.992992103099823,-0.11818042397499084,0.15747153759002686,0.9875234961509705,0.6720490396546666,17.047935294525814)"><g transform="matrix(1,-2.832410972430921e-10,3.6665228630994307e-9,1,-7.85311726758664e-9,4.079446291882505e-8)"><g transform="matrix(1,-2.832410972430921e-10,3.6665228630994307e-9,1,-7.85311726758664e-9,4.079446291882505e-8)"><g transform="matrix(1,-2.832410972430921e-10,3.6665228630994307e-9,1,-7.85311726758664e-9,4.079446291882505e-8)"><path d="" fill="#000000" fill-opacity="0"/></g></g></g></g><g transform="matrix(0.992992103099823,-0.11818042397499084,0.15747153759002686,0.9875234961509705,-2.449785259203054,2.5094424064154737)"><g transform="matrix(1,-2.832410972430921e-10,3.6665228630994307e-9,1,-6.022192167165485e-8,5.523201451751447e-9)"><g transform="matrix(1,-2.832410972430921e-10,3.6665228630994307e-9,1,-6.022192167165485e-8,5.523201451751447e-9)"><g transform="matrix(1,-2.832410972430921e-10,3.6665228630994307e-9,1,-6.022192167165485e-8,5.523201451751447e-9)"><path d="" fill="#000000" fill-opacity="0"/></g></g></g></g><g transform="matrix(0.992992103099823,-0.11818042397499084,0.15747153759002686,0.9875234961509705,-2.289088553894544,2.297967282749596)"><g transform="matrix(1,8.17219447668549e-9,3.4585290187294504e-9,1,-5.301867744833544e-8,-1.4567894268679993e-7)"><g transform="matrix(1,-6.55956666761881e-9,3.4585290187294504e-9,1,-5.301867744833544e-8,1.169319627791765e-7)"><g transform="matrix(1,-6.55956666761881e-9,3.4585290187294504e-9,1,-5.301867389562176e-8,1.169319627791765e-7)"><path d="M30.517271875092504,16.911583067573844C29.947771875092506,19.384993067573845,29.478571875092506,21.915733067573843,29.077671875092506,24.418803067573844C29.077671875092506,24.418803067573844,24.417141875092504,24.418803067573844,24.417141875092504,24.418803067573844C24.483191875092505,23.778203067573845,24.583421875092505,23.167273067573845,24.651751875092508,22.556333067573846C24.852211875092507,21.217803067573843,24.818041875092504,19.616323067573845,25.355611875092507,18.366763067573842C26.494541875092505,15.747050067573845,21.633591875092506,14.582513067573844,20.494661875092504,17.202223067573843C19.957091875092505,18.511093067573846,19.957091875092505,20.112583067573844,19.790801875092505,21.478793067573843C19.556181875092506,23.020963067573845,19.353451875092507,24.565113067573844,19.153001875092507,26.107233067573844C18.717931875092507,29.308233067573845,18.280582875092506,32.509233067573845,17.845511675092506,35.710233067573846C17.476498875092506,38.474333067573845,22.506011875092504,38.44463306757385,22.875021875092507,35.710233067573846C23.175701875092507,33.381233067573845,23.510551875092506,31.081733067573843,23.813501875092506,28.784333067573844C23.813501875092506,28.784333067573844,28.439871875092507,28.784333067573844,28.439871875092507,28.784333067573844C28.205171875092503,30.587533067573844,28.004771875092505,32.42033306757384,27.836171875092504,34.225433067573846C27.601581875092506,37.01913306757385,32.6310718750925,37.01913306757385,32.8656718750925,34.225433067573846C33.334971875092506,28.784333067573844,34.17317187509251,23.400573067573845,35.38047187509251,18.074143067573843C35.98407187509251,15.310101967573845,31.155071875092506,14.145563067573844,30.517271875092504,16.911583067573844C30.517271875092504,16.911583067573844,30.517271875092504,16.911583067573844,30.517271875092504,16.911583067573844Z" fill="#E1E336" fill-opacity="1"/></g></g></g></g><g transform="matrix(0.992992103099823,-0.11818042397499084,0.15747153759002686,0.9875234961509705,-2.9936328866460826,0.43616117323108483)"><g transform="matrix(1,-2.832410972430921e-10,3.6665228630994307e-9,1,-6.997634072192227e-8,4.746496529151045e-10)"><g transform="matrix(1,-2.832410972430921e-10,3.6665228630994307e-9,1,-6.997634072192227e-8,4.746496529151045e-10)"><g transform="matrix(1,-2.832410972430921e-10,3.6665228630994307e-9,1,-6.997634072192227e-8,4.746496529151045e-10)"><path d="" fill="#000000" fill-opacity="0"/></g></g></g></g><g transform="matrix(0.992992103099823,-0.11818042397499084,0.15747153759002686,0.9875234961509705,-1.8053043719846755,7.541518634534441)"><g transform="matrix(1,-2.832410972430921e-10,3.6665228630994307e-9,1,-5.2201400535523135e-8,1.7648908112732897e-8)"><g transform="matrix(1,-2.832410972430921e-10,3.6665228630994307e-9,1,-5.2201400535523135e-8,1.7648908112732897e-8)"><g transform="matrix(1,-2.832410972430921e-10,3.6665228630994307e-9,1,-5.2201400535523135e-8,1.7648908112732897e-8)"><path d="" fill="#000000" fill-opacity="0"/></g></g></g></g><g transform="matrix(0.992992103099823,-0.11818042397499084,0.15747153759002686,0.9875234961509705,-0.7565655912621878,10.37974152949755)"><g transform="matrix(1,-2.832410972430921e-10,3.6665228630994307e-9,1,-3.179741270287195e-8,2.4617634153401013e-8)"><g transform="matrix(1,-2.832410972430921e-10,3.6665228630994307e-9,1,-3.179741270287195e-8,2.4617634153401013e-8)"><g transform="matrix(1,-2.832410972430921e-10,3.6665228630994307e-9,1,-3.179741270287195e-8,2.4617634153401013e-8)"><path d="M100.5131634070971,9.019125298883148C96.7911634070971,8.609856798883149,93.0691434070971,8.552519298883148,89.3152334070971,8.90247429888315C86.1307804070971,9.163456298883148,86.0966124070971,13.528993298883147,89.3152334070971,13.238353298883148C90.3197634070971,13.151353298883148,91.2924134070971,13.121693298883148,92.2650634070971,13.062383298883148C91.9643834070971,17.340923298883148,91.6955934070971,21.58976329888315,91.39263340709711,25.838663298883148C91.1921834070971,28.66006329888315,96.2217034070971,28.63236329888315,96.4221534070971,25.838663298883148C96.72510340709711,21.619463298883147,96.9916634070971,17.370583298883147,97.2945634070971,13.121693298883148C98.3674634070971,13.179033298883148,99.44036340709711,13.266033298883148,100.5131634070971,13.382683298883148C103.7317634070971,13.762293298883147,103.69766340709711,9.396760298883148,100.5131634070971,9.019125298883148C100.5131634070971,9.019125298883148,100.5131634070971,9.019125298883148,100.5131634070971,9.019125298883148Z" fill="#E1E336" fill-opacity="1"/></g></g></g></g><g transform="matrix(0.992992103099823,-0.11818042397499084,0.15747153759002686,0.9875234961509705,0.7208702141069807,16.84532409327221)"><g transform="matrix(1,-2.832410972430921e-10,3.6665228630994307e-9,1,-6.443258371291449e-9,4.03203659349316e-8)"><g transform="matrix(1,-2.832410972430921e-10,3.6665228630994307e-9,1,-6.443258371291449e-9,4.03203659349316e-8)"><g transform="matrix(1,-2.832410972430921e-10,3.6665228630994307e-9,1,-6.443258371291449e-9,4.03203659349316e-8)"><path d="M154.67731566565485,16.975124232031995C152.36301566565484,16.917824232031993,150.04871566565484,16.975124232031995,147.77085566565484,17.178824232031992C147.93713566565484,16.073524232031993,148.13758566565485,14.968324232031993,148.30614566565484,13.833424232031993C149.44507566565483,13.833424232031993,150.58628566565483,13.890824232031992,151.72521566565484,13.977824232031992C153.10101566565484,14.094424232031992,154.24001566565485,12.902224232031992,154.24001566565485,11.797024232031992C154.24001566565485,10.515814232031993,153.10101566565484,9.730884232031993,151.72521566565484,9.614234232031993C150.85507566565485,9.554924232031993,149.98265566565485,9.497584232031993,149.07834566565484,9.497584232031993C149.27879566565483,8.362704232031993,149.51341566565483,7.227824232031993,149.71386566565485,6.120624232031992C151.42453566565484,6.120624232031992,153.10101566565484,6.150284232031993,154.80941566565485,6.266934232031993C158.02801566565483,6.440924232031993,158.02801566565483,2.0773642320319925,154.80941566565485,1.9013982320319924C152.39721566565484,1.7570666500319925,149.94848566565483,1.7274100320319925,147.53623566565483,1.7847470320319925C146.59547566565485,1.8144038320319924,145.92578566565484,2.2216962320319924,145.52260566565485,2.7456392320319924C145.35632566565485,2.978944232031992,145.22192566565485,3.2695842320319923,145.15586566565483,3.6195342320319925C144.04882566565485,8.943984232031992,143.14224166565484,14.298124232031993,142.37232506565485,19.681824232031992C142.13770566565483,21.224024232031994,144.14905566565483,21.98122423203199,145.55677566565484,21.77762423203199C148.57493566565483,21.37032423203199,151.62499566565484,21.253724232031992,154.67731566565485,21.340724232031995C157.89361566565483,21.457324232031993,157.89361566565483,17.091824232031993,154.67731566565485,16.975124232031995C154.67731566565485,16.975124232031995,154.67731566565485,16.975124232031995,154.67731566565485,16.975124232031995Z" fill="#E1E336" fill-opacity="1"/></g></g></g></g><g transform="matrix(0.992992103099823,-0.11818042397499084,0.15747153759002686,0.9875234961509705,-2.832949868636206,0.22445522842463106)"><g><g><g><path d="M10.814299367841326,26.776814483971798C9.944139367841327,26.280554483971798,7.930509367841326,25.8159244839718,7.529609367841326,24.884694483971796C6.925979367841326,23.459174483971797,9.171949367841327,22.440944483971798,10.310899367841326,22.0039944839718C13.228799367841326,20.809794483971796,10.679899367841326,17.027524483971796,7.764229367841327,18.2197414839718C3.272289367841326,20.054534483971796,0.15389936784132616,25.262324483971796,4.645839367841326,28.609634483971796C6.2221193678413265,29.831534483971797,9.340509367841326,30.298134483971797,9.675349367841326,32.4215344839718C9.809749367841325,33.3528344839718,9.306339367841327,34.1673344839718,8.367859367841326,34.517334483971794C7.730059367841326,34.7783344839718,5.383869367841326,35.09863448397179,4.846289367841326,34.4580344839718C2.9032793678413262,32.2475344839718,-1.4565506321586739,34.4006344839718,0.48874536784132616,36.6408344839718C4.445389367841326,41.1803344839718,13.898499367841326,39.2901344839718,14.636499367841326,33.439834483971794C14.971399367841325,30.792434483971796,13.363199367841327,28.259634483971794,10.814299367841326,26.776814483971798C10.814299367841326,26.776814483971798,10.814299367841326,26.776814483971798,10.814299367841326,26.776814483971798Z" fill="#E1E336" fill-opacity="1"/></g></g></g></g></g></svg>