<svg xmlns="http://www.w3.org/2000/svg" xmlns:xlink="http://www.w3.org/1999/xlink" fill="none" version="1.1" width="78" height="62.796875" viewBox="0 0 78 62.796875"><defs><mask id="master_svg0_0_136" style="mask-type:alpha" maskUnits="userSpaceOnUse"><g><g><path d="M0,0C0,0,78,0,78,0C78,0,78,62.7969,78,62.7969C78,62.7969,0,62.7969,0,62.7969C0,62.7969,0,0,0,0C0,0,0,0,0,0Z" fill="#000000" fill-opacity="1"/></g></g></mask></defs><g mask="url(#master_svg0_0_136)"><g><g><path d="M14.452498046875,25.6943C14.452498046875,25.6943,14.452498046875,28.5461,14.452498046875,28.5461C14.452498046875,28.5461,8.682318046875,28.5461,8.682318046875,28.5461C8.682318046875,28.5461,8.682318046875,25.6943,8.682318046875,25.6943C8.682318046875,25.6943,14.452498046875,25.6943,14.452498046875,25.6943C14.452498046875,25.6943,14.452498046875,25.6943,14.452498046875,25.6943ZM5.780678046875,31.3978C5.780678046875,31.3978,8.666418046875,31.3978,8.666418046875,31.3978C8.666418046875,31.3978,8.666418046875,28.5461,8.666418046875,28.5461C8.666418046875,28.5461,5.780678046875,28.5461,5.780678046875,28.5461C5.780678046875,28.5461,5.780678046875,31.3978,5.780678046875,31.3978C5.780678046875,31.3978,5.780678046875,31.3978,5.780678046875,31.3978ZM17.336898046875,31.3978C17.336898046875,31.3978,17.336898046875,28.5461,17.336898046875,28.5461C17.336898046875,28.5461,14.452498046875,28.5461,14.452498046875,28.5461C14.452498046875,28.5461,14.452498046875,31.3978,14.452498046875,31.3978C14.452498046875,31.3978,17.336898046875,31.3978,17.336898046875,31.3978C17.336898046875,31.3978,17.336898046875,31.3978,17.336898046875,31.3978ZM31.777598046875,25.6943C31.777598046875,25.6943,28.893198046875,25.6943,28.893198046875,25.6943C28.893198046875,25.6943,28.893198046875,28.5461,28.893198046875,28.5461C28.893198046875,28.5461,34.663298046875,28.5461,34.663298046875,28.5461C34.663298046875,28.5461,34.663298046875,25.6943,34.663298046875,25.6943C34.663298046875,25.6943,31.777598046875,25.6943,31.777598046875,25.6943C31.777598046875,25.6943,31.777598046875,25.6943,31.777598046875,25.6943ZM26.007398046875,31.3978C26.007398046875,31.3978,28.893198046875,31.3978,28.893198046875,31.3978C28.893198046875,31.3978,28.893198046875,28.5461,28.893198046875,28.5461C28.893198046875,28.5461,26.007398046875,28.5461,26.007398046875,28.5461C26.007398046875,28.5461,26.007398046875,31.3978,26.007398046875,31.3978C26.007398046875,31.3978,26.007398046875,31.3978,26.007398046875,31.3978ZM37.547798046875,31.3978C37.547798046875,31.3978,37.547798046875,28.5461,37.547798046875,28.5461C37.547798046875,28.5461,34.663298046875,28.5461,34.663298046875,28.5461C34.663298046875,28.5461,34.663298046875,31.3978,34.663298046875,31.3978C34.663298046875,31.3978,37.547798046875,31.3978,37.547798046875,31.3978C37.547798046875,31.3978,37.547798046875,31.3978,37.547798046875,31.3978ZM14.452498046875,42.8204C14.452498046875,42.8204,17.336898046875,42.8204,17.336898046875,42.8204C17.336898046875,42.8204,17.336898046875,39.9687,17.336898046875,39.9687C17.336898046875,39.9687,11.566698046875,39.9687,11.566698046875,39.9687C11.566698046875,39.9687,11.566698046875,45.6721,11.566698046875,45.6721C11.566698046875,45.6721,14.452498046875,45.6721,14.452498046875,45.6721C14.452498046875,45.6721,14.452498046875,42.8204,14.452498046875,42.8204C14.452498046875,42.8204,14.452498046875,42.8204,14.452498046875,42.8204ZM20.222698046875,45.6721C20.222698046875,45.6721,25.914698046875,45.6721,25.914698046875,45.6721C25.914698046875,45.6721,25.914698046875,42.8204,25.914698046875,42.8204C25.914698046875,42.8204,17.336898046875,42.8204,17.336898046875,42.8204C17.336898046875,42.8204,17.336898046875,45.6721,17.336898046875,45.6721C17.336898046875,45.6721,20.222698046875,45.6721,20.222698046875,45.6721C20.222698046875,45.6721,20.222698046875,45.6721,20.222698046875,45.6721ZM14.452498046875,45.6721C14.452498046875,45.6721,14.452498046875,48.5238,14.452498046875,48.5238C14.452498046875,48.5238,17.336898046875,48.5238,17.336898046875,48.5238C17.336898046875,48.5238,17.336898046875,45.6721,17.336898046875,45.6721C17.336898046875,45.6721,14.452498046875,45.6721,14.452498046875,45.6721C14.452498046875,45.6721,14.452498046875,45.6721,14.452498046875,45.6721ZM28.814998046875,45.6721C28.814998046875,45.6721,31.700798046875,45.6721,31.700798046875,45.6721C31.700798046875,45.6721,31.700798046875,39.9687,31.700798046875,39.9687C31.700798046875,39.9687,25.914698046875,39.9687,25.914698046875,39.9687C25.914698046875,39.9687,25.914698046875,42.8204,25.914698046875,42.8204C25.914698046875,42.8204,28.814998046875,42.8204,28.814998046875,42.8204C28.814998046875,42.8204,28.814998046875,45.6721,28.814998046875,45.6721C28.814998046875,45.6721,28.814998046875,45.6721,28.814998046875,45.6721ZM28.799098046875,48.5238C28.799098046875,48.5238,28.799098046875,45.6721,28.799098046875,45.6721C28.799098046875,45.6721,25.914698046875,45.6721,25.914698046875,45.6721C25.914698046875,45.6721,25.914698046875,48.5238,25.914698046875,48.5238C25.914698046875,48.5238,28.799098046875,48.5238,28.799098046875,48.5238C28.799098046875,48.5238,28.799098046875,48.5238,28.799098046875,48.5238ZM23.028998046875,48.5238C23.028998046875,48.5238,17.336898046875,48.5238,17.336898046875,48.5238C17.336898046875,48.5238,17.336898046875,51.3756,17.336898046875,51.3756C17.336898046875,51.3756,25.914698046875,51.3756,25.914698046875,51.3756C25.914698046875,51.3756,25.914698046875,48.5238,25.914698046875,48.5238C25.914698046875,48.5238,23.028998046875,48.5238,23.028998046875,48.5238C23.028998046875,48.5238,23.028998046875,48.5238,23.028998046875,48.5238ZM37.547798046875,14.273C37.547798046875,14.273,37.547798046875,5.70214,37.547798046875,5.70214C37.547798046875,5.70214,34.663298046875,5.70214,34.663298046875,5.70214C34.663298046875,5.70214,34.663298046875,11.4213,34.663298046875,11.4213C34.663298046875,11.4213,8.682318046875,11.4213,8.682318046875,11.4213C8.682318046875,11.4213,8.682318046875,14.273,8.682318046875,14.273C8.682318046875,14.273,34.663298046875,14.273,34.663298046875,14.273C34.663298046875,14.273,34.663298046875,17.1248,34.663298046875,17.1248C34.663298046875,17.1248,40.449398046875,17.1248,40.449398046875,17.1248C40.449398046875,17.1248,40.449398046875,14.273,40.449398046875,14.273C40.449398046875,14.273,37.547798046875,14.273,37.547798046875,14.273C37.547798046875,14.273,37.547798046875,14.273,37.547798046875,14.273ZM2.896248046875,14.273C2.896248046875,14.273,2.896248046875,17.1248,2.896248046875,17.1248C2.896248046875,17.1248,8.682318046875,17.1248,8.682318046875,17.1248C8.682318046875,17.1248,8.682318046875,14.273,8.682318046875,14.273C8.682318046875,14.273,2.896248046875,14.273,2.896248046875,14.273C2.896248046875,14.273,2.896248046875,14.273,2.896248046875,14.273ZM0.010498046875,19.9765C0.010498046875,19.9765,0.010498046875,37.1012,0.010498046875,37.1012C0.010498046875,37.1012,2.896248046875,37.1012,2.896248046875,37.1012C2.896248046875,37.1012,2.896248046875,17.1248,2.896248046875,17.1248C2.896248046875,17.1248,0.010498046875,17.1248,0.010498046875,17.1248C0.010498046875,17.1248,0.010498046875,19.9765,0.010498046875,19.9765C0.010498046875,19.9765,0.010498046875,19.9765,0.010498046875,19.9765ZM2.896248046875,42.8204C2.896248046875,42.8204,2.896248046875,45.6721,2.896248046875,45.6721C2.896248046875,45.6721,5.780678046875,45.6721,5.780678046875,45.6721C5.780678046875,45.6721,5.780678046875,37.1012,5.780678046875,37.1012C5.780678046875,37.1012,2.896248046875,37.1012,2.896248046875,37.1012C2.896248046875,37.1012,2.896248046875,42.8204,2.896248046875,42.8204C2.896248046875,42.8204,2.896248046875,42.8204,2.896248046875,42.8204ZM5.780678046875,51.3756C5.780678046875,51.3756,8.682318046875,51.3756,8.682318046875,51.3756C8.682318046875,51.3756,8.682318046875,45.6721,8.682318046875,45.6721C8.682318046875,45.6721,5.780678046875,45.6721,5.780678046875,45.6721C5.780678046875,45.6721,5.780678046875,51.3756,5.780678046875,51.3756C5.780678046875,51.3756,5.780678046875,51.3756,5.780678046875,51.3756ZM11.566698046875,54.2273C11.566698046875,54.2273,11.566698046875,51.3756,11.566698046875,51.3756C11.566698046875,51.3756,8.682318046875,51.3756,8.682318046875,51.3756C8.682318046875,51.3756,8.682318046875,54.2273,8.682318046875,54.2273C8.682318046875,54.2273,11.566698046875,54.2273,11.566698046875,54.2273C11.566698046875,54.2273,11.566698046875,54.2273,11.566698046875,54.2273ZM11.566698046875,54.2417C11.566698046875,54.2417,11.566698046875,57.0934,11.566698046875,57.0934C11.566698046875,57.0934,14.452498046875,57.0934,14.452498046875,57.0934C14.452498046875,57.0934,14.452498046875,54.2417,14.452498046875,54.2417C14.452498046875,54.2417,11.566698046875,54.2417,11.566698046875,54.2417C11.566698046875,54.2417,11.566698046875,54.2417,11.566698046875,54.2417ZM14.452498046875,57.0934C14.452498046875,57.0934,14.452498046875,59.9452,14.452498046875,59.9452C14.452498046875,59.9452,17.336898046875,59.9452,17.336898046875,59.9452C17.336898046875,59.9452,17.336898046875,57.0934,17.336898046875,57.0934C17.336898046875,57.0934,14.452498046875,57.0934,14.452498046875,57.0934C14.452498046875,57.0934,14.452498046875,57.0934,14.452498046875,57.0934ZM20.222698046875,59.9452C20.222698046875,59.9452,17.336898046875,59.9452,17.336898046875,59.9452C17.336898046875,59.9452,17.336898046875,62.7969,17.336898046875,62.7969C17.336898046875,62.7969,26.007398046875,62.7969,26.007398046875,62.7969C26.007398046875,62.7969,26.007398046875,59.9452,26.007398046875,59.9452C26.007398046875,59.9452,20.222698046875,59.9452,20.222698046875,59.9452C20.222698046875,59.9452,20.222698046875,59.9452,20.222698046875,59.9452ZM43.333798046875,34.2495C43.333798046875,34.2495,43.333798046875,22.8282,43.333798046875,22.8282C43.333798046875,22.8282,49.103998046875,22.8282,49.103998046875,22.8282C49.103998046875,22.8282,49.103998046875,19.9765,49.103998046875,19.9765C49.103998046875,19.9765,43.333798046875,19.9765,43.333798046875,19.9765C43.333798046875,19.9765,43.333798046875,17.1248,43.333798046875,17.1248C43.333798046875,17.1248,40.449398046875,17.1248,40.449398046875,17.1248C40.449398046875,17.1248,40.449398046875,37.1012,40.449398046875,37.1012C40.449398046875,37.1012,37.547798046875,37.1012,37.547798046875,37.1012C37.547798046875,37.1012,37.547798046875,45.6721,37.547798046875,45.6721C37.547798046875,45.6721,40.449398046875,45.6721,40.449398046875,45.6721C40.449398046875,45.6721,40.449398046875,39.9687,40.449398046875,39.9687C40.449398046875,39.9687,43.333798046875,39.9687,43.333798046875,39.9687C43.333798046875,39.9687,43.333798046875,34.2495,43.333798046875,34.2495C43.333798046875,34.2495,43.333798046875,34.2495,43.333798046875,34.2495ZM34.663298046875,48.5238C34.663298046875,48.5238,34.663298046875,51.3756,34.663298046875,51.3756C34.663298046875,51.3756,37.547798046875,51.3756,37.547798046875,51.3756C37.547798046875,51.3756,37.547798046875,45.6721,37.547798046875,45.6721C37.547798046875,45.6721,34.663298046875,45.6721,34.663298046875,45.6721C34.663298046875,45.6721,34.663298046875,48.5238,34.663298046875,48.5238C34.663298046875,48.5238,34.663298046875,48.5238,34.663298046875,48.5238ZM31.777598046875,54.2273C31.777598046875,54.2273,34.663298046875,54.2273,34.663298046875,54.2273C34.663298046875,54.2273,34.663298046875,51.3756,34.663298046875,51.3756C34.663298046875,51.3756,31.777598046875,51.3756,31.777598046875,51.3756C31.777598046875,51.3756,31.777598046875,54.2273,31.777598046875,54.2273C31.777598046875,54.2273,31.777598046875,54.2273,31.777598046875,54.2273ZM28.893198046875,57.0934C28.893198046875,57.0934,31.777598046875,57.0934,31.777598046875,57.0934C31.777598046875,57.0934,31.777598046875,54.2417,31.777598046875,54.2417C31.777598046875,54.2417,28.893198046875,54.2417,28.893198046875,54.2417C28.893198046875,54.2417,28.893198046875,57.0934,28.893198046875,57.0934C28.893198046875,57.0934,28.893198046875,57.0934,28.893198046875,57.0934ZM26.007398046875,59.9452C26.007398046875,59.9452,28.893198046875,59.9452,28.893198046875,59.9452C28.893198046875,59.9452,28.893198046875,57.0934,28.893198046875,57.0934C28.893198046875,57.0934,26.007398046875,57.0934,26.007398046875,57.0934C26.007398046875,57.0934,26.007398046875,59.9452,26.007398046875,59.9452C26.007398046875,59.9452,26.007398046875,59.9452,26.007398046875,59.9452ZM63.545998046875,19.9765C63.545998046875,19.9765,63.545998046875,22.8282,63.545998046875,22.8282C63.545998046875,22.8282,69.316198046875,22.8282,69.316198046875,22.8282C69.316198046875,22.8282,69.316198046875,19.9765,69.316198046875,19.9765C69.316198046875,19.9765,63.545998046875,19.9765,63.545998046875,19.9765C63.545998046875,19.9765,63.545998046875,19.9765,63.545998046875,19.9765ZM69.316198046875,19.9765C69.316198046875,19.9765,72.200598046875,19.9765,72.200598046875,19.9765C72.200598046875,19.9765,72.200598046875,17.1248,72.200598046875,17.1248C72.200598046875,17.1248,69.316198046875,17.1248,69.316198046875,17.1248C69.316198046875,17.1248,69.316198046875,19.9765,69.316198046875,19.9765C69.316198046875,19.9765,69.316198046875,19.9765,69.316198046875,19.9765ZM60.660198046875,17.1248C60.660198046875,17.1248,60.660198046875,19.9765,60.660198046875,19.9765C60.660198046875,19.9765,63.545998046875,19.9765,63.545998046875,19.9765C63.545998046875,19.9765,63.545998046875,17.1248,63.545998046875,17.1248C63.545998046875,17.1248,60.660198046875,17.1248,60.660198046875,17.1248C60.660198046875,17.1248,60.660198046875,17.1248,60.660198046875,17.1248ZM51.989798046875,17.1248C51.989798046875,17.1248,49.103998046875,17.1248,49.103998046875,17.1248C49.103998046875,17.1248,49.103998046875,19.9765,49.103998046875,19.9765C49.103998046875,19.9765,51.989798046875,19.9765,51.989798046875,19.9765C51.989798046875,19.9765,51.989798046875,17.1248,51.989798046875,17.1248C51.989798046875,17.1248,51.989798046875,17.1248,51.989798046875,17.1248ZM60.535798046875,37.1012C60.535798046875,37.1012,60.535798046875,39.9687,60.535798046875,39.9687C60.535798046875,39.9687,66.305898046875,39.9687,66.305898046875,39.9687C66.305898046875,39.9687,66.305898046875,34.2495,66.305898046875,34.2495C66.305898046875,34.2495,63.420198046875,34.2495,63.420198046875,34.2495C63.420198046875,34.2495,63.420198046875,37.1012,63.420198046875,37.1012C63.420198046875,37.1012,60.535798046875,37.1012,60.535798046875,37.1012C60.535798046875,37.1012,60.535798046875,37.1012,60.535798046875,37.1012ZM54.843698046875,37.1012C54.843698046875,37.1012,60.535798046875,37.1012,60.535798046875,37.1012C60.535798046875,37.1012,60.535798046875,34.2495,60.535798046875,34.2495C60.535798046875,34.2495,51.957998046875,34.2495,51.957998046875,34.2495C51.957998046875,34.2495,51.957998046875,37.1012,51.957998046875,37.1012C51.957998046875,37.1012,54.843698046875,37.1012,54.843698046875,37.1012C54.843698046875,37.1012,54.843698046875,37.1012,54.843698046875,37.1012ZM63.420198046875,31.3978C63.420198046875,31.3978,60.535798046875,31.3978,60.535798046875,31.3978C60.535798046875,31.3978,60.535798046875,34.2495,60.535798046875,34.2495C60.535798046875,34.2495,63.420198046875,34.2495,63.420198046875,34.2495C63.420198046875,34.2495,63.420198046875,31.3978,63.420198046875,31.3978C63.420198046875,31.3978,63.420198046875,31.3978,63.420198046875,31.3978ZM49.057698046875,39.9687C49.057698046875,39.9687,51.957998046875,39.9687,51.957998046875,39.9687C51.957998046875,39.9687,51.957998046875,37.1012,51.957998046875,37.1012C51.957998046875,37.1012,49.057698046875,37.1012,49.057698046875,37.1012C49.057698046875,37.1012,49.057698046875,34.2495,49.057698046875,34.2495C49.057698046875,34.2495,46.171898046875,34.2495,46.171898046875,34.2495C46.171898046875,34.2495,46.171898046875,39.9687,46.171898046875,39.9687C46.171898046875,39.9687,43.333798046875,39.9687,43.333798046875,39.9687C43.333798046875,39.9687,43.333798046875,42.8204,43.333798046875,42.8204C43.333798046875,42.8204,46.219598046875,42.8204,46.219598046875,42.8204C46.219598046875,42.8204,46.219598046875,39.9687,46.219598046875,39.9687C46.219598046875,39.9687,49.057698046875,39.9687,49.057698046875,39.9687C49.057698046875,39.9687,49.057698046875,39.9687,49.057698046875,39.9687ZM51.942098046875,31.3978C51.942098046875,31.3978,49.057698046875,31.3978,49.057698046875,31.3978C49.057698046875,31.3978,49.057698046875,34.2495,49.057698046875,34.2495C49.057698046875,34.2495,51.942098046875,34.2495,51.942098046875,34.2495C51.942098046875,34.2495,51.942098046875,31.3978,51.942098046875,31.3978C51.942098046875,31.3978,51.942098046875,31.3978,51.942098046875,31.3978ZM57.649998046875,28.5461C57.649998046875,28.5461,51.957998046875,28.5461,51.957998046875,28.5461C51.957998046875,28.5461,51.957998046875,31.3978,51.957998046875,31.3978C51.957998046875,31.3978,60.535798046875,31.3978,60.535798046875,31.3978C60.535798046875,31.3978,60.535798046875,28.5461,60.535798046875,28.5461C60.535798046875,28.5461,57.649998046875,28.5461,57.649998046875,28.5461C57.649998046875,28.5461,57.649998046875,28.5461,57.649998046875,28.5461ZM49.103998046875,2.85042C49.103998046875,2.85042,69.316198046875,2.85042,69.316198046875,2.85042C69.316198046875,2.85042,69.316198046875,0,69.316198046875,0C69.316198046875,0,43.333798046875,0,43.333798046875,0C43.333798046875,0,43.333798046875,2.85042,43.333798046875,2.85042C43.333798046875,2.85042,49.103998046875,2.85042,49.103998046875,2.85042C49.103998046875,2.85042,49.103998046875,2.85042,49.103998046875,2.85042ZM43.333798046875,5.70214C43.333798046875,5.70214,43.333798046875,2.85042,43.333798046875,2.85042C43.333798046875,2.85042,37.547798046875,2.85042,37.547798046875,2.85042C37.547798046875,2.85042,37.547798046875,5.70214,37.547798046875,5.70214C37.547798046875,5.70214,43.333798046875,5.70214,43.333798046875,5.70214C43.333798046875,5.70214,43.333798046875,5.70214,43.333798046875,5.70214ZM46.219598046875,42.8204C46.219598046875,42.8204,46.219598046875,45.6721,46.219598046875,45.6721C46.219598046875,45.6721,49.103998046875,45.6721,49.103998046875,45.6721C49.103998046875,45.6721,49.103998046875,42.8204,49.103998046875,42.8204C49.103998046875,42.8204,46.219598046875,42.8204,46.219598046875,42.8204C46.219598046875,42.8204,46.219598046875,42.8204,46.219598046875,42.8204ZM49.103998046875,45.6721C49.103998046875,45.6721,49.103998046875,48.5238,49.103998046875,48.5238C49.103998046875,48.5238,51.989798046875,48.5238,51.989798046875,48.5238C51.989798046875,48.5238,51.989798046875,45.6721,51.989798046875,45.6721C51.989798046875,45.6721,49.103998046875,45.6721,49.103998046875,45.6721C49.103998046875,45.6721,49.103998046875,45.6721,49.103998046875,45.6721ZM54.890098046875,48.5238C54.890098046875,48.5238,51.989798046875,48.5238,51.989798046875,48.5238C51.989798046875,48.5238,51.989798046875,51.3756,51.989798046875,51.3756C51.989798046875,51.3756,60.660198046875,51.3756,60.660198046875,51.3756C60.660198046875,51.3756,60.660198046875,48.5238,60.660198046875,48.5238C60.660198046875,48.5238,54.890098046875,48.5238,54.890098046875,48.5238C54.890098046875,48.5238,54.890098046875,48.5238,54.890098046875,48.5238ZM72.216498046875,5.70214C72.216498046875,5.70214,75.100898046875,5.70214,75.100898046875,5.70214C75.100898046875,5.70214,75.100898046875,2.85042,75.100898046875,2.85042C75.100898046875,2.85042,69.316198046875,2.85042,69.316198046875,2.85042C69.316198046875,2.85042,69.316198046875,5.70214,69.316198046875,5.70214C69.316198046875,5.70214,72.216498046875,5.70214,72.216498046875,5.70214C72.216498046875,5.70214,72.216498046875,5.70214,72.216498046875,5.70214ZM75.100898046875,5.70214C75.100898046875,5.70214,75.100898046875,25.6943,75.100898046875,25.6943C75.100898046875,25.6943,77.986698046875,25.6943,77.986698046875,25.6943C77.986698046875,25.6943,77.986698046875,5.70214,77.986698046875,5.70214C77.986698046875,5.70214,75.100898046875,5.70214,75.100898046875,5.70214C75.100898046875,5.70214,75.100898046875,5.70214,75.100898046875,5.70214ZM72.216498046875,28.5461C72.216498046875,28.5461,72.216498046875,34.2495,72.216498046875,34.2495C72.216498046875,34.2495,75.100898046875,34.2495,75.100898046875,34.2495C75.100898046875,34.2495,75.100898046875,25.6943,75.100898046875,25.6943C75.100898046875,25.6943,72.216498046875,25.6943,72.216498046875,25.6943C72.216498046875,25.6943,72.216498046875,28.5461,72.216498046875,28.5461C72.216498046875,28.5461,72.216498046875,28.5461,72.216498046875,28.5461ZM69.316198046875,37.1012C69.316198046875,37.1012,69.316198046875,39.9687,69.316198046875,39.9687C69.316198046875,39.9687,72.216498046875,39.9687,72.216498046875,39.9687C72.216498046875,39.9687,72.216498046875,34.2495,72.216498046875,34.2495C72.216498046875,34.2495,69.316198046875,34.2495,69.316198046875,34.2495C69.316198046875,34.2495,69.316198046875,37.1012,69.316198046875,37.1012C69.316198046875,37.1012,69.316198046875,37.1012,69.316198046875,37.1012ZM66.430398046875,42.8204C66.430398046875,42.8204,69.316198046875,42.8204,69.316198046875,42.8204C69.316198046875,42.8204,69.316198046875,39.9687,69.316198046875,39.9687C69.316198046875,39.9687,66.430398046875,39.9687,66.430398046875,39.9687C66.430398046875,39.9687,66.430398046875,42.8204,66.430398046875,42.8204C66.430398046875,42.8204,66.430398046875,42.8204,66.430398046875,42.8204ZM63.545998046875,45.6721C63.545998046875,45.6721,66.430398046875,45.6721,66.430398046875,45.6721C66.430398046875,45.6721,66.430398046875,42.8204,66.430398046875,42.8204C66.430398046875,42.8204,63.545998046875,42.8204,63.545998046875,42.8204C63.545998046875,42.8204,63.545998046875,45.6721,63.545998046875,45.6721C63.545998046875,45.6721,63.545998046875,45.6721,63.545998046875,45.6721ZM60.660198046875,48.5238C60.660198046875,48.5238,63.545998046875,48.5238,63.545998046875,48.5238C63.545998046875,48.5238,63.545998046875,45.6721,63.545998046875,45.6721C63.545998046875,45.6721,60.660198046875,45.6721,60.660198046875,45.6721C60.660198046875,45.6721,60.660198046875,48.5238,60.660198046875,48.5238C60.660198046875,48.5238,60.660198046875,48.5238,60.660198046875,48.5238Z" fill="#3E3467" fill-opacity="1"/></g></g></g></svg>