<svg xmlns="http://www.w3.org/2000/svg" xmlns:xlink="http://www.w3.org/1999/xlink" fill="none" version="1.1" width="70" height="62" viewBox="0 0 70 62"><defs><mask id="master_svg0_0_2462" style="mask-type:alpha" maskUnits="userSpaceOnUse"><g><g><path d="M3,1C3,1,70,1,70,1C70,1,70,62,70,62C70,62,3,62,3,62C3,62,3,1,3,1C3,1,3,1,3,1Z" fill="#000000" fill-opacity="1"/></g></g></mask></defs><g><g><g mask="url(#master_svg0_0_2462)"></g><g><path d="M0,30.5C0,13.6562,13.655,0,30.5,0C47.345,0,61,13.6562,61,30.5C61,47.345,47.345,61,30.5,61C13.655,61,0,47.345,0,30.5C0,30.5,0,30.5,0,30.5Z" fill="#DDE53D" fill-opacity="1"/></g><g><path d="M47.4004,11C47.4004,11,13.59962,11,13.59962,11C12.16527,11,11,12.19512,11,13.66736C11,13.66736,11,48.3326,11,48.3326C11,49.8049,12.16527,51,13.59962,51C13.59962,51,47.4004,51,47.4004,51C48.8359,51,50,49.8049,50,48.3326C50,48.3326,50,13.66736,50,13.66736C50,12.19512,48.8359,11,47.4004,11C47.4004,11,47.4004,11,47.4004,11Z" fill="#F6E4EB" fill-opacity="0.8500000238418579"/></g><g><path d="M11.12354,17.88966C11.12354,17.88966,49.8776,17.88966,49.8776,17.88966C49.8776,17.88966,49.8776,13.18525,49.8776,13.18525C49.8776,12.04074,48.936,11.11034,47.7802,11.11034C47.7802,11.11034,13.21982,11.11034,13.21982,11.11034C12.06404,11.11034,11.12354,12.04074,11.12354,13.18525C11.12354,13.18525,11.12354,17.88966,11.12354,17.88966C11.12354,17.88966,11.12354,17.88966,11.12354,17.88966ZM50.4382,19C50.4382,19,10.56177,19,10.56177,19C10.252106,19,10,18.751739999999998,10,18.44426C10,18.44426,10,13.18525,10,13.18525C10,11.42807,11.44472,10,13.21982,10C13.21982,10,47.7802,10,47.7802,10C49.5553,10,51,11.42807,51,13.18525C51,13.18525,51,18.44426,51,18.44426C51,18.751739999999998,50.749,19,50.4382,19C50.4382,19,50.4382,19,50.4382,19Z" fill="#030036" fill-opacity="1"/></g><g><path d="M11.12354,20.0876C11.12354,20.0876,11.12354,47.879999999999995,11.12354,47.879999999999995C11.12354,49.001000000000005,12.06404,49.912400000000005,13.21982,49.912400000000005C13.21982,49.912400000000005,47.7802,49.912400000000005,47.7802,49.912400000000005C48.936,49.912400000000005,49.8776,49.001000000000005,49.8776,47.879999999999995C49.8776,47.879999999999995,49.8776,20.0876,49.8776,20.0876C49.8776,20.0876,11.12354,20.0876,11.12354,20.0876C11.12354,20.0876,11.12354,20.0876,11.12354,20.0876ZM47.7802,51C47.7802,51,13.21982,51,13.21982,51C11.44472,51,10,49.6012,10,47.879999999999995C10,47.879999999999995,10,19.543243,10,19.543243C10,19.243176,10.252106,19,10.56177,19C10.56177,19,50.4382,19,50.4382,19C50.749,19,51,19.243176,51,19.543243C51,19.543243,51,47.879999999999995,51,47.879999999999995C51,49.6012,49.5553,51,47.7802,51C47.7802,51,47.7802,51,47.7802,51Z" fill="#030036" fill-opacity="1"/></g><g><path d="M15.4871,16C15.4871,16,14.513955,16,14.513955,16C14.230648,16,14,15.77641,14,15.499487C14,15.22359,14.230648,15,14.513955,15C14.513955,15,15.4871,15,15.4871,15C15.77041,15,16,15.22359,16,15.499487C16,15.77641,15.77041,16,15.4871,16C15.4871,16,15.4871,16,15.4871,16Z" fill="#4A3229" fill-opacity="1"/></g><g><path d="M20.23065,16C20.23065,16,18.770932,16,18.770932,16C18.345971,16,18,15.77641,18,15.499487C18,15.22359,18.345971,15,18.770932,15C18.770932,15,20.23065,15,20.23065,15C20.65561,15,21,15.22359,21,15.499487C21,15.77641,20.65561,16,20.23065,16C20.23065,16,20.23065,16,20.23065,16Z" fill="#4A3229" fill-opacity="1"/></g><g><path d="M24.23065,16C24.23065,16,22.770932,16,22.770932,16C22.345971,16,22,15.77641,22,15.499487C22,15.22359,22.345971,15,22.770932,15C22.770932,15,24.23065,15,24.23065,15C24.65561,15,25,15.22359,25,15.499487C25,15.77641,24.65561,16,24.23065,16C24.23065,16,24.23065,16,24.23065,16Z" fill="#4A3229" fill-opacity="1"/></g><g><path d="M25.743023,45C25.743023,45,25.256451,45,25.256451,45C25.114797,45,25,44.77641,25,44.500513C25,44.22359,25.114797,44,25.256451,44C25.256451,44,25.743023,44,25.743023,44C25.885203,44,26,44.22359,26,44.500513C26,44.77641,25.885203,45,25.743023,45C25.743023,45,25.743023,45,25.743023,45Z" fill="#4A3229" fill-opacity="1"/></g><g><path d="M29.48605,45C29.48605,45,28.513955,45,28.513955,45C28.229594,45,28,44.77641,28,44.500513C28,44.22359,28.229594,44,28.513955,44C28.513955,44,29.48605,44,29.48605,44C29.77041,44,30,44.22359,30,44.500513C30,44.77641,29.77041,45,29.48605,45C29.48605,45,29.48605,45,29.48605,45Z" fill="#4A3229" fill-opacity="1"/></g><g><path d="M33.23065,45C33.23065,45,31.770932,45,31.770932,45C31.344392,45,31,44.77641,31,44.500513C31,44.22359,31.344392,44,31.770932,44C31.770932,44,33.23065,44,33.23065,44C33.65561,44,34,44.22359,34,44.500513C34,44.77641,33.65561,45,33.23065,45C33.23065,45,33.23065,45,33.23065,45Z" fill="#4A3229" fill-opacity="1"/></g><g><path d="M23.88316,43.0439C23.46137,43.0439,23.11866,43.36403,23.11866,43.75803C23.11866,43.75803,23.11866,45.240899999999996,23.11866,45.240899999999996C23.11866,45.6349,23.46137,45.95503,23.88316,45.95503C23.88316,45.95503,37.1168,45.95503,37.1168,45.95503C37.5386,45.95503,37.881299999999996,45.6349,37.881299999999996,45.240899999999996C37.881299999999996,45.240899999999996,37.881299999999996,43.75803,37.881299999999996,43.75803C37.881299999999996,43.36403,37.5386,43.0439,37.1168,43.0439C37.1168,43.0439,23.88316,43.0439,23.88316,43.0439C23.88316,43.0439,23.88316,43.0439,23.88316,43.0439ZM37.1168,47C37.1168,47,23.88316,47,23.88316,47C22.844728,47,22,46.21092,22,45.240899999999996C22,45.240899999999996,22,43.75803,22,43.75803C22,42.788009,22.844728,42,23.88316,42C23.88316,42,37.1168,42,37.1168,42C38.1553,42,39,42.788009,39,43.75803C39,43.75803,39,45.240899999999996,39,45.240899999999996C39,46.21092,38.1553,47,37.1168,47C37.1168,47,37.1168,47,37.1168,47Z" fill="#030036" fill-opacity="1"/></g><g><path d="M26.03251,36.1144C27.2713,37.2657,28.84968,37.8973,30.5,37.8973C32.15032,37.8973,33.7287,37.2657,34.96749,36.1144C34.96749,36.1144,34.96749,35.6308,34.96749,35.6308C34.96749,34.208330000000004,33.884209999999996,33.05023,32.55232,33.05023C32.55232,33.05023,31.77476,33.05023,31.77476,33.05023C31.53462,33.05023,31.32622,32.87285,31.27226,32.62315C31.21831,32.37233,31.33362,32.11585,31.55049,32.004C32.39258,31.56788,32.91623,30.67756,32.91623,29.68104C32.91623,28.25856,31.83189,27.1016,30.5,27.1016C29.16811,27.1016,28.08482,28.25856,28.08482,29.68104C28.08482,30.67756,28.60742,31.56788,29.45057,32.004C29.66638,32.11585,29.78169,32.37233,29.72774,32.62315C29.67378,32.87285,29.46538,33.05023,29.22524,33.05023C29.22524,33.05023,28.44768,33.05023,28.44768,33.05023C27.11579,33.05023,26.03251,34.208330000000004,26.03251,35.6308C26.03251,35.6308,26.03251,36.1144,26.03251,36.1144C26.03251,36.1144,26.03251,36.1144,26.03251,36.1144ZM30.5,39C28.51433,39,26.61964,38.2057,25.165032,36.763999999999996C25.0603,36.6601,25,36.5132,25,36.3607C25,36.3607,25,35.6308,25,35.6308C25,33.82418,26.22399,32.31809,27.83304,32.00739C27.339010000000002,31.35886,27.05232,30.53859,27.05232,29.68104C27.05232,27.65183,28.598959999999998,26,30.5,26C32.40104,26,33.94768,27.65183,33.94768,29.68104C33.94768,30.53859,33.66099,31.35886,33.16695,32.00739C34.77601,32.31809,36,33.82418,36,35.6308C36,35.6308,36,36.3607,36,36.3607C36,36.5132,35.9397,36.6601,35.835,36.763999999999996C34.380359999999996,38.2057,32.48567,39,30.5,39C30.5,39,30.5,39,30.5,39Z" fill="#030036" fill-opacity="1"/></g></g></g></svg>