<svg xmlns="http://www.w3.org/2000/svg" xmlns:xlink="http://www.w3.org/1999/xlink" fill="none" version="1.1" width="173.18408203125" height="154.42626953125" viewBox="0 0 173.18408203125 154.42626953125"><g><g><path d="M60.0525375,1.5C60.0525375,0.671573,59.3809375,0,58.5525375,0C57.7241375,0,57.0525375,0.671573,57.0525375,1.5C57.0525375,1.5,60.0525375,1.5,60.0525375,1.5C60.0525375,1.5,60.0525375,1.5,60.0525375,1.5ZM56.2999375,15.266C56.2999375,15.266,54.8300375,14.9669,54.8300375,14.9669C54.8300375,14.9669,56.2999375,15.266,56.2999375,15.266C56.2999375,15.266,56.2999375,15.266,56.2999375,15.266ZM32.2929117,143.176C32.1606215,143.994,32.7163315,144.764,33.5341275,144.896C34.3519275,145.028,35.1221175,144.473,35.2544075,143.655C35.2544075,143.655,32.2929117,143.176,32.2929117,143.176C32.2929117,143.176,32.2929117,143.176,32.2929117,143.176ZM57.0525375,1.5C57.0525375,6.08469,55.841637500000004,9.9969,54.8300375,14.9669C54.8300375,14.9669,57.769737500000005,15.5652,57.769737500000005,15.5652C58.7114375,10.9387,60.0525375,6.48674,60.0525375,1.5C60.0525375,1.5,57.0525375,1.5,57.0525375,1.5C57.0525375,1.5,57.0525375,1.5,57.0525375,1.5ZM54.8300375,14.9669C46.1598375,57.5638,39.2233975,100.333,32.2929117,143.176C32.2929117,143.176,35.2544075,143.655,35.2544075,143.655C42.1863075,100.803,49.113637499999996,58.0933,57.769737500000005,15.5652C57.769737500000005,15.5652,54.8300375,14.9669,54.8300375,14.9669C54.8300375,14.9669,54.8300375,14.9669,54.8300375,14.9669Z" fill="#FE75BA" fill-opacity="1"/></g><g><path d="M112.362796875,12.76318359375C112.362796875,11.65861359375,111.46739687499999,10.76318359375,110.362796875,10.76318359375C109.258196875,10.76318359375,108.362796875,11.65861359375,108.362796875,12.76318359375C108.362796875,12.76318359375,112.362796875,12.76318359375,112.362796875,12.76318359375C112.362796875,12.76318359375,112.362796875,12.76318359375,112.362796875,12.76318359375ZM90.341796875,152.42618359375C90.341796875,153.53018359375,91.237226875,154.42618359375,92.341796875,154.42618359375C93.446366875,154.42618359375,94.341796875,153.53018359375,94.341796875,152.42618359375C94.341796875,152.42618359375,90.341796875,152.42618359375,90.341796875,152.42618359375C90.341796875,152.42618359375,90.341796875,152.42618359375,90.341796875,152.42618359375ZM108.362796875,12.76318359375C108.362796875,36.121783593749996,103.900796875,59.03498359375,99.389246875,82.18058359375C94.890196875,105.26208359375,90.341796875,128.57518359375,90.341796875,152.42618359375C90.341796875,152.42618359375,94.341796875,152.42618359375,94.341796875,152.42618359375C94.341796875,129.02518359375,98.803906875,106.09098359375,103.315396875,82.94588359375C107.814296875,59.86488359375,112.362796875,36.572383593750004,112.362796875,12.76318359375C112.362796875,12.76318359375,108.362796875,12.76318359375,108.362796875,12.76318359375C108.362796875,12.76318359375,108.362796875,12.76318359375,108.362796875,12.76318359375Z" fill="#FE75BA" fill-opacity="1"/></g><g><path d="M20.3166325,31.03750244975C19.2125435,31.00503249375,18.2911739,31.87375209375,18.258693856,32.97784109375C18.2262239,34.08193109375,19.0949435,35.00330109375,20.1990325,35.03578109375C20.1990325,35.03578109375,20.3166325,31.03750244975,20.3166325,31.03750244975C20.3166325,31.03750244975,20.3166325,31.03750244975,20.3166325,31.03750244975ZM161.6468125,61.99762109375C162.7128125,62.28832109375,163.8118125,61.660021093750004,164.1028125,60.59432109375C164.3938125,59.52872109375,163.7648125,58.42922109375,162.6998125,58.138621093750004C162.6998125,58.138621093750004,161.6468125,61.99762109375,161.6468125,61.99762109375C161.6468125,61.99762109375,161.6468125,61.99762109375,161.6468125,61.99762109375ZM20.1990325,35.03578109375C68.9559125,36.46980109375,114.5189125,49.14452109375,161.6468125,61.99762109375C161.6468125,61.99762109375,162.6998125,58.138621093750004,162.6998125,58.138621093750004C115.6632125,45.31052109375,69.6329125,32.48799109375,20.3166325,31.03750244975C20.3166325,31.03750244975,20.1990325,35.03578109375,20.1990325,35.03578109375C20.1990325,35.03578109375,20.1990325,35.03578109375,20.1990325,35.03578109375Z" fill="#FE75BA" fill-opacity="1"/></g><g><path d="M2.252928125,82.84723835735C1.148398125,82.83806835875,0.245568515,83.72603796875,0.2363985136,84.83056796875C0.227228515,85.93509796875,1.115198125,86.83792796875,2.219728125,86.84709796875C2.219728125,86.84709796875,2.252928125,82.84723835735,2.252928125,82.84723835735C2.252928125,82.84723835735,2.252928125,82.84723835735,2.252928125,82.84723835735ZM106.608328125,91.85533796875C106.608328125,91.85533796875,107.021328125,89.89852796875,107.021328125,89.89852796875C107.021328125,89.89852796875,107.021328125,89.89852796875,107.021328125,89.89852796875C107.021328125,89.89852796875,106.608328125,91.85533796875,106.608328125,91.85533796875C106.608328125,91.85533796875,106.608328125,91.85533796875,106.608328125,91.85533796875ZM170.520328125,113.76556796874999C171.562328125,114.13176796875,172.704328125,113.58376796875,173.070328125,112.54166796875C173.436328125,111.49956796875,172.888328125,110.35786796875,171.846328125,109.99176796875C171.846328125,109.99176796875,170.520328125,113.76556796874999,170.520328125,113.76556796874999C170.520328125,113.76556796874999,170.520328125,113.76556796874999,170.520328125,113.76556796874999ZM2.219728125,86.84709796875C37.268328125,87.13795796875,72.034728125,86.59526796875,106.194328125,93.81216796875C106.194328125,93.81216796875,107.021328125,89.89852796875,107.021328125,89.89852796875C72.376128125,82.57910796875,37.133928125,83.13670796875,2.252928125,82.84723835735C2.252928125,82.84723835735,2.219728125,86.84709796875,2.219728125,86.84709796875C2.219728125,86.84709796875,2.219728125,86.84709796875,2.219728125,86.84709796875ZM106.194328125,93.81216796875C128.312328125,98.48496796875,149.098328125,106.23906796874999,170.520328125,113.76556796874999C170.520328125,113.76556796874999,171.846328125,109.99176796875,171.846328125,109.99176796875C150.538328125,102.50526796875,129.456328125,94.63836796875,107.021328125,89.89852796875C107.021328125,89.89852796875,106.194328125,93.81216796875,106.194328125,93.81216796875C106.194328125,93.81216796875,106.194328125,93.81216796875,106.194328125,93.81216796875Z" fill="#FE75BA" fill-opacity="1"/></g><g><path d="M71.21597171875,8.8943425C70.87686171875,7.8431215,69.74977171875,7.2658315,68.69854171875,7.6049315C67.64732071875,7.9440415,67.07003071875,9.071132500000001,67.40913071875,10.1223625C67.40913071875,10.1223625,71.21597171875,8.8943425,71.21597171875,8.8943425C71.21597171875,8.8943425,71.21597171875,8.8943425,71.21597171875,8.8943425ZM84.32851171875001,37.2726125C85.03561171875,38.121112499999995,86.29681171875,38.2358125,87.14531171875001,37.5286125C87.99391171875,36.8215125,88.10851171875001,35.5604125,87.40141171875,34.7118125C87.40141171875,34.7118125,84.32851171875001,37.2726125,84.32851171875001,37.2726125C84.32851171875001,37.2726125,84.32851171875001,37.2726125,84.32851171875001,37.2726125ZM67.40913071875,10.1223625C70.55388171875,19.8710125,78.00431171875,29.6835125,84.32851171875001,37.2726125C84.32851171875001,37.2726125,87.40141171875,34.7118125,87.40141171875,34.7118125C81.07131171875,27.1157125,74.09819171875,17.8292125,71.21597171875,8.8943425C71.21597171875,8.8943425,67.40913071875,10.1223625,67.40913071875,10.1223625C67.40913071875,10.1223625,67.40913071875,10.1223625,67.40913071875,10.1223625Z" fill="#FE75BA" fill-opacity="1"/></g><g><path d="M92.486021875,17.02587890625C93.590621875,17.02587890625,94.486021875,16.13044890625,94.486021875,15.02587890625C94.486021875,13.92130890625,93.590621875,13.02587890625,92.486021875,13.02587890625C92.486021875,13.02587890625,92.486021875,17.02587890625,92.486021875,17.02587890625C92.486021875,17.02587890625,92.486021875,17.02587890625,92.486021875,17.02587890625ZM73.971821875,20.78857890625C73.971821875,20.78857890625,72.613021875,19.321058906250002,72.613021875,19.321058906250002C72.613021875,19.321058906250002,73.971821875,20.78857890625,73.971821875,20.78857890625C73.971821875,20.78857890625,73.971821875,20.78857890625,73.971821875,20.78857890625ZM62.685736875,24.39677890625C61.766676775,25.00947890625,61.518326875,26.25117890625,62.131036875,27.170278906249997C62.743736875,28.08927890625,63.985481875,28.337678906249998,64.904531875,27.72497890625C64.904531875,27.72497890625,62.685736875,24.39677890625,62.685736875,24.39677890625C62.685736875,24.39677890625,62.685736875,24.39677890625,62.685736875,24.39677890625ZM92.486021875,13.02587890625C89.374221875,13.02587890625,85.703621875,13.43135890625,82.190621875,14.39788890625C78.697721875,15.35885890625,75.210721875,16.91573890625,72.613021875,19.321058906250002C72.613021875,19.321058906250002,75.330621875,22.25609890625,75.330621875,22.25609890625C77.28612187499999,20.44545890625,80.10252187500001,19.12098890625,83.251621875,18.25458890625C86.380521875,17.39376890625,89.690421875,17.02587890625,92.486021875,17.02587890625C92.486021875,17.02587890625,92.486021875,13.02587890625,92.486021875,13.02587890625C92.486021875,13.02587890625,92.486021875,13.02587890625,92.486021875,13.02587890625ZM72.613021875,19.321058906250002C71.179951875,20.64795890625,69.766081875,21.28983890625,68.165761875,21.89409890625C66.601141875,22.48487890625,64.624641875,23.104078906250002,62.685736875,24.39677890625C62.685736875,24.39677890625,64.904531875,27.72497890625,64.904531875,27.72497890625C66.360521875,26.75427890625,67.759941875,26.32297890625,69.578731875,25.636178906250002C71.361851875,24.96297890625,73.33882187500001,24.10027890625,75.330621875,22.25609890625C75.330621875,22.25609890625,72.613021875,19.321058906250002,72.613021875,19.321058906250002C72.613021875,19.321058906250002,72.613021875,19.321058906250002,72.613021875,19.321058906250002Z" fill="#FE75BA" fill-opacity="1"/></g><g><path d="M128.6899425,119.71026015625C128.6083425,118.60871515625,127.6492125,117.78187485625,126.5476625,117.86346489625C125.4461175,117.94506485625,124.6192772,118.90420015625,124.70086724,120.00575015625C124.70086724,120.00575015625,128.6899425,119.71026015625,128.6899425,119.71026015625C128.6899425,119.71026015625,128.6899425,119.71026015625,128.6899425,119.71026015625ZM131.4887525,144.94721015625C131.9373625,145.95661015625,133.1192825,146.41111015625,134.1286525,145.96251015625C135.1380125,145.51391015625,135.5926125,144.33201015625,135.1440125,143.32261015625C135.1440125,143.32261015625,131.4887525,144.94721015625,131.4887525,144.94721015625C131.4887525,144.94721015625,131.4887525,144.94721015625,131.4887525,144.94721015625ZM124.70086724,120.00575015625C125.3746975,129.10231015625,127.9153225,136.90701015625,131.4887525,144.94721015625C131.4887525,144.94721015625,135.1440125,143.32261015625,135.1440125,143.32261015625C131.6820825,135.53331015625,129.3183325,128.19351015625,128.6899425,119.71026015625C128.6899425,119.71026015625,124.70086724,120.00575015625,124.70086724,120.00575015625C124.70086724,120.00575015625,124.70086724,120.00575015625,124.70086724,120.00575015625Z" fill="#FE75BA" fill-opacity="1"/></g><g><path d="M145.55271796875,130.68357515625C146.65591796875,130.62842515625,147.50551796874998,129.68939515625,147.45031796875,128.58620515625C147.39521796875,127.48300615625,146.45621796875,126.63341615625,145.35301796875,126.68857611625C145.35301796875,126.68857611625,145.55271796875,130.68357515625,145.55271796875,130.68357515625C145.55271796875,130.68357515625,145.55271796875,130.68357515625,145.55271796875,130.68357515625ZM129.26116796875,131.24310515625C128.23559896875,131.65333515625,127.73676896875,132.81727515625,128.14699896875,133.84283515625C128.55721896875,134.86840515625,129.72115796875,135.36723515625,130.74672796875,134.95701515625C130.74672796875,134.95701515625,129.26116796875,131.24310515625,129.26116796875,131.24310515625C129.26116796875,131.24310515625,129.26116796875,131.24310515625,129.26116796875,131.24310515625ZM145.35301796875,126.68857611625C139.44221796875001,126.98410615625,134.16578796875,129.28125515625,129.26116796875,131.24310515625C129.26116796875,131.24310515625,130.74672796875,134.95701515625,130.74672796875,134.95701515625C135.85831796875,132.91237515625,140.45091796875,130.93867515625,145.55271796875,130.68357515625C145.55271796875,130.68357515625,145.35301796875,126.68857611625,145.35301796875,126.68857611625C145.35301796875,126.68857611625,145.35301796875,126.68857611625,145.35301796875,126.68857611625Z" fill="#FE75BA" fill-opacity="1"/></g><g><path d="M134.64061875,132.880283984375C135.73841875,132.758303984375,136.52951875,131.769463984375,136.40751875,130.671653984375C136.28551875,129.573832984375,135.29671875,128.782762984375,134.19891875,128.904743084375C134.19891875,128.904743084375,134.64061875,132.880283984375,134.64061875,132.880283984375C134.64061875,132.880283984375,134.64061875,132.880283984375,134.64061875,132.880283984375ZM118.87433675,137.016983984375C117.99067705,137.679723984375,117.81159675,138.933333984375,118.47433675,139.816933984375C119.13707875,140.700633984375,120.39067875,140.879733984375,121.27433875,140.216933984375C121.27433875,140.216933984375,118.87433675,137.016983984375,118.87433675,137.016983984375C118.87433675,137.016983984375,118.87433675,137.016983984375,118.87433675,137.016983984375ZM134.19891875,128.904743084375C133.00211875,129.037722984375,131.61671875,129.539332984375,130.29141875,130.130503984375C128.92361875,130.740643984375,127.44763875,131.525853984375,126.02077875,132.350863984375C123.17037875,133.998963984375,120.39536875,135.876213984375,118.87433675,137.016983984375C118.87433675,137.016983984375,121.27433875,140.216933984375,121.27433875,140.216933984375C122.66458875000001,139.174333984375,125.30641875,137.384403984375,128.02298875,135.813683984375C129.37961875,135.029283984375,130.72461875,134.317163984375,131.92091875,133.783553984375C133.15971875,133.230963984375,134.08151875,132.942403984375,134.64061875,132.880283984375C134.64061875,132.880283984375,134.19891875,128.904743084375,134.19891875,128.904743084375C134.19891875,128.904743084375,134.19891875,128.904743084375,134.19891875,128.904743084375Z" fill="#FE75BA" fill-opacity="1"/></g><g><path d="M19.44241875,51.27493796875C19.35068875,50.17418796875,18.38398875,49.35620766875,17.28323875,49.44793763875C16.18248875,49.53966766875,15.36450845,50.50636796875,15.45623842,51.60711796875C15.45623842,51.60711796875,19.44241875,51.27493796875,19.44241875,51.27493796875C19.44241875,51.27493796875,19.44241875,51.27493796875,19.44241875,51.27493796875ZM24.613198750000002,73.51681796875C25.22589875,74.43591796875,26.46761875,74.68421796875,27.38671875,74.07151796875C28.30571875,73.45881796875,28.55411875,72.21711796875,27.94141875,71.29801796875C27.94141875,71.29801796875,24.613198750000002,73.51681796875,24.613198750000002,73.51681796875C24.613198750000002,73.51681796875,24.613198750000002,73.51681796875,24.613198750000002,73.51681796875ZM15.45623842,51.60711796875C16.08076875,59.10150796875,20.76187875,67.73991796875,24.613198750000002,73.51681796875C24.613198750000002,73.51681796875,27.94141875,71.29801796875,27.94141875,71.29801796875C24.14326875,65.60081796875,19.97683875,57.68799796875,19.44241875,51.27493796875C19.44241875,51.27493796875,15.45623842,51.60711796875,15.45623842,51.60711796875C15.45623842,51.60711796875,15.45623842,51.60711796875,15.45623842,51.60711796875Z" fill="#FE75BA" fill-opacity="1"/></g><g><path d="M32.748771875,59.8196134375C33.719571875,59.2926334375,34.079271875,58.0784834375,33.552271875,57.1077234375C33.025371875000005,56.1369675375,31.811171875,55.7772174375,30.840371875,56.3041974375C30.840371875,56.3041974375,32.748771875,59.8196134375,32.748771875,59.8196134375C32.748771875,59.8196134375,32.748771875,59.8196134375,32.748771875,59.8196134375ZM14.138671875,70.4073234375C13.034101875,70.4073234375,12.138671875,71.3028234375,12.138671875,72.4073234375C12.138671875,73.5119234375,13.034101875,74.4073234375,14.138671875,74.4073234375C14.138671875,74.4073234375,14.138671875,70.4073234375,14.138671875,70.4073234375C14.138671875,70.4073234375,14.138671875,70.4073234375,14.138671875,70.4073234375ZM30.840371875,56.3041974375C29.288271875,57.1468034375,27.693671875,58.5697634375,26.189271875,60.0563734375C24.679371875,61.5483034375,23.042971875,63.3300534375,21.535911875,64.8900434375C19.979251875,66.5014234375,18.507091875,67.9349234375,17.146181875,68.9605234375C15.724601875,70.0317234375,14.744211875,70.4073234375,14.138671875,70.4073234375C14.138671875,70.4073234375,14.138671875,74.4073234375,14.138671875,74.4073234375C16.110061875,74.4073234375,17.983461875,73.3381234375,19.553461875,72.1550234375C21.184131875,70.9262234375,22.841371875,69.2959234375,24.412771875,67.6692234375C26.033871875000003,65.9911634375,27.524171875,64.3607234375,29.000771875,62.9016334375C30.482771875,61.4372234375,31.734271875,60.3703334375,32.748771875,59.8196134375C32.748771875,59.8196134375,30.840371875,56.3041974375,30.840371875,56.3041974375C30.840371875,56.3041974375,30.840371875,56.3041974375,30.840371875,56.3041974375Z" fill="#FE75BA" fill-opacity="1"/></g><g><path d="M136.62536875,19.646838315625C135.52086875,19.646838315625,134.62536875,20.542268265625,134.62536875,21.646832265625C134.62536875,22.751412265625,135.52086875,23.646842265625,136.62536875,23.646842265625C136.62536875,23.646842265625,136.62536875,19.646838315625,136.62536875,19.646838315625C136.62536875,19.646838315625,136.62536875,19.646838315625,136.62536875,19.646838315625ZM146.06646875,25.570382265625C146.06646875,25.570382265625,144.18296875,26.243052265625,144.18296875,26.243052265625C144.18296875,26.243052265625,146.06646875,25.570382265625,146.06646875,25.570382265625C146.06646875,25.570382265625,146.06646875,25.570382265625,146.06646875,25.570382265625ZM140.42636875,46.782022265625C140.42636875,46.782022265625,139.92916875,44.844722265624995,139.92916875,44.844722265624995C139.92916875,44.844722265624995,140.42636875,46.782022265625,140.42636875,46.782022265625C140.42636875,46.782022265625,140.42636875,46.782022265625,140.42636875,46.782022265625ZM121.54433875,36.114822265625C121.54433875,36.114822265625,119.54460828,36.081522265625,119.54460828,36.081522265625C119.54460828,36.081522265625,121.54433875,36.114822265625,121.54433875,36.114822265625C121.54433875,36.114822265625,121.54433875,36.114822265625,121.54433875,36.114822265625ZM137.01766874999998,25.814992265625C138.10076875,25.598372265625,138.80316875,24.544722265625,138.58656875,23.461602265625C138.36996875,22.378472265625,137.31626875,21.676042265625,136.23316875,21.892662265625C136.23316875,21.892662265625,137.01766874999998,25.814992265625,137.01766874999998,25.814992265625C137.01766874999998,25.814992265625,137.01766874999998,25.814992265625,137.01766874999998,25.814992265625ZM136.62536875,23.646842265625C138.57076875,23.646842265625,140.22906875,23.602192265625,141.63146875,23.976722265625C142.85776875,24.304202265625,143.70406875,24.902212265625,144.18296875,26.243052265625C144.18296875,26.243052265625,147.94986875,24.897712265625,147.94986875,24.897712265625C146.93906875,22.067422265624998,144.87846875,20.703662265625,142.66356875,20.112148265625C140.62476875,19.567688265625,138.30736875,19.646838315625,136.62536875,19.646838315625C136.62536875,19.646838315625,136.62536875,23.646842265625,136.62536875,23.646842265625C136.62536875,23.646842265625,136.62536875,23.646842265625,136.62536875,23.646842265625ZM144.18296875,26.243052265625C145.10406875,28.822352265625,145.58956875,33.288322265625,144.92456875,37.308822265625C144.24066875,41.443422265625,142.53706875,44.175522265625,139.92916875,44.844722265624995C139.92916875,44.844722265624995,140.92346875,48.719222265625,140.92346875,48.719222265625C145.96216875,47.426122265625,148.12376875,42.478922265625,148.87096875,37.961522265625C149.63696875,33.330122265625,149.11916875,28.171542265625,147.94986875,24.897712265625C147.94986875,24.897712265625,144.18296875,26.243052265625,144.18296875,26.243052265625C144.18296875,26.243052265625,144.18296875,26.243052265625,144.18296875,26.243052265625ZM139.92916875,44.844722265624995C136.95936875,45.606922265625,132.67276875,45.220622265624996,129.17168875,43.606022265625C125.68677875,41.998822265625,123.48891875,39.456322265625005,123.54405875,36.148222265625C123.54405875,36.148222265625,119.54460828,36.081522265625,119.54460828,36.081522265625C119.45274825,41.593322265625005,123.23441875,45.272722265625,127.49652875,47.238322265625C131.74236875,49.196422265625,136.97026875,49.733722265625005,140.92346875,48.719222265625C140.92346875,48.719222265625,139.92916875,44.844722265624995,139.92916875,44.844722265624995C139.92916875,44.844722265624995,139.92916875,44.844722265624995,139.92916875,44.844722265624995ZM123.54405875,36.148222265625C123.60220875,32.659122265625,125.24265875,30.500422265624998,127.69990875,28.963082265624998C130.28116875,27.348162265625,133.69246875,26.480032265625,137.01766874999998,25.814992265625C137.01766874999998,25.814992265625,136.23316875,21.892662265625,136.23316875,21.892662265625C132.89336875,22.560622265625,128.83568875,23.534152265625,125.57834875,25.572062265625C122.19703875,27.687552265625,119.62942825,30.992822265625,119.54460828,36.081522265625C119.54460828,36.081522265625,123.54405875,36.148222265625,123.54405875,36.148222265625C123.54405875,36.148222265625,123.54405875,36.148222265625,123.54405875,36.148222265625Z" fill="#E1E336" fill-opacity="1"/></g><g><path d="M72.62213046875,59.3723953125C71.51753046875,59.3723953125,70.62212046875,60.2678253125,70.62212046875,61.372395312500004C70.62212046875,62.4769653125,71.51753046875,63.372395312500004,72.62213046875,63.372395312500004C72.62213046875,63.372395312500004,72.62213046875,59.3723953125,72.62213046875,59.3723953125C72.62213046875,59.3723953125,72.62213046875,59.3723953125,72.62213046875,59.3723953125ZM67.10465046875,75.5951953125C67.10465046875,75.5951953125,68.12630046875,73.8757953125,68.12630046875,73.8757953125C68.12630046875,73.8757953125,67.10465046875,75.5951953125,67.10465046875,75.5951953125C67.10465046875,75.5951953125,67.10465046875,75.5951953125,67.10465046875,75.5951953125ZM64.95896046875,63.6406953125C64.95896046875,63.6406953125,63.31088046875,62.5076353125,63.31088046875,62.5076353125C63.31088046875,62.5076353125,63.31088046875,62.5076353125,63.31088046875,62.5076353125C63.31088046875,62.5076353125,64.95896046875,63.6406953125,64.95896046875,63.6406953125C64.95896046875,63.6406953125,64.95896046875,63.6406953125,64.95896046875,63.6406953125ZM75.93263046875,62.2688953125C77.03713046875001,62.2688953125,77.93263046875,61.3734653125,77.93263046875,60.2688953125C77.93263046875,59.1643273125,77.03713046875001,58.2688972125,75.93263046875,58.2688972125C75.93263046875,58.2688972125,75.93263046875,62.2688953125,75.93263046875,62.2688953125C75.93263046875,62.2688953125,75.93263046875,62.2688953125,75.93263046875,62.2688953125ZM72.62213046875,63.372395312500004C75.05493046875,63.372395312500004,76.09733046875,64.3161353125,76.56973046875,65.3106453125C77.12523046875,66.4804653125,77.13003046875,68.2362953125,76.44003046875,70.06599531250001C75.75723046875,71.8764953125,74.51883046875,73.4123953125,73.07853046875,74.1834953125C71.74483046875,74.8974953125,70.09584046875,75.0460953125,68.12630046875,73.8757953125C68.12630046875,73.8757953125,66.08299046875,77.3145953125,66.08299046875,77.3145953125C69.24722046875,79.19479531249999,72.38733046875,79.0906953125,74.96643046875,77.7098953125C77.43903046875,76.3861953125,79.23703046874999,73.9851953125,80.18273046875001,71.4773953125C81.12123046875,68.9887953125,81.34653046875,66.0449253125,80.18293046875,63.5946853125C78.93603046875,60.9691353125,76.31963046875,59.3723953125,72.62213046875,59.3723953125C72.62213046875,59.3723953125,72.62213046875,63.372395312500004,72.62213046875,63.372395312500004C72.62213046875,63.372395312500004,72.62213046875,63.372395312500004,72.62213046875,63.372395312500004ZM68.12630046875,73.8757953125C66.05376046875,72.6442953125,65.23064046875,71.2008953125,65.05152046875,69.8207953125C64.86242046875,68.3639953125,65.34516046875,66.6092153125,66.60704046875,64.7737453125C66.60704046875,64.7737453125,63.31088046875,62.5076353125,63.31088046875,62.5076353125C61.68149446875,64.8776553125,60.73117446875,67.6111653125,61.08479416875,70.3355953125C61.44838446875,73.1369953125,63.14373046875,75.5679953125,66.08299046875,77.3145953125C66.08299046875,77.3145953125,68.12630046875,73.8757953125,68.12630046875,73.8757953125C68.12630046875,73.8757953125,68.12630046875,73.8757953125,68.12630046875,73.8757953125ZM66.60704046875,64.7737453125C67.74893046875,63.1128253125,68.86089046875,62.5685853125,70.13752046875,62.3444553125C70.85103046875,62.2191953125,71.65693046875,62.1903453125,72.64163046875,62.2029953125C73.52513046875,62.2143453125,74.79793046875,62.2688953125,75.93263046875,62.2688953125C75.93263046875,62.2688953125,75.93263046875,58.2688972125,75.93263046875,58.2688972125C74.74663046875,58.2688972125,73.84943046875,58.2181872125,72.69303046875,58.2033272225C71.63773046875,58.1897772125,70.53344046875,58.2137672125,69.44584046874999,58.4047173125C67.12023046875,58.8130073125,65.06604046875,59.9546653125,63.31088046875,62.5076353125C63.31088046875,62.5076353125,66.60704046875,64.7737453125,66.60704046875,64.7737453125C66.60704046875,64.7737453125,66.60704046875,64.7737453125,66.60704046875,64.7737453125Z" fill="#E1E336" fill-opacity="1"/></g><g><path d="M0,120.961361171875C0,122.06593117187501,0.89543,122.961351171875,2,122.961351171875C3.10457,122.961351171875,4,122.06593117187501,4,120.961361171875C4,120.961361171875,0,120.961361171875,0,120.961361171875C0,120.961361171875,0,120.961361171875,0,120.961361171875ZM12.9737,122.432691171875C12.9737,122.432691171875,14.1737,124.032651171875,14.1737,124.032651171875C14.1737,124.032651171875,14.1737,124.032651171875,14.1737,124.032651171875C14.1737,124.032651171875,12.9737,122.432691171875,12.9737,122.432691171875C12.9737,122.432691171875,12.9737,122.432691171875,12.9737,122.432691171875ZM4.96045,118.011591171875C4.55022,116.986021171875,3.38628,116.487191171875,2.36071,116.897411171875C1.33515,117.307641171875,0.83632,118.471581171875,1.24654,119.497151171875C1.24654,119.497151171875,4.96045,118.011591171875,4.96045,118.011591171875C4.96045,118.011591171875,4.96045,118.011591171875,4.96045,118.011591171875ZM4,120.961361171875C4,118.928701171875,4.89397,117.811881171875,6.08972,117.168291171875C7.41235,116.456411171875,9.2392,116.277211171875,10.8955,116.612841171875C12.6693,116.972291171875,13.5132,117.741591171875,13.6865,118.170141171875C13.7147,118.239881171875,14.0744,119.107161171875,11.7737,120.832691171875C11.7737,120.832691171875,14.1737,124.032651171875,14.1737,124.032651171875C16.9474,121.952351171875,18.4727,119.33612117187499,17.3948,116.670591171875C16.462,114.363861171875,13.9282,113.146089171875,11.6899,112.692529171875C9.33416,112.215149171875,6.51466,112.396999571875,4.19396,113.646061171875C1.74637,114.963421171875,0,117.407441171875,0,120.961361171875C0,120.961361171875,4,120.961361171875,4,120.961361171875C4,120.961361171875,4,120.961361171875,4,120.961361171875ZM11.7737,120.832691171875C9.5607,122.492451171875,8.38878,122.30635117187501,7.73073,121.967671171875C6.80801,121.492771171875,5.84215,120.215841171875,4.96045,118.011591171875C4.96045,118.011591171875,1.24654,119.497151171875,1.24654,119.497151171875C2.19878,121.877751171875,3.62025,124.350751171875,5.90024,125.524251171875C8.4449,126.833951171875,11.2911,126.194551171875,14.1737,124.032651171875C14.1737,124.032651171875,11.7737,120.832691171875,11.7737,120.832691171875C11.7737,120.832691171875,11.7737,120.832691171875,11.7737,120.832691171875Z" fill="#E1E336" fill-opacity="1"/></g><g><path d="M163.110515625,24.75C164.214515625,24.75,165.110515625,23.85457,165.110515625,22.75C165.110515625,21.64543,164.214515625,20.75,163.110515625,20.75C163.110515625,20.75,163.110515625,24.75,163.110515625,24.75C163.110515625,24.75,163.110515625,24.75,163.110515625,24.75ZM154.405515625,24.71177C154.405515625,24.71177,155.011515625,26.61762,155.011515625,26.61762C155.011515625,26.61762,154.405515625,24.71177,154.405515625,24.71177C154.405515625,24.71177,154.405515625,24.71177,154.405515625,24.71177ZM106.709515625,47.5173C106.709515625,47.5173,105.667515625,45.810199999999995,105.667515625,45.810199999999995C105.667515625,45.810199999999995,106.709515625,47.5173,106.709515625,47.5173C106.709515625,47.5173,106.709515625,47.5173,106.709515625,47.5173ZM33.388315625,96.439C33.388315625,96.439,34.697315625,97.9511,34.697315625,97.9511C34.697315625,97.9511,33.388315625,96.439,33.388315625,96.439C33.388315625,96.439,33.388315625,96.439,33.388315625,96.439ZM1.759900625,122.79C0.941720625,123.532,0.8800306250000001,124.797,1.622090625,125.615C2.364155625,126.433,3.628985625,126.495,4.447155625000001,125.753C4.447155625000001,125.753,1.759900625,122.79,1.759900625,122.79C1.759900625,122.79,1.759900625,122.79,1.759900625,122.79ZM163.110515625,20.75C159.750515625,20.75,156.437515625,21.9662,153.798515625,22.80592C153.798515625,22.80592,155.011515625,26.61762,155.011515625,26.61762C157.944515625,25.68423,160.528515625,24.75,163.110515625,24.75C163.110515625,24.75,163.110515625,20.75,163.110515625,20.75C163.110515625,20.75,163.110515625,20.75,163.110515625,20.75ZM153.798515625,22.80592C136.331515625,28.36356,121.230515625,36.3121,105.667515625,45.810199999999995C105.667515625,45.810199999999995,107.751515625,49.2245,107.751515625,49.2245C123.179515625,39.8086,137.973515625,32.0388,155.011515625,26.61762C155.011515625,26.61762,153.798515625,22.80592,153.798515625,22.80592C153.798515625,22.80592,153.798515625,22.80592,153.798515625,22.80592ZM105.667515625,45.810199999999995C81.040115625,60.8402,54.248015625,75.7361,32.079315625,94.9269C32.079315625,94.9269,34.697315625,97.9511,34.697315625,97.9511C56.540915625,79.0418,82.914515625,64.3823,107.751515625,49.2245C107.751515625,49.2245,105.667515625,45.810199999999995,105.667515625,45.810199999999995C105.667515625,45.810199999999995,105.667515625,45.810199999999995,105.667515625,45.810199999999995ZM32.079315625,94.9269C21.755415625,103.864,11.777115625,113.7048,1.759900625,122.79C1.759900625,122.79,4.447155625000001,125.753,4.447155625000001,125.753C14.674715625,116.4769,24.377715625,106.8845,34.697315625,97.9511C34.697315625,97.9511,32.079315625,94.9269,32.079315625,94.9269C32.079315625,94.9269,32.079315625,94.9269,32.079315625,94.9269Z" fill="#FF37D0" fill-opacity="1"/></g></g></svg>