<svg xmlns="http://www.w3.org/2000/svg" xmlns:xlink="http://www.w3.org/1999/xlink" fill="none" version="1.1" width="1104" height="722" viewBox="0 0 1104 722"><g><g transform="matrix(0.9927613139152527,-0.12010431289672852,0.11978945136070251,0.9927992820739746,-76.98882076692391,4.627909863715331)"><g transform="matrix(1,-1.875227084724429e-9,7.900727183596246e-9,1,-0.000005077806619813365,0)"><g transform="matrix(1,-1.875227084724429e-9,-6.859002255055202e-9,1,0.000004408288787653733,0)"><g transform="matrix(1,-1.875227084724429e-9,-6.859002255055202e-9,1,0.00000440828878817024,0)"><path d="M18.193400365837565,663.3544720139407C13.673700365837565,664.6596720139406,5.784650365837565,665.0777720139407,7.028960365837564,658.0386720139406C7.859550365837564,653.2359720139407,12.288300365837564,649.3171920139407,17.130900365837565,649.7385320139407C21.559500365837565,650.0648320139406,21.559500365837565,643.0699320139406,17.130900365837565,642.7436305139406C8.320300365837564,642.0435080139407,0.43126036583756466,650.1123520139406,0.017532165837564687,658.7830720139407C-0.21440563416243533,663.2118720139407,1.8636403658375646,667.3619720139407,5.7376403658375645,669.5541720139406C10.166400365837564,672.1202720139406,15.378800365837565,671.4201720139407,20.039500365837565,670.1149720139407C24.327100365837566,668.9016720139407,22.528100365837563,662.1411720139407,18.193400365837565,663.3544720139407C18.193400365837565,663.3544720139407,18.193400365837565,663.3544720139407,18.193400365837565,663.3544720139407Z" fill="#E1E336" fill-opacity="1"/></g></g></g></g><g><g transform="matrix(0.13710127770900726,-0.990557074546814,0.995296835899353,0.0968717709183693,755.5988607562653,999.7514031462097)"><path d="M954.3936929467774,74.31069296875C956.6619929467773,74.31069296875,958.5008029467773,72.16073296875,958.5008029467773,69.50862296875C958.5008029467773,66.85650296875,956.6619929467773,64.70654296875,954.3936929467774,64.70654296875C952.1254029467774,64.70654296875,950.2865829467773,66.85650296875,950.2865829467773,69.50862296875C950.2865829467773,72.16073296875,952.1254029467774,74.31069296875,954.3936929467774,74.31069296875C954.3936929467774,74.31069296875,954.3936929467774,74.31069296875,954.3936929467774,74.31069296875Z" fill="#FF37D0" fill-opacity="1"/></g><g transform="matrix(0.010519485920667648,-0.9999485015869141,0.9999504685401917,0.009567121975123882,-45.6161350166083,123.77323999953035)"><path d="M44.343404665527345,94.7244016015625C46.91211466552734,94.7244016015625,48.994464665527346,92.5240416015625,48.994464665527346,89.8097716015625C48.994464665527346,87.0954916015625,46.91211466552734,84.8951416015625,44.343404665527345,84.8951416015625C41.77469466552734,84.8951416015625,39.692344665527344,87.0954916015625,39.692344665527344,89.8097716015625C39.692344665527344,92.5240416015625,41.77469466552734,94.7244016015625,44.343404665527345,94.7244016015625C44.343404665527345,94.7244016015625,44.343404665527345,94.7244016015625,44.343404665527345,94.7244016015625Z" fill="#FF37D0" fill-opacity="1"/></g><g><path d="M110.97346185302735,89.1564C111.09026185302734,96.8139,109.47116185302734,104.4039,106.22886185302734,111.398C102.87616185302734,117.3464,98.16496185302735,122.4856,92.44956185302735,126.4288C88.81326185302734,129.20080000000002,84.58706185302734,131.1682,80.07126185302735,132.1911C75.55546185302734,133.2141,70.86086185302734,133.2674,66.32106185302735,132.3474C58.44726185302734,130.8933,51.07906185302734,127.56020000000001,44.892161853027346,122.6539C38.45726185302735,118.1819,32.63454185302734,112.94659999999999,27.561861853027345,107.0721C25.331371853027342,104.6625,23.808163853027345,101.7247,23.148801853027344,98.5609C22.899892853027342,96.9907,22.963627253027344,95.38929999999999,23.336611853027343,93.842C23.612144853027345,92.9577,24.182581853027344,92.1853,24.959821853027343,91.644C25.737071853027345,91.1026,26.677931853027346,90.8225,27.637121853027345,90.8469C28.628001853027342,90.76,29.619401853027345,91.0078,30.441061853027342,91.5477C31.262721853027344,92.0876,31.863351853027346,92.88589999999999,32.13981185302734,93.8055C33.32796185302735,101.6015,39.54896185302734,105.7688,44.929161853027345,110.4564C49.59406185302734,114.8283,55.00606185302735,118.3955,60.928261853027344,121.0017C63.825561853027345,122.4584,67.00256185302734,123.3281,70.26296185302735,123.5569C73.52336185302735,123.78569999999999,76.79796185302735,123.3688,79.88426185302734,122.332C84.88736185302734,120.5176,89.33666185302734,117.5233,92.82376185302735,113.6238C96.31096185302735,109.7243,98.72426185302734,105.0445,99.84226185302734,100.0141C100.58666185302734,94.9296,101.04596185302735,89.8102,101.21856185302734,84.67814C101.30706185302735,83.47459,101.63096185302734,82.29794,102.17326185302734,81.21C102.65596185302735,80.38066,103.40946185302734,79.727587,104.31696185302734,79.351892C105.22456185302734,78.9761969,106.23536185302734,78.898845,107.19326185302734,79.131814C108.18506185302735,79.338475,109.08266185302735,79.843569,109.75626185302734,80.57393C110.42976185302734,81.30429,110.84406185302734,82.22198,110.93916185302734,83.19406000000001C111.00646185302735,84.18575,111.01786185302734,85.18021,110.97346185302735,86.17309C110.97546185302734,87.16677,110.97346185302735,88.16176,110.97346185302735,89.1564C110.97346185302735,89.1564,110.97346185302735,89.1564,110.97346185302735,89.1564Z" fill="#FF37D0" fill-opacity="1"/></g><g transform="matrix(0.9998334050178528,-0.017649903893470764,0.019297530874609947,0.9998269081115723,-1.535651526471156,1.34313587406848)"><path d="M80.23834357177735,89.553263203125C82.95909357177734,89.553263203125,85.16469357177735,87.465673203125,85.16469357177735,84.890523203125C85.16469357177735,82.315363203125,82.95909357177734,80.227783203125,80.23834357177735,80.227783203125C77.51758357177735,80.227783203125,75.31197357177734,82.315363203125,75.31197357177734,84.890523203125C75.31197357177734,87.465673203125,77.51758357177735,89.553263203125,80.23834357177735,89.553263203125C80.23834357177735,89.553263203125,80.23834357177735,89.553263203125,80.23834357177735,89.553263203125Z" fill="#FF37D0" fill-opacity="1"/></g><g><path d="M58.86206185302734,31.0332744C71.26746185302734,31.00759829,83.54886185302735,33.356139999999996,94.96016185302734,37.9362C104.04496185302735,41.2699,112.14696185302735,46.6051,118.58896185302734,53.494299999999996C126.23796185302734,61.947199999999995,131.33696185302733,72.1751,133.35996185302736,83.1132C134.78596185302735,92.3115,133.82096185302734,101.6979,130.54596185302734,110.4677C126.83396185302735,121.511,120.58196185302734,131.649,112.23296185302735,140.15800000000002C107.07396185302734,145.481,100.72276185302735,149.65699999999998,93.63796185302735,152.385C86.55326185302734,155.112,78.91276185302735,156.322,71.26986185302735,155.92700000000002C61.24136185302734,155.31900000000002,51.44466185302734,152.822,42.461061853027346,148.583C33.47756185302734,144.34300000000002,25.490361853027345,138.449,18.973461853027345,131.248C11.589681853027344,123.8962,6.441351853027344,114.811,4.067421853027344,104.9439C2.9420556530273436,99.4307,2.704818853027344,93.7895,3.3636888530273437,88.2099C3.5683948530273435,80.79249999999999,5.372561853027344,73.49170000000001,8.666661853027342,66.7507C13.175961853027344,58.0809,19.462761853027345,50.3364,27.165261853027342,43.9631C29.479061853027343,42.0814,31.541761853027342,39.92306,33.88366185302735,38.07566C40.416561853027346,33.17973,48.61296185302734,30.67783,56.95516185302734,31.0332744C57.59086185302734,31.0324115,58.22656185302734,31.0324115,58.86206185302734,31.0332744C58.86206185302734,31.0332744,58.86206185302734,31.0332744,58.86206185302734,31.0332744ZM12.715131853027344,92.0975C12.902831853027344,95.1853,13.026261853027345,98.2782,13.308561853027344,101.3582C13.463261853027344,102.6549,13.760761853027343,103.933,14.196161853027343,105.1719C17.083861853027344,114.3518,22.647061853027342,122.5862,30.254561853027344,128.9409C40.369261853027346,138.659,53.730061853027344,144.803,68.09086185302735,146.34C72.27916185302735,146.803,76.51076185302735,146.80200000000002,80.69866185302735,146.33499999999998C88.40646185302734,144.983,95.62136185302734,141.805,101.66266185302734,137.101C106.64496185302734,132.94400000000002,110.78496185302734,127.9703,113.88196185302735,122.4228C118.98496185302734,114.7579,122.33996185302735,106.1775,123.73196185302734,97.2268C125.26196185302734,86.2839,122.51696185302734,75.1905,116.00896185302734,66.0093C112.85396185302734,60.863,108.60396185302734,56.384100000000004,103.52696185302734,52.8523C89.06336185302735,43.8262,71.91076185302734,39.39252,54.57786185302734,40.19973C50.21516185302735,40.2282,45.942661853027346,41.3725,42.21756185302734,43.5101C41.462561853027346,43.9666,40.90256185302734,44.6588,40.63606185302734,45.4653C40.417161853027345,46.3406,39.977061853027344,47.153400000000005,39.35326185302734,47.8344C38.72936185302734,48.5155,37.93996185302734,49.0449,37.052461853027346,49.3775C36.03816185302735,49.7702,35.075361853027346,50.2713,34.18286185302735,50.8709C26.592061853027342,56.6231,20.616361853027342,64.0402,16.779361853027346,72.4718C14.224261853027343,78.74199999999999,12.848891853027343,85.3831,12.715131853027344,92.0975C12.715131853027344,92.0975,12.715131853027344,92.0975,12.715131853027344,92.0975Z" fill="#FF37D0" fill-opacity="1"/></g><g><path d="M1026.4764618530273,600.0352354C1039.2536618530273,600.00481696,1051.9049618530273,602.28517,1063.6651618530273,606.73837C1073.0829618530274,609.99961,1081.4809618530273,615.2332,1088.1519618530274,621.9972C1096.0169618530274,630.2523,1101.2619618530273,640.2321,1103.3449618530274,650.9023C1104.7289618530274,659.3441,1103.9139618530273,667.9567,1100.9629618530273,676.0726C1097.2139618530273,687.4289,1090.5659618530274,697.8577,1081.5429618530275,706.543C1076.2369618530274,711.7429999999999,1069.6959618530273,715.822,1062.3978618530273,718.482C1055.0992618530274,721.144,1047.2267618530273,722.3199999999999,1039.3537618530274,721.925C1029.0241618530274,721.333,1018.9333618530273,718.897,1009.6790618530273,714.764C1000.4248618530273,710.629,992.1955618530274,704.8820000000001,985.4791618530273,697.8606C977.8276818530273,690.6526,972.5031518530274,681.7353,970.0684318530274,672.0517C968.9443400530273,666.7757,968.7055538530274,661.3801,969.3598938530273,656.0416C969.5534348530274,648.6982,971.4352718530273,641.4683,974.8889618530274,634.7993C979.5457618530273,626.3461,986.0358618530273,618.7995,993.9840618530274,612.5957C996.3728618530273,610.7663,998.4871618530274,608.64809,1000.9043618530274,606.85237C1007.6506618530274,602.09562,1016.0990618530274,599.674329,1024.6909618530274,600.0352354C1024.6909618530274,600.0352354,1026.4764618530273,600.0352354,1026.4764618530273,600.0352354C1026.4764618530273,600.0352354,1026.4764618530273,600.0352354,1026.4764618530273,600.0352354ZM979.0069618530273,659.5764C979.2057618530273,662.6426,979.3428618530273,665.7133,979.6336618530273,668.7726C979.7894618530273,669.9854,980.0862618530274,671.1806,980.5193618530274,672.3388C983.4999618530273,681.3534999999999,989.2708618530273,689.4365,997.1699618530273,695.6606C1007.5635618530273,705.095,1021.2766618530273,711.062,1036.0145618530273,712.561C1040.3889618530272,713.017,1044.8085618530274,713.01,1049.1812618530273,712.54C1057.1831618530273,711.203,1064.6629618530274,708.048,1070.8979618530273,703.381C1076.0999618530273,699.1574,1080.4289618530274,694.1501,1083.6869618530272,688.5895C1089.4399618530274,680.4209,1092.9049618530273,671.1378,1093.7859618530274,661.5244C1094.4539618530273,651.9112,1091.5739618530274,642.3674,1085.5849618530274,634.3509C1082.2509618530273,629.1865,1077.7409618530273,624.7012,1072.3469618530273,621.1834C1057.4540618530273,612.4587,1039.8320618530274,608.18751,1022.0339618530273,608.9885400000001C1017.5980618530274,609.02029,1013.2551618530274,610.1262,1009.4698618530274,612.188C1008.6545618530273,612.6718,1008.0498618530273,613.3901,1007.7565618530274,614.2231C1007.5288618530274,615.0211,1007.0996618530273,615.7622,1006.5018618530273,616.3899C1005.9040618530273,617.0176,1005.1534618530274,617.5153,1004.3070618530273,617.8452C1003.2090618530274,618.2524,1002.1622618530273,618.7615,1001.1838618530273,619.3642C993.3560618530273,624.9711,987.1890618530274,632.2026,983.2223618530273,640.4262C980.5760618530273,646.5418,979.1495618530273,653.0228,979.0069618530273,659.5764C979.0069618530273,659.5764,979.0069618530273,659.5764,979.0069618530273,659.5764Z" fill="#FF37D0" fill-opacity="1"/></g><g><path d="M997.9999618530273,661.7764C998.1888068530274,658.6401,998.1582688530274,656.3279,998.5022638530273,654.0623C998.5195158530273,653.2102,998.7997168530273,652.3794,999.3112218530273,651.6638C999.8227318530273,650.9481,1000.5451718530273,650.3762,1001.3969718530274,650.0124C1002.2487718530274,649.6487,1003.1959818530273,649.5076,1004.1316718530273,649.6052999999999C1005.0673518530274,649.7029,1005.9542218530273,650.0354,1006.6921418530274,650.5651C1007.3518018530274,651.0657,1007.8661218530274,651.7048,1008.1903618530273,652.4265C1008.5146618530273,653.1482,1008.6389618530274,653.9307,1008.5524618530274,654.7058C1008.4496618530274,656.8923,1008.3998618530273,659.082,1008.2394618530274,661.265C1008.0427618530273,664.7965,1008.7038618530273,668.3241,1010.1761618530273,671.5995C1011.6484618530274,674.8749,1013.8963618530273,677.8186000000001,1016.7613618530273,680.2232C1023.5261618530274,686.4684,1032.6450618530273,690.1754,1042.2976618530274,690.6043C1047.0523618530274,691.2205,1051.9017618530274,690.7589,1056.4105618530273,689.2607C1059.6754618530274,688.0416,1062.5553618530273,686.1091,1064.7927618530273,683.6360999999999C1067.0300618530273,681.1631,1068.5550618530274,678.2268,1069.2310618530273,675.0899C1071.1447618530274,668.9449,1071.3890618530274,662.4724,1069.9431618530273,656.2234C1068.5639618530274,652.2066,1066.8416618530273,648.293,1064.7916618530273,644.51791C1064.2512618530272,643.71994,1063.9438618530273,642.81073,1063.8983618530274,641.87572C1063.8528618530274,640.94072,1064.0707618530273,640.01059,1064.5315618530274,639.17271C1065.0044618530274,638.47062,1065.6795618530273,637.898199,1066.4845618530273,637.516823C1067.2894618530274,637.135447,1068.1939618530273,636.9594967,1069.1009618530275,637.00783796C1070.0079618530274,637.0561791,1070.8834618530273,637.326988,1071.6333618530273,637.791231C1072.3832618530273,638.25547,1072.9794618530273,638.89564,1073.3578618530273,639.64311C1074.8427618530272,641.93535,1075.9673618530273,644.42072,1077.2151618530274,646.83585C1080.4935618530274,653.6816,1081.6738618530273,661.1999,1080.6320618530274,668.601C1080.3285618530274,674.5413,1078.5628618530272,680.3454,1075.4639618530273,685.5894C1072.9561618530274,689.7408,1069.3003618530274,693.2321,1064.8543618530273,695.7219C1060.4083618530274,698.2116,1055.3241618530274,699.6145,1050.0993618530274,699.7933C1037.6804618530273,700.8592,1025.2596618530274,697.7779,1015.1779618530273,691.1303C1006.8979418530273,685.9157,1001.0491518530273,678.1082,998.7627188530273,669.2174C998.3132448530273,666.7566,998.0583439530274,664.27,997.9999618530273,661.7764C997.9999618530273,661.7764,997.9999618530273,661.7764,997.9999618530273,661.7764Z" fill="#FF37D0" fill-opacity="1"/></g><g transform="matrix(1,-0.012197986245155334,0.015008175745606422,0.9998883008956909,-9.651242648779316,12.454914720444663)"><path d="M1020.2331223999023,652.089743828125C1023.0269023999024,652.089743828125,1025.2916223999023,650.069643828125,1025.2916223999023,647.577703828125C1025.2916223999023,645.085783828125,1023.0269023999024,643.065673828125,1020.2331223999023,643.065673828125C1017.4393323999024,643.065673828125,1015.1745223999023,645.085783828125,1015.1745223999023,647.577703828125C1015.1745223999023,650.069643828125,1017.4393323999024,652.089743828125,1020.2331223999023,652.089743828125C1020.2331223999023,652.089743828125,1020.2331223999023,652.089743828125,1020.2331223999023,652.089743828125Z" fill="#FF37D0" fill-opacity="1"/></g><g transform="matrix(1,-0.01215074397623539,0.01495001558214426,0.9998891353607178,-9.531934300205648,12.695091817246407)"><path d="M1044.0657895874024,646.6557140625C1046.8734095874024,646.6557140625,1049.1494395874024,644.6255940625,1049.1494395874024,642.1213040625C1049.1494395874024,639.6170240625,1046.8734095874024,637.5869140625,1044.0657895874024,637.5869140625C1041.2581695874023,637.5869140625,1038.9821395874023,639.6170240625,1038.9821395874023,642.1213040625C1038.9821395874023,644.6255940625,1041.2581695874023,646.6557140625,1044.0657895874024,646.6557140625C1044.0657895874024,646.6557140625,1044.0657895874024,646.6557140625,1044.0657895874024,646.6557140625Z" fill="#FF37D0" fill-opacity="1"/></g><g transform="matrix(0.9975452423095703,0.07002472877502441,-0.10044817626476288,0.994942307472229,8.457362743141857,-63.94703294500323)"><path d="M922.4735306030274,69.970873671875C925.1275906030273,69.970873671875,927.2791506030273,68.135113671875,927.2791506030273,65.87057367187501C927.2791506030273,63.606033671875,925.1275906030273,61.770263671875,922.4735306030274,61.770263671875C919.8194706030273,61.770263671875,917.6679306030273,63.606033671875,917.6679306030273,65.87057367187501C917.6679306030273,68.135113671875,919.8194706030273,69.970873671875,922.4735306030274,69.970873671875C922.4735306030274,69.970873671875,922.4735306030274,69.970873671875,922.4735306030274,69.970873671875Z" fill="#FF37D0" fill-opacity="1"/></g><g transform="matrix(0.996833324432373,0.079519122838974,-0.11343611031770706,0.9935452938079834,10.747250442722361,-73.0736945045594)"><path d="M930.0888971264649,88.975949609375C929.0159671264648,89.081749609375,927.9320171264649,88.887549609375,926.9964171264648,88.421949609375C926.0608171264648,87.956349609375,925.3229411264648,87.243849609375,924.8912741264649,86.389349609375C924.4797104264649,85.546349609375,924.4284441264648,84.604649609375,924.7466251264649,83.732149609375C925.0648051264649,82.859549609375,925.7317271264649,82.113149609375,926.6283971264648,81.62574960937499C929.7084171264648,79.944349609375,933.0023571264649,78.574549609375,936.4451671264649,77.543399609375C942.6758671264648,75.940279609375,949.1077671264649,74.929309609375,955.4219671264649,73.555049609375C961.6800671264648,72.192349609375,967.9117671264648,70.733999609375,974.1227671264649,69.219850609375C975.2606671264648,68.845076809375,976.5170671264649,68.837756409375,977.6606671264649,69.199240609375C978.8043671264649,69.560726609375,979.7582671264648,70.266679609375,980.3467671264648,71.187169609375C980.6342671264648,71.652769609375,980.8087671264649,72.164119609375,980.8594671264649,72.689919609375C980.9101671264648,73.215709609375,980.8361671264648,73.744919609375,980.6418671264648,74.245179609375C980.4476671264648,74.745429609375,980.1371671264649,75.206219609375,979.7295671264649,75.599349609375C979.3219671264649,75.992479609375,978.8257671264648,76.309699609375,978.2712671264649,76.53159960937501C975.8060671264649,77.580819609375,973.2111671264648,78.385559609375,970.5360671264648,78.930399609375C961.3567671264649,80.833249609375,952.0976671264649,82.456349609375,942.9470671264648,84.450549609375C939.6388671264648,85.363949609375,936.4099671264648,86.479149609375,933.2849471264649,87.787849609375C932.0041171264648,88.240349609375,930.7413671264649,88.731749609375,930.0888971264649,88.975949609375C930.0888971264649,88.975949609375,930.0888971264649,88.975949609375,930.0888971264649,88.975949609375Z" fill="#FF37D0" fill-opacity="1"/></g><g transform="matrix(0.9968333840370178,0.0795191153883934,-0.11343613266944885,0.9935452938079834,2.8271640427688,-70.99490003427178)"><path d="M892.8029403686523,61.1317C892.9124333686524,53.314,894.4272003686524,45.5615,897.2904003686524,38.1654C901.5849603686523,28.9275,908.1122403686524,20.6338,916.4139403686523,13.867C919.1351403686524,11.5638,921.8644403686524,9.26089,924.7137403686523,7.08488C930.7110403686523,2.58382,938.3178403686524,0.112331,946.1804403686524,0.110226C960.5780403686523,-0.544224,974.9542403686523,1.72209,988.2110403686523,6.73613C997.6249403686523,9.964,1006.0189403686524,15.1562,1012.6799403686523,21.8713C1020.5999403686524,30.0984,1025.8829403686523,40.0544,1027.9809403686522,50.7027C1029.4589403686523,59.6571,1028.4629403686524,68.7952,1025.0769403686522,77.3342C1021.2409403686523,88.0874,1014.7689403686524,97.9578,1006.1239403686524,106.241C1000.6579403686524,111.538,993.9069403686524,115.668,986.3771403686524,118.32C978.8475403686523,120.973,970.7363403686523,122.078,962.6540403686523,121.554C942.0829403686523,120.091,923.0033403686523,111.476,909.5879403686523,97.5939C901.8894303686524,90.4743,896.5649103686524,81.6095,894.2030203686523,71.9786C893.5102753686523,68.3887,893.0428653686523,64.7674,892.8029403686523,61.1317C892.8029403686523,61.1317,892.8029403686523,61.1317,892.8029403686523,61.1317ZM967.8372403686524,112.653C969.7504403686523,112.704,971.6646403686524,112.595,973.5550403686524,112.33C981.4835403686524,110.842,988.9072403686523,107.728,995.2289403686524,103.238C1000.5699403686524,98.9757,1005.0029403686524,93.8998,1008.3189403686523,88.2514C1014.0509403686524,80.1396,1017.5049403686523,70.9297,1018.3899403686523,61.3932C1019.0699403686524,51.8042,1016.1859403686524,42.2817,1010.1779403686523,34.28C1006.8679403686524,29.1683,1002.3949403686523,24.7217,997.0409403686524,21.2226C982.0569403686524,12.4492,964.2963403686523,8.14755,946.3541403686523,8.94615C941.8984403686524,8.97637,937.5350403686523,10.0735,933.7266403686524,12.1211C932.9016403686524,12.5954,932.2859403686523,13.3064,931.9828403686523,14.1348C931.7584403686524,14.9315,931.3322403686524,15.6727,930.7364403686523,16.3022C930.1407403686524,16.9315,929.3910403686523,17.4328,928.5442403686524,17.7679C927.3889403686524,18.1994,926.2885403686523,18.738,925.2614403686523,19.3746C917.3168403686524,25.0501,911.0882403686524,32.3829,907.1347403686524,40.715C904.8976403686523,46.1385,903.6483403686524,51.8422,903.4334403686523,57.6128C902.3383403686523,66.9636,904.9298403686523,76.362,910.7687403686523,84.2147C919.2582403686523,95.4739,931.3595403686523,104.227,945.5156403686524,109.347C952.6421403686523,111.725,960.2244403686524,112.848,967.8372403686524,112.653C967.8372403686524,112.653,967.8372403686524,112.653,967.8372403686524,112.653Z" fill="#FF37D0" fill-opacity="1"/></g><g transform="matrix(0.9904033541679382,-0.13820689916610718,0.13475827872753143,0.9908784627914429,-47.444212244329265,148.0963259223995)"><g transform="matrix(1,-2.832410972430921e-10,3.6665228630994307e-9,1,-0.0000015633117982361,2.9553797276093974e-7)"><g transform="matrix(1,-2.832410972430921e-10,3.6665228630994307e-9,1,-0.0000015633117982361,2.9553797276093974e-7)"><g transform="matrix(1,-2.832410972430921e-10,3.6665228630994307e-9,1,-0.0000015633117982361,2.9553797276093974e-7)"><path d="M1068.283578855818,436.9049112378529C1068.247178855818,433.7618312378529,1067.854078855818,429.8943112378529,1065.354178855818,427.68921123785293C1062.604278855818,425.2311812378529,1059.924878855818,426.5326372378529,1057.852178855818,429.0250412378529C1057.781778855818,428.9169912378529,1057.675078855818,428.7721112378529,1057.602278855818,428.6272412378529C1055.672778855818,425.6289882378529,1051.600188855818,425.84507923785293,1049.2435388558179,428.15823123785293C1046.707298855818,430.68745123785294,1045.420968855818,434.8079012378529,1044.671028855818,438.20641123785293C1043.884661855818,441.92901123785293,1043.634676855818,445.7597112378529,1043.4210986258179,449.5535112378529C1043.207519855818,453.0233112378529,1048.5639688558178,453.0233112378529,1048.779978855818,449.5535112378529C1049.029958855818,445.0009112378529,1049.313928855818,440.3747112378529,1050.850238855818,436.0381412378529C1051.209438855818,435.0976612378529,1051.600188855818,434.1571812378529,1052.136558855818,433.25353123785294C1052.316158855818,432.9662212378529,1052.779718855818,431.9889112378529,1053.2093188558179,431.8808712378529C1053.2093188558179,431.8808712378529,1053.243288855818,431.8808712378529,1053.243288855818,431.8440312378529C1053.243288855818,431.9177012378529,1053.243288855818,431.9545312378529,1053.316098855818,432.0257512378529C1053.745678855818,432.60525123785294,1053.602478855818,434.3020612378529,1053.636478855818,434.98962123785293C1053.672878855818,436.2910612378529,1053.602478855818,437.62691123785294,1053.459278855818,438.92831123785294C1053.172908855818,441.92901123785293,1058.245378855818,442.6510112378529,1058.745278855818,439.65271123785294C1059.031678855818,437.70051123785294,1059.638478855818,435.8932712378529,1060.674778855818,434.2308412378529C1061.031678855818,433.7250012378529,1061.817978855818,433.0742812378529,1062.281578855818,432.4603812378529C1062.354378855818,433.03744123785293,1062.638278855818,433.61696123785293,1062.711178855818,434.1940112378529C1063.567878855818,438.96521123785294,1062.638278855818,444.2790112378529,1062.174778855818,449.0846112378529C1061.817978855818,452.5543112378529,1067.176878855818,452.5174112378529,1067.533678855818,449.0846112378529C1067.926878855818,445.0378112378529,1068.353978855818,440.9517112378529,1068.283578855818,436.9049112378529C1068.283578855818,436.9049112378529,1068.283578855818,436.9049112378529,1068.283578855818,436.9049112378529Z" fill="#E1E336" fill-opacity="1"/></g></g></g></g><g transform="matrix(0.990403413772583,-0.1382068544626236,0.13475827872753143,0.9908785223960876,-47.54929754699515,146.62087706396812)"><g transform="matrix(1,-2.832410972430921e-10,3.6665228630994307e-9,1,-0.0000015633818293281365,2.925139597209636e-7)"><g transform="matrix(1,-2.832410972430921e-10,3.6665228630994307e-9,1,-0.0000015633818293281365,2.925139597209636e-7)"><g transform="matrix(1,-2.832410972430921e-10,3.6665228630994307e-9,1,-0.0000015633818293281365,2.925139597209636e-7)"><path d="M1034.3513972542555,428.9820447319393C1033.6378542542554,435.48930473193934,1033.1014802542554,442.03095473193935,1032.7447070242554,448.6069547319393C1032.5311282542555,452.07665473193936,1037.8875772542553,452.07665473193936,1038.1035872542554,448.6069547319393C1038.4603672542555,442.03095473193935,1038.9967372542555,435.48930473193934,1039.7102872542555,428.9820447319393C1040.0670572542554,425.51233173193935,1034.7081772542554,425.54916473193936,1034.3513972542555,428.9820447319393C1034.3513972542555,428.9820447319393,1034.3513972542555,428.9820447319393,1034.3513972542555,428.9820447319393Z" fill="#E1E336" fill-opacity="1"/></g></g></g></g><g transform="matrix(0.9904033541679382,-0.13820689916610718,0.13475821912288666,0.9908785223960876,-46.91893436123837,148.60207064911674)"><g transform="matrix(1,-2.832410972430921e-10,3.6665228630994307e-9,1,-0.0000015500386325584259,2.9664215617231093e-7)"><g transform="matrix(1,-2.832410972430921e-10,3.6665228630994307e-9,1,-0.0000015500386325584259,2.9664215617231093e-7)"><g transform="matrix(1,-2.832410972430921e-10,3.6665228630994307e-9,1,-0.0000015500386325584259,2.9664215617231093e-7)"><path d="" fill="#000000" fill-opacity="0"/></g></g></g></g><g transform="matrix(0.990403413772583,-0.1382068544626236,0.13475826382637024,0.9908785223960876,-47.716042288242534,146.87950207056235)"><g transform="matrix(1,-2.832410972430921e-10,3.6665228630994307e-9,1,-0.0000015683838228142122,2.9301850190677214e-7)"><g transform="matrix(1,-2.832410972430921e-10,3.6665228630994307e-9,1,-0.0000015683838228142122,2.9301850190677214e-7)"><g transform="matrix(1,-2.832410972430921e-10,3.6665228630994307e-9,1,-0.0000015683838228142122,2.9301850190677214e-7)"><path d="" fill="#000000" fill-opacity="0"/></g></g></g></g><g transform="matrix(0.990403413772583,-0.13820689916610718,0.13475826382637024,0.9908785223960876,-48.39759718003006,140.25016318543794)"><g transform="matrix(1,8.17219447668549e-9,3.4585290187294504e-9,1,-0.0000014850641036900925,-0.000008061418611760018)"><g transform="matrix(1,-6.55956666761881e-9,3.4585290187294504e-9,1,-0.0000014850641036900925,0.00000647065036218919)"><g transform="matrix(1,-6.55956666761881e-9,3.4585290187294504e-9,1,-0.0000014850642173769302,0.00000647065036218919)"><path d="M1011.0333860938171,433.2243167690206C1010.640186093817,429.79142776902063,1005.281286093817,429.75459276902063,1005.7108860938171,433.2243167690206C1006.174486093817,437.23671676902063,1005.997286093817,441.2122467690206,1004.890586093817,445.11414676902064C1004.531386093817,446.2707467690206,1003.997386093817,448.8368467690206,1002.604286093817,449.2002467690206C1000.851986093817,449.6692467690206,1000.817986093817,446.3812467690206,1000.745186093817,445.2958467690206C1000.495286093817,441.8630467690206,995.209166093817,441.7893467690206,995.422756093817,445.2958467690206C995.459146093817,446.1626467690206,995.136356093817,448.8024467690206,993.7092660938171,448.29664676902064C992.600106093817,447.8988467690206,992.350126093817,444.9349467690206,992.172956093817,443.9944467690206C991.566196093817,440.2718467690206,991.672986093817,436.47793676902063,992.350126093817,432.7896767690206C992.959316093817,429.3936242590206,987.814016093817,427.9104667690206,987.170844093817,431.34579676902064C986.527681093817,434.9235667690206,986.243719093817,438.5381567690206,986.600492093817,442.18704676902064C986.886881093817,445.2591467690206,987.243655093817,448.94724676902064,989.243536093817,451.43974676902064C991.779776093817,454.54844676902064,995.065976093817,454.29554676902063,997.495386093817,452.4170467690206C997.8521860938171,452.8492467690206,998.281786093817,453.24704676902064,998.781786093817,453.6079467690206C1001.351986093817,455.4152467690206,1004.674586093817,454.8726467690206,1006.890386093817,452.7044467690206C1009.140286093817,450.53604676902063,1010.033486093817,447.10324676902064,1010.606186093817,444.1393467690206C1011.319786093817,440.5247467690206,1011.496986093817,436.8757467690206,1011.0333860938171,433.2243167690206C1011.0333860938171,433.2243167690206,1011.0333860938171,433.2243167690206,1011.0333860938171,433.2243167690206Z" fill="#E1E336" fill-opacity="1"/></g></g></g></g><g transform="matrix(0.9904033541679382,-0.1382068395614624,0.13475827872753143,0.9908785223960876,-47.54567517554506,144.3181331488604)"><g transform="matrix(1,8.17219447668549e-9,3.4585290187294504e-9,1,-0.0000014705191233588266,-0.000008304230163957982)"><g transform="matrix(1,-6.55956666761881e-9,3.4585290187294504e-9,1,-0.0000014705191233588266,0.0000066655476302912575)"><g transform="matrix(1,-6.55956666761881e-9,3.4585290187294504e-9,1,-0.0000014705191233588266,0.0000066655476302912575)"><path d="" fill="#000000" fill-opacity="0"/></g></g></g></g><g transform="matrix(0.990403413772583,-0.13820691406726837,0.13475826382637024,0.9908784627914429,-48.70718116622993,137.04223676304707)"><g transform="matrix(1,-2.832410972430921e-10,3.6665228630994307e-9,1,-0.0000015767266177135753,2.728153276621015e-7)"><g transform="matrix(1,-2.832410972430921e-10,3.6665228630994307e-9,1,-0.0000015767266177135753,2.728153276621015e-7)"><g transform="matrix(1,-2.832410972430921e-10,3.6665228630994307e-9,1,-0.0000015767266177135753,2.728153276621015e-7)"><path d="M981.2887239174424,434.16704433043805C978.3593239174425,429.287822330438,970.7165739174425,428.67393433043804,966.8940039174425,432.612664330438C963.1418148174425,435.86629433043805,962.6078689174425,443.419604330438,963.6781889174425,447.648104330438C964.4281439174425,450.538304330438,966.3212239174425,453.57590433043805,969.2506539174425,454.513804330438C972.2868739174424,455.525504330438,975.6459239174425,454.405804330438,978.0389239174425,452.41920433043805C980.4684239174425,450.35900433043804,981.9683239174425,447.35830433043805,982.4682239174425,444.21520433043804C982.9318239174424,441.10650433043804,982.9682239174425,436.94919433043805,981.2887239174424,434.16704433043805C981.2887239174424,434.16704433043805,981.2887239174424,434.16704433043805,981.2887239174424,434.16704433043805ZM974.7891239174425,448.22520433043803C974.6799239174425,448.298904330438,974.6095239174425,448.370004330438,974.5027239174425,448.47810433043804C973.3596239174425,449.455404330438,971.5369139174425,449.853204330438,970.3234039174425,448.912804330438C969.5370339174425,448.333304330438,969.1802739174425,447.35830433043805,968.9302839174425,446.41790433043803C968.5735039174425,444.86350433043805,968.5007039174425,443.237904330438,968.6803039174425,441.649204330438C968.8574739174425,440.202804330438,969.2166639174425,438.358694330438,970.0370039174425,437.16529433043803C970.7869639174424,436.11922433043804,972.0368839174425,435.468484330438,973.3232239174425,435.431664330438C975.5390239174425,435.39482433043804,976.9661239174425,436.912374330438,977.2161239174425,439.00942433043804C977.6457239174425,442.18940433043804,977.1821239174425,445.91200433043804,974.7891239174425,448.22520433043803C974.7891239174425,448.22520433043803,974.7891239174425,448.22520433043803,974.7891239174425,448.22520433043803Z" fill="#E1E336" fill-opacity="1"/></g></g></g></g><g transform="matrix(0.990403413772583,-0.13820688426494598,0.13475827872753143,0.9908785223960876,-48.87397276098818,137.30079284138367)"><g transform="matrix(1,-2.832410972430921e-10,3.6665228630994307e-9,1,-0.0000015817295206943527,2.7331981300449115e-7)"><g transform="matrix(1,-2.832410972430921e-10,3.6665228630994307e-9,1,-0.0000015817295206943527,2.7331981300449115e-7)"><g transform="matrix(1,-2.832410972430921e-10,3.6665228630994307e-9,1,-0.0000015817295206943527,2.7331981300449115e-7)"><path d="" fill="#000000" fill-opacity="0"/></g></g></g></g><g transform="matrix(0.990403413772583,-0.13820689916610718,0.13475827872753143,0.9908785223960876,-46.39194554014648,152.12650648031422)"><g transform="matrix(1,-2.832410972430921e-10,3.6665228630994307e-9,1,-0.0000015423922832269454,3.039041303054546e-7)"><g transform="matrix(1,-2.832410972430921e-10,3.6665228630994307e-9,1,-0.0000015423922832269454,3.039041303054546e-7)"><g transform="matrix(1,-2.832410972430921e-10,3.6665228630994307e-9,1,-0.0000015423922832269454,3.039041303054546e-7)"><path d="" fill="#000000" fill-opacity="0"/></g></g></g></g><g transform="matrix(0.9904033541679382,-0.13820688426494598,0.13475827872753143,0.9908785223960876,-49.36827720305928,134.24513955511168)"><g transform="matrix(1,-2.832410972430921e-10,3.6665228630994307e-9,1,-0.000001589371436239162,2.6701860633693286e-7)"><g transform="matrix(1,-2.832410972430921e-10,3.6665228630994307e-9,1,-0.000001589371436239162,2.6701860633693286e-7)"><g transform="matrix(1,-2.832410972430921e-10,3.6665228630994307e-9,1,-0.000001589371436239162,2.6701860633693286e-7)"><path d="" fill="#000000" fill-opacity="0"/></g></g></g></g><g transform="matrix(0.9904033541679382,-0.13820689916610718,0.13475830852985382,0.9908785223960876,-49.20151798562483,133.98683219386157)"><g transform="matrix(1,8.17219447668549e-9,3.4585290187294504e-9,1,-0.0000014944914710213197,-0.000007689596770887874)"><g transform="matrix(1,-6.55956666761881e-9,3.4585290187294504e-9,1,-0.0000014944914710213197,0.000006172200471610267)"><g transform="matrix(1,-6.55956666761881e-9,3.4585290187294504e-9,1,-0.0000014944914710213197,0.000006172200471610267)"><path d="M954.4685729859324,434.08217486444886C953.8617729859324,437.1540948644489,953.3618729859323,440.2972248644489,952.9346729859324,443.40597486444886C952.9346729859324,443.40597486444886,947.9689729859324,443.40597486444886,947.9689729859324,443.40597486444886C948.0393429859324,442.6103748644489,948.1461329859324,441.85160486444886,948.2189429859324,441.0928348644489C948.4325329859324,439.43040486444886,948.3961229859324,437.4414048644489,948.9688929859324,435.88947486444886C950.1824129859324,432.63584986444886,945.0031329859324,431.18951986444887,943.7896129859324,434.44314486444887C943.2168429859324,436.06873486444886,943.2168429859324,438.05774486444886,943.0396629859324,439.7545548644489C942.7896729859324,441.66989486444885,942.5736729859324,443.5876748644489,942.3600929859324,445.5029748644489C941.8965319859324,449.4785748644489,941.4305419859323,453.4540748644489,940.9669792859324,457.4296748644489C940.5738009859324,460.8626748644489,945.9326829859324,460.8257748644489,946.3258629859324,457.4296748644489C946.6462329859323,454.53707486444887,947.0030029859324,451.68117486444885,947.3257929859324,448.82787486444886C947.3257929859324,448.82787486444886,952.2551729859324,448.82787486444886,952.2551729859324,448.82787486444886C952.0050729859324,451.0673748644489,951.7915729859324,453.3436748644489,951.6118729859323,455.58557486444886C951.3619729859324,459.05527486444885,956.7207729859324,459.05527486444885,956.9707729859324,455.58557486444886C957.4707729859324,448.82787486444886,958.3638729859324,442.1413748644489,959.6502729859324,435.52604486444886C960.2933729859324,432.09316916444885,955.1481729859324,430.64683486444886,954.4685729859324,434.08217486444886C954.4685729859324,434.08217486444886,954.4685729859324,434.08217486444886,954.4685729859324,434.08217486444886Z" fill="#E1E336" fill-opacity="1"/></g></g></g></g><g transform="matrix(0.9904033541679382,-0.1382068544626236,0.13475829362869263,0.9908784627914429,-49.99676986383611,131.65711848092576)"><g transform="matrix(1,-2.832410972430921e-10,3.6665228630994307e-9,1,-0.0000016015247865652782,2.6165275812672917e-7)"><g transform="matrix(1,-2.832410972430921e-10,3.6665228630994307e-9,1,-0.0000016015247865652782,2.6165275812672917e-7)"><g transform="matrix(1,-2.832410972430921e-10,3.6665228630994307e-9,1,-0.0000016015247865652782,2.6165275812672917e-7)"><path d="" fill="#000000" fill-opacity="0"/></g></g></g></g><g transform="matrix(0.9904033541679382,-0.13820689916610718,0.13475826382637024,0.9908785223960876,-48.5642893721747,140.50878827166025)"><g transform="matrix(1,-2.832410972430921e-10,3.6665228630994307e-9,1,-0.000001579377112648217,2.799062031044741e-7)"><g transform="matrix(1,-2.832410972430921e-10,3.6665228630994307e-9,1,-0.000001579377112648217,2.799062031044741e-7)"><g transform="matrix(1,-2.832410972430921e-10,3.6665228630994307e-9,1,-0.000001579377112648217,2.799062031044741e-7)"><path d="" fill="#000000" fill-opacity="0"/></g></g></g></g><g transform="matrix(0.9904033541679382,-0.1382068693637848,0.13475826382637024,0.9908785223960876,-48.07096940195379,143.8112270853851)"><g transform="matrix(1,-2.832410972430921e-10,3.6665228630994307e-9,1,-0.00000157222757479758,2.8671075824604486e-7)"><g transform="matrix(1,-2.832410972430921e-10,3.6665228630994307e-9,1,-0.00000157222757479758,2.8671075824604486e-7)"><g transform="matrix(1,-2.832410972430921e-10,3.6665228630994307e-9,1,-0.00000157222757479758,2.8671075824604486e-7)"><path d="M1026.739540689812,429.2368233613832C1022.7737406898119,428.7285206613832,1018.8080006898119,428.6573083613832,1014.8082506898119,429.0919453613832C1011.4152626898119,429.4160793613832,1011.3788576898119,434.8379823613832,1014.8082506898119,434.4770123613832C1015.8785706898119,434.3689623613832,1016.9149206898119,434.33212236138314,1017.9512606898119,434.2584623613832C1017.6308906898118,439.5723523613832,1017.3445006898119,444.84925236138315,1017.0217006898118,450.12635236138317C1016.8081206898119,453.63045236138316,1022.167010689812,453.59605236138316,1022.3805406898119,450.12635236138317C1022.7033406898119,444.88615236138315,1022.9874406898119,439.60915236138317,1023.3101406898119,434.33212236138314C1024.453340689812,434.4033423613832,1025.596440689812,434.5113923613832,1026.739540689812,434.65626236138314C1030.168840689812,435.12773236138315,1030.1325406898118,429.70583736138315,1026.739540689812,429.2368233613832C1026.739540689812,429.2368233613832,1026.739540689812,429.2368233613832,1026.739540689812,429.2368233613832Z" fill="#E1E336" fill-opacity="1"/></g></g></g></g><g transform="matrix(0.990403413772583,-0.1382068693637848,0.13475827872753143,0.9908785223960876,-46.344434559776346,151.87624261562792)"><g transform="matrix(1,-2.832410972430921e-10,3.6665228630994307e-9,1,-0.0000015406351394631201,3.034002702406724e-7)"><g transform="matrix(1,-2.832410972430921e-10,3.6665228630994307e-9,1,-0.0000015406351394631201,3.034002702406724e-7)"><g transform="matrix(1,-2.832410972430921e-10,3.6665228630994307e-9,1,-0.0000015406351394631201,3.034002702406724e-7)"><path d="M1084.3040796671198,439.08989727890696C1081.8381796671197,439.018697278907,1079.3723196671197,439.08989727890696,1076.9452896671198,439.342897278907C1077.1224596671198,437.97009727890696,1077.3360296671196,436.597497278907,1077.5156296671198,435.187997278907C1078.7291496671196,435.187997278907,1079.9450896671196,435.259197278907,1081.1586096671197,435.36729727890696C1082.6244796671197,435.512097278907,1083.8380796671197,434.031397278907,1083.8380796671197,432.658797278907C1083.8380796671197,431.067597278907,1082.6244796671197,430.09268727890696,1081.1586096671197,429.94780727890696C1080.2314796671196,429.874147278907,1079.3019296671198,429.802937278907,1078.3383996671198,429.802937278907C1078.5519796671197,428.39343727890696,1078.8019596671197,426.983937278907,1079.0155396671198,425.608817278907C1080.8382396671198,425.608817278907,1082.6244796671197,425.645657278907,1084.4447796671197,425.790537278907C1087.8741796671197,426.006627278907,1087.8741796671197,420.587180278907,1084.4447796671197,420.368634278907C1081.8745796671196,420.18937736790696,1079.2655296671196,420.152544478907,1076.6952996671198,420.223755778907C1075.6929296671196,420.26058887890696,1074.9793896671197,420.76643727890695,1074.5498096671197,421.41716727890696C1074.3726396671198,421.70692727890696,1074.2294296671198,422.067887278907,1074.1590496671197,422.50251727890696C1072.9795096671196,429.115377278907,1072.0135566671197,435.765097278907,1071.1932207671198,442.45149727890697C1070.9432366671197,444.366897278907,1073.0863096671196,445.30729727890696,1074.5862096671196,445.054497278907C1077.8020196671198,444.548597278907,1081.0518196671196,444.40379727890695,1084.3040796671198,444.511897278907C1087.7309796671198,444.65669727890696,1087.7309796671198,439.23479727890697,1084.3040796671198,439.08989727890696C1084.3040796671198,439.08989727890696,1084.3040796671198,439.08989727890696,1084.3040796671198,439.08989727890696Z" fill="#E1E336" fill-opacity="1"/></g></g></g></g><g transform="matrix(0.990403413772583,-0.1382068544626236,0.13475829362869263,0.9908784627914429,-49.83007144689145,131.39852713492326)"><g><g><g><path d="M933.5224612208688,446.34507315584676C932.5953612208688,445.7287731558468,930.4498212208687,445.1517131558468,930.0226712208687,443.9951431558468C929.3795112208687,442.2246731558468,931.7725612208687,440.9600631558468,932.9860612208687,440.4173731558468C936.0950612208687,438.9342031558468,933.3792612208688,434.2367031558468,930.2726512208687,435.71741615584676C925.4865412208687,437.9961931558468,922.1639392208688,444.4641531558468,926.9500512208688,448.6214731558468C928.6295512208687,450.13897315584677,931.9521612208687,450.71847315584677,932.3089612208687,453.3557731558468C932.4521612208687,454.5123731558468,931.9157512208687,455.52397315584676,930.9158112208687,455.9586731558468C930.2362412208687,456.2828731558468,927.7364112208687,456.68067315584676,927.1636212208688,455.8850731558468C925.0933712208687,453.13967315584676,920.4480212208688,455.8137731558468,922.5207132208687,458.59597315584676C926.7364712208687,464.2339731558468,936.8086612208688,461.8863731558468,937.5949612208688,454.6204731558468C937.9517612208688,451.3324731558468,936.2382612208687,448.18677315584677,933.5224612208688,446.34507315584676C933.5224612208688,446.34507315584676,933.5224612208688,446.34507315584676,933.5224612208688,446.34507315584676Z" fill="#E1E336" fill-opacity="1"/></g></g></g></g><g transform="matrix(0.9927613139152527,-0.12010429799556732,0.11978945136070251,0.9927993416786194,-73.88850661016522,15.847782364817817)"><g transform="matrix(1,-1.875227084724429e-9,7.900727183596246e-9,1,-0.0000049185026114173525,1.7744696378940716e-7)"><g transform="matrix(1,-1.875227084724429e-9,-6.859002255055202e-9,1,0.000004269989304361843,1.7744696378940716e-7)"><g transform="matrix(1,-1.875227084724429e-9,-6.859002255055202e-9,1,0.000004269989304361843,1.7744696378940716e-7)"><path d="M108.46101528596427,627.0009238445199C106.21701528596427,624.6402838445199,103.53749528596427,623.54303384452,100.63899528596427,622.9099008445199C100.34865528596427,622.82681984452,100.02385528596427,622.78384684452,99.73351528596427,622.7007648445199C97.99638528596428,622.3627118445199,95.71301528596427,622.31973884452,95.57030828596427,624.9353538445199C95.09788628596428,632.61036384452,94.81000428596427,640.28246384452,94.62792594596428,647.9574638445199C94.59101788596428,649.30676384452,95.57030828596427,650.53006384452,96.69230528596427,650.69906384452C97.52396528596427,650.8681638445199,98.39499528596427,650.5729638445199,99.22665528596427,650.27796384452C102.12515528596427,649.1376638445199,105.63631528596427,647.83136384452,107.99101528596427,645.5108638445199C110.12681528596427,643.36206384452,111.72121528596428,640.4944638445199,112.04601528596427,637.2055638445199C112.44461528596428,633.2835638445199,110.92401528596427,629.57357384452,108.46101528596427,627.0009238445199C108.46101528596427,627.0009238445199,108.46101528596427,627.0009238445199,108.46101528596427,627.0009238445199ZM106.43351528596428,637.5837638445199C105.41971528596427,640.9156638445199,102.81164528596427,642.1389638445199,100.13212528596428,643.15016384452C100.27729528596427,638.55496384452,100.49382528596428,633.9596638445199,100.71280528596428,629.4045438445199C104.07881528596427,630.2468138445199,107.84591528596427,632.98846384452,106.43351528596428,637.5837638445199C106.43351528596428,637.5837638445199,106.43351528596428,637.5837638445199,106.43351528596428,637.5837638445199Z" fill="#E1E336" fill-opacity="1"/></g></g></g></g><g transform="matrix(0.9927612543106079,-0.12010429799556732,0.1197894811630249,0.9927992820739746,-74.26273522095198,13.508788955358455)"><g transform="matrix(1,-1.875227084724429e-9,7.900727183596246e-9,1,-0.000004933830524578298,1.407088348059915e-7)"><g transform="matrix(1,-1.875227084724429e-9,-6.859002255055202e-9,1,0.000004283296192397756,1.407088348059915e-7)"><g transform="matrix(1,-1.875227084724429e-9,-6.859002255055202e-9,1,0.000004283296192397756,1.407088348059915e-7)"><path d="M88.34770675383716,646.5284274096934C85.84780675383716,646.4454274096935,83.34790675383715,646.5284274096934,80.88737675383716,646.8236274096935C81.06699675383716,645.2221274096935,81.28352675383715,643.6206274096935,81.46559675383716,641.9762274096935C82.69585675383716,641.9762274096935,83.92858675383715,642.0593274096934,85.15880675383715,642.1854274096935C86.64500675383715,642.3543274096935,87.87530675383715,640.6269274096935,87.87530675383715,639.0254274096935C87.87530675383715,637.1690274096935,86.64500675383715,636.0316274096934,85.15880675383715,635.8626274096935C84.21892675383715,635.7766274096934,83.27654675383715,635.6936274096935,82.29971675383716,635.6936274096935C82.51624675383715,634.0491574096935,82.76967675383716,632.4047274096935,82.98620675383715,630.8003974096935C84.83405675383716,630.8003974096935,86.64500675383715,630.8433874096935,88.49050675383715,631.0124074096935C91.96710675383716,631.2645074096935,91.96710675383716,624.9417624096935,88.49050675383715,624.6867894096935C85.88470675383715,624.4776542036935,83.23964675383716,624.4346820096935,80.63393675383716,624.5177628096935C79.61773675383716,624.5607352096935,78.89434675383716,625.1508974096935,78.45883675383716,625.9100774096935C78.27921675383716,626.2481374096935,78.13403675383715,626.6692774096934,78.06268675383716,627.1763574096935C76.86687675383716,634.8914274096935,75.88758275383715,642.6495274096935,75.05592455383716,650.4505274096934C74.80249075383716,652.6851274096935,76.97513675383716,653.7824274096935,78.49573675383716,653.4872274096934C81.75594675383715,652.8971274096934,85.05060675383716,652.7280274096935,88.34770675383716,652.8541274096934C91.82190675383715,653.0231274096935,91.82190675383715,646.6975274096935,88.34770675383716,646.5284274096934C88.34770675383716,646.5284274096934,88.34770675383716,646.5284274096934,88.34770675383716,646.5284274096934Z" fill="#E1E336" fill-opacity="1"/></g></g></g></g><g transform="matrix(0.9927613139152527,-0.12010429799556732,0.1197894811630249,0.9927992820739746,-75.32118391248196,10.173295922246893)"><g transform="matrix(1,-1.875227084724429e-9,7.900727183596246e-9,1,-0.0000049901772172233905,8.782888016867219e-8)"><g transform="matrix(1,-1.875227084724429e-9,-6.859002255055202e-9,1,0.000004332213478619451,8.782888016867219e-8)"><g transform="matrix(1,-1.875227084724429e-9,-6.859002255055202e-9,1,0.000004332213471514024,8.782888016867219e-8)"><path d="M72.04838799297521,643.8955628631028C72.0113879929752,640.2285028631028,71.6127879929752,635.7163428631028,69.0784879929752,633.1436928631027C66.29068799297521,630.2759728631028,63.574187992975205,631.7943448631028,61.472987992975206,634.7021728631028C61.40158799297521,634.5761228631028,61.293387992975205,634.4070928631028,61.21958799297521,634.2380828631028C59.263387992975204,630.7400758631028,55.1346679929752,630.9921848631028,52.7454979929752,633.6908828631027C50.174247992975204,636.6416928631028,48.870167992975205,641.4489428631027,48.109867992975204,645.4138628631027C47.312654992975204,649.7569628631028,47.0592199929752,654.2262628631028,46.8426935829752,658.6524628631028C46.626167992975205,662.7004628631028,52.05655799297521,662.7004628631028,52.2755379929752,658.6524628631028C52.528967992975204,653.3409628631027,52.8168579929752,647.9435628631028,54.3743679929752,642.8842628631028C54.73852799297521,641.7869628631028,55.1346679929752,640.6897428631028,55.678457992975204,639.6354828631028C55.86052799297521,639.3002828631028,56.330497992975204,638.1600628631028,56.7659979929752,638.0340228631028C56.7659979929752,638.0340228631028,56.80044799297521,638.0340228631028,56.80044799297521,637.9910328631028C56.80044799297521,638.0769928631028,56.80044799297521,638.1199628631027,56.874287992975205,638.2030528631028C57.3097879929752,638.8791428631027,57.16458799297521,640.8587728631028,57.19908799297521,641.6609628631028C57.235987992975204,643.1792628631027,57.16458799297521,644.7378628631028,57.019387992975204,646.2561628631028C56.729097992975205,649.7569628631028,61.87158799297521,650.5993628631028,62.3784879929752,647.1012628631028C62.668787992975204,644.8237628631027,63.28388799297521,642.7151628631027,64.3345879929752,640.7756828631028C64.6962879929752,640.1855328631027,65.4934879929752,639.4263428631027,65.9633879929752,638.7101228631028C66.03728799297521,639.3833728631027,66.3251879929752,640.0594828631027,66.39898799297521,640.7327128631027C67.2674879929752,646.2991628631028,66.3251879929752,652.4987628631028,65.8551879929752,658.1052628631028C65.4934879929752,662.1533628631028,70.92638799297521,662.1102628631028,71.2879879929752,658.1052628631028C71.68668799297521,653.3839628631027,72.1196879929752,648.6168628631027,72.04838799297521,643.8955628631028C72.04838799297521,643.8955628631028,72.04838799297521,643.8955628631028,72.04838799297521,643.8955628631028Z" fill="#E1E336" fill-opacity="1"/></g></g></g></g><g transform="matrix(0.9927613139152527,-0.12010429054498672,0.1197894811630249,0.9927992820739746,-76.28323583445717,7.468989845397118)"><g transform="matrix(1,4.695535515963911e-9,5.323333995832513e-10,1,-3.3976517244127535e-7,-1.1232464203203563e-7)"><g transform="matrix(1,-2.701483259315296e-9,5.323333995832513e-10,1,-3.3976517244127535e-7,6.462380497396225e-8)"><g transform="matrix(1,-2.701483259315296e-9,5.323333995832513e-10,1,-3.3976517244127535e-7,6.462380497396225e-8)"><path d="M42.26889276553506,643.0792096925516C39.299192765535054,637.3867266925515,31.550912765535056,636.6705196925516,27.675582765535054,641.2657496925516C23.871602965535057,645.0616996925515,23.330287765535058,653.8740496925516,24.415379765535057,658.8072496925515C25.175682765535058,662.1791496925516,27.094892765535057,665.7230496925515,30.064752765535054,666.8174496925516C33.14287276553506,667.9978496925515,36.54829276553505,666.6913496925515,38.974292765535054,664.3736496925516C41.43739276553505,661.9701496925516,42.95789276553506,658.4692496925516,43.46479276553505,654.8022496925515C43.93469276553506,651.1753496925515,43.97169276553505,646.3250996925516,42.26889276553506,643.0792096925516C42.26889276553506,643.0792096925516,42.26889276553506,643.0792096925516,42.26889276553506,643.0792096925516ZM35.67969276553506,659.4806496925515C35.568892765535054,659.5665496925516,35.49759276553506,659.6495496925515,35.38929276553506,659.7756496925516C34.23039276553506,660.9158496925515,32.38257276553506,661.3799496925516,31.152302765535055,660.2827496925515C30.355102765535058,659.6066496925515,29.993402765535055,658.4692496925516,29.739962765535054,657.3720496925515C29.378262765535055,655.5585496925515,29.304452765535057,653.6619496925516,29.486532765535056,651.8083496925516C29.666152765535056,650.1210496925515,30.030302765535055,647.9695296925515,30.861962765535054,646.5772096925516C31.622262765535055,645.3567796925515,32.88944276553506,644.5975796925516,34.193492765535055,644.5546096925516C36.43999276553505,644.5116396925515,37.88669276553506,646.2821296925516,38.140192765535055,648.7287496925516C38.575792765535056,652.4386496925516,38.10579276553506,656.7818496925515,35.67969276553506,659.4806496925515C35.67969276553506,659.4806496925515,35.67969276553506,659.4806496925515,35.67969276553506,659.4806496925515Z" fill="#E1E336" fill-opacity="1"/></g></g></g></g><g transform="matrix(0.9927613139152527,-0.12010429799556732,0.11978945136070251,0.9927993416786194,-74.07393094797271,16.077700387516074)"><g transform="matrix(1,-1.875227084724429e-9,7.900727183596246e-9,1,-0.000004931598809321258,1.8085040665027918e-7)"><g transform="matrix(1,-1.875227084724429e-9,-6.859002255055202e-9,1,0.00000428135872709845,1.8085040665027918e-7)"><g transform="matrix(1,-1.875227084724429e-9,-6.859002255055202e-9,1,0.00000428135872709845,1.8085040665027918e-7)"><path d="M110.27595669221427,628.6585166179574C108.03195669221427,626.2978766179574,105.35243669221427,625.2006266179575,102.45393669221427,624.5674936179574C102.16359669221427,624.4844126179574,101.83879669221427,624.4414396179575,101.54845669221427,624.3583576179574C99.81132669221428,624.0203046179574,97.52795669221427,623.9773316179575,97.38524969221427,626.5929466179574C96.91282769221428,634.2679566179575,96.62494569221427,641.9400566179575,96.44286735221428,649.6150566179574C96.40595929221428,650.9643566179575,97.38524969221427,652.1876566179575,98.50724669221427,652.3566566179575C99.33890669221427,652.5257566179574,100.20993669221427,652.2305566179574,101.04159669221427,651.9355566179574C103.94009669221427,650.7952566179574,107.45125669221427,649.4889566179575,109.80595669221427,647.1684566179574C111.94175669221427,645.0196566179575,113.53615669221428,642.1520566179574,113.86095669221427,638.8631566179574C114.25955669221428,634.9411566179574,112.73895669221427,631.2311666179575,110.27595669221427,628.6585166179574C110.27595669221427,628.6585166179574,110.27595669221427,628.6585166179574,110.27595669221427,628.6585166179574ZM108.24845669221428,639.2413566179574C107.23465669221427,642.5732566179574,104.62658669221427,643.7965566179574,101.94706669221428,644.8077566179575C102.09223669221427,640.2125566179575,102.30876669221428,635.6172566179574,102.52774669221428,631.0621366179574C105.89375669221427,631.9044066179574,109.66085669221427,634.6460566179575,108.24845669221428,639.2413566179574C108.24845669221428,639.2413566179574,108.24845669221428,639.2413566179574,108.24845669221428,639.2413566179574Z" fill="#E1E336" fill-opacity="1"/></g></g></g></g><g transform="matrix(0.9927612543106079,-0.12010429799556732,0.1197894811630249,0.9927992820739746,-74.44820593361419,13.738180153760027)"><g transform="matrix(1,-1.875227084724429e-9,7.900727183596246e-9,1,-0.000004946927674609469,1.4410397852770984e-7)"><g transform="matrix(1,-1.875227084724429e-9,-6.859002255055202e-9,1,0.000004294666467785646,1.4410397852770984e-7)"><g transform="matrix(1,-1.875227084724429e-9,-6.859002255055202e-9,1,0.000004294666467785646,1.4410397852770984e-7)"><path d="M90.15825362883716,648.1861422534434C87.65835362883716,648.1031422534435,85.15845362883715,648.1861422534434,82.69792362883716,648.4813422534435C82.87754362883716,646.8798422534435,83.09407362883715,645.2783422534435,83.27614362883716,643.6339422534435C84.50640362883716,643.6339422534435,85.73913362883715,643.7170422534434,86.96935362883715,643.8431422534435C88.45555362883715,644.0120422534435,89.68585362883715,642.2846422534435,89.68585362883715,640.6831422534435C89.68585362883715,638.8267422534435,88.45555362883715,637.6893422534434,86.96935362883715,637.5203422534435C86.02947362883715,637.4343422534434,85.08709362883715,637.3513422534435,84.11026362883716,637.3513422534435C84.32679362883715,635.7068722534435,84.58022362883716,634.0624422534435,84.79675362883715,632.4581122534435C86.64460362883716,632.4581122534435,88.45555362883715,632.5011022534435,90.30105362883715,632.6701222534435C93.77765362883716,632.9222222534435,93.77765362883716,626.5994772534435,90.30105362883715,626.3445042534435C87.69525362883715,626.1353690474435,85.05019362883716,626.0923968534435,82.44448362883716,626.1754776534435C81.42828362883716,626.2184500534435,80.70489362883716,626.8086122534435,80.26938362883716,627.5677922534435C80.08976362883716,627.9058522534435,79.94458362883715,628.3269922534434,79.87323362883716,628.8340722534435C78.67742362883716,636.5491422534435,77.69812962883715,644.3072422534435,76.86647142883716,652.1082422534434C76.61303762883716,654.3428422534435,78.78568362883716,655.4401422534435,80.30628362883716,655.1449422534434C83.56649362883715,654.5548422534434,86.86115362883716,654.3857422534435,90.15825362883716,654.5118422534434C93.63245362883715,654.6808422534435,93.63245362883715,648.3552422534435,90.15825362883716,648.1861422534434C90.15825362883716,648.1861422534434,90.15825362883716,648.1861422534434,90.15825362883716,648.1861422534434Z" fill="#E1E336" fill-opacity="1"/></g></g></g></g><g transform="matrix(0.9927612543106079,-0.12010429799556732,0.11978945881128311,0.9927992820739746,-73.52107565304868,18.561501030505156)"><g transform="matrix(1,-1.4246012147722809e-9,6.529300433655294e-10,1,-4.0536650658395956e-7,1.6713840977899963e-7)"><g transform="matrix(1,-1.4246012147722809e-9,6.529300433655294e-10,1,-4.0536650658395956e-7,1.6713840977899963e-7)"><g transform="matrix(1,-1.4246012147722809e-9,6.529300433655294e-10,1,-4.0536650658395956e-7,1.6713840977899963e-7)"><path d="M130.1216602703422,623.3846851401115C129.8682602703422,625.8312651401116,129.6147602703422,628.3179751401116,129.3268602703422,630.7645751401116C128.4558602703422,632.7900651401116,125.77637027034221,636.0788651401116,123.7489002703422,634.5174651401115C121.72142027034221,632.9160651401115,122.9172402703422,627.7278051401115,123.6406302703422,625.7882951401116C125.0529702703422,622.0353251401116,120.12701027034221,619.3796051401115,118.7146502703422,623.0896051401115C116.75853827034221,628.4039151401115,116.21722027034221,637.1331651401116,121.46798027034221,640.2529651401115C123.42411027034221,641.3903651401115,125.5229402703422,641.3903651401115,127.5159602703422,640.5882651401115C126.86393027034221,642.4016651401115,125.85019027034221,644.0460651401115,124.2188602703422,644.8911651401115C121.06939027034221,646.5356651401115,122.95168027034221,652.4802651401116,126.1749802703422,650.7928651401115C134.54076027034222,646.4096651401115,134.4694602703422,633.5491651401115,135.4831602703422,624.4819251401116C135.9161602703422,620.4338711401116,130.5940602703422,619.3366351401115,130.1216602703422,623.3846851401115C130.1216602703422,623.3846851401115,130.1216602703422,623.3846851401115,130.1216602703422,623.3846851401115Z" fill="#E1E336" fill-opacity="1"/></g></g></g></g><g transform="matrix(0.9927612543106079,-0.12010428309440613,0.11978945881128311,0.9927992820739746,-73.335548738326,18.332310730196014)"><g transform="matrix(1,-1.875227084724429e-9,7.900727183596246e-9,1,-0.000004892004511702908,2.166152626159601e-7)"><g transform="matrix(1,-1.875227084724429e-9,-6.859002255055202e-9,1,0.000004246985014333404,2.166152626159601e-7)"><g transform="matrix(1,-1.875227084724429e-9,-6.859002255055202e-9,1,0.000004246985028544259,2.166152626159601e-7)"><path d="M128.31282271054934,621.7266041055786C128.05942271054934,624.1731841055787,127.80592271054934,626.6598941055787,127.51802271054935,629.1064941055787C126.64702271054935,631.1319841055787,123.96753271054935,634.4207841055787,121.94006271054934,632.8593841055787C119.91258271054934,631.2579841055787,121.10840271054934,626.0697241055786,121.83179271054934,624.1302141055787C123.24413271054934,620.3772441055787,118.31817271054935,617.7215241055786,116.90581271054934,621.4315241055787C114.94970071054935,626.7458341055786,114.40838271054935,635.4750841055787,119.65914271054935,638.5948841055787C121.61527271054935,639.7322841055786,123.71410271054934,639.7322841055786,125.70712271054934,638.9301841055786C125.05509271054935,640.7435841055786,124.04135271054935,642.3879841055787,122.41002271054934,643.2330841055787C119.26055271054935,644.8775841055786,121.14284271054935,650.8221841055787,124.36614271054934,649.1347841055787C132.73192271054936,644.7515841055787,132.66062271054935,631.8910841055787,133.67432271054935,622.8238441055787C134.10732271054934,618.7757901055787,128.78522271054933,617.6785541055787,128.31282271054934,621.7266041055786C128.31282271054934,621.7266041055786,128.31282271054934,621.7266041055786,128.31282271054934,621.7266041055786Z" fill="#E1E336" fill-opacity="1"/></g></g></g></g><g transform="matrix(0.9927613139152527,-0.12010429799556732,0.1197894811630249,0.9927992820739746,-75.5066526525884,10.403452138427951)"><g transform="matrix(1,-1.875227084724429e-9,7.900727183596246e-9,1,-0.000005003277259163497,9.12359610083513e-8)"><g transform="matrix(1,-1.875227084724429e-9,-6.859002255055202e-9,1,0.000004343586262223198,9.12359610083513e-8)"><g transform="matrix(1,-1.875227084724429e-9,-6.859002255055202e-9,1,0.000004343586255117771,9.12359610083513e-8)"><path d="M73.86528252422521,645.5536439177903C73.8282825242252,641.8865839177903,73.4296825242252,637.3744239177903,70.8953825242252,634.8017739177902C68.10758252422521,631.9340539177903,65.3910825242252,633.4524259177903,63.289882524225206,636.3602539177903C63.21848252422521,636.2342039177903,63.110282524225205,636.0651739177903,63.03648252422521,635.8961639177903C61.080282524225204,632.3981569177903,56.9515625242252,632.6502659177903,54.5623925242252,635.3489639177902C51.991142524225204,638.2997739177903,50.687062524225205,643.1070239177902,49.926762524225204,647.0719439177902C49.129549524225204,651.4150439177903,48.8761145242252,655.8843439177903,48.6595881142252,660.3105439177903C48.443062524225205,664.3585439177903,53.87345252422521,664.3585439177903,54.0924325242252,660.3105439177903C54.345862524225204,654.9990439177902,54.6337525242252,649.6016439177903,56.1912625242252,644.5423439177903C56.55542252422521,643.4450439177903,56.9515625242252,642.3478239177903,57.495352524225204,641.2935639177903C57.67742252422521,640.9583639177903,58.147392524225204,639.8181439177903,58.5828925242252,639.6921039177903C58.5828925242252,639.6921039177903,58.61734252422521,639.6921039177903,58.61734252422521,639.6491139177903C58.61734252422521,639.7350739177903,58.61734252422521,639.7780439177902,58.691182524225205,639.8611339177903C59.1266825242252,640.5372239177902,58.98148252422521,642.5168539177903,59.01598252422521,643.3190439177903C59.052882524225204,644.8373439177902,58.98148252422521,646.3959439177903,58.836282524225204,647.9142439177903C58.545992524225205,651.4150439177903,63.68848252422521,652.2574439177903,64.19538252422521,648.7593439177903C64.48568252422521,646.4818439177902,65.10078252422521,644.3732439177902,66.1514825242252,642.4337639177903C66.5131825242252,641.8436139177902,67.3103825242252,641.0844239177902,67.7802825242252,640.3682039177903C67.85418252422521,641.0414539177902,68.1420825242252,641.7175639177902,68.21588252422521,642.3907939177902C69.0843825242252,647.9572439177903,68.1420825242252,654.1568439177903,67.6720825242252,659.7633439177903C67.3103825242252,663.8114439177903,72.74328252422521,663.7683439177903,73.1048825242252,659.7633439177903C73.50358252422521,655.0420439177902,73.9365825242252,650.2749439177902,73.86528252422521,645.5536439177903C73.86528252422521,645.5536439177903,73.86528252422521,645.5536439177903,73.86528252422521,645.5536439177903Z" fill="#E1E336" fill-opacity="1"/></g></g></g></g><g transform="matrix(0.9927613139152527,-0.12010429054498672,0.1197894811630249,0.9927992820739746,-76.4687336485772,7.698176652947041)"><g transform="matrix(1,-1.875227084724429e-9,7.900727183596246e-9,1,-0.000005055787394070421,4.825039923161967e-8)"><g transform="matrix(1,-1.875227084724429e-9,-6.859002255055202e-9,1,0.000004389172836738453,4.825039923161967e-8)"><g transform="matrix(1,-1.875227084724429e-9,-6.859002255055202e-9,1,0.000004389172847396594,4.825039923161967e-8)"><path d="M44.077730973368375,644.7370465980948C41.10803097336837,639.0445635980948,33.35975097336837,638.3283565980948,29.484420973368373,642.9235865980949C25.680441173368372,646.7195365980948,25.139125973368373,655.5318865980948,26.224217973368372,660.4650865980948C26.984520973368372,663.8369865980949,28.903730973368372,667.3808865980948,31.873590973368373,668.4752865980948C34.95171097336837,669.6556865980948,38.35713097336837,668.3491865980948,40.78313097336837,666.0314865980948C43.24623097336837,663.6279865980948,44.76673097336837,660.1270865980948,45.27363097336837,656.4600865980948C45.74353097336837,652.8331865980948,45.78053097336837,647.9829365980949,44.077730973368375,644.7370465980948C44.077730973368375,644.7370465980948,44.077730973368375,644.7370465980948,44.077730973368375,644.7370465980948ZM37.48853097336837,661.1384865980948C37.37773097336837,661.2243865980948,37.30643097336837,661.3073865980948,37.19813097336837,661.4334865980949C36.03923097336837,662.5736865980948,34.19141097336837,663.0377865980948,32.96114097336837,661.9405865980948C32.16394097336837,661.2644865980948,31.80224097336837,660.1270865980948,31.548800973368373,659.0298865980948C31.18710097336837,657.2163865980948,31.113290973368372,655.3197865980949,31.29537097336837,653.4661865980949C31.47499097336837,651.7788865980948,31.839140973368373,649.6273665980948,32.67080097336837,648.2350465980949C33.43110097336837,647.0146165980948,34.69828097336837,646.2554165980948,36.00233097336837,646.2124465980949C38.24883097336837,646.1694765980948,39.69553097336837,647.9399665980949,39.94903097336837,650.3865865980948C40.384630973368374,654.0964865980949,39.914630973368375,658.4396865980948,37.48853097336837,661.1384865980948C37.48853097336837,661.1384865980948,37.48853097336837,661.1384865980948,37.48853097336837,661.1384865980948Z" fill="#E1E336" fill-opacity="1"/></g></g></g></g></g></g></svg>