<svg xmlns="http://www.w3.org/2000/svg" xmlns:xlink="http://www.w3.org/1999/xlink" fill="none" version="1.1" width="304.921875" height="11.6669921875" viewBox="0 0 304.921875 11.6669921875"><defs><mask id="master_svg0_0_1413" style="mask-type:alpha" maskUnits="userSpaceOnUse"><g><g><path d="M0,11.6669921875C0,11.6669921875,304.922,11.6669921875,304.922,11.6669921875C304.922,11.6669921875,304.922,23.333792187500002,304.922,23.333792187500002C304.922,23.333792187500002,0,23.333792187500002,0,23.333792187500002C0,23.333792187500002,0,11.6669921875,0,11.6669921875C0,11.6669921875,0,11.6669921875,0,11.6669921875Z" fill="#000000" fill-opacity="1"/></g></g></mask></defs><g transform="matrix(1,0,0,-1,0,23.333984375)" mask="url(#master_svg0_0_1413)"><g><g><path d="M304.125609375,12.42380267847046C264.604609375,11.503217678470461,225.083609375,12.469375678470461,185.573609375,14.02798667847046C146.063609375,15.595716678470462,106.568609375,17.74679667847046,67.063109375,19.214256678470463C44.896509375,20.03458667847046,22.724609375,20.56323667847046,0.552733375,20.80933667847046C0.391276375,20.80933667847046,0.255858375,20.90959667847046,0.146484375,21.11923667847046C0.031900075,21.319756678470462,-0.025390625,21.56585667847046,-0.025390625,21.85752667847046C-0.025390625,22.14917667847046,0.031900075,22.404376678470463,0.146484375,22.60497667847046C0.255858375,22.81457667847046,0.391276375,22.914876678470463,0.552733375,22.914876678470463C40.063109375,23.02417667847046,79.568409375,21.41090667847046,119.057609375,19.66999667847046C158.552609375,17.929086678470462,198.068609375,15.996766678470461,237.583609375,15.22201667847046C259.760609375,14.79362667847046,281.948609375,14.729826678470461,304.125609375,15.258476678470462C304.339609375,15.258476678470462,304.521609375,15.121756678470462,304.672609375,14.84831667847046C304.823609375,14.56575667847046,304.896609375,14.23762667847046,304.896609375,13.84569667847046C304.896609375,13.453766678470462,304.823609375,13.11652667847046,304.672609375,12.843079678470462C304.521609375,12.56963967847046,304.339609375,12.42380267847046,304.125609375,12.42380267847046C304.125609375,12.42380267847046,304.125609375,12.42380267847046,304.125609375,12.42380267847046Z" fill="#000000" fill-opacity="1"/></g></g></g></svg>