<svg xmlns="http://www.w3.org/2000/svg" xmlns:xlink="http://www.w3.org/1999/xlink" fill="none" version="1.1" width="140.72900390625" height="140.636962890625" viewBox="0 0 140.72900390625 140.636962890625"><defs><mask id="master_svg0_0_74" style="mask-type:alpha" maskUnits="userSpaceOnUse"><g><g><path d="M0,0C0,0,140.729,0,140.729,0C140.729,0,140.729,140.637,140.729,140.637C140.729,140.637,0,140.637,0,140.637C0,140.637,0,0,0,0C0,0,0,0,0,0Z" fill="#000000" fill-opacity="1"/></g></g></mask></defs><g mask="url(#master_svg0_0_74)"><g><g><path d="M70.3631,0C77.2205,57.8941,82.7714,63.4677,140.729,70.3183C140.729,70.3183,140.373,70.3661,140.373,70.3661C82.7714,77.1929,77.1966,82.8357,70.3631,140.637C63.508,82.7187,57.9572,77.169,0,70.3183C57.9572,63.4677,63.508,57.9179,70.3631,0C70.3631,0,70.3631,0,70.3631,0Z" fill="#5B7D26" fill-opacity="1"/></g></g></g></svg>