<svg xmlns="http://www.w3.org/2000/svg" xmlns:xlink="http://www.w3.org/1999/xlink" fill="none" version="1.1" width="127.81787109375" height="149.381103515625" viewBox="0 0 127.81787109375 149.381103515625"><defs><mask id="master_svg0_0_79" style="mask-type:alpha" maskUnits="userSpaceOnUse"><g><g><path d="M0,0C0,0,127.818,0,127.818,0C127.818,0,127.818,149.381,127.818,149.381C127.818,149.381,0,149.381,0,149.381C0,149.381,0,0,0,0C0,0,0,0,0,0Z" fill="#FC6F28" fill-opacity="1"/></g></g></mask></defs><g><g mask="url(#master_svg0_0_79)"><g><g><path d="M63.90949454751015,0.00570937804877758C63.90949454751015,0.00570937804877758,95.86029454751015,24.900409378048778,95.86029454751015,24.900409378048778C95.86029454751015,24.900409378048778,127.81759454751014,49.797609378048776,127.81759454751014,49.797609378048776C127.81759454751014,49.797609378048776,63.90949454751015,49.797609378048776,63.90949454751015,49.797609378048776C63.90949454751015,49.797609378048776,95.86029454751015,74.68980937804878,95.86029454751015,74.68980937804878C95.86029454751015,74.68980937804878,127.81759454751014,99.58700937804878,127.81759454751014,99.58700937804878C127.81759454751014,99.58700937804878,63.90949454751015,99.58700937804878,63.90949454751015,99.58700937804878C63.90949454751015,99.58700937804878,95.86029454751015,124.48170937804878,95.86029454751015,124.48170937804878C95.86029454751015,124.48170937804878,127.81759454751014,149.3767093780488,127.81759454751014,149.3767093780488C127.81759454751014,149.3767093780488,0.0035945475101470947,149.3767093780488,0.0035945475101470947,149.3767093780488C0.0035945475101470947,149.3767093780488,31.95869454751015,124.48170937804878,31.95869454751015,124.48170937804878C31.95869454751015,124.48170937804878,63.90949454751015,99.58700937804878,63.90949454751015,99.58700937804878C63.90949454751015,99.58700937804878,0.0035945475101470947,99.58700937804878,0.0035945475101470947,99.58700937804878C0.0035945475101470947,99.58700937804878,31.95869454751015,74.68980937804878,31.95869454751015,74.68980937804878C31.95869454751015,74.68980937804878,63.90949454751015,49.797609378048776,63.90949454751015,49.797609378048776C63.90949454751015,49.797609378048776,0.0035945475101470947,49.797609378048776,0.0035945475101470947,49.797609378048776C0.0035945475101470947,49.797609378048776,31.95869454751015,24.900409378048778,31.95869454751015,24.900409378048778C31.95869454751015,24.900409378048778,63.90949454751015,0.00570937804877758,63.90949454751015,0.00570937804877758C63.90949454751015,0.00570937804877758,63.90949454751015,0.00570937804877758,63.90949454751015,0.00570937804877758Z" fill="#5B7D26" fill-opacity="1"/></g></g></g></g></svg>