<svg xmlns="http://www.w3.org/2000/svg" xmlns:xlink="http://www.w3.org/1999/xlink" fill="none" version="1.1" width="123.544921875" height="108.6240234375" viewBox="0 0 123.544921875 108.6240234375"><defs><mask id="master_svg0_0_67" style="mask-type:alpha" maskUnits="userSpaceOnUse"><g transform="matrix(0,1,-1,0,123.544921875,-123.544921875)"><g transform="matrix(1,-5.2221424411491254e-24,8.277937546916107e-25,1,0,6.451691799118905e-22)"><path d="M123.544921875,0C123.544921875,0,232.168921875,0,232.168921875,0C232.168921875,0,232.168921875,123.545,232.168921875,123.545C232.168921875,123.545,123.544921875,123.545,123.544921875,123.545C123.544921875,123.545,123.544921875,0,123.544921875,0C123.544921875,0,123.544921875,0,123.544921875,0Z" fill="#000000" fill-opacity="1"/></g></g></mask></defs><g mask="url(#master_svg0_0_67)"><g transform="matrix(0,1,-1,0,123.54296875,-123.5390625)"><g transform="matrix(1,-4.051032278985578e-24,-4.994292984880972e-24,1,0,0)"><path d="M150.695115625,61.769353125C150.695115625,61.769353125,164.274915625,92.655053125,164.274915625,92.655053125C164.274915625,92.655053125,177.851115625,123.538953125,177.851115625,123.538953125C177.851115625,123.538953125,232.161015625,123.538953125,232.161015625,123.538953125C232.161015625,123.538953125,218.58321562499998,92.655053125,218.58321562499998,92.655053125C218.58321562499998,92.655053125,205.005215625,61.769353125,205.005215625,61.769353125C205.005215625,61.769353125,232.161015625,61.769353125,232.161015625,61.769353125C232.161015625,61.769353125,205.005215625,0.001953125,205.005215625,0.001953125C205.005215625,0.001953125,191.429115625,30.885653125,191.429115625,30.885653125C191.429115625,30.885653125,177.851115625,61.769353125,177.851115625,61.769353125C177.851115625,61.769353125,150.695115625,61.769353125,150.695115625,61.769353125C150.695115625,61.769353125,150.695115625,61.769353125,150.695115625,61.769353125ZM205.005215625,61.769353125C205.005215625,61.769353125,191.429115625,92.655053125,191.429115625,92.655053125C191.429115625,92.655053125,177.851115625,123.538953125,177.851115625,123.538953125C177.851115625,123.538953125,123.541015625,123.538953125,123.541015625,123.538953125C123.541015625,123.538953125,137.119015625,92.655053125,137.119015625,92.655053125C137.119015625,92.655053125,150.697015625,61.769353125,150.697015625,61.769353125C150.697015625,61.769353125,123.541015625,61.769353125,123.541015625,61.769353125C123.541015625,61.769353125,150.697015625,0.001953125,150.697015625,0.001953125C150.697015625,0.001953125,164.274915625,30.885653125,164.274915625,30.885653125C164.274915625,30.885653125,177.851115625,61.769353125,177.851115625,61.769353125C177.851115625,61.769353125,205.005215625,61.769353125,205.005215625,61.769353125C205.005215625,61.769353125,205.005215625,61.769353125,205.005215625,61.769353125Z" fill="#5B7D26" fill-opacity="1"/></g></g></g></svg>