<svg xmlns="http://www.w3.org/2000/svg" xmlns:xlink="http://www.w3.org/1999/xlink" fill="none" version="1.1" width="204" height="16.96337890625" viewBox="0 0 204 16.96337890625"><defs><mask id="master_svg0_0_1902" style="mask-type:alpha" maskUnits="userSpaceOnUse"><g><g><path d="M0,0C0,0,204,0,204,0C204,0,204,16.9635,204,16.9635C204,16.9635,0,16.9635,0,16.9635C0,16.9635,0,0,0,0C0,0,0,0,0,0Z" fill="#D01818" fill-opacity="1"/></g></g></mask></defs><g mask="url(#master_svg0_0_1902)"><g><g><path d="M202.1419440579719,8.721226520380178C189.5269440579719,6.131396520380176,176.7499440579719,4.176056520380176,163.8919440579719,2.8308165203801763C150.7869440579719,1.4611665203801762,137.6119440579719,0.6954995203801763,124.4239440579719,0.3416475203801762C111.5209440579719,-0.0030534796198237735,98.6036440579719,0.08540932038017623,85.6970440579719,0.46061452038017625C72.5990440579719,0.8419205203801763,59.511544057971896,1.5160665203801762,46.4379440579719,2.342736520380176C33.4686440579719,3.1602565203801762,20.5029440579719,4.118106520380176,7.5650340579719,5.255916520380176C5.665064057971899,5.423696520380176,3.7616140579718995,5.582316520380176,1.8616340579718995,5.743986520380176C0.05561905797189959,5.896516520380176,0.4418770579718996,8.327716520380175,2.2374540579719,8.202656520380177C15.3911440579719,7.284466520380176,28.5482440579719,6.363236520380176,41.7088440579719,5.512156520380176C54.6641440579719,4.670236520380176,67.6334440579719,3.9716765203801763,80.6165440579719,3.5507165203801763C93.5127440579719,3.1328065203801763,106.4189440579719,2.9802865203801763,119.3219440579719,3.2243165203801762C132.3399440579719,3.4714065203801763,145.3479440579719,4.154706520380176,158.2959440579719,5.374886520380176C164.4069440579719,5.954476520380176,170.5069440579719,6.653026520380176,176.5829440579719,7.482746520380176C164.2989440579719,6.967216520380176,152.0149440579719,6.546256520380176,139.7209440579719,6.341876520380176C119.1619440579719,5.997176520380176,98.5619440579719,6.274766520380176,78.0658440579719,7.790846520380176C66.5094440579719,8.648016520380175,54.9912440579719,9.913956520380175,43.5566440579719,11.640516520380178C41.8167440579719,11.902816520380178,42.2830440579719,14.492716520380178,44.0403440579719,14.361516520380178C61.5054440579719,13.062016520380176,79.0297440579719,12.415316520380177,96.5540440579719,12.400116520380177C113.9769440579719,12.387816520380177,131.3899440579719,13.001016520380176,148.7579440579719,14.224216520380175C153.6579440579719,14.568916520380178,158.5499440579719,14.950216520380177,163.4389440579719,15.389516520380177C165.8159440579719,15.603016520380177,168.19294405797189,15.816616520380176,170.5699440579719,16.048416520380176C173.2389440579719,16.307716520380175,175.9279440579719,16.460216520380175,178.5899440579719,16.75611652038018C180.6229440579719,16.978816520380178,181.2349440579719,14.209016520380175,179.1959440579719,13.983216520380175C176.7979440579719,13.717816520380175,174.4219440579719,13.336516520380176,172.0209440579719,13.086416520380176C169.8389440579719,12.860716520380176,167.6599440579719,12.647116520380177,165.4789440579719,12.439716520380177C161.1109440579719,12.027916520380177,156.7339440579719,11.671016520380178,152.3559440579719,11.347616520380175C143.7439440579719,10.710116520380176,135.1139440579719,10.249516520380176,126.4799440579719,9.944456520380175C117.6309440579719,9.630266520380175,108.7749440579719,9.474686520380175,99.9225440579719,9.471636520380176C101.8849440579719,9.407576520380175,103.8479440579719,9.349616520380177,105.8139440579719,9.303866520380176C126.1919440579719,8.806636520380177,146.5969440579719,9.309966520380176,166.9569440579719,10.106136520380176C178.4409440579719,10.557616520380176,189.9169440579719,11.149416520380175,201.3969440579719,11.704516520380178C202.2599440579719,11.747316520380178,203.0639440579719,11.259216520380175,203.2409440579719,10.499616520380176C203.3979440579719,9.819386520380178,202.9979440579719,8.895106520380175,202.1419440579719,8.721226520380178C202.1419440579719,8.721226520380178,202.1419440579719,8.721226520380178,202.1419440579719,8.721226520380178Z" fill="#790000" fill-opacity="1"/></g></g></g></svg>