<svg xmlns="http://www.w3.org/2000/svg" xmlns:xlink="http://www.w3.org/1999/xlink" fill="none" version="1.1" width="188" height="111" viewBox="0 0 188 111"><defs><clipPath id="master_svg0_0_1805"><rect x="0" y="0" width="188" height="111" rx="0"/></clipPath></defs><g clip-path="url(#master_svg0_0_1805)"><g><g><g><path d="M110.82206431204878,49.9863118266211C110.6933643120488,49.9146428266211,110.5674643120488,49.841381826621095,110.4415643120488,49.841381826621095C109.80656431204878,49.7697138266211,109.17146431204878,49.624784826621095,108.53646431204879,49.553115826621095C107.14036431204877,49.481447526621096,105.74436431204879,49.5531155266211,104.3483643120488,49.6247838266211C103.71616431204879,49.6980448266211,103.2069643120488,49.6980448266211,102.5718643120488,49.6980448266211C101.81096431204878,49.7697138266211,100.92406431204878,49.7697138266211,100.16036431204878,49.841381826621095C99.14756431204879,49.9146428266211,98.13206431204878,49.9146428266211,97.11656431204878,49.9863118266211C95.34006431204878,50.0595728266211,93.68946431204878,50.2029088266211,91.91296431204879,50.2761698266211C91.65836431204877,50.2761698266211,91.4065643120488,50.3478388266211,91.15196431204879,50.3478388266211C90.3910643120488,50.419506826621095,89.5014643120488,50.4927678266211,88.7404643120488,50.5644398266211C87.85366431204878,50.6360998266211,86.96396431204879,50.7093698266211,86.07716431204878,50.78102982662109C84.6811643120488,50.9976298266211,83.28506431204879,51.2142298266211,81.88906431204879,51.5040898266211C80.23846431204879,51.7923498266211,78.71656431204879,52.082209826621096,77.19186431204878,52.3704798266211C76.05046431204879,52.5886698266211,74.9090643120488,52.8052698266211,73.76756431204879,53.0218698266211C72.1170643120488,53.3833898266211,70.46646431204879,53.8165898266211,68.81866431204878,54.24977982662109C67.04216431204878,54.6829798266211,65.13696431204879,55.1894398266211,63.36046431204879,55.6958898266211C62.219064312048786,55.984159826621095,61.20346431204879,56.4173498266211,60.18796431204879,56.707209826621096C58.920664312048785,56.9954798266211,57.77926431204879,57.357009826621095,56.76366431204879,57.7901998266211C55.36766431204879,58.296659826621095,53.71706431204879,58.6581898266211,52.44696431204879,59.236309826621095C52.44696431204879,59.236309826621095,52.32106431204879,59.236309826621095,52.32106431204879,59.30797982662109C51.43426431204879,59.597829826621094,50.54456431204879,59.9593298266211,49.783664312048785,60.3193298266211C48.76806431204879,60.6808298266211,47.87846431204879,61.115629826621095,46.86566431204879,61.4755298266211C45.97606431204879,61.8370298266211,45.215164312048785,62.126929826621094,44.32546431204879,62.4152298266211C44.19956431204879,62.4152298266211,44.19956431204879,62.4884298266211,44.07366431204879,62.4884298266211C43.438664312048786,62.77672982662109,42.80356431204879,63.066629826621096,42.16846431204878,63.3548298266211C42.042664312048785,63.4265298266211,41.78806431204879,63.499829826621095,41.66216431204879,63.5714298266211C41.40756431204879,63.716429826621095,41.02706431204879,63.861329826621095,40.77246431204879,64.0046298266211C40.140264312048785,64.2945298266211,39.50516431204879,64.58272982662109,38.995964312048784,64.9443298266211C38.36376431204879,65.30582982662109,37.59996431204879,65.5957298266211,36.967764312048786,65.9556298266211C36.33266431204879,66.3171298266211,35.571764312048785,66.67862982662109,35.06256431204879,67.0402298266211C34.556164312048786,67.4734298266211,34.04706431204879,67.9082298266211,33.160184312048784,68.2681298266211C32.65101431204879,68.2681298266211,32.65101431204879,68.4130298266211,32.52512431204879,68.4130298266211C32.39922431204879,68.55792982662109,32.14464431204879,68.7029298266211,31.89006431204879,68.8462298266211C31.25500431204879,69.3527298266211,30.368154312048787,69.8591298266211,29.733094312048788,70.4373298266211C28.84625431204879,71.2320298266211,27.95660431204879,71.95342982662109,27.32155431204879,72.8214298266211C26.689284312048787,73.6878298266211,26.054224312048788,74.48252982662109,25.41917431204879,75.3505298266211C25.03869431204879,75.8570298266211,24.658217312048787,76.4351298266211,24.529526312048787,77.01162982662109C24.403634312048787,77.3732298266211,24.023157312048788,77.7347298266211,24.023157312048788,78.0962298266211C24.023157312048788,79.10752982662109,23.51678931204879,80.0472298266211,23.768574312048788,81.0585298266211C23.768574312048788,81.0585298266211,23.768574312048788,81.1318298266211,23.768574312048788,81.1318298266211C23.897265312048788,81.9265298266211,23.897265312048788,82.7212298266211,24.023157312048788,83.51592982662109C24.14905031204879,84.3107298266211,24.27774131204879,85.0337298266211,24.658217312048787,85.7568298266211C24.658217312048787,85.82842982662109,24.658217312048787,85.9001298266211,24.658217312048787,85.9001298266211C24.78411431204879,86.6232298266211,25.03869431204879,87.3462298266211,25.41917431204879,87.9960298266211C26.18012431204879,89.22392982662109,26.689284312048787,90.5251298266211,27.830714312048787,91.7546298266211C28.337084312048788,92.2595298266211,28.59166431204879,92.76592982662109,29.09803431204879,93.2708298266211C29.98768431204879,94.1388298266211,30.874524312048788,95.0052298266211,31.764164312048788,95.8732298266211C31.89006431204879,95.94482982662109,32.018754312048785,96.0165298266211,32.14464431204879,96.16142982662109C32.27053431204879,96.2347298266211,32.39922431204879,96.37802982662109,32.52512431204879,96.4513298266211C33.03149431204879,96.9561298266211,33.54065431204879,97.39092982662109,34.30156431204879,97.82412982662109C34.81076431204879,98.1124298266211,35.06256431204879,98.4023298266211,35.44306431204879,98.69052982662109C36.58726431204879,99.4136298266211,37.59996431204879,100.0634298266211,38.744264312048784,100.7148298266211C39.25056431204879,101.00302982662109,39.75976431204879,101.2929298266211,40.26616431204879,101.5095298266211C41.02706431204879,101.8710298266211,41.78806431204879,102.1593298266211,42.54896431204879,102.5208298266211C44.07366431204879,103.31552982662109,45.85016431204879,104.0386298266211,47.62666431204879,104.6884298266211C49.783664312048785,105.41142982662109,51.94056431204879,106.06122982662109,54.09756431204879,106.7843298266211C54.47806431204879,106.9292298266211,54.98716431204879,106.9292298266211,55.36766431204879,107.0009298266211C55.99996431204879,107.1458298266211,56.63496431204879,107.3624298266211,57.27006431204879,107.50732982662109C57.77926431204879,107.6507298266211,58.411464312048786,107.7956298266211,58.920664312048785,107.8689298266211C59.55566431204879,108.0122298266211,60.18796431204879,108.0855298266211,60.823064312048785,108.15712982662109C63.10866431204879,108.5186298266211,65.26566431204878,109.0968298266211,67.5484643120488,109.2417298266211C68.68996431204879,109.3134298266211,69.83416431204878,109.5300298266211,70.97556431204879,109.60322982662109C71.86246431204879,109.6749298266211,72.75206431204879,109.81982982662109,73.63896431204878,109.8915298266211C74.40266431204878,109.9632298266211,75.16366431204878,109.9632298266211,75.92456431204879,109.9632298266211C77.32056431204879,110.03642982662109,78.5878643120488,110.1814298266211,79.98396431204878,110.25302982662109C80.87356431204879,110.3247298266211,81.76036431204878,110.3247298266211,82.77596431204879,110.3247298266211C83.41096431204879,110.3247298266211,83.91736431204879,110.25302982662109,84.55246431204878,110.25302982662109C85.9484643120488,110.25302982662109,87.21856431204878,110.3980298266211,88.6145643120488,110.3980298266211C89.5014643120488,110.3980298266211,90.3910643120488,110.3247298266211,91.27786431204879,110.3247298266211C92.54806431204878,110.3247298266211,93.81536431204879,110.3247298266211,95.0854643120488,110.3247298266211C96.1009643120488,110.3247298266211,96.9878643120488,110.25302982662109,98.0033643120488,110.25302982662109C98.7643643120488,110.1814298266211,99.39936431204879,110.1081298266211,100.16036431204878,110.1081298266211C100.92406431204878,110.1081298266211,101.68506431204878,110.1081298266211,102.3200643120488,109.8915298266211C102.4459643120488,109.81982982662109,102.70056431204878,109.8915298266211,102.95236431204879,109.8915298266211C103.2069643120488,109.8915298266211,103.58746431204878,109.8915298266211,103.84196431204879,109.9632298266211C104.3483643120488,110.03642982662109,104.72886431204878,109.81982982662109,105.1093643120488,109.81982982662109C105.74436431204879,109.8915298266211,106.37946431204878,109.7466298266211,107.0144643120488,109.7466298266211C107.39496431204878,109.7466298266211,107.9013643120488,109.81982982662109,108.28186431204878,109.7466298266211C109.29736431204878,109.6749298266211,110.31286431204879,109.60322982662109,111.3284643120488,109.4583298266211C112.3439643120488,109.38502982662109,113.4853643120488,109.2417298266211,114.50096431204878,109.1684298266211C115.2618643120488,109.0968298266211,116.0228643120488,109.0251298266211,116.78376431204879,108.9518298266211C117.16706431204878,108.8802298266211,117.6734643120488,108.7352298266211,118.05396431204878,108.7352298266211C118.8148643120488,108.7352298266211,119.5758643120488,108.7352298266211,120.3395643120488,108.59032982662109C121.10056431204879,108.4470298266211,121.86146431204878,108.37372982662109,122.74836431204878,108.2288298266211C123.12876431204879,108.15712982662109,123.63796431204878,108.0855298266211,124.1443643120488,108.0855298266211C125.41436431204878,107.94052982662109,126.68436431204879,107.7956298266211,127.95236431204879,107.72392982662109C128.0773643120488,107.72392982662109,128.0773643120488,107.72392982662109,128.20636431204878,107.6507298266211C128.8413643120488,107.4341298266211,129.4733643120488,107.29072982662109,130.23736431204878,107.2175298266211C130.7443643120488,107.1458298266211,131.12436431204878,107.1458298266211,131.6333643120488,107.07412982662109C133.1553643120488,106.7843298266211,134.67736431204878,106.4960298266211,136.1993643120488,106.2061298266211C137.97536431204878,105.9179298266211,139.6263643120488,105.41142982662109,141.5313643120488,105.1216298266211C142.4183643120488,104.97822982662109,143.30836431204878,104.8333298266211,144.19436431204878,104.6167298266211C144.70136431204878,104.4718298266211,145.3363643120488,104.4001298266211,145.8453643120488,104.2552298266211C147.49336431204878,103.8220298266211,149.1433643120488,103.3888298266211,150.92036431204878,102.88232982662109C151.6813643120488,102.66572982662109,152.3163643120488,102.44912982662109,153.0773643120488,102.23252982662109C154.4733643120488,101.7977298266211,155.8693643120488,101.43622982662109,157.3913643120488,101.00302982662109C158.1553643120488,100.78642982662109,158.7873643120488,100.6415298266211,159.5513643120488,100.4249298266211C160.5633643120488,100.13662982662109,161.5793643120488,99.8468298266211,162.59436431204878,99.5585298266211C163.4843643120488,99.2686298266211,164.2453643120488,98.90712982662109,165.26136431204878,98.69052982662109C165.6413643120488,98.6189298266211,165.8933643120488,98.47392982662109,166.1473643120488,98.3290298266211C166.5283643120488,98.1857298266211,167.0373643120488,97.9691298266211,167.4183643120488,97.82412982662109C168.17836431204879,97.5343298266211,168.9393643120488,97.2460298266211,169.7003643120488,96.9561298266211C170.5903643120488,96.59462982662109,171.3513643120488,96.16142982662109,172.2383643120488,95.7999298266211C173.3823643120488,95.29502982662109,174.52336431204878,94.7886298266211,175.5393643120488,94.2104298266211C176.8063643120488,93.4874298266211,177.8223643120488,92.6927298266211,179.0923643120488,92.0429298266211C179.2183643120488,91.9712298266211,179.3473643120488,91.8979298266211,179.4723643120488,91.7546298266211C179.7273643120488,91.53642982662109,179.9793643120488,91.2482298266211,180.3593643120488,91.0316298266211C181.3753643120488,90.45342982662109,182.13636431204878,89.7304298266211,182.9003643120488,89.0806298266211C183.5323643120488,88.57412982662109,183.9123643120488,87.92432982662109,184.2963643120488,87.3462298266211C184.8023643120488,86.69482982662109,184.92836431204879,86.04502982662109,185.5633643120488,85.4669298266211C185.6893643120488,85.39522982662109,185.6893643120488,85.3220298266211,185.6893643120488,85.2503298266211C185.9433643120488,84.3107298266211,186.0723643120488,83.29932982662109,186.3243643120488,82.3597298266211C186.5783643120488,81.42002982662109,186.3243643120488,80.55362982662109,186.3243643120488,79.61402982662109C186.3243643120488,78.89092982662109,185.9433643120488,78.0962298266211,185.8173643120488,77.3732298266211C185.8173643120488,77.30152982662109,185.6893643120488,77.1566298266211,185.6893643120488,77.08492982662109C185.3083643120488,76.7234298266211,185.3083643120488,76.2902298266211,185.3083643120488,75.8570298266211C185.3083643120488,75.71202982662109,185.1823643120488,75.5671298266211,185.1823643120488,75.49542982662109C184.92836431204879,75.2056298266211,184.54736431204878,74.9173298266211,184.54736431204878,74.55582982662109C184.54736431204878,74.48252982662109,184.54736431204878,74.4109298266211,184.4213643120488,74.3392298266211C184.04136431204878,74.04932982662109,183.9123643120488,73.7611298266211,183.6613643120488,73.39952982662109C183.0253643120488,72.7498298266211,182.3903643120488,72.0984298266211,181.75536431204878,71.4486298266211C181.3753643120488,71.0154298266211,180.86836431204878,70.6539298266211,180.4883643120488,70.14742982662109C180.2333643120488,69.7859298266211,179.8533643120488,69.4976298266211,179.4723643120488,69.20772982662109C178.96336431204878,68.77452982662109,178.07636431204878,68.3414298266211,177.8223643120488,67.7632298266211C177.8223643120488,67.6900298266211,177.5703643120488,67.61832982662109,177.5703643120488,67.61832982662109C177.4413643120488,67.5466298266211,177.3163643120488,67.5466298266211,177.3163643120488,67.5466298266211C176.6803643120488,67.11182982662109,176.0453643120488,66.67862982662109,175.2843643120488,66.1738298266211C173.7633643120488,65.2341298266211,172.3673643120488,64.2945298266211,170.7163643120488,63.4265298266211C170.5903643120488,63.3548298266211,170.4613643120488,63.283229826621096,170.3353643120488,63.2099298266211C169.8293643120488,62.9216298266211,169.3203643120488,62.6318298266211,168.6853643120488,62.4152298266211C167.6693643120488,61.910329826621094,166.5283643120488,61.403929826621095,165.38636431204878,60.8974298266211C164.6263643120488,60.537529826621096,163.7363643120488,60.1759298266211,162.97536431204878,59.814429826621094C162.8493643120488,59.814429826621094,162.8493643120488,59.7411298266211,162.7203643120488,59.7411298266211C162.08836431204878,59.5245298266211,161.3273643120488,59.30797982662109,160.6923643120488,59.019709826621096C159.9313643120488,58.7298498266211,159.2963643120488,58.4415898266211,158.53536431204878,58.15172982662109C158.1553643120488,58.0083898266211,157.7713643120488,57.863459826621096,157.3913643120488,57.71852982662109C156.5043643120488,57.4302698266211,155.6143643120488,57.2120798266211,154.7283643120488,56.923809826621095C153.83836431204878,56.6339498266211,152.95136431204878,56.4173498266211,152.0613643120488,56.200759826621095C149.65336431204878,55.984159826621095,148.0023643120488,55.4776998266211,146.2263643120488,55.1177698266211C144.4493643120488,54.7562398266211,142.5443643120488,54.394709826621096,140.76736431204878,54.1048498266211C138.8653643120488,53.8165898266211,137.0893643120488,53.5267298266211,135.1863643120488,53.3833898266211C132.9013643120488,53.166799826621094,130.7443643120488,52.8769398266211,128.4613643120488,52.732009826621095C127.19136431204879,52.6603398266211,125.79536431204878,52.5886698266211,124.52436431204879,52.515409826621095C123.51206431204878,52.4437398266211,122.62246431204878,52.3704798266211,121.73556431204878,52.4437398266211C121.4809643120488,52.4437398266211,121.22646431204879,52.4437398266211,120.97186431204878,52.4437398266211C119.44996431204879,52.4437398266211,117.92806431204878,52.3704798266211,116.40336431204878,52.3704798266211C115.51646431204878,52.3704798266211,114.75556431204879,52.3704798266211,113.9945643120488,52.6603398266211C113.10496431204879,52.3704798266211,112.97906431204879,52.3704798266211,112.2180643120488,52.4437398266211C111.70896431204878,52.515409826621095,111.07386431204878,52.515409826621095,110.5674643120488,52.4437398266211C110.18696431204879,52.3704798266211,109.6778643120488,52.4437398266211,109.29736431204878,52.515409826621095C109.17146431204878,52.515409826621095,108.9168643120488,52.5886698266211,108.7909643120488,52.5886698266211C108.41056431204879,52.5886698266211,108.03006431204878,52.5886698266211,107.7754643120488,52.6603398266211C107.52086431204879,52.6603398266211,107.14036431204877,52.732009826621095,106.8858643120488,52.732009826621095C105.49256431204878,52.6603398266211,104.0965643120488,52.732009826621095,102.70056431204878,52.8052698266211C102.3200643120488,52.8052698266211,101.81096431204878,52.8052698266211,101.4304643120488,52.8769398266211C100.03446431204878,53.0218698266211,98.6384643120488,53.238459826621096,97.11656431204878,53.166799826621094C96.60736431204879,53.166799826621094,96.1009643120488,53.09352982662109,95.59466431204879,53.238459826621096C95.46596431204878,53.238459826621096,95.34006431204878,53.238459826621096,95.2113643120488,53.238459826621096C95.0854643120488,53.238459826621096,94.83086431204879,53.238459826621096,94.70496431204879,53.238459826621096C94.32446431204878,53.455059826621095,93.68946431204878,53.455059826621095,93.1830643120488,53.5267298266211C92.80256431204879,53.5999898266211,92.54806431204878,53.5999898266211,92.1675643120488,53.7449198266211C92.1675643120488,53.8165898266211,91.78706431204878,53.888259826621095,91.65836431204877,53.888259826621095C90.89746431204878,53.8165898266211,90.3910643120488,54.0331898266211,89.75596431204877,54.1781198266211C88.99506431204878,54.3214498266211,88.99506431204878,54.394709826621096,89.5014643120488,54.7562398266211C89.5014643120488,54.7562398266211,89.5014643120488,54.827909826621095,89.5014643120488,54.827909826621095C89.12096431204878,54.8995798266211,88.8663643120488,55.044509826621095,88.48586431204879,55.1177698266211C88.6145643120488,55.1894398266211,88.7404643120488,55.2610998266211,88.8663643120488,55.2610998266211C89.5014643120488,55.1894398266211,90.01056431204879,55.1177698266211,90.64566431204878,55.044509826621095C90.77156431204878,55.044509826621095,90.89746431204878,54.9728398266211,91.02616431204879,54.9728398266211C91.78706431204878,54.9728398266211,92.54806431204878,54.8995798266211,93.1830643120488,54.8995798266211C93.56356431204878,54.8995798266211,93.81536431204879,54.827909826621095,93.81536431204879,54.611309826621095C93.81536431204879,54.394709826621096,94.0699643120488,54.394709826621096,94.32446431204878,54.394709826621096C94.57906431204879,54.394709826621096,94.83086431204879,54.394709826621096,95.0854643120488,54.394709826621096C95.0854643120488,54.5396398266211,94.9595643120488,54.611309826621095,94.9595643120488,54.7562398266211C95.7205643120488,54.827909826621095,96.35556431204878,54.8995798266211,96.9878643120488,54.611309826621095C96.8619643120488,54.5396398266211,96.7360643120488,54.394709826621096,96.60736431204879,54.3214498266211C97.11656431204878,54.24977982662109,97.49696431204879,54.1781198266211,97.7515643120488,54.46637982662109C98.0033643120488,54.6829798266211,98.38386431204879,54.7562398266211,98.7643643120488,54.7562398266211C99.7798643120488,54.611309826621095,100.6694643120488,54.5396398266211,101.68506431204878,54.5396398266211C103.3328643120488,54.46637982662109,104.8575643120488,54.394709826621096,106.50536431204878,54.3214498266211C108.03006431204878,54.24977982662109,109.5519643120488,54.24977982662109,111.07386431204878,54.24977982662109C113.61406431204878,54.1781198266211,116.27746431204878,54.1781198266211,118.8148643120488,54.3214498266211C119.9562643120488,54.394709826621096,121.22646431204879,54.394709826621096,122.3678643120488,54.46637982662109C122.62246431204878,54.46637982662109,123.00286431204879,54.46637982662109,123.2574643120488,54.46637982662109C123.51206431204878,54.46637982662109,123.7633643120488,54.46637982662109,124.01836431204879,54.46637982662109C124.52436431204879,54.46637982662109,125.03436431204878,54.5396398266211,125.54036431204878,54.5396398266211C125.92036431204878,54.5396398266211,126.30136431204878,54.5396398266211,126.68436431204879,54.611309826621095C127.69736431204879,54.5396398266211,128.58736431204878,54.611309826621095,129.6023643120488,54.6829798266211C130.1083643120488,54.6829798266211,130.61836431204878,54.7562398266211,130.99836431204878,54.7562398266211C132.26536431204877,54.8995798266211,133.41036431204878,55.1177698266211,134.67736431204878,55.2610998266211C135.8183643120488,55.40602982662109,137.0893643120488,55.4776998266211,138.23036431204878,55.6958898266211C139.2463643120488,55.9124898266211,140.3873643120488,55.984159826621095,141.5313643120488,56.200759826621095C143.05336431204879,56.4906198266211,144.57536431204878,56.77887982662109,146.0973643120488,57.0687398266211C146.98736431204878,57.2120798266211,147.7473643120488,57.4302698266211,148.6373643120488,57.5735998266211C149.2693643120488,57.71852982662109,149.90436431204878,57.93512982662109,150.66536431204878,58.15172982662109C151.6813643120488,58.3683298266211,152.6963643120488,58.6581898266211,153.5863643120488,58.9464498266211C154.0923643120488,59.1630498266211,154.7283643120488,59.30797982662109,155.3633643120488,59.452909826621095C156.12436431204878,59.6695298266211,156.8843643120488,59.814429826621094,157.6453643120488,60.1759298266211C158.0263643120488,60.3925298266211,158.53536431204878,60.537529826621096,158.91636431204878,60.6808298266211C159.5513643120488,60.8974298266211,160.3123643120488,61.115629826621095,160.9443643120488,61.403929826621095C162.08836431204878,61.910329826621094,163.4843643120488,62.2702298266211,164.3713643120488,62.9216298266211C165.5123643120488,63.4265298266211,166.6573643120488,63.7880298266211,167.5433643120488,64.36612982662109C168.4333643120488,64.9443298266211,169.5743643120488,65.4507298266211,170.4613643120488,65.9556298266211C170.9713643120488,66.24542982662109,171.3513643120488,66.5337298266211,171.8573643120488,66.8236298266211C172.7473643120488,67.2568298266211,173.5083643120488,67.7632298266211,174.1433643120488,68.3414298266211C174.90436431204878,68.8462298266211,175.79136431204878,69.3527298266211,176.1743643120488,70.0025298266211C177.0613643120488,70.4373298266211,177.1873643120488,71.08702982662109,178.07636431204878,71.52022982662109C178.8373643120488,72.3150298266211,179.5983643120488,73.0380298266211,180.2333643120488,73.83272982662109C180.6143643120488,74.3392298266211,180.9943643120488,74.8441298266211,181.24936431204878,75.3505298266211C181.3753643120488,75.5671298266211,181.5043643120488,75.7837298266211,181.6293643120488,76.0736298266211C181.8843643120488,76.5068298266211,182.13636431204878,76.86832982662109,182.2643643120488,77.30152982662109C182.3903643120488,77.5898298266211,182.3903643120488,77.8796298266211,182.5193643120488,78.1679298266211C182.6453643120488,78.7460298266211,182.9003643120488,79.32412982662109,182.7713643120488,79.9023298266211C182.7713643120488,80.2638298266211,182.6453643120488,80.6986298266211,182.6453643120488,81.0585298266211C182.7713643120488,81.7816298266211,182.3903643120488,82.5046298266211,182.2643643120488,83.2277298266211C182.0103643120488,84.16572982662109,181.5043643120488,85.0337298266211,180.86836431204878,85.9001298266211C179.9793643120488,87.1296298266211,178.96336431204878,88.2126298266211,177.5703643120488,89.22392982662109C177.3163643120488,89.4421298266211,176.9353643120488,89.5854298266211,176.6803643120488,89.8753298266211C176.1743643120488,90.3802298266211,175.41036431204878,90.88662982662109,174.6493643120488,91.31982982662109C174.0143643120488,91.7546298266211,173.2533643120488,92.1145298266211,172.4923643120488,92.54932982662109C172.3673643120488,92.6210298266211,172.2383643120488,92.6927298266211,172.2383643120488,92.76592982662109C172.11236431204878,92.98252982662109,171.73136431204878,93.19912982662109,171.3513643120488,93.2708298266211C170.7163643120488,93.41572982662109,170.3353643120488,93.63232982662109,169.9553643120488,93.84892982662109C169.7003643120488,93.9222298266211,169.5743643120488,94.06552982662109,169.3203643120488,94.1388298266211C168.8143643120488,94.3554298266211,168.3043643120488,94.5720298266211,167.7983643120488,94.7886298266211C167.2893643120488,95.0052298266211,166.7823643120488,95.29502982662109,166.2763643120488,95.51162982662109C165.26136431204878,95.8732298266211,164.2453643120488,96.16142982662109,163.3553643120488,96.6679298266211C163.1043643120488,96.8128298266211,162.8493643120488,96.9561298266211,162.59436431204878,97.0294298266211C161.5793643120488,97.1727298266211,160.8183643120488,97.60752982662109,159.9313643120488,97.8958298266211C159.6773643120488,97.9691298266211,159.42236431204878,97.9691298266211,159.2963643120488,98.04072982662109C158.6613643120488,98.47392982662109,157.5203643120488,98.5472298266211,156.7593643120488,98.90712982662109C155.8693643120488,99.2686298266211,154.6023643120488,99.3419298266211,153.7123643120488,99.8468298266211C153.7123643120488,99.8468298266211,153.5863643120488,99.8468298266211,153.5863643120488,99.92002982662109C153.0773643120488,100.0634298266211,152.5713643120488,100.13662982662109,152.19036431204879,100.2800298266211C151.8103643120488,100.4249298266211,151.4293643120488,100.56982982662109,151.04636431204878,100.6415298266211C150.28536431204878,100.8581298266211,149.5243643120488,101.00302982662109,148.6373643120488,101.21962982662109C147.87336431204878,101.43622982662109,147.11236431204878,101.5812298266211,146.3513643120488,101.7261298266211C145.9713643120488,101.7977298266211,145.7163643120488,101.9427298266211,145.4653643120488,102.0143298266211C144.06936431204878,102.3042298266211,142.9243643120488,102.7374298266211,141.5313643120488,102.9540298266211C140.51636431204878,103.09892982662109,139.5003643120488,103.4605298266211,138.3593643120488,103.53212982662109C138.23036431204878,103.53212982662109,138.23036431204878,103.53212982662109,138.1043643120488,103.6054298266211C137.34336431204878,103.74872982662109,136.7083643120488,103.96532982662109,135.9473643120488,104.1102298266211C135.6933643120488,104.1835298266211,135.3123643120488,104.2552298266211,134.93236431204878,104.2552298266211C134.17136431204878,104.4001298266211,133.41036431204878,104.4718298266211,132.7753643120488,104.6167298266211C132.0143643120488,104.76162982662109,131.12436431204878,104.9050298266211,130.3633643120488,105.1216298266211C129.7283643120488,105.2665298266211,128.9673643120488,105.3398298266211,128.33236431204878,105.4831298266211C127.57136431204879,105.62802982662109,126.81036431204879,105.7730298266211,126.0493643120488,105.9179298266211C124.52436431204879,106.1345298266211,123.12876431204879,106.27782982662109,121.6068643120488,106.4960298266211C120.72006431204878,106.6393298266211,119.7044643120488,106.7126298266211,118.8148643120488,106.8559298266211C118.05396431204878,106.9292298266211,117.41886431204878,106.9292298266211,116.65786431204879,107.07412982662109C115.8969643120488,107.2175298266211,115.1359643120488,107.29072982662109,114.37506431204878,107.29072982662109C113.61406431204878,107.3624298266211,112.97906431204879,107.3624298266211,112.3439643120488,107.5790298266211C112.2180643120488,107.5790298266211,112.08936431204879,107.6507298266211,111.96346431204879,107.6507298266211C110.5674643120488,107.6507298266211,109.17146431204878,107.8689298266211,107.9013643120488,107.94052982662109C107.0144643120488,108.0122298266211,106.25356431204878,108.0855298266211,105.36396431204878,108.0855298266211C104.8575643120488,108.0855298266211,104.2224643120488,108.0855298266211,103.71616431204879,108.0855298266211C102.3200643120488,108.15712982662109,100.92406431204878,108.2288298266211,99.5280643120488,108.3021298266211C98.5125643120488,108.37372982662109,97.37116431204879,108.37372982662109,96.35556431204878,108.4470298266211C94.83086431204879,108.5186298266211,93.1830643120488,108.59032982662109,91.65836431204877,108.59032982662109C90.5169643120488,108.59032982662109,89.2496643120488,108.59032982662109,88.10536431204878,108.59032982662109C86.70936431204879,108.59032982662109,85.44206431204879,108.59032982662109,84.0460643120488,108.59032982662109C82.9046643120488,108.59032982662109,81.88906431204879,108.5186298266211,80.74766431204878,108.5186298266211C79.60346431204879,108.4470298266211,78.46196431204879,108.4470298266211,77.32056431204879,108.37372982662109C76.43096431204879,108.3021298266211,75.41536431204878,108.2288298266211,74.52856431204879,108.15712982662109C73.89346431204879,108.0855298266211,73.38716431204878,108.0855298266211,72.75206431204879,108.0122298266211C71.10146431204879,107.8689298266211,69.32496431204879,107.6507298266211,67.67716431204879,107.50732982662109C67.29396431204879,107.4341298266211,66.91346431204879,107.4341298266211,66.66166431204879,107.3624298266211C65.6461643120488,107.2175298266211,64.63056431204879,107.07412982662109,63.61506431204879,106.9292298266211C61.96446431204879,106.6393298266211,60.316664312048786,106.3511298266211,58.54016431204879,106.06122982662109C58.28556431204879,105.9896298266211,57.90516431204879,105.9179298266211,57.650564312048786,105.84462982662109C56.63496431204879,105.62802982662109,55.748164312048786,105.41142982662109,54.73266431204879,105.19482982662109C54.09756431204879,105.0499298266211,53.46246431204879,104.8333298266211,52.83026431204879,104.6167298266211C51.94056431204879,104.3268298266211,51.179664312048786,103.96532982662109,50.16406431204879,103.74872982662109C49.02266431204879,103.53212982662109,48.26176431204879,102.88232982662109,46.99156431204879,102.7374298266211C46.99156431204879,102.7374298266211,46.86566431204879,102.7374298266211,46.86566431204879,102.66572982662109C46.35656431204879,102.44912982662109,45.85016431204879,102.23252982662109,45.215164312048785,101.9427298266211C44.07366431204879,101.3646298266211,42.93226431204879,100.8581298266211,41.66216431204879,100.2800298266211C41.15296431204879,100.0634298266211,40.77246431204879,99.7751298266211,40.26616431204879,99.5585298266211C39.88566431204879,99.3419298266211,39.50516431204879,99.1253298266211,39.124664312048786,98.90712982662109C38.744264312048784,98.6189298266211,38.23506431204879,98.4023298266211,37.85456431204879,98.1124298266211C37.59996431204879,97.9691298266211,37.34816431204879,97.8958298266211,37.21956431204879,97.7509298266211C36.20396431204879,97.0294298266211,35.31716431204879,96.37802982662109,34.30156431204879,95.6566298266211C33.666544312048785,95.2218298266211,33.16017431204879,94.7169298266211,32.65101431204879,94.2104298266211C31.89006431204879,93.4874298266211,31.25500431204879,92.6927298266211,30.622744312048788,91.8979298266211C30.622744312048788,91.8263298266211,30.49405431204879,91.7546298266211,30.49405431204879,91.6814298266211C30.368154312048787,91.1765298266211,29.86178431204879,90.7417298266211,29.607204312048786,90.23682982662109C29.35262431204879,89.6587298266211,28.97214431204879,89.1523298266211,28.59166431204879,88.57412982662109C28.337084312048788,87.9960298266211,27.95660431204879,87.4179298266211,27.830714312048787,86.7681298266211C27.70202431204879,86.26162982662109,27.45024431204879,85.7568298266211,27.45024431204879,85.2503298266211C27.32155431204879,84.3107298266211,27.195654312048788,83.4443298266211,27.195654312048788,82.5046298266211C27.195654312048788,81.7099298266211,27.195654312048788,80.98682982662109,27.32155431204879,80.1921298266211C27.45024431204879,79.0359298266211,28.08250431204879,77.8796298266211,28.717564312048786,76.7234298266211C29.09803431204879,76.0736298266211,29.607204312048786,75.49542982662109,30.11357431204879,74.8441298266211C30.368154312048787,74.48252982662109,30.74863431204879,74.1226298266211,31.12910431204879,73.7611298266211C31.63827431204879,73.3263298266211,32.018754312048785,72.8214298266211,32.52512431204879,72.3882298266211C32.90559431204879,72.0267298266211,33.41476431204879,71.6652298266211,33.92116431204879,71.30362982662109C34.30156431204879,71.08702982662109,34.556164312048786,70.7255298266211,34.93666431204879,70.5806298266211C35.697664312048786,70.2923298266211,36.07806431204879,69.8591298266211,36.71316431204879,69.4976298266211C37.34816431204879,69.1361298266211,37.85456431204879,68.7029298266211,38.48966431204879,68.2681298266211C39.25056431204879,67.7632298266211,40.26616431204879,67.3300298266211,41.02706431204879,66.89522982662109C41.66216431204879,66.5337298266211,42.29716431204879,66.24542982662109,42.93226431204879,65.9556298266211C43.438664312048786,65.6673298266211,43.94496431204879,65.3791298266211,44.58006431204879,65.1609298266211C44.83466431204879,65.0892298266211,44.96056431204879,64.9443298266211,45.215164312048785,64.8726298266211C45.46966431204879,64.7277298266211,45.72146431204879,64.6560298266211,45.97606431204879,64.5111298266211C46.23066431204879,64.4394298266211,46.485264312048784,64.2945298266211,46.73706431204879,64.2228298266211C46.99156431204879,64.0779298266211,47.24616431204879,63.9329298266211,47.49796431204879,63.7880298266211C49.02266431204879,63.2099298266211,50.28996431204879,62.56012982662109,51.81466431204879,62.126929826621094C52.06646431204879,62.0536298266211,52.32106431204879,61.910329826621094,52.57566431204879,61.7654298266211C52.83026431204879,61.693729826621095,53.082064312048786,61.548829826621095,53.33656431204879,61.4755298266211C54.60676431204879,61.0423298266211,55.87406431204879,60.6808298266211,57.01546431204879,60.1759298266211C57.77926431204879,59.8861298266211,58.54016431204879,59.452909826621095,59.55566431204879,59.30797982662109C59.681564312048785,59.30797982662109,59.681564312048785,59.236309826621095,59.681564312048785,59.236309826621095C60.69716431204879,58.87477982662109,61.83856431204879,58.584919826621096,62.85406431204879,58.2249898266211C63.36046431204879,58.080059826621095,63.995564312048785,57.863459826621096,64.50466431204879,57.71852982662109C65.13696431204879,57.5735998266211,65.6461643120488,57.4302698266211,66.28116431204879,57.2853398266211C67.67716431204879,56.923809826621095,68.94456431204878,56.56227982662109,70.3405643120488,56.200759826621095C71.86246431204879,55.767559826621095,72.87796431204879,55.4776998266211,74.0193643120488,55.2610998266211C75.03496431204879,55.044509826621095,76.17916431204878,54.827909826621095,77.19186431204878,54.611309826621095C77.82696431204879,54.46637982662109,78.5878643120488,54.3214498266211,79.22296431204879,54.1781198266211C80.61896431204879,53.888259826621095,82.01496431204879,53.5999898266211,83.53686431204879,53.3833898266211C85.18746431204879,53.09352982662109,86.83806431204879,52.9485998266211,88.48586431204879,52.732009826621095C89.12096431204878,52.6603398266211,89.75596431204877,52.5886698266211,90.5169643120488,52.515409826621095C90.89746431204878,52.4437398266211,91.4065643120488,52.3704798266211,91.78706431204878,52.3704798266211C92.1675643120488,52.3704798266211,92.42216431204878,52.298809826621095,92.80256431204879,52.2271398266211C93.9440643120488,52.1538798266211,94.9595643120488,52.010549826621094,96.1009643120488,51.93727982662109C96.60736431204879,51.93727982662109,96.9878643120488,51.8656198266211,97.49696431204879,51.8656198266211C98.0033643120488,51.8656198266211,98.5125643120488,51.7923498266211,99.01886431204878,51.7923498266211C99.5280643120488,51.7206898266211,100.16036431204878,51.6490198266211,100.6694643120488,51.575759826621095C102.4459643120488,51.4324198266211,104.3483643120488,51.359159826621095,106.1248643120488,51.2142298266211C106.63406431204879,51.2142298266211,107.14036431204877,51.142559826621095,107.6495643120488,51.142559826621095C107.6495643120488,50.78102982662109,107.6495643120488,50.78102982662109,108.15596431204878,50.7093698266211C108.53646431204879,50.7093698266211,108.7909643120488,50.7093698266211,109.17146431204878,50.6360998266211C109.4260643120488,50.5644398266211,109.6778643120488,50.4927678266211,109.93246431204878,50.419506826621095C110.18696431204879,50.2761708266211,110.4415643120488,50.131240826621095,110.82206431204878,49.9863118266211C110.82206431204878,49.9863118266211,110.82206431204878,49.9863118266211,110.82206431204878,49.9863118266211Z" fill="#790000" fill-opacity="1"/></g></g></g><g><g><g><path d="M110.822043630259,49.9863118266211C110.441643630259,50.2029088266211,110.31294363025901,50.3478388266211,110.058343630259,50.4927678266211C109.806543630259,50.5644398266211,109.55194363025899,50.6360998266211,109.29734363025901,50.7093698266211C108.916943630259,50.78102982662109,108.665143630259,50.78102982662109,108.281843630259,50.78102982662109C107.77544363025899,50.854299826621094,107.77544363025899,50.854299826621094,107.77544363025899,51.2142298266211C107.26914363025901,51.2142298266211,106.75994363025899,51.2874898266211,106.253543630259,51.2874898266211C104.477043630259,51.4324198266211,102.571943630259,51.5040898266211,100.795443630259,51.6490198266211C100.160343630259,51.7206898266211,99.653943630259,51.7923498266211,99.14764363025901,51.8656198266211C98.63844363025899,51.93727982662109,98.132043630259,51.93727982662109,97.62294363025899,51.93727982662109C97.116543630259,51.93727982662109,96.73604363025899,52.010549826621094,96.226943630259,52.010549826621094C95.085443630259,52.082209826621096,94.06994363025899,52.1538798266211,92.92854363025901,52.298809826621095C92.548043630259,52.298809826621095,92.29344363025899,52.3704798266211,91.91294363025901,52.4437398266211C91.406643630259,52.3704798266211,90.897443630259,52.4437398266211,90.516943630259,52.4437398266211C89.881943630259,52.515409826621095,89.24964363025899,52.5886698266211,88.48584363025901,52.6603398266211C86.838043630259,52.8769398266211,85.187543630259,53.09352982662109,83.536943630259,53.3101298266211C82.140843630259,53.5267298266211,80.618943630259,53.8165898266211,79.22294363025901,54.104859826621094C78.58794363025899,54.24977982662109,77.826943630259,54.394709826621096,77.191943630259,54.5396398266211C76.179143630259,54.7562398266211,75.034943630259,54.9728398266211,74.01944363025899,55.1894398266211C72.87794363025901,55.4776998266211,71.736543630259,55.6958898266211,70.595143630259,55.984159826621095C69.199143630259,56.3456898266211,67.928943630259,56.707209826621096,66.532943630259,57.0687398266211C65.897943630259,57.2120798266211,65.39154363025901,57.357009826621095,64.756443630259,57.5019398266211C64.121443630259,57.6468698266211,63.615043630259,57.863459826621096,63.108643630259,58.0067998266211C62.093143630259,58.3683298266211,60.948943630259,58.6581898266211,59.936143630259004,59.019709826621096C59.936143630259004,59.019709826621096,59.807543630259,59.09137982662109,59.807543630259,59.09137982662109C58.791943630259,59.236309826621095,58.159743630259,59.6695298266211,57.270043630259,59.9593298266211C56.128643630259,60.3925298266211,54.858543630259,60.8257298266211,53.591143630259,61.2589298266211C53.336643630259005,61.332229826621095,53.082043630259,61.4755298266211,52.827443630259,61.548829826621095C52.575643630259,61.6921298266211,52.321043630259,61.7654298266211,52.066443630259,61.910329826621094C50.544543630259,62.34352982662109,49.148543630259,63.066629826621096,47.752543630259,63.5714298266211C47.497943630259,63.716429826621095,47.246143630259,63.861329826621095,46.991643630259006,64.0046298266211C46.737043630259,64.14952982662109,46.485243630259,64.2228298266211,46.230643630258996,64.2945298266211C45.976043630259,64.4394298266211,45.721443630259,64.5111298266211,45.469743630259,64.6560298266211C45.215143630259,64.7277298266211,45.089243630259006,64.8726298266211,44.834643630259,64.9443298266211C44.199543630259,65.1609298266211,43.693243630259005,65.4507298266211,43.184043630259,65.73902982662109C42.548943630259004,66.0289298266211,41.916743630259006,66.3904298266211,41.281643630259,66.67862982662109C40.392043630258996,67.11182982662109,39.505143630259,67.5466298266211,38.744243630259,68.05152982662109C38.109143630259,68.4130298266211,37.600043630259,68.9195298266211,36.967743630259,69.2810298266211C36.203943630259005,69.7142298266211,35.697643630259,70.14742982662109,35.062543630259,70.4373298266211C34.682043630259,70.6539298266211,34.427543630259,70.9421298266211,34.047043630259,71.1587298266211C33.540653630259,71.52022982662109,33.031493630259,71.8818298266211,32.651013630259,72.24332982662109C32.144643630259,72.67652982662109,31.638273630259,73.18292982662109,31.255003630259,73.61612982662109C30.874523630259002,73.9777298266211,30.494053630259,74.3392298266211,30.242263630259,74.7007298266211C29.733093630259,75.3505298266211,29.226733630259,75.92862982662109,28.846253630259,76.57842982662109C28.211193630259,77.7347298266211,27.702023630259,78.89092982662109,27.450243630259003,80.0472298266211C27.321553630259,80.8419298266211,27.321553630259,81.5650298266211,27.321553630259,82.3597298266211C27.321553630259,83.29932982662109,27.450243630259003,84.16572982662109,27.576133630259,85.1054298266211C27.702023630259,85.61182982662109,27.956613630259,86.1167298266211,27.956613630259,86.6232298266211C28.082503630259,87.2013298266211,28.465773630259,87.8511298266211,28.717563630259,88.4292298266211C28.972143630259,89.00732982662109,29.352623630259,89.5138298266211,29.733093630259,90.0919298266211C29.987683630259,90.5984298266211,30.622743630259002,91.0316298266211,30.622743630259002,91.53642982662109C30.622743630259002,91.6097298266211,30.748633630259,91.6814298266211,30.748633630259,91.7546298266211C31.383693630259,92.54932982662109,32.144643630259,93.2708298266211,32.779703630259,94.06552982662109C33.286073630259,94.5720298266211,33.795243630259,95.07842982662109,34.427543630259,95.51162982662109C35.317143630259,96.2347298266211,36.332643630259,96.9562298266211,37.348243630259,97.60752982662109C37.600043630259,97.7509298266211,37.728643630259,97.8958298266211,37.980443630259,97.9691298266211C38.363743630259,98.25732982662109,38.870143630259,98.47392982662109,39.250643630259,98.7638298266211C39.631043630259,98.9804298266211,40.011543630259,99.1970298266211,40.392043630258996,99.4136298266211C40.901143630259,99.6302298266211,41.281643630259,99.92002982662109,41.788043630259,100.13662982662109C42.929443630259,100.7148298266211,44.073643630259,101.21962982662109,45.341043630259,101.7977298266211C45.850143630259,102.0143298266211,46.356543630259,102.3042298266211,46.991643630259006,102.5208298266211C46.991643630259006,102.5208298266211,47.117543630259,102.5925298266211,47.117543630259,102.5925298266211C48.261743630259005,102.8107298266211,49.148543630259,103.3888298266211,50.290043630259,103.6054298266211C51.179643630259,103.8220298266211,52.066443630259,104.1835298266211,52.956143630259,104.4718298266211C53.591143630259,104.6884298266211,54.223443630259,104.9050298266211,54.858543630259,105.0499298266211C55.748143630259,105.2665298266211,56.763643630259004,105.4831298266211,57.779243630259,105.6997298266211C58.031043630259,105.7730298266211,58.411443630259,105.9179298266211,58.666043630259004,105.9179298266211C60.316643630259,106.2062298266211,61.964443630259,106.4960298266211,63.740943630259004,106.7843298266211C64.756443630259,106.9292298266211,65.77204363025899,107.07412982662109,66.787543630259,107.2175298266211C67.168043630259,107.29072982662109,67.54854363025899,107.29072982662109,67.803143630259,107.3624298266211C69.453643630259,107.5790298266211,71.230143630259,107.72392982662109,72.87794363025901,107.8689298266211C73.387143630259,107.94052982662109,74.01944363025899,107.94052982662109,74.65444363025901,108.0122298266211C75.544143630259,108.0855298266211,76.559643630259,108.15712982662109,77.44644363025901,108.2288298266211C78.58794363025899,108.3021298266211,79.732143630259,108.37372982662109,80.87354363025901,108.37372982662109C82.015043630259,108.4470298266211,83.030543630259,108.4470298266211,84.171943630259,108.4470298266211C85.56794363025901,108.4470298266211,86.838043630259,108.4470298266211,88.23414363025901,108.4470298266211C89.37554363025899,108.4470298266211,90.645643630259,108.4470298266211,91.787043630259,108.4470298266211C93.308943630259,108.4470298266211,94.95954363025899,108.37372982662109,96.48144363025901,108.3021298266211C97.49704363025901,108.2288298266211,98.63844363025899,108.2288298266211,99.653943630259,108.15712982662109C101.05004363025901,108.0855298266211,102.446043630259,108.0122298266211,103.84204363025901,107.94052982662109C104.348343630259,107.94052982662109,104.98344363025899,107.94052982662109,105.49264363025901,107.94052982662109C106.379443630259,107.8689298266211,107.140443630259,107.8689298266211,108.030043630259,107.7956298266211C109.42604363025899,107.72392982662109,110.693343630259,107.50732982662109,112.08944363025901,107.50732982662109C112.21804363025899,107.50732982662109,112.34394363025899,107.50732982662109,112.46984363025899,107.4341298266211C113.10494363025899,107.29072982662109,113.739943630259,107.2175298266211,114.500943630259,107.1458298266211C115.261943630259,107.07412982662109,116.02284363025899,107.07412982662109,116.78384363025901,106.9292298266211C117.418843630259,106.7843298266211,118.179843630259,106.7843298266211,118.943543630259,106.7126298266211C119.830443630259,106.6393298266211,120.845943630259,106.4960298266211,121.732743630259,106.3511298266211C123.257543630259,106.1345298266211,124.653143630259,105.9896298266211,126.17514363025902,105.7730298266211C126.93614363025901,105.62802982662109,127.697143630259,105.4831298266211,128.461143630259,105.3398298266211C129.093143630259,105.19482982662109,129.854143630259,105.1216298266211,130.489143630259,104.97822982662109C131.250143630259,104.8333298266211,132.140143630259,104.6884298266211,132.901143630259,104.4718298266211C133.662143630259,104.3268298266211,134.297143630259,104.1835298266211,135.058143630259,104.1102298266211C135.438143630259,104.0386298266211,135.693143630259,104.0386298266211,136.073143630259,103.96532982662109C136.834143630259,103.8220298266211,137.469143630259,103.6054298266211,138.230143630259,103.4605298266211C138.359143630259,103.4605298266211,138.359143630259,103.3888298266211,138.485143630259,103.3888298266211C139.626143630259,103.31552982662109,140.516143630259,102.9540298266211,141.65714363025901,102.8107298266211C143.053143630259,102.5925298266211,144.321143630259,102.1593298266211,145.591143630259,101.8710298266211C145.971143630259,101.7977298266211,146.226143630259,101.6544298266211,146.480143630259,101.5812298266211C147.241143630259,101.3646298266211,148.002143630259,101.21962982662109,148.763143630259,101.0763298266211C149.524143630259,100.8581298266211,150.414143630259,100.7148298266211,151.17514363025902,100.4982298266211C151.555143630259,100.4249298266211,151.93614363025898,100.2800298266211,152.316143630259,100.13662982662109C152.82314363025898,99.9917298266211,153.332143630259,99.92002982662109,153.712143630259,99.7751298266211C153.712143630259,99.7751298266211,153.838143630259,99.7751298266211,153.838143630259,99.70342982662109C154.602143630259,99.1970298266211,155.869143630259,99.1253298266211,156.885143630259,98.7638298266211C157.646143630259,98.47392982662109,158.661143630259,98.3290298266211,159.422143630259,97.8958298266211C159.551143630259,97.82412982662109,159.803143630259,97.82412982662109,160.057143630259,97.7509298266211C160.944143630259,97.5343298266211,161.708143630259,97.1011298266211,162.721143630259,96.8845298266211C162.975143630259,96.8128298266211,163.230143630259,96.6679298266211,163.48414363025898,96.5230298266211C164.37114363025898,96.0898298266211,165.387143630259,95.7999298266211,166.402143630259,95.3667298266211C166.909143630259,95.1501298266211,167.41814363025898,94.86182982662109,167.92414363025898,94.6437298266211C168.433143630259,94.4271298266211,168.940143630259,94.2105298266211,169.449143630259,93.9939298266211C169.701143630259,93.9222298266211,169.82914363025898,93.7773298266211,170.081143630259,93.7056298266211C170.590143630259,93.4874298266211,170.971143630259,93.19912982662109,171.477143630259,93.1275298266211C171.858143630259,93.0542298266211,172.238143630259,92.9093298266211,172.367143630259,92.6210298266211C172.367143630259,92.54932982662109,172.493143630259,92.4761298266211,172.619143630259,92.4044298266211C173.38214363025898,91.9712298266211,174.015143630259,91.6097298266211,174.778143630259,91.1765298266211C175.539143630259,90.7417298266211,176.17414363025898,90.3085298266211,176.807143630259,89.7304298266211C177.06114363025898,89.5138298266211,177.44214363025898,89.2972298266211,177.696143630259,89.0806298266211C179.092143630259,88.0693298266211,180.23414363025898,86.9847298266211,180.99514363025898,85.7568298266211C181.630143630259,84.8888298266211,182.136143630259,84.0224298266211,182.391143630259,83.08272982662109C182.64514363025899,82.3597298266211,182.90014363025898,81.63662982662109,182.771143630259,80.9152298266211C182.771143630259,80.55362982662109,182.771143630259,80.1921298266211,182.90014363025898,79.7589298266211C183.02614363025899,79.18082982662109,182.771143630259,78.6027298266211,182.64514363025899,78.02452982662109C182.51914363025898,77.7347298266211,182.51914363025898,77.4464298266211,182.391143630259,77.1566298266211C182.265143630259,76.7234298266211,181.884143630259,76.36182982662109,181.756143630259,75.92862982662109C181.630143630259,75.71202982662109,181.504143630259,75.4222298266211,181.375143630259,75.2056298266211C180.99514363025898,74.7007298266211,180.74014363025898,74.1943298266211,180.360143630259,73.6878298266211C179.727143630259,72.8931298266211,178.838143630259,72.1716298266211,178.203143630259,71.3753298266211C177.44214363025898,70.9421298266211,177.187143630259,70.2923298266211,176.300143630259,69.8591298266211C175.920143630259,69.20772982662109,175.030143630259,68.7029298266211,174.26914363025898,68.1964298266211C173.50814363025899,67.6900298266211,172.873143630259,67.11182982662109,171.986143630259,66.67862982662109C171.477143630259,66.46202982662109,171.09714363025898,66.1005298266211,170.590143630259,65.8123298266211C169.575143630259,65.30582982662109,168.559143630259,64.8009298266211,167.670143630259,64.2228298266211C166.657143630259,63.644729826621095,165.51314363025898,63.2099298266211,164.500143630259,62.77672982662109C163.48414363025898,62.126929826621094,162.214143630259,61.7654298266211,161.07314363025898,61.2589298266211C160.438143630259,60.970729826621096,159.677143630259,60.754129826621096,159.042143630259,60.537529826621096C158.661143630259,60.3925298266211,158.155143630259,60.24762982662109,157.772143630259,60.03102982662109C157.13914363025899,59.6695298266211,156.378143630259,59.5245298266211,155.489143630259,59.30797982662109C154.854143630259,59.1630498266211,154.34714363025898,59.019709826621096,153.712143630259,58.8031198266211C152.82314363025898,58.4415898266211,151.810143630259,58.2249898266211,150.79414363025901,58.0067998266211C150.159143630259,57.863459826621096,149.524143630259,57.6468698266211,148.763143630259,57.4302698266211C148.002143630259,57.2120798266211,147.113143630259,57.0687398266211,146.226143630259,56.923809826621095C144.701143630259,56.6339498266211,143.179143630259,56.3456898266211,141.65714363025901,56.0558298266211C140.387143630259,55.984159826621095,139.246143630259,55.9124898266211,138.104143630259,55.6958898266211C136.963143630259,55.4776998266211,135.819143630259,55.40602982662109,134.551143630259,55.261109826621094C133.281143630259,55.1177698266211,132.140143630259,54.8995798266211,130.870143630259,54.7562398266211C130.363143630259,54.6829798266211,129.854143630259,54.6829798266211,129.474143630259,54.6829798266211C128.587143630259,54.611309826621095,127.697143630259,54.5396398266211,126.810143630259,54.5396398266211C126.43014363025901,54.5396398266211,126.04914363025901,54.5396398266211,125.66914363025901,54.46637982662109C125.160143630259,54.46637982662109,124.653143630259,54.394709826621096,124.14414363025901,54.394709826621096C123.892143630259,54.394709826621096,123.63814363025901,54.394709826621096,123.38334363025899,54.394709826621096C123.12884363025901,54.394709826621096,122.748343630259,54.394709826621096,122.496543630259,54.394709826621096C121.35234363025901,54.3214498266211,120.084943630259,54.3214498266211,118.943543630259,54.24977982662109C116.403343630259,54.1781198266211,113.739943630259,54.1781198266211,111.20254363025902,54.1781198266211C109.67784363025899,54.1781198266211,108.155943630259,54.1781198266211,106.63404363025901,54.24977982662109C104.85754363025899,54.3214498266211,103.33284363025899,54.394709826621096,101.685043630259,54.5396398266211C100.669543630259,54.5396398266211,99.779843630259,54.611309826621095,98.76434363025899,54.611309826621095C98.38384363025901,54.611309826621095,97.877543630259,54.5396398266211,97.751643630259,54.3214498266211C97.49704363025901,54.0331898266211,97.116543630259,54.1781198266211,96.60734363025901,54.1781198266211C96.73604363025899,54.3214498266211,96.86194363025899,54.394709826621096,96.987843630259,54.46637982662109C96.355543630259,54.7562398266211,95.72054363025899,54.7562398266211,94.95954363025899,54.611309826621095C94.95954363025899,54.46637982662109,95.085443630259,54.394709826621096,95.085443630259,54.24977982662109C94.83084363025901,54.24977982662109,94.57914363025901,54.24977982662109,94.324543630259,54.24977982662109C94.06994363025899,54.24977982662109,93.81534363025901,54.3214498266211,93.81534363025901,54.46637982662109C93.81534363025901,54.6829798266211,93.563543630259,54.7562398266211,93.183043630259,54.7562398266211C92.422143630259,54.7562398266211,91.658343630259,54.827909826621095,91.02614363025901,54.827909826621095C90.897443630259,54.827909826621095,90.771543630259,54.8995798266211,90.645643630259,54.8995798266211C89.881943630259,55.1177698266211,89.37554363025899,55.261109826621094,88.740443630259,55.261109826621094C88.61454363025899,55.261109826621094,88.48584363025901,55.1894398266211,88.36004363025901,55.1177698266211C88.740443630259,54.9728398266211,89.120943630259,54.8995798266211,89.37554363025899,54.827909826621095C89.37554363025899,54.7562398266211,89.37554363025899,54.7562398266211,89.37554363025899,54.7562398266211C88.995043630259,54.3214498266211,88.995043630259,54.3214498266211,89.630143630259,54.1781198266211C90.26234363025901,54.0331898266211,90.897443630259,53.888259826621095,91.532543630259,53.888259826621095C91.787043630259,53.888259826621095,92.03884363025901,53.8165898266211,92.16754363025899,53.7449198266211C92.422143630259,53.5999898266211,92.80264363025901,53.5267298266211,93.183043630259,53.5267298266211C93.689443630259,53.455059826621095,94.198643630259,53.455059826621095,94.70504363025901,53.238459826621096C94.83084363025901,53.166799826621094,95.085443630259,53.238459826621096,95.211343630259,53.238459826621096C95.340043630259,53.238459826621096,95.59464363025901,53.3101298266211,95.59464363025901,53.238459826621096C96.101043630259,53.0218698266211,96.60734363025901,53.09352982662109,97.116543630259,53.09352982662109C98.63844363025899,53.166799826621094,99.908543630259,52.8769398266211,101.43044363025899,52.8052698266211C101.810943630259,52.732009826621095,102.320143630259,52.8052698266211,102.70064363025901,52.732009826621095C104.096643630259,52.6603398266211,105.49264363025901,52.5886698266211,106.88584363025899,52.6603398266211C107.140443630259,52.6603398266211,107.39504363025901,52.5886698266211,107.77544363025899,52.5886698266211C108.155943630259,52.5886698266211,108.53644363025901,52.5886698266211,108.791043630259,52.515409826621095C108.916943630259,52.515409826621095,109.171443630259,52.4437398266211,109.29734363025901,52.4437398266211C109.67784363025899,52.4437398266211,110.18704363025901,52.3704798266211,110.56744363025899,52.3704798266211C111.073843630259,52.4437398266211,111.708943630259,52.4437398266211,112.21804363025899,52.3704798266211C112.97904363025901,52.3704798266211,113.10494363025899,52.3704798266211,113.99454363025899,52.6603398266211C114.626843630259,52.3704798266211,115.516443630259,52.298809826621095,116.403343630259,52.3704798266211C117.928043630259,52.3704798266211,119.44994363025901,52.4437398266211,120.971843630259,52.515409826621095C121.22644363025901,52.515409826621095,121.481043630259,52.515409826621095,121.732743630259,52.515409826621095C122.622443630259,52.4437398266211,123.512043630259,52.515409826621095,124.52514363025901,52.5886698266211C125.79514363025899,52.6603398266211,127.191143630259,52.732009826621095,128.461143630259,52.8052698266211C130.744143630259,52.8769398266211,132.901143630259,53.238459826621096,135.186143630259,53.455059826621095C137.089143630259,53.671659826621095,138.991143630259,53.888259826621095,140.768143630259,54.1781198266211C142.673143630259,54.46637982662109,144.449143630259,54.827909826621095,146.226143630259,55.1894398266211C148.002143630259,55.550959826621096,149.653143630259,56.0558298266211,151.429143630259,56.4906198266211C152.316143630259,56.707209826621096,153.206143630259,56.9954798266211,154.093143630259,57.2120798266211C154.982143630259,57.5019398266211,155.869143630259,57.71852982662109,156.759143630259,58.0067998266211C157.13914363025899,58.15172982662109,157.52014363025899,58.296659826621095,157.90014363025898,58.4415898266211C158.661143630259,58.7298498266211,159.296143630259,59.019709826621096,160.057143630259,59.30797982662109C160.69214363025898,59.5245298266211,161.453143630259,59.7411298266211,162.088143630259,60.03102982662109C162.214143630259,60.03102982662109,162.214143630259,60.1027298266211,162.340143630259,60.1027298266211C163.104143630259,60.46422982662109,163.991143630259,60.8257298266211,164.75214363025898,61.187329826621095C165.893143630259,61.6921298266211,166.909143630259,62.1986298266211,168.053143630259,62.7050298266211C168.559143630259,62.9933298266211,169.066143630259,63.283229826621096,169.701143630259,63.499829826621095C169.82914363025898,63.5714298266211,169.955143630259,63.644729826621095,170.081143630259,63.716429826621095C171.732143630259,64.5111298266211,173.254143630259,65.52242982662109,174.65014363025898,66.46202982662109C175.285143630259,66.89522982662109,176.046143630259,67.3300298266211,176.681143630259,67.83492982662109C176.807143630259,67.9082298266211,176.935143630259,67.9082298266211,176.935143630259,67.9082298266211C177.06114363025898,67.9798298266211,177.187143630259,67.9798298266211,177.187143630259,68.05152982662109C177.44214363025898,68.6296298266211,178.331143630259,68.99112982662109,178.838143630259,69.4976298266211C179.218143630259,69.7859298266211,179.599143630259,70.0757298266211,179.85314363025898,70.4373298266211C180.23414363025898,70.87042982662109,180.74014363025898,71.30362982662109,181.123143630259,71.73682982662109C181.756143630259,72.3882298266211,182.391143630259,73.0380298266211,183.02614363025899,73.6878298266211C183.280143630259,73.9777298266211,183.40614363025898,74.3392298266211,183.78714363025898,74.6275298266211C183.913143630259,74.7007298266211,183.913143630259,74.77242982662109,183.913143630259,74.8441298266211C183.913143630259,75.2056298266211,184.167143630259,75.49542982662109,184.548143630259,75.7837298266211C184.676143630259,75.92862982662109,184.676143630259,76.0003298266211,184.676143630259,76.14522982662109C184.676143630259,76.57842982662109,184.802143630259,76.9400298266211,185.057143630259,77.3732298266211C185.183143630259,77.4464298266211,185.183143630259,77.5181298266211,185.183143630259,77.6630298266211C185.437143630259,78.3861298266211,185.689143630259,79.18082982662109,185.689143630259,79.9023298266211C185.689143630259,80.8419298266211,185.944143630259,81.7099298266211,185.689143630259,82.64952982662109C185.437143630259,83.5876298266211,185.309143630259,84.6005298266211,185.057143630259,85.5386298266211C185.057143630259,85.61182982662109,185.057143630259,85.6835298266211,184.928143630259,85.7568298266211C184.296143630259,86.3349298266211,184.041143630259,87.0564298266211,183.661143630259,87.6345298266211C183.280143630259,88.2126298266211,182.90014363025898,88.8640298266211,182.265143630259,89.3689298266211C181.504143630259,90.02022982662109,180.74014363025898,90.7417298266211,179.727143630259,91.31982982662109C179.34714363025898,91.53642982662109,179.092143630259,91.8263298266211,178.838143630259,92.0429298266211C178.712143630259,92.1146298266211,178.583143630259,92.2595298266211,178.457143630259,92.3312298266211C177.187143630259,92.98252982662109,176.17414363025898,93.7773298266211,174.904143630259,94.5003298266211C173.88914363025899,95.07842982662109,172.747143630259,95.5833298266211,171.606143630259,96.0898298266211C170.71614363025898,96.4513298266211,169.955143630259,96.8845298266211,169.066143630259,97.2460298266211C168.30514363025898,97.5343298266211,167.544143630259,97.82412982662109,166.783143630259,98.1124298266211C166.402143630259,98.25732982662109,165.893143630259,98.47392982662109,165.51314363025898,98.6189298266211C165.261143630259,98.7638298266211,164.880143630259,98.90712982662109,164.62614363025898,98.9804298266211C163.610143630259,99.1970298266211,162.849143630259,99.5585298266211,161.96014363025898,99.8468298266211C160.944143630259,100.13662982662109,159.931143630259,100.4249298266211,158.916143630259,100.7148298266211C158.155143630259,100.9314298266211,157.52014363025899,101.0763298266211,156.759143630259,101.2929298266211C155.363143630259,101.6544298266211,153.967143630259,102.0876298266211,152.44214363025898,102.5208298266211C151.681143630259,102.7374298266211,151.046143630259,102.9540298266211,150.285143630259,103.1706298266211C148.637143630259,103.6054298266211,146.987143630259,104.1102298266211,145.210143630259,104.5434298266211C144.701143630259,104.6884298266211,144.069143630259,104.76162982662109,143.560143630259,104.9050298266211C142.673143630259,105.1216298266211,141.783143630259,105.2665298266211,140.896143630259,105.41142982662109C139.120143630259,105.6997298266211,137.469143630259,106.2062298266211,135.567143630259,106.4960298266211C134.042143630259,106.7843298266211,132.520143630259,107.07412982662109,130.998143630259,107.3624298266211C130.489143630259,107.4341298266211,130.109143630259,107.50732982662109,129.602143630259,107.50732982662109C128.841143630259,107.5790298266211,128.206143630259,107.72392982662109,127.571143630259,107.94052982662109C127.571143630259,107.94052982662109,127.445143630259,107.94052982662109,127.31714363025901,108.0122298266211C126.04914363025901,108.15712982662109,124.779143630259,108.3021298266211,123.512043630259,108.37372982662109C123.00294363025901,108.4470298266211,122.622443630259,108.5187298266211,122.11604363025901,108.5187298266211C121.35234363025901,108.6636298266211,120.46544363025899,108.7352298266211,119.704543630259,108.8802298266211C118.943543630259,109.0251298266211,118.179843630259,109.0968298266211,117.418843630259,109.0251298266211C117.03834363025899,109.0251298266211,116.65794363025901,109.1684298266211,116.151543630259,109.2417298266211C115.390543630259,109.3134298266211,114.626843630259,109.38502982662109,113.86584363025901,109.4583298266211C112.850343630259,109.5300298266211,111.708943630259,109.6749298266211,110.693343630259,109.7466298266211C109.67784363025899,109.81982982662109,108.665143630259,109.9632298266211,107.64954363025899,110.03642982662109C107.26914363025901,110.03642982662109,106.75994363025899,110.03642982662109,106.379443630259,110.03642982662109C105.74444363025901,110.03642982662109,105.10934363025899,110.1814298266211,104.477043630259,110.1081298266211C104.096643630259,110.1081298266211,103.587443630259,110.25302982662109,103.20694363025899,110.25302982662109C102.95234363025901,110.25302982662109,102.571943630259,110.25302982662109,102.320143630259,110.1814298266211C102.06554363025901,110.1814298266211,101.810943630259,110.1081298266211,101.685043630259,110.1814298266211C101.30454363025899,110.1814298266211,100.669543630259,110.1814298266211,99.908543630259,110.1814298266211C99.14764363025901,110.1814298266211,98.51254363025899,110.3247298266211,97.751643630259,110.3247298266211C96.73604363025899,110.3980298266211,95.84644363025899,110.3980298266211,94.83084363025901,110.3980298266211C93.563543630259,110.3980298266211,92.29344363025899,110.3980298266211,91.02614363025901,110.3980298266211C90.13644363025901,110.3980298266211,89.24964363025899,110.46962982662109,88.36004363025901,110.46962982662109C86.963943630259,110.46962982662109,85.696643630259,110.3980298266211,84.300643630259,110.3247298266211C83.79144363025901,110.3247298266211,83.15644363025899,110.3980298266211,82.524143630259,110.3980298266211C81.634543630259,110.3980298266211,80.747643630259,110.3247298266211,79.732143630259,110.3247298266211C78.336143630259,110.25302982662109,77.066043630259,110.1081298266211,75.670043630259,110.03642982662109C74.90904363025899,109.9632298266211,74.148043630259,110.03642982662109,73.387143630259,109.9632298266211C72.497543630259,109.8915298266211,71.610643630259,109.81982982662109,70.721043630259,109.6749298266211C69.579543630259,109.5300298266211,68.43814363025899,109.3134298266211,67.29394363025901,109.3134298266211C64.885143630259,109.1684298266211,62.728243630259,108.59032982662109,60.568443630259004,108.2288298266211C59.936143630259004,108.15712982662109,59.301143630259,108.0122298266211,58.666043630259004,107.94052982662109C58.159743630259,107.8689298266211,57.524643630259,107.72392982662109,57.015443630259,107.5790298266211C56.383243630259,107.4341298266211,55.748143630259,107.2175298266211,55.113143630259,107.07412982662109C54.732643630259005,107.0009298266211,54.223443630259,106.9292298266211,53.842943630259,106.8559298266211C51.686043630259,106.2062298266211,49.529043630259,105.4831298266211,47.372043630259,104.76162982662109C45.595643630259005,104.1102298266211,43.819143630259006,103.3888298266211,42.297243630259004,102.5925298266211C41.536243630259,102.23252982662109,40.772543630259,101.9427298266211,40.011543630259,101.5812298266211C39.505143630259,101.3646298266211,38.996043630259,101.0763298266211,38.489643630259,100.78642982662109C37.348243630259,100.13662982662109,36.203943630259005,99.4136298266211,35.191243630259,98.7638298266211C34.810743630259,98.47392982662109,34.427543630259,98.1857298266211,34.047043630259,97.8958298266211C33.286073630259,97.4626298266211,32.779703630259,97.0294298266211,32.270533630259,96.5230298266211C32.144643630259,96.4513298266211,32.018753630259,96.3064298266211,31.890063630259,96.2347298266211C31.764173630259002,96.16142982662109,31.638273630259,96.0898298266211,31.509583630259,95.94482982662109C30.622743630259002,95.07842982662109,29.733093630259,94.2105298266211,28.846253630259,93.3441298266211C28.337083630259002,92.8376298266211,28.082503630259,92.3312298266211,27.576133630259,91.8263298266211C26.434703630259,90.67002982662109,25.925543630259,89.3689298266211,25.164583630259003,88.0693298266211C24.784113630259,87.4179298266211,24.529526630259,86.69482982662109,24.403634630259003,85.9734298266211C24.403634630259003,85.9001298266211,24.403634630259003,85.82842982662109,24.403634630259003,85.82842982662109C24.023158630259,85.1054298266211,23.897265630259,84.3107298266211,23.768574630259,83.5876298266211C23.768574630259,82.7212298266211,23.768574630259,81.9265298266211,23.642681830259,81.1318298266211C23.642681830259,81.1318298266211,23.642681830259,81.0585298266211,23.642681830259,81.0585298266211C23.516789630259,80.0472298266211,23.897265630259,79.0359298266211,23.897265630259,78.0962298266211C23.897265630259,77.7347298266211,24.277741630259,77.3732298266211,24.403634630259003,77.01162982662109C24.658213630259002,76.4351298266211,24.910003630259002,75.8570298266211,25.293273630259,75.3505298266211C25.925543630259,74.55582982662109,26.689293630259,73.6878298266211,27.195653630259002,72.8214298266211C27.830713630259,71.95342982662109,28.717563630259,71.2320298266211,29.607203630259,70.4373298266211C30.242263630259,69.8591298266211,31.129113630259,69.3527298266211,31.890063630259,68.8462298266211C32.144643630259,68.7029298266211,32.270543630259,68.55792982662109,32.525123630259,68.4130298266211C32.651013630259,68.4130298266211,32.651013630259,68.2681298266211,32.779703630259,68.2681298266211C33.540653630259,67.9798298266211,34.047043630259,67.4734298266211,34.682043630259,67.0402298266211C35.191243630259,66.6070298266211,35.952243630259005,66.3171298266211,36.587243630259,65.9556298266211C37.219543630259,65.5957298266211,37.980443630259,65.30582982662109,38.615543630259,64.9443298266211C39.250643630259,64.6560298266211,39.759743630259,64.2945298266211,40.392043630258996,64.0046298266211C40.646643630259,63.861329826621095,41.027043630259,63.716429826621095,41.281643630259,63.5714298266211C41.407543630259,63.499829826621095,41.662143630259,63.4265298266211,41.788043630259,63.3548298266211C42.423143630259005,63.066629826621096,43.058143630258996,62.77672982662109,43.693243630259005,62.4884298266211C43.819143630259006,62.4884298266211,43.819143630259006,62.4152298266211,43.945043630259,62.4152298266211C44.834643630259,62.126929826621094,45.595643630259005,61.7654298266211,46.485243630259,61.4755298266211C47.497943630259,61.115629826621095,48.387643630259,60.6808298266211,49.403143630259,60.3193298266211C50.290043630259,59.9593298266211,51.179643630259,59.6695298266211,51.940643630259004,59.30797982662109C51.940643630259004,59.30797982662109,52.066443630259,59.30797982662109,52.066443630259,59.236309826621095C53.336643630259005,58.6581898266211,54.987243630259,58.296659826621095,56.383243630259,57.7901998266211C57.524643630259,57.357009826621095,58.666043630259004,56.9954798266211,59.807543630259,56.707209826621096C60.948943630259,56.4173498266211,61.964443630259,55.984159826621095,62.980043630259004,55.6958898266211C64.756443630259,55.1894398266211,66.532943630259,54.6829798266211,68.43814363025899,54.24977982662109C70.08594363025901,53.8165898266211,71.736543630259,53.455059826621095,73.387143630259,53.0218698266211C74.52854363025901,52.8052698266211,75.670043630259,52.5886698266211,76.81144363025899,52.3704798266211C78.336143630259,52.082209826621096,79.983943630259,51.7923498266211,81.508643630259,51.5040898266211C82.904643630259,51.2874898266211,84.300643630259,50.9976298266211,85.696643630259,50.78102982662109C86.583543630259,50.6360998266211,87.473143630259,50.6360998266211,88.36004363025901,50.5644398266211C89.120943630259,50.4927678266211,90.01054363025901,50.419506826621095,90.771543630259,50.3478388266211C91.02614363025901,50.3478388266211,91.27794363025899,50.2761698266211,91.532543630259,50.2761698266211C93.308943630259,50.131240826621095,94.95954363025899,50.0595728266211,96.73604363025899,49.9863118266211C97.751643630259,49.9146428266211,98.76434363025899,49.9146428266211,99.779843630259,49.841381826621095C100.543643630259,49.841381826621095,101.43044363025899,49.7697138266211,102.19144363025899,49.6980448266211C102.826443630259,49.6980448266211,103.33284363025899,49.6980448266211,103.96794363025901,49.6247838266211C105.363943630259,49.5531155266211,106.75994363025899,49.481447526621096,108.155943630259,49.553115826621095C108.791043630259,49.553115826621095,109.42604363025899,49.6980448266211,110.058343630259,49.841381826621095C110.441643630259,49.7697138266211,110.693343630259,49.9146428266211,110.822043630259,49.9863118266211C110.822043630259,49.9863118266211,110.822043630259,49.9863118266211,110.822043630259,49.9863118266211ZM89.756043630259,54.7562398266211C90.01054363025901,54.827909826621095,90.13644363025901,54.827909826621095,90.39104363025899,54.827909826621095C90.516943630259,54.827909826621095,90.645643630259,54.7562398266211,90.771543630259,54.7562398266211C90.771543630259,54.6829798266211,90.771543630259,54.5396398266211,90.771543630259,54.46637982662109C90.39104363025899,54.3214498266211,90.01054363025901,54.394709826621096,89.756043630259,54.7562398266211C89.756043630259,54.7562398266211,89.756043630259,54.7562398266211,89.756043630259,54.7562398266211ZM92.29344363025899,54.6829798266211C92.16754363025899,54.46637982662109,91.91294363025901,54.46637982662109,91.658343630259,54.6829798266211C92.03884363025901,54.6829798266211,92.16754363025899,54.6829798266211,92.29344363025899,54.6829798266211C92.29344363025899,54.6829798266211,92.29344363025899,54.6829798266211,92.29344363025899,54.6829798266211Z" fill="#790000" fill-opacity="1"/></g></g></g><g><path d="M89.75601196289062,54.75623485424805C90.13648796289063,54.394707394248044,90.39107196289062,54.32144645424805,90.64565496289063,54.46637595424804C90.77155196289063,54.539636854248045,90.77155196289063,54.61130485424805,90.64565496289063,54.75623485424805C90.64565496289063,54.827902854248045,90.39107196289062,54.827902854248045,90.26238096289063,54.827902854248045C90.13648796289063,54.899571854248045,90.01059596289062,54.827902854248045,89.75601196289062,54.75623485424805C89.75601196289062,54.75623485424805,89.75601196289062,54.75623485424805,89.75601196289062,54.75623485424805Z" fill="#790000" fill-opacity="1"/></g><g><path d="M92.29345285986328,54.68297870068359C92.16755985986327,54.68297870068359,92.03886985986328,54.68297870068359,91.65839385986328,54.68297870068359C92.03886985986328,54.466381400683595,92.16755985986327,54.466381400683595,92.29345285986328,54.68297870068359C92.29345285986328,54.68297870068359,92.29345285986328,54.68297870068359,92.29345285986328,54.68297870068359Z" fill="#790000" fill-opacity="1"/></g></g></svg>