<svg xmlns="http://www.w3.org/2000/svg" xmlns:xlink="http://www.w3.org/1999/xlink" fill="none" version="1.1" width="292.63916015625" height="228.181640625" viewBox="0 0 292.63916015625 228.181640625"><defs><mask id="master_svg0_5_453" style="mask-type:alpha" maskUnits="userSpaceOnUse"><g transform="matrix(1,-1.1920666567113173e-16,-5.2474286652444944e-17,1,0,1.4210854715202004e-14)"><g transform="matrix(1,-6.453651227737901e-17,0,1,0,0)"><path d="M78.85644531250001,120.24584960937501C78.85644531250001,120.24584960937501,194.63144531250003,120.24584960937501,194.63144531250003,120.24584960937501C194.63144531250003,120.24584960937501,194.63144531250003,300.215849609375,194.63144531250003,300.215849609375C194.63144531250003,300.215849609375,78.85644531250001,300.215849609375,78.85644531250001,300.215849609375C78.85644531250001,300.215849609375,78.85644531250001,120.24584960937501,78.85644531250001,120.24584960937501C78.85644531250001,120.24584960937501,78.85644531250001,120.24584960937501,78.85644531250001,120.24584960937501Z" fill="#FE2901" fill-opacity="1"/></g></g></mask><mask id="master_svg1_5_449" style="mask-type:alpha" maskUnits="userSpaceOnUse"><g transform="matrix(1,5.646984657659004e-9,-8.863501932410145e-9,1,0.0000011916238520370825,-5.875786825981777e-7)"><g transform="matrix(1,5.646984657659004e-9,-8.863501932410145e-9,1,0.0000011916238520370825,-5.875787110198871e-7)"><path d="M187.33196153820592,137.2878323573666C168.83366153820594,164.1541523573666,150.33746153820593,195.5039523573666,138.92286153820595,215.16795235736657C129.48006153820594,231.5217523573666,118.96516153820593,249.82465235736657,113.51524153820594,260.5716523573666C110.68397153820594,266.17865235736656,109.17992153820593,271.31765235736657,107.46325153820594,273.7376523573666C106.64856153820594,274.9786523573666,105.79135153820594,275.9796523573666,105.18928153820593,275.9216523573666C104.71703253820594,275.9216523573666,104.20225553820593,275.15465235736656,104.07468053820594,274.6216523573666C103.98739213820593,274.1506523573666,104.15973053820593,273.3256523573666,104.41711853820594,272.97165235736657C104.67450753820594,272.6176523573666,105.18928153820593,272.38065235736656,105.53396153820594,272.49765235736663C105.87640153820594,272.5556523573666,106.34865153820594,273.02965235736656,106.47623153820594,273.50065235736656C106.60604153820594,274.0336523573666,106.43370153820594,275.15465235736656,106.13379153820594,275.56765235736657C105.87640153820594,275.9216523573666,105.27657153820594,276.0416523573666,104.97442053820593,275.8626523573666C104.63198253820593,275.74565235736657,104.20225553820593,275.21265235736655,104.11720583820593,274.7416523573666C103.98739223820594,274.2676523573666,104.15973153820593,273.50065235736656,104.33206953820594,273.14665235736663C104.45964453820594,272.7926523573666,104.71703253820594,272.5556523573666,105.01694553820593,272.49765235736663C105.31910153820594,272.4386523573666,105.87640153820594,272.6176523573666,106.17631153820594,272.90965235736655C106.39118153820594,273.14665235736663,106.52099153820593,273.50065235736656,106.56351153820594,273.8556523573666C106.60604153820594,274.2676523573666,106.52099153820593,275.0376523573666,106.26360153820593,275.3336523573666C105.96145153820594,275.74565235736657,104.97442053820593,275.9796523573666,104.58945753820593,275.6876523573666C104.24478053820594,275.3336523573666,104.02991723820594,274.2096523573666,104.20225553820593,273.44265235736657C104.37459453820594,272.3216523573666,105.61901153820594,271.6136523573666,106.47623153820594,270.0766523573666C107.98027153820594,267.4776523573666,109.82451153820594,262.4586523573666,111.71352153820594,258.6806523573666C113.68758153820593,254.7856523573666,115.36176153820594,251.94965235736657,118.06546153820594,247.05065235736657C122.69846153820593,238.72365235736657,129.52256153820593,226.3856523573666,137.16136153820594,213.2187523573666C148.19106153820593,194.2660523573666,169.95046153820596,157.2443523573666,178.27636153820595,144.72725235736658C181.66726153820593,139.6496123573666,184.06876153820593,135.2801703573666,185.78546153820594,134.5719453573666C186.47256153820592,134.2763393573666,187.15966153820594,134.5134399573666,187.41706153820593,134.9845633573666C187.67446153820595,135.4587623573666,187.33196153820592,137.2878323573666,187.33196153820592,137.2878323573666C187.33196153820592,137.2878323573666,187.33196153820592,137.2878323573666,187.33196153820592,137.2878323573666Z" fill="#790000" fill-opacity="1"/></g></g></mask><mask id="master_svg2_5_535" style="mask-type:alpha" maskUnits="userSpaceOnUse"><g><g><path d="M36,189C36,189,60.115700000000004,189,60.115700000000004,189C60.115700000000004,189,60.115700000000004,214.0124,60.115700000000004,214.0124C60.115700000000004,214.0124,36,214.0124,36,214.0124C36,214.0124,36,189,36,189C36,189,36,189,36,189Z" fill="#E1E336" fill-opacity="1"/></g></g></mask><mask id="master_svg3_5_541" style="mask-type:alpha" maskUnits="userSpaceOnUse"><g><g><path d="M58.99729069191217,191.30459907879694C59.27239069191218,208.62428907879695,60.36939069191217,210.09258907879695,59.886990691912175,211.37898907879693C59.54399069191217,212.41958907879695,58.51849069191218,213.39948907879693,57.421490691912176,213.76658907879693C56.25659069191217,214.19428907879694,54.955890691912174,213.76658907879693,53.10499069191218,213.46018907879693C49.746190691912176,212.90788907879693,41.938660691912176,211.37898907879693,39.12652069191218,209.66488907879693C37.55073069191217,208.68498907879695,36.182182091912175,207.27728907879694,36.182182091912175,206.36118907879694C36.114291380267176,205.68768907879695,36.868241691912175,204.88968907879695,37.48284069191217,204.58638907879694C38.16890069191217,204.27998907879694,39.33377069191217,204.27998907879694,39.948370691912174,204.58638907879694C40.566540691912174,204.88968907879695,41.18470069191218,205.74828907879694,41.25260069191217,206.36118907879694C41.32049069191218,206.97088907879694,40.84167069191217,207.95078907879693,40.362860691912175,208.37848907879695C40.019830691912176,208.68498907879695,39.33377069191217,208.87008907879695,38.854960691912176,208.87008907879695C38.304680691912175,208.93068907879695,37.690090691912175,208.80938907879693,37.279160691912175,208.50298907879693C36.72888669191217,208.13588907879694,36.114290691912174,207.21658907879694,36.114290691912174,206.60378907879695C36.114290691912174,205.99408907879695,36.72888669191217,205.07478907879693,37.279160691912175,204.70768907879693C37.690090691912175,204.40128907879694,38.37257069191217,204.27998907879694,38.854960691912176,204.34068907879694C39.40166069191218,204.34068907879694,40.019830691912176,204.58638907879694,40.362860691912175,204.82898907879695C40.77378069191217,205.13548907879695,41.045350691912176,206.11538907879694,41.25260069191217,206.11538907879694C41.32049069191218,206.11538907879694,41.18470069191218,205.68768907879695,41.388380691912175,205.56318907879694C42.48536069191218,204.95348907879693,57.01059069191217,208.74558907879694,57.01059069191217,209.17648907879695C56.942690691912176,209.35848907879694,55.023790691912176,209.66488907879693,54.544990691912176,209.29778907879694C53.994690691912176,208.93068907879695,54.06259069191218,208.07208907879695,53.92689069191218,206.91018907879695C53.58379069191217,203.97358907879695,53.58379069191217,193.75284907879694,54.06259069191218,191.30459907879694C54.20199069191217,190.50659907879694,54.337790691912176,190.20016907879693,54.68079069191218,189.83309207879694C55.023790691912176,189.46601407879695,55.70989069191218,189.15958387879695,56.25659069191217,189.09893607879695C56.803290691912174,189.03828897879694,57.48939069191218,189.15958367879693,57.900290691912176,189.46601407879695C58.450590691912176,189.83309207879694,58.99729069191217,191.30459907879694,58.99729069191217,191.30459907879694C58.99729069191217,191.30459907879694,58.99729069191217,191.30459907879694,58.99729069191217,191.30459907879694Z" fill="#E1E336" fill-opacity="1"/></g></g></mask><mask id="master_svg4_5_567" style="mask-type:alpha" maskUnits="userSpaceOnUse"><g><g><path d="M214.18603515625,199C214.18603515625,199,234.29013515625,199,234.29013515625,199C234.29013515625,199,234.29013515625,221.0226,234.29013515625,221.0226C234.29013515625,221.0226,214.18603515625,221.0226,214.18603515625,221.0226C214.18603515625,221.0226,214.18603515625,199,214.18603515625,199C214.18603515625,199,214.18603515625,199,214.18603515625,199Z" fill="#790000" fill-opacity="1"/></g></g></mask><mask id="master_svg5_5_565" style="mask-type:alpha" maskUnits="userSpaceOnUse"><g><g><path d="M233.35772777661086,201.02908722296306C233.58712777661086,216.27853722296305,234.50162777661086,217.57133722296305,234.09942777661087,218.70393722296305C233.81352777661084,219.62013722296305,232.95852777661085,220.48303722296305,232.04402777661085,220.80623722296303C231.07292777661084,221.18283722296306,229.98862777661085,220.80623722296303,228.44562777661085,220.53643722296306C225.64552777661086,220.05013722296306,219.13681777661085,218.70393722296305,216.79247777661084,217.19473722296306C215.47881777661084,216.33193722296303,214.33792547661085,215.09253722296305,214.33792547661085,214.28593722296304C214.28132835045886,213.69293722296305,214.90985877661086,212.99033722296303,215.42221777661086,212.72333722296304C215.99414777661084,212.45353722296304,216.96524777661085,212.45353722296304,217.47760777661085,212.72333722296304C217.99294777661086,212.99033722296303,218.50827777661084,213.74633722296304,218.56487777661084,214.28593722296304C218.62147777661085,214.82273722296304,218.22231777661085,215.68553722296303,217.82314777661085,216.06213722296303C217.53718777661086,216.33193722296303,216.96524777661085,216.49493722296305,216.56608777661086,216.49493722296305C216.10734777661085,216.54833722296306,215.59498777661085,216.44153722296303,215.25242477661084,216.17173722296303C214.79368577661086,215.84853722296305,214.28132777661085,215.03913722296303,214.28132777661085,214.49953722296306C214.28132777661085,213.96273722296306,214.79368577661086,213.15333722296305,215.25242477661084,212.83013722296306C215.59498777661085,212.56033722296306,216.16394777661085,212.45353722296304,216.56608777661086,212.50693722296305C217.02184777661085,212.50693722296305,217.53718777661086,212.72333722296304,217.82314777661085,212.93693722296305C218.16571777661085,213.20673722296306,218.39210777661086,214.06953722296305,218.56487777661084,214.06953722296305C218.62147777661085,214.06953722296305,218.50827777661084,213.69293722296305,218.67807777661085,213.58333722296305C219.59257777661085,213.04653722296305,231.70152777661085,216.38533722296305,231.70152777661085,216.76473722296305C231.64492777661084,216.92493722296305,230.04522777661086,217.19473722296306,229.64612777661085,216.87153722296304C229.18732777661086,216.54833722296306,229.24392777661086,215.79233722296306,229.13072777661085,214.76933722296306C228.84482777661086,212.18373722296303,228.84482777661086,203.18470722296306,229.24392777661086,201.02908722296306C229.36012777661085,200.32647722296304,229.47332777661086,200.05667722296306,229.75932777661086,199.73347622296305C230.04522777661086,199.41027422296304,230.61722777661086,199.14047232296303,231.07292777661084,199.08707362296303C231.52872777661085,199.03367572296304,232.10062777661085,199.14047212296305,232.44322777661085,199.41027522296304C232.90192777661085,199.73347622296305,233.35772777661086,201.02908722296306,233.35772777661086,201.02908722296306C233.35772777661086,201.02908722296306,233.35772777661086,201.02908722296306,233.35772777661086,201.02908722296306Z" fill="#FE2901" fill-opacity="1"/></g></g></mask><mask id="master_svg6_5_593" style="mask-type:alpha" maskUnits="userSpaceOnUse"><g transform="matrix(1,-2.3939338154946118e-17,0,1,0,0)"><g transform="matrix(1,-2.3939338154946118e-17,0,1,0,0)"><path d="M0,33.573364257812514C0,33.573364257812514,175.34,33.573364257812514,175.34,33.573364257812514C175.34,33.573364257812514,175.34,192.1713642578125,175.34,192.1713642578125C175.34,192.1713642578125,0,192.1713642578125,0,192.1713642578125C0,192.1713642578125,0,33.573364257812514,0,33.573364257812514C0,33.573364257812514,0,33.573364257812514,0,33.573364257812514Z" fill="#E1E336" fill-opacity="1"/></g></g></mask><mask id="master_svg7_5_599" style="mask-type:alpha" maskUnits="userSpaceOnUse"><g transform="matrix(1,2.4683881605369606e-9,-6.0821929714904854e-9,1,3.525509768564916e-7,-5.536440994546865e-8)"><g transform="matrix(1,2.4683881605369606e-9,-6.0821929714904854e-9,1,3.5255097330377794e-7,-5.536441705089601e-8)"><path d="M147.07337933263693,60.499330644828376C119.38737933263693,84.42715064482837,91.70447933263692,112.34805064482838,74.62037933263693,129.86135064482838C60.48747933263693,144.42615064482837,44.749979332636926,160.72745064482837,36.593279332636925,170.2984506448284C32.35568933263693,175.29245064482836,30.104619332636926,179.8704506448284,27.535309332636928,182.02545064482837C26.315969332636925,183.1304506448284,25.032989332636927,184.02145064482838,24.131889332636927,183.97045064482836C23.425082332636926,183.97045064482836,22.65462133263693,183.2864506448284,22.463682032636928,182.81245064482837C22.333038532636927,182.3924506448284,22.590975332636926,181.65745064482837,22.976203332636928,181.34245064482838C23.361432332636927,181.02745064482838,24.131889332636927,180.8154506448284,24.647759332636927,180.92045064482838C25.16028933263693,180.97245064482837,25.867099332636926,181.3944506448284,26.058039332636927,181.81445064482836C26.252329332636926,182.28845064482837,25.994389332636928,183.2864506448284,25.54551933263693,183.6544506448284C25.16028933263693,183.97045064482836,24.262529332636927,184.0774506448284,23.810309332636926,183.91745064482836C23.297787332636926,183.81345064482838,22.654622332636926,183.33845064482836,22.527328832636925,182.91945064482837C22.333039432636927,182.49745064482838,22.590976332636927,181.81445064482836,22.848911332636927,181.49945064482836C23.039850332636927,181.18345064482838,23.425082332636926,180.97245064482837,23.873949332636926,180.92045064482838C24.326179332636926,180.86745064482838,25.16028933263693,181.02745064482838,25.609159332636928,181.28745064482837C25.93074933263693,181.49945064482836,26.125029332636927,181.81445064482836,26.188679332636926,182.12945064482838C26.252329332636926,182.49745064482838,26.125029332636927,183.18245064482838,25.739799332636927,183.44545064482838C25.287579332636927,183.81345064482838,23.810309332636926,184.02145064482838,23.234141332636927,183.76145064482836C22.718268332636928,183.44545064482838,22.396685332636928,182.44445064482838,22.65462133263693,181.7624506448284C22.912558332636927,180.76445064482837,24.77505933263693,180.13345064482837,26.058039332636927,178.76445064482837C28.309119332636925,176.45045064482838,31.069369332636924,171.97945064482838,33.896579332636925,168.61445064482837C36.851179332636924,165.14545064482837,39.356779332636926,162.6204506448284,43.40347933263693,158.25645064482836C50.33757933263693,150.84115064482836,60.551079332636924,139.85175064482837,71.98407933263692,128.12535064482836C88.49197933263693,111.24555064482837,121.05927933263693,78.27315064482838,133.52037933263694,67.12510064482838C138.59437933263695,62.60278064482837,142.18937933263692,58.71125564482838,144.7593793326369,58.080492644828375C145.78737933263693,57.81721864482837,146.81537933263692,58.02838664482837,147.20037933263694,58.44798064482838C147.5863793326369,58.87031864482837,147.07337933263693,60.499330644828376,147.07337933263693,60.499330644828376C147.07337933263693,60.499330644828376,147.07337933263693,60.499330644828376,147.07337933263693,60.499330644828376Z" fill="#E1E336" fill-opacity="1"/></g></g></mask></defs><g><g transform="matrix(0.5777775645256042,-0.8161942958831787,0.8161942958831787,0.5777775645256042,-64.84901616210118,115.13267633544456)" mask="url(#master_svg0_5_453)"><g transform="matrix(0.9823032021522522,0.18729764223098755,-0.10465511679649353,0.9945085644721985,15.911389547654835,-18.75037125289964)"><g transform="matrix(1,-2.2978676739171533e-8,-8.863501932410145e-9,1,0.0000011916238520370825,0.000002390971729937519)" mask="url(#master_svg1_5_449)"><g transform="matrix(1,5.646984657659004e-9,-8.863501932410145e-9,1,0.000001171851039316607,-5.780275955657999e-7)"><g transform="matrix(1,5.646984657659004e-9,-8.863501932410145e-9,1,0.000001171851039316607,-5.780275955657999e-7)"><path d="M102.36039750268412,132.21083999727944C102.36039750268412,132.21083999727944,189.13609750268412,132.21083999727944,189.13609750268412,132.21083999727944C189.13609750268412,132.21083999727944,189.13609750268412,278.1788399972794,189.13609750268412,278.1788399972794C189.13609750268412,278.1788399972794,102.36039750268412,278.1788399972794,102.36039750268412,278.1788399972794C102.36039750268412,278.1788399972794,102.36039750268412,132.21083999727944,102.36039750268412,132.21083999727944C102.36039750268412,132.21083999727944,102.36039750268412,132.21083999727944,102.36039750268412,132.21083999727944Z" fill="#E1E336" fill-opacity="1"/></g></g></g></g></g><g transform="matrix(0.031237728893756866,0.9995120167732239,-0.9995120167732239,0.031237728893756866,223.78321292996407,147.1136366352439)" mask="url(#master_svg2_5_535)"><g transform="matrix(1,-9.2553787986485e-17,9.775180419065803e-17,1,-2.1316282072803006e-14,0)"><g mask="url(#master_svg3_5_541)"><g transform="matrix(1,-9.2553787986485e-17,9.775180419065803e-17,1,-2.1316282072803006e-14,0)"><g><path d="M33.37374208122492,186.6505345776677C33.37374208122492,186.6505345776677,62.62774208122492,186.6505345776677,62.62774208122492,186.6505345776677C62.62774208122492,186.6505345776677,62.62774208122492,216.25613457766772,62.62774208122492,216.25613457766772C62.62774208122492,216.25613457766772,33.37374208122492,216.25613457766772,33.37374208122492,216.25613457766772C33.37374208122492,216.25613457766772,33.37374208122492,186.6505345776677,33.37374208122492,186.6505345776677C33.37374208122492,186.6505345776677,33.37374208122492,186.6505345776677,33.37374208122492,186.6505345776677Z" fill="#E1E336" fill-opacity="1"/></g></g></g></g></g><g transform="matrix(0.8613995313644409,0.5079280138015747,-0.5079280138015747,0.8613995313644409,130.76395959436195,-81.20959416247206)" mask="url(#master_svg4_5_567)"><g transform="matrix(1,0,1.2048604276351034e-16,1,-2.842170943040401e-14,0)"><g mask="url(#master_svg5_5_565)"><g transform="matrix(1,0,1.2048604276351034e-16,1,-2.842170943040401e-14,0)"><g><path d="M211.99665265530348,196.93143617361784C211.99665265530348,196.93143617361784,236.38425265530347,196.93143617361784,236.38425265530347,196.93143617361784C236.38425265530347,196.93143617361784,236.38425265530347,222.99833617361784,236.38425265530347,222.99833617361784C236.38425265530347,222.99833617361784,211.99665265530348,222.99833617361784,211.99665265530348,222.99833617361784C211.99665265530348,222.99833617361784,211.99665265530348,196.93143617361784,211.99665265530348,196.93143617361784C211.99665265530348,196.93143617361784,211.99665265530348,196.93143617361784,211.99665265530348,196.93143617361784Z" fill="#E1E336" fill-opacity="1"/></g></g></g></g></g><g transform="matrix(0.9814972877502441,-0.19147607684135437,0.19147607684135437,0.9814972877502441,-6.428496074451687,0.6211982981185429)" mask="url(#master_svg6_5_593)"><g transform="matrix(0.9939004778862,0.11028075963258743,-0.17796368896961212,0.9840371012687683,10.452375978488305,-1.5482480310635793)"><g transform="matrix(1,2.4683881605369606e-9,-6.0821929714904854e-9,1,3.525509768564916e-7,-5.536440994546865e-8)" mask="url(#master_svg7_5_599)"><g transform="matrix(1,1.4263994152496906e-10,-1.6550066872511593e-10,1,9.264265798947235e-9,-2.8376874183777545e-9)"><g transform="matrix(1,-1.162349771988147e-8,6.269221586308049e-9,1,-3.509335506635125e-7,2.3123863712726234e-7)"><path d="M19.894066334820423,55.97721279012251C19.894066334820423,55.97721279012251,149.77006633482043,55.97721279012251,149.77006633482043,55.97721279012251C149.77006633482043,55.97721279012251,149.77006633482043,185.9802127901225,149.77006633482043,185.9802127901225C149.77006633482043,185.9802127901225,19.894066334820423,185.9802127901225,19.894066334820423,185.9802127901225C19.894066334820423,185.9802127901225,19.894066334820423,55.97721279012251,19.894066334820423,55.97721279012251C19.894066334820423,55.97721279012251,19.894066334820423,55.97721279012251,19.894066334820423,55.97721279012251Z" fill="#E1E336" fill-opacity="1"/></g></g></g></g></g></g></svg>