<svg xmlns="http://www.w3.org/2000/svg" xmlns:xlink="http://www.w3.org/1999/xlink" fill="none" version="1.1" width="66" height="65" viewBox="0 0 66 65"><g><g><ellipse cx="33" cy="32.5" rx="33" ry="32.5" fill="#DDE53D" fill-opacity="1"/></g><g><g><path d="M51.523709375,49.048282034562725C51.530709375,49.07728203456273,51.534509375,49.10858203456273,51.534509375,49.13978203456273C51.534509375,49.13978203456273,51.526809375,50.16318203456273,51.525309375,51.820982034562725C51.525309375,52.87938203456273,50.680409375,53.91618203456273,49.099409375,54.795282034562725C45.742109375,56.66288203456273,38.981409375,57.95618203456273,31.192109375,57.95618203456273C23.402009375,57.95618203456273,16.641239374999998,56.66288203456273,13.284009375,54.795282034562725C11.702999375,53.91618203456273,10.858096975,52.87938203456273,10.858096975,51.822482034562725C10.858096975,51.822482034562725,10.849609375,49.13828203456273,10.849609375,49.13828203456273C10.849609375,49.10708203456273,10.852695875,49.07728203456273,10.860411775,49.048282034562725C10.905164675,48.04578203456273,11.704542375,47.06698203456273,13.170579374999999,46.22648203456273C16.320249375,44.422182034562724,22.627309375,43.13768203456273,29.995309375,43.01198203456273C29.995309375,43.01198203456273,29.995309375,22.938172034562726,29.995309375,22.938172034562726C29.293209375,23.208892034562727,28.628009375,23.47292203456273,28.026209375,23.716872034562726C27.853409375,23.787532034562727,27.655809375,23.731752034562724,27.547809375,23.588202034562727C27.547809375,23.588202034562727,26.766909374999997,23.95264203456273,26.766909374999997,23.95264203456273C26.747709375,23.961572034562728,26.727609375,23.969012034562724,26.706809375,23.974962034562726C26.706809375,23.974962034562726,26.276209375,24.099162034562724,26.276209375,24.099162034562724C26.358809375,24.276182034562726,26.290109375,24.488882034562728,26.111909375,24.58778203456273C25.921309375,24.693382034562724,25.677409375,24.630182034562726,25.567109375,24.447282034562726C25.567109375,24.447282034562726,25.511509375,24.354982034562724,25.511509375,24.354982034562724C25.511509375,24.354982034562724,25.262309375,24.456182034562726,25.262309375,24.456182034562726C25.077109375,24.53128203456273,24.862609374999998,24.462082034562727,24.762309375,24.294782034562726C24.762309375,24.294782034562726,24.530809375,23.908762034562727,24.530809375,23.908762034562727C24.429809374999998,23.741422034562724,24.474509375,23.527962034562727,24.635009375,23.411192034562724C24.635009375,23.411192034562724,24.851109375,23.25426203456273,24.851109375,23.25426203456273C24.851109375,23.25426203456273,24.795509375,23.162032034562728,24.795509375,23.162032034562728C24.685209375,22.979072034562726,24.750709375,22.744052034562728,24.941309375,22.638432034562726C25.120309374999998,22.538772034562726,25.345709375,22.587862034562725,25.463709375,22.74553203456273C25.463709375,22.74553203456273,25.790109375,22.448782034562726,25.790109375,22.448782034562726C25.805509375,22.434652034562724,25.822509375,22.421262034562726,25.840209375,22.410102034562726C25.840209375,22.410102034562726,26.559409375,21.941542034562726,26.559409375,21.941542034562726C26.483809375,21.780142034562726,26.532409375,21.587512034562728,26.682109375,21.478932034562725C28.895009375,19.860522034562727,31.854109375,17.621832034562726,33.745309375000005,15.717822034562726C33.805509375,15.650892034562727,33.891109375,15.603292034562726,33.989909374999996,15.589162034562726C33.989909374999996,15.589162034562726,34.383409375,15.534862034562726,34.383409375,15.534862034562726C34.586309375,15.308022034562725,34.879509375,15.075969034562727,35.293109375,14.840200034562725C35.293109375,14.840200034562725,35.297009375,14.838713034562726,35.297009375,14.838713034562726C35.376509375,14.794087034562725,35.458209374999996,14.751694034562727,35.541609375,14.710787034562726C35.567009375,14.692937034562727,35.593309375000004,14.675087034562726,35.621809375,14.658725034562726C35.625709375,14.656494034562726,35.629509375,14.654262034562725,35.632609375,14.652031034562727C35.714409375,14.606662034562726,35.807009375,14.570218034562727,35.909609375,14.547906034562725C36.600209375,14.273461334562725,37.361009374999995,14.148511034562727,38.013809375,14.335936434562726C38.347909375,14.431137034562726,38.817009375,14.852844034562725,39.218309375000004,15.417352034562725C39.312409375,15.549742034562726,39.403409374999995,15.688822034562726,39.489909374999996,15.832362034562726C39.498309375000005,15.845012034562727,39.506109375,15.858392034562726,39.513809375,15.871782034562726C39.715209375,16.210192034562727,39.886509375,16.564962034562726,39.998309375000005,16.887002034562727C40.124909375,17.252182034562725,40.171209375000004,17.583902034562726,40.129509375,17.824872034562727C40.016109375,18.476402034562724,39.501409375,19.051322034562727,38.894209375,19.492362034562724C38.819309375,19.567482034562726,38.736009374999995,19.626242034562726,38.653409374999995,19.673102034562724C38.612509375,19.696902034562726,38.572409375,19.716982034562726,38.531509375,19.734082034562725C38.459809375,19.778712034562727,38.386509375,19.821102034562728,38.313909375,19.861272034562727C37.895009375,20.099272034562727,37.536909375,20.227932034562727,37.226809375,20.277772034562727C37.226809375,20.277772034562727,36.982909375,20.575272034562726,36.982909375,20.575272034562726C36.922009375,20.649642034562724,36.837909374999995,20.696502034562727,36.748409375,20.714352034562726C35.395709374999996,21.043832034562726,33.874909375,21.528012034562728,32.388009374999996,22.053102034562727C32.388009374999996,22.053102034562727,32.388009374999996,43.01198203456273,32.388009374999996,43.01198203456273C39.763009374999996,43.13768203456273,46.074709375,44.424382034562726,49.221309375,46.23168203456272C50.681909375,47.07068203456273,51.479009375,48.04718203456273,51.523709375,49.048282034562725C51.523709375,49.048282034562725,51.523709375,49.048282034562725,51.523709375,49.048282034562725ZM11.652845375,50.890582034562726C11.652845375,50.890582034562726,11.655931375,51.819482034562725,11.655931375,51.819482034562725C11.655931375,51.819482034562725,11.655931375,51.820982034562725,11.655931375,51.820982034562725C11.655931375,52.66738203456273,12.418269375,53.42828203456273,13.682929375,54.13188203456273C16.964539375,55.95698203456273,23.577909375,57.189382034562726,31.192109375,57.189382034562726C38.805409374999996,57.189382034562726,45.418809375,55.95698203456273,48.699709375,54.13188203456273C49.964309375,53.42828203456273,50.727409375,52.66738203456273,50.728209375,51.820982034562725C50.728209375,51.484082034562725,50.729009375,51.17398203456273,50.729809375,50.89278203456273C50.330109375,51.321182034562725,49.783809375,51.73098203456273,49.100109375,52.11108203456273C45.742909375,53.97868203456273,38.981409375,55.271982034562726,31.192109375,55.271982034562726C23.402009375,55.271982034562726,16.641239374999998,53.97868203456273,13.284009375,52.11108203456273C12.598829375,51.73028203456273,12.052529375,51.31978203456273,11.652845375,50.890582034562726C11.652845375,50.890582034562726,11.652845375,50.890582034562726,11.652845375,50.890582034562726ZM29.995309375,43.77888203456273C23.839509375,43.885182034562725,18.437529375,44.80078203456273,15.075659375,46.16848203456273C13.973049375,46.616982034562724,13.094189375,47.11158203456273,12.494659375,47.64558203456273C11.963029375,48.11858203456273,11.655931375,48.613182034562726,11.655931375,49.13678203456273C11.655931375,49.98318203456273,12.418269375,50.74408203456273,13.682929375,51.447682034562725C16.964539375,53.27278203456273,23.577909375,54.50518203456273,31.192109375,54.50518203456273C38.805409374999996,54.50518203456273,45.419609375,53.27278203456273,48.700409375,51.447682034562725C49.965109375,50.74408203456273,50.728209375,49.98318203456273,50.728209375,49.13678203456273C50.728209375,48.61398203456273,50.421909375,48.120882034562726,49.892609375,47.64858203456273C49.295409375,47.115282034562725,48.420409375,46.62218203456273,47.321609375,46.173682034562724C43.960509375,44.802982034562724,38.553109375,43.885182034562725,32.388009374999996,43.77888203456273C32.388009374999996,43.77888203456273,32.388009374999996,48.753782034562725,32.388009374999996,48.753782034562725C32.388009374999996,48.753782034562725,35.178909375,48.753782034562725,35.178909375,48.753782034562725C35.398809375,48.753782034562725,35.577809375,48.92558203456273,35.577809375,49.13678203456273C35.577809375,49.34878203456273,35.398809375,49.52058203456273,35.178909375,49.52058203456273C35.178909375,49.52058203456273,27.205209375,49.52058203456273,27.205209375,49.52058203456273C26.984509375,49.52058203456273,26.806309374999998,49.34878203456273,26.806309374999998,49.13678203456273C26.806309374999998,48.92558203456273,26.984509375,48.753782034562725,27.205209375,48.753782034562725C27.205209375,48.753782034562725,29.995309375,48.753782034562725,29.995309375,48.753782034562725C29.995309375,48.753782034562725,29.995309375,43.77888203456273,29.995309375,43.77888203456273C29.995309375,43.77888203456273,29.995309375,43.77888203456273,29.995309375,43.77888203456273ZM30.793209375,22.634712034562725C30.793209375,23.684892034562726,30.793209375,48.753782034562725,30.793209375,48.753782034562725C30.793209375,48.753782034562725,31.591009375,48.753782034562725,31.591009375,48.753782034562725C31.591009375,48.753782034562725,31.591009375,22.339452034562726,31.591009375,22.339452034562726C31.321709375,22.437622034562725,31.055509375,22.535802034562728,30.793209375,22.634712034562725C30.793209375,22.634712034562725,30.793209375,22.634712034562725,30.793209375,22.634712034562725ZM28.040909375,22.879412034562726C28.585609375,22.660002034562726,29.175909375,22.42721203456273,29.793209375,22.189952034562726C29.793209375,22.189952034562726,28.937509375,20.773102034562726,28.937509375,20.773102034562726C28.421309375,21.162832034562726,27.918209375,21.536192034562724,27.443609375,21.884272034562727C27.543209375,22.050132034562726,27.941309375,22.713552034562724,28.040909375,22.879412034562726C28.040909375,22.879412034562726,28.040909375,22.879412034562726,28.040909375,22.879412034562726ZM26.957509375,22.608682034562726C26.957509375,22.608682034562726,26.314009374999998,23.027422034562726,26.314009374999998,23.027422034562726C26.314009374999998,23.027422034562726,25.895809375,23.408222034562726,25.895809375,23.408222034562726C25.895809375,23.408222034562726,26.447509375,23.249052034562727,26.447509375,23.249052034562727C26.447509375,23.249052034562727,27.146609375,22.923292034562728,27.146609375,22.923292034562728C27.146609375,22.923292034562728,26.957509375,22.608682034562726,26.957509375,22.608682034562726C26.957509375,22.608682034562726,26.957509375,22.608682034562726,26.957509375,22.608682034562726ZM33.992209375,16.573142034562725C33.105609375,17.430682034562725,32.031609375,18.343272034562727,30.925109375,19.229822034562726C30.925109375,19.229822034562726,32.184309375,21.308612034562728,32.184309375,21.308612034562728C33.526909375,20.836322034562727,34.894209375,20.397512034562727,36.142709374999995,20.073982034562725C35.962909374999995,19.960932034562724,35.801609375,19.809952034562727,35.651909375,19.627732034562726C35.413509375000004,19.335432034562725,35.202809375,18.956122034562725,34.967509375,18.555982034562724C34.940509375000005,18.509872034562726,34.912709375,18.463762034562727,34.884209375,18.416902034562725C34.793909375,18.265172034562724,34.684309375,18.137252034562728,34.625709375,18.003372034562727C34.624909375,18.001142034562726,34.623409375,17.998912034562725,34.622609374999996,17.996682034562728C34.443609375,17.716292034562727,34.277709375,17.455232034562727,34.164309375,17.204582034562726C34.067009375,16.989642034562728,34.006109375,16.779902034562724,33.992209375,16.573142034562725C33.992209375,16.573142034562725,33.992209375,16.573142034562725,33.992209375,16.573142034562725ZM30.300909375,19.723672034562725C30.057009375,19.915562034562726,29.812409375,20.105222034562725,29.568609375,20.291902034562725C29.568609375,20.291902034562725,29.843309375,20.747072034562727,29.843309375,20.747072034562727C29.843309375,20.747072034562727,30.645009375,20.290412034562728,30.645009375,20.290412034562728C30.645009375,20.290412034562728,30.300909375,19.723672034562725,30.300909375,19.723672034562725C30.300909375,19.723672034562725,30.300909375,19.723672034562725,30.300909375,19.723672034562725ZM35.259909375,15.781042034562725C34.969809375,15.995242034562725,34.822409375,16.192342034562728,34.791609375,16.405802034562726C34.764609375,16.596202034562726,34.834009375,16.785112034562726,34.936609375,16.985922034562726C35.081709375,16.849822034562727,35.292409375,16.692142034562725,35.590209375,16.503972034562725C35.440509375000005,16.233252034562724,35.322409375,15.990782034562725,35.259909375,15.781042034562725C35.259909375,15.781042034562725,35.259909375,15.781042034562725,35.259909375,15.781042034562725ZM38.131809375,15.331072034562727C38.090209375,15.289422034562726,38.048509374999995,15.250752034562726,38.006809375,15.215051034562727C37.926609375,15.145882034562726,37.854109375,15.090100034562726,37.786209375,15.070763034562725C37.597109375,15.016469034562727,37.397309375,14.999363034562727,37.192809374999996,15.011263034562726C37.293109375,15.109438034562727,37.430509375,15.283472034562726,37.586309375,15.502882034562726C37.777709375,15.432222034562725,37.962109375,15.373472034562726,38.131809375,15.331072034562727C38.131809375,15.331072034562727,38.131809375,15.331072034562727,38.131809375,15.331072034562727ZM38.818609375,16.247382034562726C38.814709375,16.239942034562727,38.810809375000005,16.233252034562724,38.806209375,16.226552034562726C38.740609375,16.121682034562728,38.645709374999996,16.018302034562726,38.528409374999995,16.034662034562725C38.377209375,16.055492034562725,38.206709375,16.099372034562727,38.023809375,16.160362034562727C38.183509375,16.412492034562725,38.344009375,16.679502034562727,38.492209375,16.939072034562727C38.636509375,16.818582034562727,38.756809375,16.700322034562724,38.840209375,16.588012034562727C38.915009375,16.486122034562726,38.880309374999996,16.355222034562725,38.818609375,16.247382034562726C38.818609375,16.247382034562726,38.818609375,16.247382034562726,38.818609375,16.247382034562726ZM39.113309375,18.227992034562725C39.228309374999995,18.063622034562727,39.310109374999996,17.887352034562724,39.343309375000004,17.698442034562724C39.363309375,17.581672034562725,39.336309375,17.432172034562726,39.285409375,17.264082034562726C39.166609375,17.383082034562726,39.022309375,17.505802034562727,38.862509375,17.629272034562725C38.984509375,17.873962034562727,39.074009375,18.082962034562726,39.112509375,18.225012034562727C39.113309375,18.225762034562727,39.113309375,18.226502034562728,39.113309375,18.227992034562725C39.113309375,18.227992034562725,39.113309375,18.227992034562725,39.113309375,18.227992034562725ZM36.219009375,19.077352034562725C36.358709375000004,19.264782034562728,36.505309374999996,19.417992034562726,36.696709375,19.490882034562727C36.902709375,19.569712034562727,37.145709374999996,19.548892034562726,37.460509375,19.422452034562724C37.302409374999996,19.263292034562724,37.139609375,19.043882034562728,36.968309375000004,18.783572034562727C36.659609375,18.933062034562727,36.415009375,19.026032034562725,36.219009375,19.077352034562725C36.219009375,19.077352034562725,36.219009375,19.077352034562725,36.219009375,19.077352034562725ZM30.543209375,21.905842034562724C30.833309375,21.796512034562724,31.128809375,21.687922034562725,31.425909375,21.580082034562725C31.425909375,21.580082034562725,31.046209375,20.953092034562726,31.046209375,20.953092034562726C31.046209375,20.953092034562726,30.243809375,21.409762034562725,30.243809375,21.409762034562725C30.243809375,21.409762034562725,30.543209375,21.905842034562724,30.543209375,21.905842034562724C30.543209375,21.905842034562724,30.543209375,21.905842034562724,30.543209375,21.905842034562724ZM36.854109375,15.813772034562726C36.761509375,15.692542034562726,36.681209375,15.599572034562726,36.621009375,15.546022034562727C36.419709375,15.367522034562725,36.257609375,15.279762034562726,36.126409375,15.289422034562726C36.087109375,15.306532034562727,36.047709375,15.324382034562726,36.009209375,15.342232034562727C35.996109375,15.364542034562726,35.993709375,15.392062034562727,35.996109375,15.422562034562727C36.003809375,15.520732034562727,36.042309375,15.632292034562726,36.095609374999995,15.756502034562725C36.143409375000005,15.867322034562726,36.202109375,15.984092034562726,36.270709374999996,16.108292034562727C36.461309375,16.006402034562726,36.657309375,15.906742034562726,36.854109375,15.813772034562726C36.854109375,15.813772034562726,36.854109375,15.813772034562726,36.854109375,15.813772034562726ZM35.984509375,17.171122034562725C35.761509375,17.313172034562726,35.600209375,17.433662034562726,35.487609375000005,17.540022034562725C35.445909375,17.579442034562724,35.412709375,17.615142034562727,35.387309375,17.649352034562725C35.376509375,17.664972034562727,35.362609375000005,17.673892034562726,35.357909375,17.684302034562727C35.429709375,17.797352034562728,35.503009375000005,17.913382034562726,35.575509374999996,18.033122034562727C35.638009374999996,18.137992034562725,35.698209375000005,18.242122034562726,35.757609375,18.344012034562727C35.763809375,18.349962034562726,35.770709374999996,18.355912034562728,35.779209375,18.360372034562726C35.830909375000005,18.391612034562726,35.903509375,18.367072034562725,36.021509375,18.335092034562727C36.166609375,18.296412034562728,36.341709375,18.227992034562725,36.559309375,18.124612034562727C36.466009375,17.969912034562725,36.371009375,17.810002034562725,36.272309375,17.645632034562727C36.174309375,17.482002034562726,36.077809375,17.323582034562726,35.984509375,17.171122034562725C35.984509375,17.171122034562725,35.984509375,17.171122034562725,35.984509375,17.171122034562725ZM37.857909375,17.392752034562726C37.685109374999996,17.082612034562725,37.487609375000005,16.752382034562725,37.297009375,16.455632034562726C37.085509375,16.554552034562725,36.871809375,16.663132034562725,36.665809374999995,16.774702034562726C36.761509375,16.930882034562725,36.861809375,17.093772034562726,36.963609375000004,17.262602034562725C37.063909375,17.430682034562725,37.161209375,17.595802034562727,37.255309374999996,17.753472034562726C37.456709375,17.639682034562725,37.662709375,17.517702034562724,37.857909375,17.392752034562726C37.857909375,17.392752034562726,37.857909375,17.392752034562726,37.857909375,17.392752034562726ZM37.663509375000004,18.412442034562726C37.745309375000005,18.534412034562727,37.824709375,18.645232034562724,37.903409374999995,18.742662034562727C37.992209375,18.851252034562727,38.075509374999996,18.940502034562726,38.160409375,18.996282034562725C38.178109375,19.007442034562725,38.194309375,19.020082034562726,38.210509375,19.023062034562727C38.248409375,18.999262034562726,38.285409375,18.975462034562725,38.322409375,18.950912034562727C38.400409374999995,18.854232034562727,38.413509375000004,18.684652034562724,38.341709375,18.419132034562725C38.317809374999996,18.332112034562726,38.272309375,18.216832034562728,38.211309375,18.082212034562726C38.031509375,18.196012034562727,37.846309375000004,18.307572034562725,37.663509375000004,18.412442034562726C37.663509375000004,18.412442034562726,37.663509375000004,18.412442034562726,37.663509375000004,18.412442034562726ZM32.908109374999995,18.791012034562726C32.797809375,18.607302034562725,32.863409375,18.373022034562727,33.053909375,18.266662034562728C33.244509375,18.161052034562726,33.488409375,18.224272034562727,33.598709375,18.407232034562725C33.598709375,18.407232034562725,34.256909375,19.503522034562728,34.256909375,19.503522034562728C34.366409375,19.687232034562726,34.301609375,19.921512034562724,34.110309375,20.027872034562726C33.919709375,20.133482034562725,33.675809375,20.070262034562727,33.566309375,19.887302034562726C33.566309375,19.887302034562726,32.908109374999995,18.791012034562726,32.908109374999995,18.791012034562726C32.908109374999995,18.791012034562726,32.908109374999995,18.791012034562726,32.908109374999995,18.791012034562726ZM32.006909375,19.683512034562725C31.896509375,19.500552034562727,31.962109375,19.266262034562725,32.152709375,19.159912034562726C32.343309375000004,19.054292034562728,32.587109375,19.117512034562726,32.697509374999996,19.300482034562727C32.697509374999996,19.300482034562727,32.963709375,19.745242034562725,32.963709375,19.745242034562725C33.074009375,19.928202034562727,33.008409375,20.163232034562725,32.817809374999996,20.268842034562727C32.627209375,20.374452034562726,32.383409375,20.311982034562725,32.273109375000004,20.128272034562727C32.273109375000004,20.128272034562727,32.006909375,19.683512034562725,32.006909375,19.683512034562725C32.006909375,19.683512034562725,32.006909375,19.683512034562725,32.006909375,19.683512034562725Z" fill-rule="evenodd" fill="#030036" fill-opacity="1"/></g></g></g></svg>