<svg xmlns="http://www.w3.org/2000/svg" xmlns:xlink="http://www.w3.org/1999/xlink" fill="none" version="1.1" width="32.000694274902344" height="29.480743408203125" viewBox="0 0 32.000694274902344 29.480743408203125"><g><g><path d="M25.808393661499025,20.183247109985352C25.630393661499024,20.003247109985352,25.541393661499022,19.750247109985352,25.566793661499023,19.49314710998535C25.592193661499024,19.235947109985354,25.727893661499024,19.00874710998535,25.939793661499024,18.86294710998535C25.939793661499024,18.86294710998535,32.00069366149903,14.799317109985353,32.00069366149903,14.799317109985353C32.00069366149903,14.799317109985353,11.266393661499023,8.506647109985352,11.266393661499023,8.506647109985352C11.266393661499023,8.506647109985352,17.48838366149902,29.48074710998535,17.48838366149902,29.48074710998535C17.48838366149902,29.48074710998535,21.506393661499025,23.34674710998535,21.506393661499025,23.34674710998535C21.646293661499023,23.132347109985353,21.875093661499022,22.99524710998535,22.129393661499023,22.969447109985353C22.379493661499023,22.943747109985352,22.633793661499023,23.033747109985352,22.811793661499024,23.218147109985352C22.811793661499024,23.218147109985352,27.982693661499024,28.443447109985353,27.982693661499024,28.443447109985353C28.313293661499024,28.777747109985352,28.851593661499024,28.777747109985352,29.182193661499024,28.443447109985353C29.182193661499024,28.443447109985353,30.979193661499025,26.62594710998535,30.979193661499025,26.62594710998535C31.140293661499022,26.46304710998535,31.229293661499025,26.248747109985352,31.229293661499025,26.021547109985352C31.229293661499025,25.790047109985352,31.140293661499022,25.57574710998535,30.979193661499025,25.41284710998535C30.979193661499025,25.41284710998535,25.808393661499025,20.183247109985352,25.808393661499025,20.183247109985352C25.808393661499025,20.183247109985352,25.808393661499025,20.183247109985352,25.808393661499025,20.183247109985352Z" fill="#000000" fill-opacity="1"/></g><g><path d="M4.302568553848267,0.2550531060002148C3.9719685538482663,-0.07929889399978518,3.4336915538482664,-0.07929889399978518,3.1030955538482665,0.2550531060002148C2.7724995538482666,0.5894041060002149,2.7724995538482666,1.1337991060002148,3.1030955538482665,1.4681491060002148C3.1030955538482665,1.4681491060002148,5.502038553848267,3.894339106000215,5.502038553848267,3.894339106000215C5.667338553848267,4.0615191060002145,5.883488553848267,4.147249106000215,6.099648553848267,4.147249106000215C6.3158085538482664,4.147249106000215,6.531968553848267,4.0615191060002145,6.697268553848266,3.894339106000215C7.027868553848267,3.5599891060002147,7.027868553848267,3.0155991060002147,6.697268553848266,2.6812491060002146C6.697268553848266,2.6812491060002146,4.302568553848267,0.2550531060002148,4.302568553848267,0.2550531060002148C4.302568553848267,0.2550531060002148,4.302568553848267,0.2550531060002148,4.302568553848267,0.2550531060002148Z" fill="#000000" fill-opacity="1"/></g><g><path d="M15.093081457092286,4.142960075000003C15.309239457092286,4.142960075000003,15.525399457092284,4.057230075000002,15.690699457092284,3.8900500750000027C15.690699457092284,3.8900500750000027,18.089639457092286,1.4638600750000026,18.089639457092286,1.4638600750000026C18.420229457092283,1.1295100750000027,18.420229457092283,0.5851150750000027,18.089639457092286,0.25076407500000264C17.759039457092285,-0.08358792499999734,17.220759457092285,-0.08358792499999734,16.890169457092284,0.25076407500000264C16.890169457092284,0.25076407500000264,14.491226457092285,2.6769600750000024,14.491226457092285,2.6769600750000024C14.160630457092285,3.0113100750000026,14.160630457092285,3.5557000750000025,14.491226457092285,3.8900500750000027C14.660762457092286,4.061510075000003,14.876922457092284,4.142960075000003,15.093081457092286,4.142960075000003C15.093081457092286,4.142960075000003,15.093081457092286,4.142960075000003,15.093081457092286,4.142960075000003Z" fill="#000000" fill-opacity="1"/></g><g><path d="M5.502038553848267,11.77302848059082C5.502038553848267,11.77302848059082,3.1030955538482665,14.19922448059082,3.1030955538482665,14.19922448059082C2.7724995538482666,14.53357448059082,2.7724995538482666,15.07796448059082,3.1030955538482665,15.41231448059082C3.2683935538482665,15.57949448059082,3.4845525538482667,15.66522448059082,3.7007115538482664,15.66522448059082C3.916868553848267,15.66522448059082,4.133028553848266,15.57949448059082,4.2983285538482665,15.41231448059082C4.2983285538482665,15.41231448059082,6.697268553848266,12.98612448059082,6.697268553848266,12.98612448059082C7.027868553848267,12.65177448059082,7.027868553848267,12.10737948059082,6.697268553848266,11.77302848059082C6.370908553848267,11.43867648059082,5.8326285538482665,11.43867648059082,5.502038553848267,11.77302848059082C5.502038553848267,11.77302848059082,5.502038553848267,11.77302848059082,5.502038553848267,11.77302848059082Z" fill="#000000" fill-opacity="1"/></g><g><path d="M5.08609,7.833633697235108C5.08609,7.3621116972351075,4.70464,6.976321697235107,4.23841,6.976321697235107C4.23841,6.976321697235107,0.847682,6.976321697235107,0.847682,6.976321697235107C0.381457,6.976321697235107,0,7.3621116972351075,0,7.833633697235108C0,8.305151697235107,0.381457,8.690941697235107,0.847682,8.690941697235107C0.847682,8.690941697235107,4.23841,8.690941697235107,4.23841,8.690941697235107C4.70887,8.690941697235107,5.08609,8.305151697235107,5.08609,7.833633697235108C5.08609,7.833633697235108,5.08609,7.833633697235108,5.08609,7.833633697235108Z" fill="#000000" fill-opacity="1"/></g></g></svg>