<svg xmlns="http://www.w3.org/2000/svg" xmlns:xlink="http://www.w3.org/1999/xlink" fill="none" version="1.1" width="306.19775390625" height="225.921875" viewBox="0 0 306.19775390625 225.921875"><defs><mask id="master_svg0_8_681" style="mask-type:alpha" maskUnits="userSpaceOnUse"><g><path d="M61.6669921875,209.66650390625L290.99999218749997,209.66650390625L290.99999218749997,225.92170390625L61.6669921875,225.92170390625L61.6669921875,209.66650390625Z" fill="#FFFFFF" fill-opacity="1"/></g></mask><mask id="master_svg1_8_711" style="mask-type:alpha" maskUnits="userSpaceOnUse"><g><path d="M0,0L306.198,0L306.198,206.281L0,206.281L0,0Z" fill="#FFFFFF" fill-opacity="1"/></g></mask></defs><g><g><path d="M55.2032776875,19.223956423339843C54.9480746875,18.718746423339844,54.6876526875,18.208335423339843,54.4324493875,17.703125003339842C54.4272307875,17.687500003339842,54.4011993375,17.697914123339842,54.4116058375,17.713539123339842C54.6616056875,18.223960423339843,54.9168246875,18.734376423339842,55.1668246875,19.244786423339843C55.1772306875,19.265626423339842,55.2084806875,19.244786423339843,55.2032776875,19.223956423339843Z" fill="#010101" fill-opacity="1"/></g><g><path d="M132.6611328125,110.63037109375L132.6611328125,113.02621609375C132.6611328125,113.08349609375,132.7496643125,113.08349609375,132.7496643125,113.02621609375L132.7496643125,110.63037109375C132.7496643125,110.56787109375,132.6611328125,110.56787109375,132.6611328125,110.63037109375Z" fill="#010101" fill-opacity="0.5400000214576721"/></g><g><path d="M112.83857666015625,71.57278415625C111.32287666015625,76.30194515625,111.21877666015625,81.50503515625,110.80727666015625,86.42693515625C110.37497666015625,91.61963515625,109.91667666015624,96.82273515625,108.99997666015625,101.95823515625C107.16667666015624,112.21863515625,103.39057666015626,121.77593515625,96.64057666015626,129.81753515625002C89.69787666015625,138.09363515625,81.14587666015625,144.98423515625,73.23437666015624,152.29673515625C69.49479666015625,155.74983515625001,64.45312666015624,159.15093515625,61.98437666015625,163.70823515625C59.56249966015625,168.17173515625,60.19270366015625,174.34903515625,60.08332866015625,179.24503515625C59.78645366015625,192.82303515625,60.07292176015625,206.65103515625,61.56249666015625,220.15603515625C61.92187666015625,223.39603515625,66.84895666015625,223.57803515625,66.76042666015626,220.15603515625C66.44792666015626,208.03103515625,65.72395666015625,195.92703515624999,65.66145666015625,183.79103515625002C65.64582666015625,180.76003515625,65.61457666015625,177.72903515625,65.58854666015625,174.69803515625C65.56770666015625,172.05703515624998,65.15624666015626,168.93733515625001,65.96874666015626,166.38523515625002C66.78124666015626,163.84883515625,69.31249666015626,162.22383515625,71.29167666015626,160.63523515625002C73.77607666015625,158.63523515625002,76.26037666015625,156.64573515625,78.75517666015625,154.65613515625C87.09897666015625,147.99983515625001,95.80207666015625,141.34883515625,102.49477666015625,132.94773515625C108.87497666015625,124.93213515625,112.86977666015625,115.57803515625,114.84897666015624,105.55193515625001C115.92707666015625,100.07803515625,116.56767666015625,94.44253515625,116.62497666015625,88.86443515625C116.68227666015625,83.18213515625,116.72397666015624,77.01548515625,114.90107666015625,71.57278415625C114.56247666015625,70.56756615625,113.16667666015624,70.54673815625,112.83857666015625,71.57278415625Z" fill="#010101" fill-opacity="1"/></g><g><path d="M234.8381649375,65.09387196875C233.7079769375,75.04184296875,234.4527589375,85.50014296875,236.2965109375,95.32304296875C238.1298509375,105.08344296875,241.2340109375,114.78134296875001,246.4684109375,123.27614296875001C252.1298109375,132.47404296874998,260.3277109375,139.19284296875,268.5621109375,145.97934296875002C272.7080109375,149.39594296875,277.3330109375,152.88554296875,280.3746109375,157.36994296875C283.6402109375,162.18244296875,283.7913109375,167.89554296875,284.0309109375,173.50554296875C284.3382109375,180.50054296874998,284.6142109375,187.50554296875,284.4632109375,194.51054296875C284.3069109375,201.51054296875,283.4007109375,208.35454296875,282.6559109375,215.30254296875C282.3121109375,218.52654296875,287.2809109375,218.95854296875,288.1507109375,216.04154296875C291.6663109375,204.29654296875,290.9944109375,191.14054296875,290.5257109375,179.03154296875C290.3069109375,173.42754296875,290.3798109375,167.61954296875,289.1298109375,162.13034296875C287.9007109375,156.72404296874998,284.7757109375,152.29704296875002,280.8486109375,148.47934296875002C272.8382109375,140.69804296875,263.1871109375,134.71884296874998,256.0100109375,126.07304296875C249.4580109375,118.17724296875,245.3798109375,108.56264296875,242.6715109375,98.75014296875C239.6037909375,87.64074296875,238.5933809375,76.11994296875,235.8537909375,64.95844996875C235.7079809375,64.34387196875,234.8954769375,64.54699706875,234.8381649375,65.09387196875Z" fill="#010101" fill-opacity="1"/></g><g><g mask="url(#master_svg0_8_681)"><g><path d="M62.98990019042969,222.79676806640626C69.85449019042969,225.14046806640624,77.89617019042969,225.01546806640624,85.09407019042969,225.24466806640626C92.32847019042968,225.47896806640625,99.55757019042969,225.61446806640626,106.79197019042968,225.68216806640626C121.64617019042969,225.82276806640624,136.48987019042968,225.72376806640625,151.3388701904297,225.46856806640625C180.66707019042968,224.96336806640625,209.9790701904297,223.89566806640624,239.2870701904297,222.71336806640625C247.63607019042968,222.37486806640624,255.9900701904297,222.04146806640625,264.34407019042965,221.68216806640626C272.1250701904297,221.35396806640625,280.2030701904297,220.82276806640624,287.6670701904297,218.41131806640624C289.1150701904297,217.94256806640624,289.7970701904297,216.83837806640625,289.96407019042965,215.40087806640625C290.1670701904297,213.69256806640624,289.6570701904297,212.72381806640624,288.8860701904297,211.24984706640626C288.3650701904297,210.24984706640626,287.0420701904297,210.24462906640625,286.2820701904297,210.91650406640625C284.9170701904297,212.11443806640625,284.2820701904297,212.79671806640624,283.8230701904297,214.56756806640624C284.5520701904297,213.84359806640626,285.2820701904297,213.11443806640625,286.0050701904297,212.38525806640624C272.0780701904297,215.22900806640624,257.4480701904297,214.83837806640625,243.2820701904297,215.41650806640624C228.63007019042968,216.01025806640624,213.9740701904297,216.58318806640625,199.3180701904297,217.07796806640624C170.1980701904297,218.05193806640625,141.0732701904297,218.66650806640624,111.93787019042969,218.69256806640624C103.75037019042969,218.69775806640624,95.5680701904297,218.64568806640625,87.3805701904297,218.59881806640624C79.46387019042969,218.55193806640625,70.69824019042969,217.79150806640624,62.99512019042969,219.83837806640625C61.46386719042969,220.24984806640626,61.60969519042969,222.32276806640624,62.98990019042969,222.79676806640626Z" fill="#010101" fill-opacity="1"/></g></g></g><g><path d="M64.3333285185547,166.54167458007814C66.30208151855469,170.31770458007813,72.10937151855468,172.09375458007813,75.90108151855469,173.34895458007813C80.31768151855468,174.80734458007814,84.94268151855468,175.69794458007811,89.5364815185547,176.3750445800781C100.07808151855468,177.92704458007813,110.79688151855468,178.66664458007813,121.44268151855468,178.97914458007813C132.2708815185547,179.29684458007813,143.01038151855468,178.90104458007812,153.7551815185547,177.5677445800781C164.29718151855468,176.26044458007811,175.27118151855467,174.4375445800781,185.46318151855468,171.44270458007813C186.17218151855468,171.2395745800781,186.0681815185547,170.0781245800781,185.28618151855468,170.11979458007812C174.93718151855467,170.69270458007813,164.68718151855467,171.6093745800781,154.3124815185547,171.7708245800781C143.9218815185547,171.9270745800781,133.5051815185547,172.1093745800781,123.11458151855469,171.88542458007814C112.86978151855469,171.66667458007814,102.61458151855469,171.05729458007812,92.44268151855468,169.81250458007813C87.77608151855469,169.2395745800781,83.15628151855469,168.4843745800781,78.59378151855469,167.33854458007812C76.51038151855468,166.81250458007813,74.46878151855469,166.1718745800781,72.4166715185547,165.54167458007814C70.28645151855468,164.88542158007812,68.06770151855468,163.79167158007812,65.80730151855468,163.98437498007812C64.5052035185547,164.09895358007813,63.70312451855469,165.33854458007812,64.3333285185547,166.54167458007814Z" fill="#010101" fill-opacity="1"/></g><g><path d="M213.06771899023437,169.2968715527344C237.59893999023438,172.60419155273436,262.9010399902344,170.22395155273438,287.25003999023437,166.31250155273437C290.9166399902344,165.72395155273438,289.31253999023437,160.29167155273439,285.7239399902344,160.78124995273438C261.62503999023437,164.09375155273437,237.34893999023438,165.21355155273437,213.22396899023437,168.1406215527344C212.63540649023437,168.20833155273436,212.3437499902344,169.19792155273439,213.06771899023437,169.2968715527344Z" fill="#010101" fill-opacity="1"/></g><g><path d="M62.718749606445314,185.67187494140626C69.75000160644531,188.30729494140624,77.23957160644531,189.67187494140626,84.6041716064453,191.05731494140625C91.53647160644532,192.36461494140624,98.50517160644532,193.51561494140626,105.49477160644531,194.42711494140624C120.4114716064453,196.36981494140625,135.44267160644532,197.49481494140625,150.4791716064453,197.97401494140624C180.0367716064453,198.92191494140624,209.5777716064453,197.04161494140624,238.8437716064453,192.85411494140624C247.0937716064453,191.67191494140624,255.31777160644532,190.28645494140625,263.4997716064453,188.70312494140626C267.58877160644533,187.91145494140625,271.65577160644534,187.01562494140626,275.71377160644533,186.07812494140626C279.6927716064453,185.15625494140625,283.83877160644533,184.48437494140626,287.4997716064453,182.65104494140624C288.6297716064453,182.08854494140624,288.0677716064453,180.30729674140625,286.8697716064453,180.32292175340626C283.4477716064453,180.36457824140626,280.1927716064453,181.31249994140626,276.8487716064453,182.01562494140626C273.1197716064453,182.79687494140626,269.3797716064453,183.51562494140626,265.64577160644535,184.24479494140624C258.3537716064453,185.67187494140626,251.0367716064453,186.97917494140626,243.69277160644532,188.10417494140626C229.1827716064453,190.32811494140626,214.5777716064453,191.86461494140624,199.9267716064453,192.75521494140625C170.62977160644533,194.53651494140624,141.1822716064453,193.94791494140625,111.98437160644531,190.98961494140624C103.70317160644531,190.15104494140624,95.44267160644532,189.19792494140626,87.19267160644532,188.11979494140624C79.09897160644532,187.06250494140625,70.96875160644531,185.36979494140624,62.80207860644531,185.08854494140624C62.442703206445316,185.07812494140626,62.42187500644531,185.55729494140624,62.718749606445314,185.67187494140626Z" fill="#010101" fill-opacity="1"/></g><g><path d="M182.64548125,53.68211828125C160.08818125,48.812328281250004,137.42148125,58.968578281250004,124.18188125,77.46853828125C117.77563125,86.42693828125,113.64545125,97.49983828124999,115.49438525,108.60403828125C117.60898125,121.26023828125,128.14548125,128.69253828125,140.05168125,131.31233828125C154.12458125,134.40083828125,169.07768125,134.28103828125,183.25478125,132.06233828125C196.33818125,130.02063828125,209.66628125,126.02063828125,220.27578125,117.83833828125C230.11978125000002,110.24463828124999,237.13478125,98.89563828125,234.84378125,86.10923828125C232.72378125,74.30193828125,223.92678125,64.66123828125001,213.40588125,59.44774828125C200.80168125,53.20295828125,185.39018125,51.58316828125,171.46838125,52.32274628125C158.53088125,53.01545728125,145.36938125,56.04149828125,136.51518125,66.17693828125C135.85898125,66.92693828125,136.83298125,67.85403828125,137.58818125,67.24983828124999C145.97878125,60.58836828125,157.12978125,58.18211828125,167.62458125,57.72378828125C178.57248125,57.24461828125,189.97878125,57.75503828125,200.63498125,60.41649828125C211.57248125,63.14563828125,221.72878125,68.95813828125,227.14578125,79.18733828124999C232.68178125,89.64043828125,229.77078125,100.84873828125001,221.81778125,109.13003828125C213.64018125,117.65083828125,202.30168125,122.26543828125,190.98398125,124.88523828125C178.20268125,127.84353828125,164.89548125,128.58313828125,151.84338125,127.27063828125C141.04128125,126.18213828125,128.06208125,123.85403828125,122.92670125,112.96333828125C118.76001125,104.11963828124999,121.48398125,93.70293828125,126.03608125,85.60403828125C136.93188125,66.22373828125001,160.53088125,53.63524828125,182.58298125,54.12482828125C182.83818125,54.13003828125,182.89548125,53.73420828125,182.64548125,53.68211828125Z" fill="#010101" fill-opacity="1"/></g><g><path d="M188.031009375,70.18229719726563C173.900809375,68.65624719726563,158.083109375,66.12500019726562,145.900789375,75.52602719726562C140.218509375,79.91142719726562,136.364349375,86.64582719726562,135.942474375,93.87502719726562C135.525787375,101.01042719726563,139.432039375,107.19792719726563,145.515379375,110.72912719726563C152.432009375,114.74482719726562,161.255009375,115.54682719726563,169.093509375,115.28642719726562C176.437209375,115.04682719726563,184.525809375,114.19272719726563,190.984109375,110.41662719726563C202.103909375,103.92182719726563,208.380009375,89.78122719726562,202.005009375,77.83852719726562C198.072709375,70.47916719726562,190.468509375,66.51041719726562,182.390409375,65.59895319726563C172.343509375,64.46875019726562,162.702909375,67.97395719726562,154.275809375,73.17707719726562C153.156009375,73.86979719726563,153.921609375,75.41142719726562,155.130009375,75.20312719726563C167.452909375,73.09895719726562,184.031009375,66.26042219726563,194.442509375,76.81772719726563C202.645609375,85.13022719726563,198.984109375,97.80212719726563,190.353909375,104.16662719726563C185.458109375,107.77602719726562,179.520609375,108.82812719726562,173.583109375,109.40102719726562C166.630009375,110.06772719726563,159.437209375,109.85932719726563,152.723709375,107.76562719726562C147.025809375,105.98962719726563,141.812259375,101.91142719726562,141.541409375,95.52602719726562C141.281009375,89.52602719726562,144.525789375,83.65622719726562,149.098709375,79.94272719726563C159.687209375,71.35416719726562,175.135209375,71.78645719726562,188.025809375,70.71874719726563C188.374709375,70.68749719726563,188.369509375,70.21874719726563,188.031009375,70.18229719726563Z" fill="#010101" fill-opacity="1"/></g><g><path d="M206.869474375,67.74999965136719C205.176784375,67.58332865136718,203.541351375,69.3541726513672,203.051788375,70.86979265136719C202.338226375,73.06770265136718,203.202819375,75.59375265136718,205.072604375,76.91145265136718C208.760104375,79.51039265136718,214.520534375,77.07812265136718,214.489334375,72.36458265136719C214.463234375,68.43750265136718,209.942414375,65.87500265136718,206.869474375,67.74999965136719Z" fill="#010101" fill-opacity="1"/></g><g><path d="M214.79166010742188,85.47372703125C213.97916010742188,85.90081703125,213.28125010742187,86.65081703125,212.79166010742188,87.35394703125C211.27084310742188,89.52581703125,211.00000010742187,92.45289703125,213.09897010742188,94.35915703124999C216.81250010742187,97.74455703125,224.15626010742187,95.83305703125001,224.84896010742187,90.59872703125001C225.54166010742188,85.33831703125,218.57812010742188,82.27059703125,214.79166010742188,85.47372703125Z" fill="#010101" fill-opacity="1"/></g><g><path d="M204.79687999023437,101.75520350488281C204.22915999023436,102.17187250488281,203.75521999023437,102.73437250488281,203.3749999902344,103.38542250488281C202.54165999023436,103.79687250488281,201.90102999023438,104.50520250488282,201.45834399023437,105.31770250488282C200.30209399023437,107.46875250488281,201.0156249902344,110.19270250488282,202.64062999023437,111.89584250488281C203.52083999023438,112.82294250488282,204.5937499902344,113.41664250488282,205.72396999023437,113.71354250488281C206.13021999023437,113.83854250488281,206.56771999023437,113.90624250488281,207.04165999023436,113.91144250488281C210.05208999023438,114.08854250488281,213.13543999023437,112.3281425048828,214.06773999023437,109.11979250488281C215.38023999023437,104.63020250488282,208.89583999023438,98.76042250488281,204.79687999023437,101.75520350488281Z" fill="#010101" fill-opacity="1"/></g><g><path d="M189.952990625,116.1563840625C188.635250625,115.0782620625,186.479000625,114.7553410625,184.822750625,114.9011840625C183.229000625,115.0418090625,181.833190625,115.8334660625,181.062350625,117.1251340625C178.182128625,118.6876340625,178.062347625,122.6615940625,180.916500625,124.7813840625C184.145690625,127.1876640625,189.463390625,125.1928640625,191.083190625,121.6876340625C191.963390625,119.7970140625,191.593590625,117.5053440625,189.952990625,116.1563840625Z" fill="#010101" fill-opacity="1"/></g><g><path d="M155.84924125,116.36979682617188C155.38568125,116.67187182617188,155.00027125,117.06250182617188,154.68255125,117.49479182617188C151.91693125,118.72395182617187,151.68255625,122.87500182617188,154.23987125,125.03645182617187C157.60965125,127.88537182617188,163.52113125,125.72397182617188,164.19303125,121.34895182617187C164.89613125,116.77083182617187,159.57318125,113.90104182617188,155.84924125,116.36979682617188Z" fill="#010101" fill-opacity="1"/></g><g><path d="M137.135224375,110.44270319140625C136.077944375,110.85937519140624,135.374814375,111.54687119140625,134.942534375,112.36458119140624C134.630035375,112.66667119140625,134.374817375,113.01562119140625,134.202942375,113.34895119140624C133.270660375,115.19792119140625,133.619598375,117.60417119140625,134.932094375,119.17187119140625C137.765444375,122.56772119140625,143.291474375,121.57812119140625,144.614434375,117.32812119140625C145.947734375,113.01562119140625,141.317534375,108.79167119140625,137.135224375,110.44270319140625Z" fill="#010101" fill-opacity="1"/></g><g><path d="M134.00558625,97.234195C132.54723625,95.0831451,129.83889625,94.109192,127.69308625,95.968567C127.54723625,96.093565,127.40139625,96.234195,127.26077625,96.374815C126.48995625,96.609195,125.78683625,97.031065,125.33370625,97.614395C123.97952225,99.348775,124.05764725,102.301895,125.09411625,104.182115C126.27120625,106.312275,128.68264625,107.676875,131.13058625,107.171675C133.24514625,106.739375,134.77640625,105.067475,135.22430625,102.978985C135.66180625,100.968565,135.15660625,98.926895,134.00558625,97.234195Z" fill="#010101" fill-opacity="1"/></g><g><path d="M137.78598125,82.88559453125C137.02554125,81.17204453125,135.38492125,79.38558953125,133.37451125,79.51058960125C131.94223125,79.59912113125,130.79639125,80.56787453125,130.26514125,81.81787453125C130.04116825,82.02099453125,129.84848025,82.25537453125,129.69741825,82.50537453125C128.69741825,84.18246453125,129.31201125,86.39599453125,130.77035125,87.59912453125C132.27554125,88.84912453125,134.64014125,89.42204453125,136.39535125,88.30746453125C138.22348125,87.14599453125,138.62973125,84.77621453125,137.78598125,82.88559453125Z" fill="#010101" fill-opacity="1"/></g><g><path d="M151.7400171875,65.93765625C150.8702071875,64.99494925,149.5160571875,64.60952725,148.2712671875,64.85952755C147.3337671875,65.04702725,146.2087671875,65.64077725,145.6775171875,66.51577625C145.4014571875,66.66160625,145.1358371875,66.83347625,144.8650171875,67.06785625C143.9327091875,67.87515625,143.4900211875,69.25535625,143.8962711875,70.43765625C144.7452071875,72.89077625,147.8754271875,72.67722625,149.7712671875,71.79702625C151.9379271875,70.79702625,153.6879271875,68.04182625,151.7400171875,65.93765625Z" fill="#010101" fill-opacity="1"/></g><g><path d="M169.8694496875,60.17708573730469C168.2756996875,58.34374973730469,164.3173796875,57.97916373730469,162.6350696875,59.90624573730469C162.4840396875,60.08333573730469,162.3538196875,60.27603573730469,162.2600696875,60.47916573730469C161.0777896875,61.01041573730469,160.4267577875,62.31249573730469,160.5100707975,63.58332573730469C160.7236326875,66.73437573730469,164.1298796875,67.63020573730469,166.6559096875,66.63020573730469C169.0569496875,65.67707573730469,172.1975296875,62.85416573730469,169.8694496875,60.17708573730469Z" fill="#010101" fill-opacity="1"/></g><g><path d="M192.953579375,59.4424896875C191.115049375,57.4737395875,187.682739375,56.2914396875,185.844209375,58.8122796875C185.812959375,58.8278996875,185.776489375,58.8383196875,185.745239375,58.8591496875C184.594207375,59.5049896875,184.073364275,60.8174896875,184.135864255,62.088319687500004C184.276489375,65.0987296875,187.729609375,66.86957968749999,190.406709375,66.02582968749999C191.620239375,65.64039968750001,192.958799375,64.86957968749999,193.599429375,63.7237296875C194.411959375,62.2706096875,194.062959375,60.6299896875,192.953579375,59.4424896875Z" fill="#010101" fill-opacity="1"/></g><g><path d="M179.2448272949219,76.71331740625C169.16142729492188,74.26539140625,157.48432729492188,77.50497140625,150.22396729492186,85.04144140625C143.82290729492186,91.68729140625,147.3958432949219,100.79149140625,156.77602729492187,101.04149140625C157.10412729492188,101.05189140625001,157.18752729492186,100.53099140625,156.85937729492187,100.46329140625C152.22915729492186,99.50499140625,146.71353129492186,96.01019140625,148.36459729492188,90.46329140625C149.59374729492188,86.33309140625,154.01562729492187,83.29664140625,157.56252729492186,81.29664140625C164.22912729492188,77.53622140625,171.64582729492187,76.45289640625,179.20312729492187,77.02060140625C179.38022729492187,77.03102140625,179.41142729492188,76.75497440625,179.2448272949219,76.71331740625Z" fill="#010101" fill-opacity="1"/></g><g><path d="M189.73449375,84.97906984375C188.46889375,82.09884984375,186.74489375,78.42176784375,183.45329375,77.62489314375C183.02619375,77.51551814375,182.81269375,78.07281484375,183.16159375,78.31759684375C186.07309375,80.31238984375,187.97929375,84.26031984375,188.75019375,87.66133984375C190.00019375,93.20303984375,186.48979375,96.33843984375,182.16159375,98.64573984375C176.67729375,101.57283984375,170.50537375,101.91133984375,164.41680875,101.91133984375C164.15118405,101.91133984375,164.08868405,102.31763984375,164.35430875,102.38013984375C172.49493375,104.28113984375,183.36989375,102.59883984375,188.93769375,95.71343984375C191.56269375,92.47383984375,191.35949375,88.66133984375,189.73449375,84.97906984375Z" fill="#010101" fill-opacity="1"/></g><g><g mask="url(#master_svg1_8_711)"><g><path d="M303.68240100097654,58.2031408203125C300.71840100097654,48.9531408203125,294.6354010009766,37.5052408203125,285.40140100097653,32.9739408203125C272.9164010009766,19.5520408203125,255.64040100097657,11.4531408203125,238.15640100097656,6.4895908203125C217.14540100097656,0.5312498203125,195.14540100097656,0.08333582031249998,173.50040100097655,1.6770858203125C162.24440100097655,2.5052108203125,151.02640100097656,3.8333408203125,139.82340100097656,5.1718708203125C129.28640100097655,6.4323008203125,119.05740100097657,8.2135508203125,108.99440100097657,11.6562408203125C99.13020100097657,15.0312408203125,89.11980100097657,18.5416408203125,79.60420100097656,22.7968408203125C70.32810100097656,26.9479408203125,62.432301000976565,32.9791408203125,55.01560100097656,39.8437408203125C41.67190100097656,52.1979408203125,22.114601000976563,71.1875408203125,26.968701000976562,91.4166408203125C27.130201000976562,92.0729408203125,27.677101000976563,92.4739408203125,28.286501000976564,92.6041408203125C28.08330100097656,95.4114408203125,28.239601000976563,98.1822408203125,28.906201000976562,100.8229408203125C26.005201000976562,100.6822408203125,23.19790100097656,102.4578408203125,21.838501000976564,105.2608408203125C19.614601000976563,105.1768408203125,17.479201000976563,105.8018408203125,16.130201000976562,107.7968408203125C14.786501000976562,109.7868408203125,14.734401000976563,112.4268408203125,15.312501000976562,115.0368408203125C14.161501000976562,115.2918408203125,13.046901000976563,115.8068408203125,12.041701000976563,116.6408408203125C9.156251000976562,119.0258408203125,8.843751000976562,122.9318408203125,9.807281000976563,126.3648408203125C8.000001000976562,126.9268408203125,6.437501000976562,127.9738408203125,5.406251000976562,129.6098408203125C3.3020810009765627,132.9218408203125,3.3645810009765627,136.9688408203125,4.614581000976562,140.6198408203125C1.0468750009765624,144.0208408203125,0.20832800097656246,149.2758408203125,2.4479110009765623,153.7808408203125C2.5937510009765625,154.0678408203125,2.7500010009765625,154.3438408203125,2.9114510009765624,154.6148408203125C-0.14584399902343748,158.8388408203125,0.18228100097656252,164.8338408203125,3.1875010009765625,168.4948408203125C1.5260310009765625,172.2138408203125,0.9687500009765625,176.5678408203125,5.302081000976562,178.5568408203125C6.578121000976562,179.1458408203125,7.953121000976562,179.3858408203125,9.359371000976562,179.3538408203125C9.343751000976562,179.6038408203125,9.328121000976562,179.8538408203125,9.328121000976562,180.0838408203125C9.281251000976562,185.5368408203125,12.828101000976563,189.3648408203125,17.666701000976563,189.2708408203125C18.000001000976564,190.6198408203125,18.536501000976564,191.8178408203125,19.29690100097656,192.7548408203125C22.026001000976564,196.0938408203125,25.61980100097656,196.2188408203125,28.74480100097656,194.5938408203125C28.92190100097656,194.8338408203125,29.10940100097656,195.0678408203125,29.312501000976564,195.2968408203125C31.349001000976564,197.5988408203125,34.20310100097656,198.4268408203125,36.974001000976564,198.0308408203125C37.776001000976564,199.9168408203125,39.22920100097656,201.4058408203125,41.572901000976564,202.1818408203125C43.338501000976564,202.7708408203125,45.20310100097656,202.5678408203125,46.87500100097656,201.8538408203125C47.31770100097656,202.3388408203125,47.81770100097656,202.7808408203125,48.42190100097656,203.1358408203125C50.05210100097656,204.0888408203125,51.843701000976566,203.9848408203125,53.37500100097656,203.1818408203125C55.93750100097656,205.9058408203125,59.843701000976566,206.1818408203125,62.63020100097656,203.7708408203125C64.25000100097657,202.3698408203125,62.093701000976566,199.5108408203125,60.31250100097656,200.7708408203125C58.572901000976564,202.0048408203125,57.22920100097656,200.9588408203125,56.55210100097656,199.5308408203125C57.531201000976566,196.9528408203125,57.072901000976564,194.0258408203125,57.73960100097656,191.1978408203125C58.30210100097656,188.8068408203125,54.682301000976565,186.9848408203125,53.56770100097656,189.4428408203125C53.35940100097656,189.9008408203125,53.151001000976564,190.3748408203125,52.95310100097656,190.8598408203125C52.849001000976564,188.8958408203125,52.45310100097656,186.9168408203125,52.00520100097656,185.0568408203125C51.52080100097656,183.0468408203125,48.760401000976564,182.8438408203125,47.73960100097656,184.4998408203125C47.05210100097656,185.6148408203125,46.385401000976564,187.0728408203125,45.85940100097656,188.6878408203125C46.31770100097656,185.7548408203125,45.88020100097656,182.5938408203125,44.98960100097656,179.7088408203125C44.385401000976564,177.7348408203125,41.91670100097656,177.5518408203125,40.80210100097656,179.1618408203125C38.64060100097656,182.2708408203125,36.17190100097656,188.2808408203125,36.156201000976566,193.4588408203125C36.00520100097656,193.4638408203125,35.849001000976564,193.4688408203125,35.682301000976565,193.4588408203125C34.25000100097656,193.3958408203125,33.182301000976565,192.6358408203125,32.45830100097656,191.5778408203125C34.994801000976565,188.6298408203125,39.54170100097656,181.8858408203125,37.26560100097656,178.0048408203125C35.17190100097656,174.4378408203125,31.901001000976564,176.3538408203125,29.875001000976564,178.8128408203125C30.505201000976562,176.8128408203125,30.781201000976562,174.6978408203125,30.677101000976563,172.6298408203125C30.630201000976562,171.7088408203125,30.036501000976564,170.7448408203125,29.078101000976563,170.5308408203125C22.39580100097656,169.0418408203125,17.927101000976563,176.8338408203125,17.32290100097656,183.9898408203125C15.843701000976562,183.9168408203125,14.645801000976563,183.0678408203125,14.401001000976562,180.9118408203125C14.302101000976563,180.0468408203125,14.354201000976563,179.1248408203125,14.500001000976562,178.1978408203125C16.942701000976562,177.1878408203125,19.187501000976564,175.6358408203125,20.791701000976563,173.9788408203125C22.474001000976564,172.2448408203125,24.45830100097656,169.8278408203125,23.36980100097656,167.2968408203125C22.593701000976562,165.4898408203125,20.791701000976563,164.8488408203125,18.953101000976563,165.0048408203125C18.89580100097656,163.8908408203125,18.338501000976564,162.7658408203125,17.067701000976562,161.7398408203125C16.849001000976564,161.5628408203125,16.62500100097656,161.4168408203125,16.39580100097656,161.2708408203125C16.70830100097656,161.2608408203125,17.01040100097656,161.2448408203125,17.32290100097656,161.2188408203125C21.89580100097656,160.7918408203125,26.328101000976563,156.7808408203125,21.578101000976563,152.8228408203125C20.98440100097656,152.3338408203125,20.338501000976564,151.9058408203125,19.656201000976562,151.5368408203125C19.828101000976563,151.4738408203125,20.000001000976564,151.4168408203125,20.166701000976563,151.3388408203125C24.968701000976562,149.0728408203125,22.463501000976564,143.0938408203125,19.453101000976563,140.4008408203125C16.36980100097656,137.6458408203125,12.078101000976563,136.8858408203125,8.354161000976562,138.2608408203125C8.338531000976563,138.1878408203125,8.312501000976562,138.1198408203125,8.291661000976562,138.0418408203125C7.520831000976562,134.7398408203125,8.515621000976562,131.1978408203125,11.416701000976563,130.0418408203125C14.020801000976563,134.3698408203125,18.442701000976562,137.2968408203125,23.328101000976563,138.4848408203125C24.23440100097656,138.7028408203125,25.093701000976562,138.3278408203125,25.593701000976562,137.5628408203125C29.489601000976563,131.5888408203125,21.067701000976562,125.9428408203125,13.640601000976563,125.8488408203125C13.520801000976563,125.5048408203125,13.421901000976563,125.1558408203125,13.338501000976562,124.7968408203125C12.927101000976563,123.0048408203125,13.510401000976563,120.4008408203125,14.932301000976562,119.1408408203125C15.359401000976563,118.7658408203125,15.864601000976563,118.5678408203125,16.411501000976564,118.4998408203125C17.036501000976564,120.0158408203125,17.781201000976562,121.4118408203125,18.49480100097656,122.5108408203125C20.281201000976562,125.2758408203125,24.953101000976563,131.1878408203125,28.93230100097656,128.8698408203125C33.70830100097656,126.0778408203125,27.229201000976563,119.9008408203125,25.015601000976563,117.9998408203125C23.442701000976562,116.6508408203125,21.489601000976563,115.5888408203125,19.453101000976563,115.1148408203125C19.067701000976562,112.7758408203125,19.427101000976563,110.6768408203125,21.015601000976563,109.7918408203125C21.427101000976563,117.2548408203125,29.302101000976563,120.8388408203125,36.04170100097656,121.2708408203125C37.281201000976566,121.3488408203125,38.32810100097656,119.9428408203125,37.94270100097656,118.7758408203125C36.156201000976566,113.4378408203125,32.536501000976564,108.9948408203125,27.338501000976564,106.6458408203125C26.968701000976562,106.4788408203125,26.57290100097656,106.3228408203125,26.166701000976563,106.1718408203125C26.989601000976563,104.8538408203125,28.312501000976564,103.9478408203125,29.989601000976563,103.9578408203125C31.036501000976564,106.3388408203125,32.593701000976566,108.5828408203125,34.80210100097656,110.6148408203125C43.656201000976566,118.7608408203125,54.213501000976564,115.4168408203125,63.401001000976564,109.7138408203125C73.51040100097656,103.4318408203125,82.15620100097657,95.7447408203125,93.20310100097656,91.0312408203125C94.31250100097657,90.5572408203125,95.41150100097656,90.0208408203125,96.44270100097657,89.3906408203125C96.53650100097656,89.6302408203125,96.77600100097656,89.8125408203125,97.08850100097656,89.7291408203125C103.72440100097656,87.9531408203125,107.28140100097656,80.2343408203125,106.11440100097656,73.7968408203125C105.35940100097656,69.6197408203125,102.97940100097657,66.0625408203125,100.91140100097657,62.4479408203125C99.92190100097656,60.7291408203125,99.02080100097656,58.9843408203125,98.35940100097656,57.1354408203125C100.63540100097656,53.9375408203125,105.16140100097657,52.4010408203125,108.60940100097656,51.2083408203125C108.96840100097656,51.0833408203125,109.32840100097657,50.9583408203125,109.69240100097656,50.8281408203125C109.54140100097656,51.8750408203125,109.52040100097656,53.1198408203125,109.54640100097656,54.6198408203125C109.65640100097656,61.6406408203125,110.07840100097657,68.1250408203125,112.12540100097657,74.8697408203125C112.19840100097656,75.1041408203125,112.59340100097656,75.1458408203125,112.64040100097657,74.8697408203125C113.31740100097656,70.6406408203125,113.74440100097657,66.4843408203125,113.67740100097656,62.1927408203125C113.63540100097656,59.6718408203125,113.55740100097657,57.1458408203125,113.52040100097656,54.6198408203125C113.47940100097657,51.5625408203125,113.00040100097657,50.4323408203125,116.31740100097656,49.9375408203125C118.70340100097657,49.5833408203125,121.09340100097656,49.2968408203125,123.48440100097656,48.9687408203125C124.47440100097656,48.8333408203125,125.56240100097656,48.7500408203125,126.53140100097656,48.5416408203125C126.52040100097656,48.5416408203125,128.75040100097658,48.0573408203125,128.62540100097658,47.7448408203125C129.23940100097656,48.3854408203125,129.67140100097657,52.9010408203125,129.90640100097656,53.7760408203125C130.50040100097655,56.0312408203125,131.01040100097657,58.1145408203125,132.41140100097655,59.9843408203125C133.31240100097656,61.1979408203125,135.51540100097657,60.9375408203125,135.47440100097657,59.1562408203125C135.39540100097656,55.9062408203125,134.01540100097657,52.7708408203125,133.31740100097656,49.5989408203125C133.11440100097656,48.6718408203125,133.04140100097655,47.5573408203125,132.76540100097657,46.5416408203125C144.37540100097655,45.4323408203125,155.80740100097657,43.1614408203125,167.53140100097656,42.7916408203125C173.71840100097657,42.5989408203125,179.91140100097655,42.6458408203125,186.08840100097657,43.0416408203125C192.79140100097655,43.4687408203125,199.50040100097655,45.0468408203125,206.18240100097657,45.1927408203125C206.32840100097656,45.1979408203125,206.46840100097657,45.1875408203125,206.59940100097657,45.1666408203125C206.02640100097656,47.5312408203125,205.71840100097657,49.9375408203125,206.13040100097658,52.3750408203125C206.26540100097657,53.2031408203125,207.38540100097657,53.3489408203125,207.91640100097655,52.8437408203125C211.81240100097656,49.1562408203125,212.71340100097657,43.6145408203125,214.66140100097655,38.8333408203125C215.90140100097656,35.7812408203125,217.81740100097656,34.9687408203125,220.96340100097657,34.7500408203125C223.75540100097658,34.5625408203125,226.63040100097658,34.4479408203125,228.44840100097656,36.6198408203125C230.42740100097657,38.9843408203125,230.55240100097657,42.7968408203125,231.06740100097656,45.7656408203125C231.68740100097656,49.2968408203125,232.17740100097657,52.8489408203125,232.58840100097657,56.4166408203125C232.93240100097657,59.4166408203125,233.18240100097657,62.3750408203125,233.53640100097655,65.3177408203125C233.18740100097656,71.0625408203125,233.10440100097657,78.2135408203125,235.70840100097655,83.5052408203125C237.98440100097656,88.1406408203125,242.69840100097656,90.1458408203125,247.46340100097657,91.3177408203125C254.25540100097658,92.9947408203125,261.21340100097655,94.2500408203125,268.1714010009766,95.0312408203125C275.07340100097656,95.8072408203125,282.0464010009766,95.9270408203125,288.93740100097654,94.9947408203125C293.99440100097655,94.3125408203125,299.7814010009766,93.3854408203125,303.01540100097657,88.9895408203125C305.92740100097654,85.0416408203125,306.1564010009766,79.0000408203125,306.17740100097654,74.2552408203125C306.20340100097656,68.8385408203125,305.33340100097655,63.3541408203125,303.68240100097654,58.2031408203125ZM45.14060100097656,191.3958408203125C44.75520100097656,193.2918408203125,44.60940100097656,195.2548408203125,44.838501000976564,197.0678408203125C43.91670100097656,197.5048408203125,42.91670100097656,197.2498408203125,42.04690100097656,195.7088408203125C43.50000100097656,194.4738408203125,44.50520100097656,193.0048408203125,45.14060100097656,191.3958408203125ZM32.031201000976566,183.9118408203125C32.151001000976564,183.5368408203125,33.724001000976564,179.7238408203125,33.182301000976565,181.6148408203125C32.822901000976564,182.8798408203125,32.281201000976566,184.0938408203125,31.640601000976563,185.2548408203125C31.755201000976562,184.7968408203125,31.88540100097656,184.3438408203125,32.031201000976566,183.9118408203125ZM26.140601000976563,174.9058408203125C25.74480100097656,177.4478408203125,24.640601000976563,179.7868408203125,22.713501000976564,181.6508408203125C22.515601000976563,181.8488408203125,22.291701000976563,182.0368408203125,22.05730100097656,182.2188408203125C22.791701000976563,179.1668408203125,24.192701000976562,175.8438408203125,26.140601000976563,174.9058408203125ZM27.44790100097656,183.6508408203125C26.812501000976564,185.7808408203125,26.562501000976564,188.0368408203125,26.916701000976563,190.1718408203125C26.661501000976564,190.2548408203125,26.36980100097656,190.3388408203125,26.036501000976564,190.4318408203125C24.42190100097656,191.6818408203125,23.30730100097656,191.4588408203125,22.692701000976562,189.7498408203125C22.18230100097656,189.3538408203125,21.85940100097656,188.8798408203125,21.687501000976564,188.3388408203125C24.041701000976563,187.3278408203125,25.979201000976563,185.6718408203125,27.44790100097656,183.6508408203125ZM5.9635310009765625,163.9588408203125C5.3385310009765625,162.2548408203125,5.411451000976562,160.1248408203125,6.265621000976562,158.3128408203125C7.6822810009765625,159.3648408203125,9.291661000976562,160.1408408203125,11.005201000976562,160.6298408203125C9.098951000976562,161.1928408203125,7.3072810009765625,162.4478408203125,5.9635310009765625,163.9588408203125ZM10.390621000976562,174.0258408203125C8.442701000976562,174.2498408203125,6.822911000976562,173.6458408203125,7.411451000976562,171.3388408203125C8.572911000976562,171.6878408203125,9.880201000976562,171.8128408203125,11.317701000976562,171.6618408203125C10.963501000976562,172.4318408203125,10.651031000976563,173.2238408203125,10.390621000976562,174.0258408203125ZM12.343701000976562,166.5838408203125C11.302101000976563,166.9738408203125,10.380201000976562,167.0838408203125,9.567701000976562,166.9898408203125C9.661451000976562,166.8698408203125,9.750001000976562,166.7398408203125,9.854161000976562,166.6358408203125C11.463501000976562,164.9738408203125,15.760401000976563,165.3018408203125,12.343701000976562,166.5838408203125ZM18.104201000976563,156.5888408203125C17.500001000976564,158.3338408203125,12.213501000976562,156.3388408203125,9.666661000976562,155.0468408203125C9.755201000976562,155.0108408203125,9.843751000976562,154.9688408203125,9.937501000976562,154.9318408203125C10.734371000976562,154.6408408203125,19.01040100097656,153.9848408203125,18.104201000976563,156.5888408203125ZM15.849001000976562,143.1358408203125C17.067701000976562,143.9588408203125,20.000001000976564,146.6198408203125,17.224001000976564,147.5258408203125C16.052101000976563,147.9058408203125,14.244801000976562,146.3648408203125,13.437501000976562,145.7608408203125C12.151001000976562,144.7918408203125,11.020801000976563,143.5938408203125,10.125001000976562,142.2398408203125C11.781201000976562,141.5988408203125,13.781201000976562,141.7398408203125,15.849001000976562,143.1358408203125ZM11.713501000976562,149.9218408203125C9.833331000976562,150.0778408203125,8.005201000976562,150.5988408203125,6.411451000976562,151.4998408203125C5.536451000976562,149.3338408203125,5.833331000976562,146.9738408203125,6.880201000976562,145.1298408203125C7.078121000976562,145.4168408203125,7.286451000976562,145.6978408203125,7.500001000976562,145.9688408203125C8.557281000976563,147.3228408203125,10.031251000976562,148.7808408203125,11.713501000976562,149.9218408203125ZM22.27080100097656,133.9738408203125C20.11980100097656,133.1718408203125,18.078101000976563,131.9268408203125,16.45830100097656,130.2968408203125C18.729201000976563,131.0518408203125,21.60940100097656,132.4058408203125,22.27080100097656,133.9738408203125ZM21.33330100097656,119.9788408203125C22.411501000976564,120.6298408203125,23.755201000976562,121.6458408203125,24.437501000976564,122.7498408203125C24.880201000976562,123.4688408203125,26.088501000976564,124.6248408203125,24.536501000976564,123.8488408203125C23.286501000976564,123.2238408203125,22.026001000976564,121.6768408203125,21.05730100097656,119.8178408203125C21.151001000976564,119.8698408203125,21.250001000976564,119.9268408203125,21.33330100097656,119.9788408203125ZM32.82810100097656,116.8958408203125C29.937501000976564,116.2658408203125,27.23440100097656,114.9118408203125,25.82290100097656,112.1038408203125C25.453101000976563,111.3648408203125,25.265601000976563,110.5568408203125,25.229201000976563,109.7398408203125C28.416701000976563,110.8018408203125,31.140601000976563,113.8438408203125,32.82810100097656,116.8958408203125ZM297.95340100097656,86.8281408203125C295.77640100097653,88.3958408203125,292.0364010009766,88.7916408203125,289.47440100097657,89.1822408203125C275.96840100097654,91.2552408203125,260.84340100097654,88.7916408203125,247.80740100097657,85.0260408203125C244.30740100097657,84.0104408203125,241.62540100097655,82.5885408203125,240.54140100097655,78.8541408203125C239.66640100097655,75.8333408203125,239.45340100097656,72.5052408203125,239.30740100097657,69.3541408203125C246.50540100097658,76.0208408203125,256.7554010009766,79.3750408203125,266.23940100097656,80.6302408203125C272.36440100097656,81.4427408203125,278.55240100097654,81.5833408203125,284.72940100097657,81.5625408203125C289.7864010009766,81.5468408203125,296.20340100097656,82.4479408203125,300.9164010009766,80.4427408203125C300.58340100097655,82.9270408203125,299.84940100097657,85.4583408203125,297.95340100097656,86.8281408203125ZM301.22440100097657,76.8593408203125C301.1714010009766,77.6666408203125,301.11940100097655,78.5729408203125,301.02640100097653,79.5052408203125C300.95340100097656,79.4218408203125,300.86940100097655,79.3541408203125,300.77040100097656,79.3125408203125C296.5004010009766,77.6041408203125,290.8804010009766,78.5572408203125,286.33840100097655,78.5781408203125C280.6924010009766,78.6093408203125,275.0464010009766,78.5937408203125,269.4214010009766,78.0572408203125C263.72940100097657,77.5156408203125,258.07340100097656,76.4010408203125,252.67140100097657,74.5052408203125C247.76540100097657,72.7760408203125,243.58840100097657,70.2187408203125,239.23440100097656,67.5989408203125C239.05740100097657,62.2291408203125,239.41140100097655,56.8229408203125,239.86440100097656,51.4635408203125C240.41140100097655,50.3698408203125,240.88040100097658,49.2343408203125,241.33340100097655,48.0052408203125C242.22440100097657,45.5937408203125,243.97440100097657,42.8698408203125,244.01040100097657,40.2708408203125C244.01540100097657,39.8854408203125,243.64540100097656,39.6614408203125,243.29640100097657,39.7291408203125C240.61440100097656,40.2604408203125,238.92740100097657,43.2448408203125,237.84940100097657,45.5260408203125C237.05740100097657,47.2031408203125,236.55740100097657,48.8177408203125,236.34340100097657,50.4948408203125C236.25540100097658,49.9583408203125,236.17140100097657,49.4270408203125,236.08340100097655,48.8906408203125C235.11440100097656,42.8750408203125,235.21840100097657,32.6718408203125,227.97440100097657,30.8333408203125C223.05740100097657,29.5833408203125,216.14540100097656,29.8333408203125,212.08340100097655,33.1823408203125C209.66140100097655,35.1770408203125,208.76540100097657,37.8906408203125,207.85440100097657,40.8020408203125C207.78640100097655,41.0104408203125,207.72440100097657,41.2187408203125,207.65640100097656,41.4270408203125C207.42140100097657,41.1823408203125,207.13040100097658,40.9843408203125,206.76540100097657,40.8593408203125C200.87540100097655,38.8698408203125,193.93740100097656,38.6145408203125,187.76540100097657,38.1666408203125C180.75540100097658,37.6614408203125,173.70840100097655,37.5520408203125,166.68740100097656,37.9531408203125C155.04140100097655,38.6198408203125,142.47940100097657,39.9635408203125,131.55240100097657,44.4739408203125C130.05740100097657,43.2812408203125,127.90640100097656,44.0104408203125,126.20840100097656,44.2708408203125C124.00040100097657,44.6041408203125,121.79140100097656,44.9739408203125,119.58840100097656,45.3437408203125C119.51040100097656,45.2708408203125,119.41640100097656,45.2083408203125,119.29640100097656,45.1875408203125C113.75040100097657,44.0156408203125,102.09340100097656,45.8437408203125,97.28650100097656,51.0625408203125C97.21870100097657,50.0677408203125,97.10940100097656,49.0833408203125,96.80210100097656,48.1145408203125C96.63020100097657,47.5729408203125,96.04690100097656,47.3333408203125,95.54690100097656,47.6041408203125C89.55210100097656,50.8020408203125,93.66670100097656,60.1458408203125,96.06250100097657,64.4166408203125C97.24480100097657,66.5156408203125,98.56250100097657,68.5833408203125,99.63020100097657,70.7447408203125C88.98440100097656,75.5156408203125,78.49480100097657,80.6666408203125,68.36460100097656,86.4479408203125C58.48960100097656,92.0937408203125,47.80210100097656,97.8906408203125,39.322901000976564,105.5468408203125C39.00000100097656,105.8388408203125,39.411501000976564,106.2968408203125,39.76560100097656,106.1198408203125C50.31770100097656,100.9378408203125,60.099001000976564,93.9895408203125,70.44790100097656,88.3802408203125C80.36980100097657,83.0052408203125,90.43750100097657,77.9479408203125,100.72920100097656,73.3229408203125C101.05740100097657,74.2447408203125,101.32840100097657,75.1927408203125,101.49440100097657,76.1770408203125C101.58340100097656,76.7083408203125,101.62540100097657,77.2239408203125,101.64040100097657,77.7291408203125C101.10940100097656,76.4114408203125,100.12500100097657,75.3020408203125,98.60420100097656,74.6354408203125C98.01560100097656,74.3750408203125,97.13540100097656,74.9687408203125,97.60420100097656,75.6354408203125C102.80240100097656,83.0260408203125,86.11460100097656,87.0260408203125,81.90620100097657,89.4375408203125C74.91670100097656,93.4375408203125,68.78650100097656,98.7135408203125,62.057301000976565,103.1038408203125C55.23440100097656,107.5568408203125,46.50000100097656,112.5568408203125,39.29170100097656,106.1298408203125C33.98440100097656,101.4008408203125,31.979201000976563,93.5989408203125,31.281201000976562,86.4270408203125C32.79690100097656,79.5208408203125,35.00000100097656,72.9635408203125,38.89580100097656,66.8593408203125C43.82810100097656,59.1250408203125,50.307301000976565,52.4687408203125,57.010401000976564,46.2604408203125C63.932301000976565,39.8541408203125,71.55730100097657,34.2291408203125,80.11460100097656,30.2031408203125C89.23960100097656,25.9062408203125,99.06250100097657,22.7031408203125,108.55740100097657,19.3281408203125C127.66640100097656,12.5416408203125,148.19840100097656,10.9531408203125,168.28640100097655,9.2083408203125C188.69840100097656,7.4375008203125,209.51540100097657,7.0208408203125,229.60440100097657,11.6406408203125C248.27640100097656,15.9323408203125,264.8754010009766,24.8177408203125,281.5414010009766,33.8541408203125C284.7604010009766,37.9687408203125,288.77040100097656,41.3437408203125,291.83840100097655,45.5937408203125C295.0104010009766,49.9843408203125,297.56240100097654,54.9479408203125,299.1564010009766,60.1250408203125C300.82840100097656,65.5364408203125,301.5674010009766,71.1979408203125,301.22440100097657,76.8593408203125Z" fill="#010101" fill-opacity="1"/></g></g></g></g></svg>