<svg xmlns="http://www.w3.org/2000/svg" xmlns:xlink="http://www.w3.org/1999/xlink" fill="none" version="1.1" width="11" height="11" viewBox="0 0 11 11"><defs><mask id="master_svg0_0_155" style="mask-type:alpha" maskUnits="userSpaceOnUse"><g><g><path d="M0,0C0,0,11,0,11,0C11,0,11,11,11,11C11,11,0,11,0,11C0,11,0,0,0,0C0,0,0,0,0,0Z" fill="#000000" fill-opacity="1"/></g></g></mask></defs><g mask="url(#master_svg0_0_155)"><g><g><path d="M10.9677,5.067236072399432C10.9355,4.660266072399431,10.9032,4.500816072399432,10.79,4.253086072399432C10.6932,4.076056072399432,10.6286,3.9166260723994317,10.6286,3.8990460723994316C10.6286,3.8636860723994317,10.5802,3.7220260723994314,10.5155,3.5625860723994314C10.2569,2.9608060723994316,9.22318,1.5800360723994316,8.9164,1.4030060723994315C8.83551,1.3676560723994315,8.65782,1.2084160723994315,8.51246,1.0667560723994316C8.38336,0.9251050723994316,8.17335,0.7658710723994316,8.06031,0.7305080723994316C7.96335,0.6949410723994316,7.81799,0.6242150723994316,7.76941,0.5710690723994316C7.72102,0.5179230723994316,7.60798,0.4649810723994316,7.52728,0.4649810723994316C7.46262,0.4649810723994316,7.38172,0.4471980723994316,7.36566,0.41183507239943157C7.34959,0.37647307239943156,7.26869,0.35868807239943157,7.1719,0.35868807239943157C7.091,0.35868807239943157,6.97797,0.32332607239943156,6.94564,0.2879630723994316C6.91333,0.2523960723994316,6.73564,0.2170340723994316,6.50957,0.2170340723994316C6.29957,0.2170340723994316,6.08956,0.19945407239943158,6.05724,0.1816710723994316C6.02492,0.14630807239943158,5.91188,0.12852477239943158,5.83117,0.12852477239943158C5.7342,0.12852477239943158,5.63723,0.09316207239943158,5.6049,0.07537857239943159C5.5242,-0.013130327600568412,4.78115,0.07537857239943159,4.19971,0.2523960723994316C4.07042,0.2701800723994316,3.89274,0.35868807239943157,3.7797,0.4471980723994316C3.68274,0.5179230723994316,3.58595,0.5710690723994316,3.55364,0.5710690723994316C3.52131,0.5710690723994316,3.47274,0.6242150723994316,3.44041,0.6773610723994316C3.40828,0.7480870723994316,3.34362,0.8012340723994316,3.29505,0.8012340723994316C3.24666,0.8012340723994316,3.11736,0.8897420723994316,3.00433,1.0136140723994316C2.8913,1.1374860723994316,2.77826,1.2259960723994316,2.74594,1.2259960723994316C2.66523,1.2259960723994316,2.30987,1.5800360723994316,1.87359,2.0581360723994315C1.3568,2.6245660723994315,1.30823,2.6774960723994314,1.30823,2.7306460723994315C1.30823,2.7484260723994316,1.21145,2.8900860723994315,1.11448,3.0315260723994317C1.00144,3.1731960723994317,0.856085,3.4033560723994314,0.791439,3.5450060723994317C0.726794,3.6866560723994315,0.613758,3.8636860723994317,0.565367,3.9521860723994315C0.500722,4.0407060723994315,0.436077,4.235306072399432,0.403754,4.376956072399431C0.387685,4.5186060723994315,0.323041,4.660266072399431,0.274463,4.695616072399432C0.209818,4.748766072399431,0.209818,4.7841360723994315,0.242141,4.890216072399432C0.290718,4.978736072399432,0.290718,5.014296072399431,0.209818,5.0496660723994315C0.0967813,5.120386072399431,0.0644587,5.439066072399432,0.161426,5.545346072399432C0.209818,5.580716072399432,0.193749,5.633856072399432,0.113036,5.739946072399432C0.0160679,5.846246072399431,0,5.916966072399432,0,6.2534260723994315C0,6.465806072399432,0.0321359,6.642826072399432,0.0644587,6.660406072399431C0.0807134,6.660406072399431,0.129105,6.802056072399432,0.145359,6.979076072399431C0.161426,7.138306072399431,0.209818,7.297746072399431,0.226072,7.333106072399431C0.242141,7.368466072399432,0.242141,7.4216160723994316,0.209818,7.439396072399432C0.129105,7.492336072399431,0.242141,7.793436072399431,0.662149,8.625376072399433C0.694472,8.69610607239943,0.807508,8.85554607239943,0.920731,8.996996072399433C1.01751,9.138656072399431,1.09841,9.28030607239943,1.09841,9.31566607239943C1.09841,9.421956072399432,1.3568,9.68748607239943,1.48592,9.72285607239943C1.55056,9.758216072399431,1.59913,9.793576072399432,1.59913,9.81135607239943C1.59913,9.846716072399431,1.64752,9.882086072399431,1.69592,9.89986607239943C1.76056,9.917656072399431,1.80913,9.970586072399431,1.80913,10.006156072399431C1.80913,10.059056072399432,1.84128,10.094656072399431,1.87359,10.094656072399431C1.95449,10.094656072399431,2.01895,10.13005607239943,2.51987,10.395556072399433C2.69754,10.484056072399433,2.93969,10.59015607239943,3.06898,10.643256072399431C3.21433,10.67865607239943,3.34362,10.731756072399431,3.37595,10.749656072399432C3.40828,10.784956072399432,3.45666,10.802556072399433,3.48898,10.784956072399432C3.50505,10.784956072399432,3.60202,10.802556072399433,3.69899,10.838156072399432C3.79577,10.873456072399431,4.16739,10.90885607239943,4.53882,10.926656072399432C4.91044,10.94415607239943,5.21741,10.979556072399433,5.23348,10.99735607239943C5.24954,10.99735607239943,5.28187,10.99735607239943,5.31419,10.961956072399431C5.34651,10.94415607239943,5.55652,10.90885607239943,5.79885,10.891056072399433C6.08956,10.873456072399431,6.29957,10.838156072399432,6.44492,10.76715607239943C6.57421,10.696356072399432,6.81654,10.625756072399433,6.9619,10.607956072399432C7.12333,10.59015607239943,7.25262,10.554756072399432,7.26869,10.519456072399432C7.28495,10.501656072399431,7.33333,10.466256072399432,7.38172,10.466256072399432C7.4303,10.466256072399432,7.51102,10.430956072399432,7.54334,10.395556072399433C7.57566,10.342456072399433,7.64031,10.307056072399433,7.68869,10.307056072399433C7.73708,10.307056072399433,7.83405,10.253956072399433,7.91477,10.165356072399433C7.99567,10.094656072399431,8.12477,10.04155607239943,8.20567,10.04155607239943C8.28639,10.04155607239943,8.38336,9.970586072399431,8.46407,9.864506072399433C8.54479,9.775996072399433,8.64175,9.705066072399433,8.67407,9.705066072399433C8.70639,9.705066072399433,8.73872,9.68748607239943,8.73872,9.652126072399433C8.73872,9.59897607239943,9.06176,9.386606072399431,9.15872,9.386606072399431C9.20712,9.386606072399431,9.32015,9.28030607239943,9.43318,9.156436072399433C9.54623,9.03255607239943,9.65945,8.94405607239943,9.67551,8.94405607239943C9.70784,8.94405607239943,9.74016,8.873126072399433,9.75623,8.802396072399432C9.77249,8.731466072399432,9.83713,8.66074607239943,9.90159,8.642956072399432C10.0309,8.590016072399433,10.2248,8.342066072399433,10.2409,8.218196072399433C10.2409,8.16504607239943,10.2732,8.094326072399433,10.3378,8.076546072399431C10.3862,8.04117607239943,10.4509,7.952666072399432,10.467,7.8819460723994315C10.4832,7.828796072399432,10.5316,7.722506072399431,10.5639,7.687146072399432C10.5963,7.633996072399432,10.6446,7.510126072399432,10.6609,7.403836072399431C10.677,7.297746072399431,10.7255,7.138306072399431,10.7579,7.049796072399432C10.9032,6.695756072399432,10.9193,6.607256072399432,10.9677,6.324146072399431C11,5.9878960723994314,11,5.793096072399432,10.9677,5.067236072399432C10.9677,5.067236072399432,10.9677,5.067236072399432,10.9677,5.067236072399432ZM1.48592,8.16504607239943C1.38913,8.005816072399432,1.42146,7.952666072399432,1.6152,7.952666072399432C1.79288,7.952666072399432,2.11592,8.306706072399432,2.0836,8.483726072399431C2.05128,8.731466072399432,1.69592,8.554446072399433,1.48592,8.16504607239943C1.48592,8.16504607239943,1.48592,8.16504607239943,1.48592,8.16504607239943ZM2.0836,4.7841360723994315C2.06754,4.819496072399431,2.03521,4.837286072399432,2.01895,4.837286072399432C2.01895,4.837286072399432,2.00289,4.819496072399431,2.00289,4.7841360723994315C2.00289,4.748766072399431,2.01895,4.730986072399432,2.05128,4.730986072399432C2.0836,4.730986072399432,2.09985,4.748766072399431,2.0836,4.7841360723994315C2.0836,4.7841360723994315,2.0836,4.7841360723994315,2.0836,4.7841360723994315ZM2.64897,3.828106072399432C2.6329,3.8459060723994316,2.60058,3.828106072399432,2.58433,3.8105360723994317C2.56826,3.7751760723994314,2.56826,3.7396060723994315,2.60058,3.7220260723994314C2.61664,3.7042460723994317,2.64897,3.7042460723994317,2.66523,3.7396060723994315C2.68129,3.7751760723994314,2.68129,3.8105360723994317,2.64897,3.828106072399432C2.64897,3.828106072399432,2.64897,3.828106072399432,2.64897,3.828106072399432ZM3.66667,8.076546072399431C3.63434,8.111906072399432,3.60202,8.111906072399432,3.5697,8.058966072399432C3.55364,8.023396072399432,3.55364,7.970446072399431,3.58595,7.952666072399432C3.61808,7.917316072399432,3.65041,7.917316072399432,3.66667,7.952666072399432C3.69899,7.9880360723994315,3.68274,8.04117607239943,3.66667,8.076546072399431C3.66667,8.076546072399431,3.66667,8.076546072399431,3.66667,8.076546072399431ZM6.881,3.9344060723994314C6.81654,3.8636860723994317,6.83261,3.7927560723994316,6.91333,3.7927560723994316C6.9619,3.7927560723994316,6.99423,3.8459060723994316,6.99423,3.8812560723994314C6.99423,3.9697760723994318,6.92958,3.9875560723994314,6.881,3.9344060723994314C6.881,3.9344060723994314,6.881,3.9344060723994314,6.881,3.9344060723994314ZM7.73708,3.0493160723994315C7.67263,2.8369460723994315,7.67263,2.8191460723994317,7.81799,2.8722960723994317C7.88264,2.9076660723994316,7.9471,2.978596072399432,7.9471,3.0315260723994317C7.9471,3.1909760723994314,7.78567,3.2085560723994315,7.73708,3.0493160723994315C7.73708,3.0493160723994315,7.73708,3.0493160723994315,7.73708,3.0493160723994315ZM8.07638,3.5272260723994315C7.93102,3.2794760723994316,7.8987,3.137826072399432,8.01174,3.137826072399432C8.10871,3.137826072399432,8.33477,3.5096460723994314,8.33477,3.6510960723994317C8.33477,3.8105360723994317,8.20567,3.7573860723994317,8.07638,3.5272260723994315C8.07638,3.5272260723994315,8.07638,3.5272260723994315,8.07638,3.5272260723994315ZM9.57854,4.164576072399432C9.46551,3.9344060723994314,9.46551,3.7927560723994316,9.57854,3.7927560723994316C9.65945,3.7927560723994316,9.69177,3.8459060723994316,9.69177,3.9166260723994317C9.69177,3.9697760723994318,9.70784,4.022916072399432,9.74016,4.022916072399432C9.75623,4.022916072399432,9.78856,4.093636072399431,9.78856,4.182156072399431C9.78856,4.394736072399431,9.70784,4.394736072399431,9.57854,4.164576072399432C9.57854,4.164576072399432,9.57854,4.164576072399432,9.57854,4.164576072399432ZM9.80481,4.978736072399432C9.77249,4.872646072399432,9.82087,4.7841360723994315,9.91784,4.7841360723994315C9.96623,4.7841360723994315,9.98249,4.819496072399431,9.98249,4.908006072399432C9.95017,5.0496660723994315,9.8532,5.102816072399432,9.80481,4.978736072399432C9.80481,4.978736072399432,9.80481,4.978736072399432,9.80481,4.978736072399432Z" fill-rule="evenodd" fill="#FFB3A1" fill-opacity="1"/></g></g></g></svg>