<svg xmlns="http://www.w3.org/2000/svg" xmlns:xlink="http://www.w3.org/1999/xlink" fill="none" version="1.1" width="11" height="11.333251953125" viewBox="0 0 11 11.333251953125"><defs><mask id="master_svg0_0_143" style="mask-type:alpha" maskUnits="userSpaceOnUse"><g><g><path d="M0,0C0,0,11,0,11,0C11,0,11,11.3333,11,11.3333C11,11.3333,0,11.3333,0,11.3333C0,11.3333,0,0,0,0C0,0,0,0,0,0Z" fill="#000000" fill-opacity="1"/></g></g></mask></defs><g mask="url(#master_svg0_0_143)"><g><g><path d="M10.691213103673942,4.143399933854072C10.58641310367394,3.7320099338540715,10.450113103673942,3.4248199338540717,10.27701310367394,3.040689933854072C10.27701310367394,3.040689933854072,9.931333103673943,2.4396499338540716,9.931333103673943,2.4396499338540716C9.826723103673942,2.308579933854072,9.854143103673941,2.385519933854072,9.74934310367394,2.200119933854072C9.672153103673942,2.0555199338540717,9.576493103673943,1.9922999338540717,9.485493103673942,1.8973799338540718C9.39002310367394,1.7436899338540717,9.299033103673942,1.6081699338540718,9.24906310367394,1.5493999338540716C9.217173103673943,1.5087999338540716,9.167203103673941,1.4544799338540717,9.130643103673943,1.4003499338540717C9.130643103673943,1.4003499338540717,8.971403103673943,1.2240399338540717,8.971403103673943,1.2240399338540717C8.971403103673943,1.2240399338540717,8.220883103673941,0.6276359338540717,8.220883103673941,0.6276359338540717C8.252773103673942,0.7314499338540718,8.279993103673942,0.8534359338540717,8.26171310367394,0.9618899338540717C8.225353103673942,0.9439109338540717,8.193663103673941,0.9303789338540717,8.16177310367394,0.9168459338540718C8.098003103673943,0.6726799338540717,8.198133103673943,0.6591469338540717,7.8887831036739415,0.4557719338540717C7.706793103673942,0.3382319338540717,7.4520831036739414,0.2479499338540717,7.247343103673941,0.1891799338540717C6.696893103673942,0.026595533854071707,5.864323103673941,-0.0412606661459283,5.277513103673941,0.06274693385407171C5.2137431036739414,0.07163973385407171,5.027283103673941,0.0898120338540717,4.904393103673941,0.12132393385407171C4.904393103673941,0.12132393385407171,4.731543103673942,0.1574749338540717,4.731543103673942,0.1574749338540717C4.722403103673941,0.1574749338540717,4.713463103673941,0.1621149338540717,4.704323103673942,0.1621149338540717C4.181093103673941,0.26148293385407173,3.6852831036739415,0.3790229338540717,3.1984131036739414,0.5914839338540717C3.1984131036739414,0.5914839338540717,2.4570331036739415,0.9935949338540717,2.4570331036739415,0.9935949338540717C2.411533103673942,1.0206599338540716,2.3796531036739417,1.0252999338540718,2.3296831036739416,1.0658999338540718C2.3022631036739414,1.0885199338540716,2.2431531036739414,1.1472899338540716,2.2067931036739417,1.1787999338540718C2.2067931036739417,1.1787999338540718,2.1021931036739416,1.2828099338540717,2.1021931036739416,1.2828099338540717C1.7063231036739417,1.6126099338540718,1.7562931036739415,1.5855499338540717,1.4288631036739416,1.9605999338540716C1.4288631036739416,1.9605999338540716,1.2923631036739416,2.060159933854072,1.2923631036739416,2.060159933854072C1.2604731036739416,2.0963099338540716,1.2377331036739416,2.1369099338540716,1.2105031036739415,2.1821399338540717C0.9511301036739416,2.552549933854072,0.8237751036739416,2.923149933854072,0.5918131036739416,3.284659933854072C0.5507881036739416,3.352519933854072,0.5918131036739416,3.2666799338540717,0.5416491036739416,3.3704999338540715C0.5099561036739415,3.4383499338540715,0.4825411036739416,3.510659933854072,0.45065310367394157,3.578509933854072C0.45065310367394157,3.578509933854072,0.31435410367394157,3.9129599338540717,0.31435410367394157,3.9129599338540717C0.2461071036739416,4.079989933854072,0.1504451036739416,4.288009933854072,0.10047480367394158,4.495829933854072C0.07325390367394158,4.527529933854072,0.05497690367394159,4.572579933854072,0.05497690367394159,4.617809933854072C0.05497690367394159,4.617809933854072,0.05497690367394159,4.825639933854072,0.05497690367394159,4.825639933854072C0.05497690367394159,4.861789933854071,0.06411540367394158,4.884409933854072,0.07772580367394158,4.911469933854072C0.07772580367394158,4.934089933854072,0.07772580367394158,4.956709933854071,0.08219780367394158,4.979329933854071C0.08686430367394159,4.979329933854071,0.08686430367394159,4.979329933854071,0.08686430367394159,4.979329933854071C0.09133630367394159,4.983769933854072,0.08686430367394159,4.988409933854071,0.08219780367394158,4.992859933854072C0.08686430367394159,5.006389933854072,0.08686430367394159,5.019929933854072,0.0958083036739416,5.033649933854072C0.10047480367394158,5.056269933854072,0.10494680367394159,5.069799933854072,0.10961330367394159,5.087779933854072C0.10961330367394159,5.105949933854072,0.10961330367394159,5.123929933854072,0.1185571036739416,5.142109933854072C0.11408530367394158,5.1691699338540715,0.10961330367394159,5.191789933854071,0.10961330367394159,5.218849933854072C0.10494680367394159,5.255009933854072,0.0958083036739416,5.291159933854072,0.09133630367394159,5.327309933854072C0.05944890367394159,5.503619933854072,0.07772580367394158,5.743149933854072,0.05497690367394159,5.892199933854072C0.05497690367394159,5.892199933854072,0.018617403673941588,6.330459933854072,0.018617403673941588,6.330459933854072C0.000340503673941589,6.8818199338540715,0.1504451036739416,7.2524099338540715,0.3687961036739416,7.731469933854072C0.3687961036739416,7.731469933854072,0.8146371036739416,8.44095993385407,0.8146371036739416,8.44095993385407C0.8601351036739416,8.513269933854072,0.8828841036739415,8.544779933854072,0.9239101036739416,8.612629933854071C1.0193731036739415,8.779859933854071,1.2013731036739417,8.969699933854072,1.3470031036739416,9.09612993385407C1.5243231036739415,9.249819933854072,1.4924431036739416,9.326569933854072,1.9155331036739416,9.670109933854071C2.3386231036739416,10.013449933854071,2.4387531036739416,10.099449933854071,2.9256231036739417,10.388649933854072C3.0255631036739414,10.447249933854073,3.1348331036739414,10.515149933854072,3.2303031036739416,10.564849933854072C3.2530531036739414,10.578349933854073,3.2804731036739416,10.591849933854071,3.2985531036739415,10.600949933854071C3.4805431036739414,10.691449933854072,3.7307831036739416,10.759049933854072,3.8991631036739416,10.867549933854072C3.9263831036739414,10.885749933854072,3.9491331036739417,10.899249933854072,3.9674131036739415,10.908349933854073C3.9946331036739418,10.921849933854071,4.017383103673942,10.930949933854071,4.049263103673941,10.935449933854072C4.080963103673942,10.939849933854072,4.112843103673941,10.944449933854072,4.167483103673941,10.953549933854072C4.153873103673941,10.958049933854072,4.149203103673941,10.96244993385407,4.149203103673941,10.967149933854072C4.171953103673942,11.039449933854073,5.227543103673941,11.287849933854071,5.350233103673942,11.301349933854071C5.577723103673941,11.319549933854072,5.837103103673941,11.333049933854072,6.069063103673941,11.269849933854072C6.187283103673941,11.238149933854071,6.305693103673941,11.233749933854071,6.410303103673941,11.197549933854072C6.410303103673941,11.197549933854072,7.088103103673942,10.885749933854072,7.088103103673942,10.885749933854072C7.088103103673942,10.885749933854072,7.715933103673942,10.600949933854071,7.715933103673942,10.600949933854071C7.715933103673942,10.600949933854071,7.970643103673941,10.483449933854072,7.970643103673941,10.483449933854072C8.066113103673942,10.406649933854071,8.011673103673942,10.465449933854071,8.107143103673941,10.411149933854071C8.107143103673941,10.411149933854071,8.980543103673941,9.724239933854072,8.980543103673941,9.724239933854072C9.02157310367394,9.679189933854072,8.985213103673942,9.715349933854071,9.030703103673943,9.670109933854071C9.180813103673941,9.529949933854072,9.317303103673943,9.412409933854072,9.426383103673942,9.227209933854072C9.53565310367394,9.041999933854072,9.667483103673941,8.978589933854071,9.772093103673942,8.775409933854071C9.772093103673942,8.775409933854071,9.86308310367394,8.621719933854072,9.86308310367394,8.621719933854072C9.999583103673942,8.413699933854073,10.077013103673941,8.129129933854072,10.222613103673943,7.925759933854072C10.222613103673943,7.925759933854072,10.431813103673942,7.613929933854072,10.431813103673942,7.613929933854072C10.83211310367394,7.0672099338540715,10.827713103673943,6.4706199338540715,10.932313103673941,5.828979933854072C10.932313103673941,5.828979933854072,10.968613103673942,5.544219933854071,10.968613103673942,5.544219933854071C11.000513103673942,5.1691699338540715,10.777513103673943,4.4776599338540715,10.691213103673942,4.143399933854072C10.691213103673942,4.143399933854072,10.691213103673942,4.143399933854072,10.691213103673942,4.143399933854072ZM0.4689301036739416,6.859199933854072C0.4689301036739416,6.841219933854072,0.4872071036739416,6.845659933854072,0.5008181036739416,6.841219933854072C0.5008181036739416,6.859199933854072,0.4825411036739416,6.854749933854071,0.4689301036739416,6.859199933854072C0.4689301036739416,6.859199933854072,0.4689301036739416,6.859199933854072,0.4689301036739416,6.859199933854072ZM0.6509221036739415,5.575919933854072C0.6964201036739416,5.575919933854072,0.7146971036739416,5.598539933854072,0.7191691036739416,5.643579933854071C0.6600601036739416,5.652669933854072,0.6553941036739416,5.612069933854071,0.6509221036739415,5.575919933854072C0.6509221036739415,5.575919933854072,0.6509221036739415,5.575919933854072,0.6509221036739415,5.575919933854072ZM0.7146971036739416,4.387369933854072C0.7100301036739416,4.355669933854072,0.7918881036739416,4.364759933854072,0.7646671036739416,4.405349933854072C0.7555281036739416,4.405349933854072,0.7419181036739416,4.405349933854072,0.7327791036739416,4.405349933854072C0.7372511036739415,4.391819933854071,0.7283071036739416,4.387369933854072,0.7146971036739416,4.387369933854072C0.7146971036739416,4.387369933854072,0.7146971036739416,4.387369933854072,0.7146971036739416,4.387369933854072ZM0.7691391036739416,6.380339933854072C0.7782771036739415,6.389229933854072,0.7555281036739416,6.402759933854072,0.7510561036739416,6.398319933854071C0.7419181036739416,6.389229933854072,0.7646671036739416,6.375699933854071,0.7691391036739416,6.380339933854072C0.7691391036739416,6.380339933854072,0.7691391036739416,6.380339933854072,0.7691391036739416,6.380339933854072ZM0.7827491036739416,8.224059933854072C0.7738051036739416,8.224059933854072,0.7600001036739416,8.224059933854072,0.7510561036739416,8.224059933854072C0.7510561036739416,8.214969933854071,0.7510561036739416,8.201439933854072,0.7510561036739416,8.192349933854072C0.7600001036739416,8.192349933854072,0.7738051036739416,8.192349933854072,0.7827491036739416,8.192349933854072C0.7827491036739416,8.201439933854072,0.7827491036739416,8.214969933854071,0.7827491036739416,8.224059933854072C0.7827491036739416,8.224059933854072,0.7827491036739416,8.224059933854072,0.7827491036739416,8.224059933854072ZM0.8010261036739416,3.420369933854072C0.8010261036739416,3.402199933854072,0.8193031036739415,3.4066499338540717,0.8329141036739416,3.402199933854072C0.8329141036739416,3.4157299338540716,0.8146371036739416,3.411289933854072,0.8010261036739416,3.420369933854072C0.8010261036739416,3.420369933854072,0.8010261036739416,3.420369933854072,0.8010261036739416,3.420369933854072ZM0.8509961036739416,4.785039933854072C0.8509961036739416,4.766869933854072,0.8692731036739416,4.771509933854071,0.8828841036739415,4.766869933854072C0.8828841036739415,4.785039933854072,0.8648011036739416,4.780589933854071,0.8509961036739416,4.785039933854072C0.8509961036739416,4.785039933854072,0.8509961036739416,4.785039933854072,0.8509961036739416,4.785039933854072ZM0.9192431036739416,6.398319933854071C0.9874901036739416,6.384779933854071,1.0012951036739417,6.4209299338540715,1.0012951036739417,6.4796999338540715C0.9330481036739416,6.493239933854071,0.9192431036739416,6.457089933854071,0.9192431036739416,6.398319933854071C0.9192431036739416,6.398319933854071,0.9192431036739416,6.398319933854071,0.9192431036739416,6.398319933854071ZM1.0149051036739416,6.018629933854072C1.0102391036739415,6.041249933854072,0.9874901036739416,6.045889933854072,0.9830181036739416,6.068509933854072C0.9647411036739416,6.063869933854072,0.9694071036739416,6.036799933854072,0.9647411036739416,6.018629933854072C0.9830181036739416,6.018629933854072,0.9966281036739416,6.018629933854072,1.0149051036739416,6.018629933854072C1.0149051036739416,6.018629933854072,1.0149051036739416,6.018629933854072,1.0149051036739416,6.018629933854072ZM0.9830181036739416,5.178259933854072C0.9874901036739416,5.160079933854072,1.0012951036739417,5.1691699338540715,1.0012951036739417,5.178259933854072C0.9966281036739416,5.196239933854072,0.9830181036739416,5.187149933854072,0.9830181036739416,5.178259933854072C0.9830181036739416,5.178259933854072,0.9830181036739416,5.178259933854072,0.9830181036739416,5.178259933854072ZM0.9511301036739416,4.274469933854072C0.9419921036739416,4.265389933854071,0.9647411036739416,4.251849933854071,0.9694071036739416,4.256299933854072C0.9785461036739416,4.265389933854071,0.9557971036739416,4.2789199338540715,0.9511301036739416,4.274469933854072C0.9511301036739416,4.274469933854072,0.9511301036739416,4.274469933854072,0.9511301036739416,4.274469933854072ZM0.9330481036739416,3.4835899338540717C0.9375201036739416,3.4654199338540717,0.9511301036739416,3.4744999338540716,0.9511301036739416,3.4835899338540717C0.9466581036739415,3.501569933854072,0.9330481036739416,3.4926799338540717,0.9330481036739416,3.4835899338540717C0.9330481036739416,3.4835899338540717,0.9330481036739416,3.4835899338540717,0.9330481036739416,3.4835899338540717ZM1.0012951036739417,6.181409933854072C1.0057671036739415,6.158789933854072,1.0329831036739416,6.163239933854071,1.0329831036739416,6.181409933854072C1.0193731036739415,6.194939933854072,1.0057671036739415,6.204029933854072,1.0012951036739417,6.181409933854072C1.0012951036739417,6.181409933854072,1.0012951036739417,6.181409933854072,1.0012951036739417,6.181409933854072ZM1.0329831036739416,4.599839933854072C1.0240431036739417,4.599839933854072,1.0102391036739415,4.599839933854072,1.0012951036739417,4.599839933854072C1.0012951036739417,4.590749933854072,1.0012951036739417,4.577219933854072,1.0012951036739417,4.568129933854071C1.0102391036739415,4.568129933854071,1.0240431036739417,4.568129933854071,1.0329831036739416,4.568129933854071C1.0329831036739416,4.5816599338540716,1.0329831036739416,4.590749933854072,1.0329831036739416,4.599839933854072C1.0329831036739416,4.599839933854072,1.0329831036739416,4.599839933854072,1.0329831036739416,4.599839933854072ZM1.0467931036739415,5.607429933854072C1.0376531036739416,5.598539933854072,1.0604031036739416,5.584809933854071,1.0648731036739416,5.5894499338540715C1.0740131036739415,5.598539933854072,1.0557331036739417,5.612069933854071,1.0467931036739415,5.607429933854072C1.0467931036739415,5.607429933854072,1.0467931036739415,5.607429933854072,1.0467931036739415,5.607429933854072ZM1.1331231036739415,5.327309933854072C1.1239831036739416,5.327309933854072,1.1103731036739415,5.327309933854072,1.1012331036739416,5.327309933854072C1.0920931036739416,5.313779933854072,1.0831531036739417,5.300239933854072,1.0831531036739417,5.277619933854072C1.1286531036739416,5.277619933854072,1.1195131036739416,5.250559933854071,1.1514031036739416,5.277619933854072C1.1422631036739417,5.291159933854072,1.1331231036739415,5.304689933854072,1.1331231036739415,5.327309933854072C1.1331231036739415,5.327309933854072,1.1331231036739415,5.327309933854072,1.1331231036739415,5.327309933854072ZM1.2968331036739416,6.036799933854072C1.2878931036739416,6.027719933854072,1.3106431036739417,6.014179933854072,1.3151131036739416,6.018629933854072C1.3242531036739416,6.027719933854072,1.3015031036739415,6.041249933854072,1.2968331036739416,6.036799933854072C1.2968331036739416,6.036799933854072,1.2968331036739416,6.036799933854072,1.2968331036739416,6.036799933854072ZM1.3287231036739415,4.324159933854071C1.3333931036739415,4.305989933854072,1.3470031036739416,4.315069933854072,1.3470031036739416,4.324159933854071C1.3470031036739416,4.342139933854072,1.3333931036739415,4.333049933854071,1.3287231036739415,4.324159933854071C1.3287231036739415,4.324159933854071,1.3287231036739415,4.324159933854071,1.3287231036739415,4.324159933854071ZM1.4607431036739416,5.508069933854071C1.4516031036739416,5.498979933854072,1.4743531036739417,5.485449933854071,1.4788331036739415,5.490089933854072C1.4879631036739416,5.498979933854072,1.4696931036739416,5.512509933854072,1.4607431036739416,5.508069933854071C1.4607431036739416,5.508069933854071,1.4607431036739416,5.508069933854071,1.4607431036739416,5.508069933854071ZM1.4288631036739416,3.0633099338540717C1.4288631036739416,3.0542199338540716,1.4288631036739416,3.040689933854072,1.4288631036739416,3.031599933854072C1.4379931036739415,3.031599933854072,1.4516031036739416,3.031599933854072,1.4607431036739416,3.031599933854072C1.4607431036739416,3.040689933854072,1.4607431036739416,3.0542199338540716,1.4607431036739416,3.0633099338540717C1.4516031036739416,3.0633099338540717,1.4379931036739415,3.0633099338540717,1.4288631036739416,3.0633099338540717C1.4288631036739416,3.0633099338540717,1.4288631036739416,3.0633099338540717,1.4288631036739416,3.0633099338540717ZM1.4788331036739415,4.979329933854071C1.4924431036739416,4.956709933854071,1.5151931036739417,4.952259933854072,1.5470731036739416,4.947619933854072C1.5606831036739417,4.997499933854072,1.5062431036739417,4.974879933854072,1.4788331036739415,4.979329933854071C1.4788331036739415,4.979329933854071,1.4788331036739415,4.979329933854071,1.4788331036739415,4.979329933854071ZM1.5789631036739415,3.9941599338540716C1.5881031036739417,4.003239933854072,1.5698231036739416,4.012329933854072,1.5606831036739417,4.012329933854072C1.5517431036739415,4.003239933854072,1.5744931036739416,3.989709933854072,1.5789631036739415,3.9941599338540716C1.5789631036739415,3.9941599338540716,1.5789631036739415,3.9941599338540716,1.5789631036739415,3.9941599338540716ZM1.5653531036739416,6.922609933854072C1.5562131036739415,6.917969933854072,1.5744931036739416,6.904429933854072,1.5834331036739415,6.904429933854072C1.5925731036739417,6.913519933854071,1.5698231036739416,6.927049933854072,1.5653531036739416,6.922609933854072C1.5653531036739416,6.922609933854072,1.5653531036739416,6.922609933854072,1.5653531036739416,6.922609933854072ZM1.5972431036739416,9.064619933854072C1.6244631036739416,9.059979933854072,1.6244631036739416,9.082599933854071,1.6472131036739417,9.082599933854071C1.6516831036739417,9.114309933854072,1.5698231036739416,9.105219933854071,1.5972431036739416,9.064619933854072C1.5972431036739416,9.064619933854072,1.5972431036739416,9.064619933854072,1.5972431036739416,9.064619933854072ZM1.6153231036739415,4.007689933854072C1.6289331036739416,4.012329933854072,1.6289331036739416,4.025859933854072,1.6472131036739417,4.025859933854072C1.6427331036739417,4.039389933854071,1.6289331036739416,4.043839933854072,1.6289331036739416,4.057569933854071C1.6153231036739415,4.052929933854072,1.6153231036739415,4.039389933854071,1.5972431036739416,4.039389933854071C1.6017131036739416,4.025859933854072,1.6153231036739415,4.025859933854072,1.6153231036739415,4.007689933854072C1.6153231036739415,4.007689933854072,1.6153231036739415,4.007689933854072,1.6153231036739415,4.007689933854072ZM1.5972431036739416,2.9051699338540717C1.5972431036739416,2.8869999338540717,1.5972431036739416,2.873459933854072,1.5972431036739416,2.855489933854072C1.6472131036739417,2.8328699338540715,1.6472131036739417,2.932229933854072,1.5972431036739416,2.9051699338540717C1.5972431036739416,2.9051699338540717,1.5972431036739416,2.9051699338540717,1.5972431036739416,2.9051699338540717ZM1.6472131036739417,4.075539933854071C1.7245931036739417,4.084629933854072,1.6336031036739416,4.174909933854072,1.6472131036739417,4.075539933854071C1.6472131036739417,4.075539933854071,1.6472131036739417,4.075539933854071,1.6472131036739417,4.075539933854071ZM1.4424731036739415,2.2047599338540715C1.4424731036739415,2.2047599338540715,1.2377331036739416,2.4667099338540717,1.2377331036739416,2.4667099338540717C0.9239091036739416,2.9592999338540715,0.7738051036739416,3.4744999338540716,0.6736711036739416,3.6643499338540715C0.6237011036739416,3.763719933854072,0.6054241036739416,3.7772499338540717,0.5643981036739416,3.890339933854072C0.4597921036739416,4.166019933854072,0.3005491036739416,4.423529933854072,0.3005491036739416,4.771509933854071C0.3052151036739416,5.426679933854071,0.28693810367394157,4.889049933854071,0.23230210367394158,5.173619933854072C0.10961330367394159,4.956709933854071,0.3324361036739416,3.989709933854072,0.4644581036739416,3.655259933854072C0.4644581036739416,3.655259933854072,1.0376531036739416,2.5751699338540717,1.0376531036739416,2.5751699338540717C1.0421231036739416,2.570719933854072,1.0512631036739415,2.561639933854072,1.0557331036739417,2.5571899338540716C1.0876231036739417,2.5163999338540717,1.1422631036739417,2.4802499338540716,1.1103731036739415,2.412579933854072C1.1103731036739415,2.412579933854072,1.2423931036739415,2.3041299338540715,1.2423931036739415,2.3041299338540715C1.3287231036739415,2.1730599338540717,1.5972431036739416,1.8793999338540717,1.6927031036739415,1.8295199338540717C1.6336031036739416,1.9787699338540716,1.5334631036739417,2.0963099338540716,1.4424731036739415,2.2047599338540715C1.4424731036739415,2.2047599338540715,1.4424731036739415,2.2047599338540715,1.4424731036739415,2.2047599338540715ZM1.6971831036739415,4.057569933854071C1.6882331036739415,4.048479933854072,1.7107931036739417,4.039389933854071,1.7154531036739415,4.039389933854071C1.7245931036739417,4.048479933854072,1.7018431036739416,4.062009933854072,1.6971831036739415,4.057569933854071C1.6971831036739415,4.057569933854071,1.6971831036739415,4.057569933854071,1.6971831036739415,4.057569933854071ZM1.7609531036739416,6.759829933854071C1.7609531036739416,6.750739933854072,1.7609531036739416,6.737209933854071,1.7609531036739416,6.728119933854072C1.7973131036739416,6.719229933854072,1.8155931036739417,6.728119933854072,1.8109231036739415,6.759829933854071C1.7928431036739416,6.759829933854071,1.7790331036739415,6.759829933854071,1.7609531036739416,6.759829933854071C1.7609531036739416,6.759829933854071,1.7609531036739416,6.759829933854071,1.7609531036739416,6.759829933854071ZM1.7107931036739417,1.9832099338540716C1.7518131036739415,1.9741299338540717,1.7745631036739415,1.9561499338540718,1.8292031036739416,1.9652299338540717C1.8336731036739415,2.032899933854072,1.7154531036739415,2.060159933854072,1.7107931036739417,1.9832099338540716C1.7107931036739417,1.9832099338540716,1.7107931036739417,1.9832099338540716,1.7107931036739417,1.9832099338540716ZM7.797793103673942,5.950969933854072C7.793323103673941,5.973589933854072,7.779513103673942,5.960049933854072,7.779513103673942,5.950969933854072C7.784183103673942,5.932789933854072,7.797793103673942,5.9418799338540715,7.797793103673942,5.950969933854072C7.797793103673942,5.950969933854072,7.797793103673942,5.950969933854072,7.797793103673942,5.950969933854072ZM7.665773103673941,0.9439109338540717C7.6749131036739415,0.9529979338540717,7.652163103673941,0.9665299338540717,7.647683103673941,0.9618899338540717C7.638553103673941,0.9529979338540717,7.661303103673942,0.9392719338540717,7.665773103673941,0.9439109338540717C7.665773103673941,0.9439109338540717,7.665773103673941,0.9439109338540717,7.665773103673941,0.9439109338540717ZM7.547553103673941,7.650079933854072C7.5566931036739415,7.650079933854072,7.570303103673941,7.650079933854072,7.579443103673942,7.650079933854072C7.579443103673942,7.659169933854072,7.579443103673942,7.672699933854072,7.579443103673942,7.681779933854072C7.570303103673941,7.681779933854072,7.5566931036739415,7.681779933854072,7.547553103673941,7.681779933854072C7.547553103673941,7.672699933854072,7.547553103673941,7.659169933854072,7.547553103673941,7.650079933854072C7.547553103673941,7.650079933854072,7.547553103673941,7.650079933854072,7.547553103673941,7.650079933854072ZM7.4520831036739414,4.879959933854072C7.456553103673942,4.889049933854071,7.4384731036739415,4.902579933854072,7.433813103673941,4.8979399338540714C7.424673103673942,4.889049933854071,7.447423103673942,4.875319933854072,7.4520831036739414,4.879959933854072C7.4520831036739414,4.879959933854072,7.4520831036739414,4.879959933854072,7.4520831036739414,4.879959933854072ZM7.4019231036739415,5.837869933854072C7.392973103673942,5.856049933854072,7.379173103673941,5.869579933854071,7.351953103673941,5.869579933854071C7.342813103673942,5.837869933854072,7.374703103673942,5.837869933854072,7.4019231036739415,5.837869933854072C7.4019231036739415,5.837869933854072,7.4019231036739415,5.837869933854072,7.4019231036739415,5.837869933854072ZM7.383843103673941,9.972849933854071C7.383843103673941,9.981939933854072,7.383843103673941,9.991019933854071,7.383843103673941,10.004559933854072C7.374703103673942,10.004559933854072,7.361093103673942,10.004559933854072,7.351953103673941,10.004559933854072C7.351953103673941,9.995469933854071,7.351953103673941,9.981939933854072,7.351953103673941,9.972849933854071C7.361093103673942,9.972849933854071,7.374703103673942,9.972849933854071,7.383843103673941,9.972849933854071C7.383843103673941,9.972849933854071,7.383843103673941,9.972849933854071,7.383843103673941,9.972849933854071ZM7.301983103673941,2.344729933854072C7.306453103673942,2.326749933854072,7.347483103673942,2.3311899338540716,7.351953103673941,2.344729933854072C7.365563103673941,2.3808799338540716,7.288173103673942,2.385519933854072,7.301983103673941,2.344729933854072C7.301983103673941,2.344729933854072,7.301983103673941,2.344729933854072,7.301983103673941,2.344729933854072ZM7.270093103673942,6.660459933854072C7.279233103673942,6.669549933854071,7.256483103673942,6.683079933854072,7.251813103673942,6.678439933854071C7.242873103673942,6.669549933854071,7.260953103673941,6.655819933854072,7.270093103673942,6.660459933854072C7.270093103673942,6.660459933854072,7.270093103673942,6.660459933854072,7.270093103673942,6.660459933854072ZM7.1699631036739415,6.841219933854072C7.174623103673942,6.850299933854072,7.156353103673942,6.863839933854072,7.151873103673942,6.859199933854072C7.142743103673942,6.850299933854072,7.1654831036739415,6.836579933854072,7.1699631036739415,6.841219933854072C7.1699631036739415,6.841219933854072,7.1699631036739415,6.841219933854072,7.1699631036739415,6.841219933854072ZM7.151873103673942,5.458379933854071C7.083633103673941,5.467469933854072,7.1654831036739415,5.4131399338540716,7.101713103673942,5.408699933854072C7.1199931036739414,5.359009933854072,7.156353103673942,5.431319933854072,7.151873103673942,5.458379933854071C7.151873103673942,5.458379933854071,7.151873103673942,5.458379933854071,7.151873103673942,5.458379933854071ZM7.133603103673941,4.997499933854072C7.124463103673942,4.997499933854072,7.110853103673942,4.997499933854072,7.101713103673942,4.997499933854072C7.101713103673942,4.988409933854071,7.101713103673942,4.974879933854072,7.101713103673942,4.965799933854072C7.110853103673942,4.965799933854072,7.124463103673942,4.965799933854072,7.133603103673941,4.965799933854072C7.133603103673941,4.974879933854072,7.133603103673941,4.988409933854071,7.133603103673941,4.997499933854072C7.133603103673941,4.997499933854072,7.133603103673941,4.997499933854072,7.133603103673941,4.997499933854072ZM7.101713103673942,3.813399933854072C7.110853103673942,3.8180399338540716,7.088103103673942,3.831569933854072,7.083633103673941,3.831569933854072C7.074493103673942,3.822489933854072,7.097243103673941,3.8089499338540715,7.101713103673942,3.813399933854072C7.101713103673942,3.813399933854072,7.101713103673942,3.813399933854072,7.101713103673942,3.813399933854072ZM6.983493103673942,0.7314499338540718C7.042603103673941,0.6908519338540717,6.947133103673941,0.7857739338540717,6.983493103673942,0.7314499338540718C6.983493103673942,0.7314499338540718,6.983493103673942,0.7314499338540718,6.983493103673942,0.7314499338540718ZM6.956083103673942,9.100769933854071C6.933333103673942,9.091689933854072,6.942473103673942,9.055539933854071,6.937993103673942,9.032919933854071C7.0015831036739415,9.02846993385407,6.942473103673942,9.069069933854072,6.956083103673942,9.100769933854071C6.956083103673942,9.100769933854071,6.956083103673942,9.100769933854071,6.956083103673942,9.100769933854071ZM6.851473103673942,7.433169933854072C6.865283103673941,7.392569933854071,6.906113103673942,7.379039933854072,6.969883103673942,7.383489933854071C6.956083103673942,7.424089933854072,6.915253103673941,7.442259933854071,6.851473103673942,7.433169933854072C6.851473103673942,7.433169933854072,6.851473103673942,7.433169933854072,6.851473103673942,7.433169933854072ZM6.901633103673942,10.316349933854072C6.901633103673942,10.334349933854071,6.8833631036739416,10.329949933854072,6.869753103673942,10.334349933854071C6.869753103673942,10.316349933854072,6.888023103673942,10.320849933854072,6.901633103673942,10.316349933854072C6.901633103673942,10.316349933854072,6.901633103673942,10.316349933854072,6.901633103673942,10.316349933854072ZM6.837863103673942,4.288009933854072C6.824253103673942,4.288009933854072,6.815113103673942,4.288009933854072,6.805973103673941,4.288009933854072C6.805973103673941,4.274469933854072,6.797033103673941,4.269829933854072,6.787893103673942,4.269829933854072C6.783223103673942,4.238319933854072,6.865283103673941,4.247219933854072,6.837863103673942,4.288009933854072C6.837863103673942,4.288009933854072,6.837863103673942,4.288009933854072,6.837863103673942,4.288009933854072ZM6.869753103673942,5.526239933854072C6.933333103673942,5.607429933854072,6.783223103673942,5.5894499338540715,6.869753103673942,5.526239933854072C6.869753103673942,5.526239933854072,6.869753103673942,5.526239933854072,6.869753103673942,5.526239933854072ZM6.751533103673942,3.745739933854072C6.760473103673942,3.7275599338540717,6.797033103673941,3.7320099338540715,6.801503103673942,3.745739933854072C6.815113103673942,3.781889933854072,6.742393103673941,3.781889933854072,6.751533103673942,3.745739933854072C6.751533103673942,3.745739933854072,6.751533103673942,3.745739933854072,6.751533103673942,3.745739933854072ZM6.783223103673942,6.267239933854071C6.783223103673942,6.276329933854072,6.783223103673942,6.289859933854071,6.783223103673942,6.298949933854072C6.774283103673942,6.298949933854072,6.760473103673942,6.298949933854072,6.751533103673942,6.298949933854072C6.751533103673942,6.2854199338540715,6.751533103673942,6.276329933854072,6.751533103673942,6.267239933854071C6.760473103673942,6.267239933854071,6.774283103673942,6.267239933854071,6.783223103673942,6.267239933854071C6.783223103673942,6.267239933854071,6.783223103673942,6.267239933854071,6.783223103673942,6.267239933854071ZM6.851473103673942,8.734619933854072C6.824253103673942,8.734619933854072,6.819783103673942,8.757239933854072,6.787893103673942,8.752789933854071C6.7787531036739415,8.739259933854072,6.769613103673942,8.725529933854071,6.769613103673942,8.703109933854071C6.792363103673941,8.67584993385407,6.865283103673941,8.67584993385407,6.851473103673942,8.734619933854072C6.851473103673942,8.734619933854072,6.851473103673942,8.734619933854072,6.851473103673942,8.734619933854072ZM6.951603103673942,4.057569933854071C6.960743103673941,4.0664599338540715,6.942473103673942,4.079989933854072,6.933333103673942,4.075539933854071C6.924383103673941,4.0664599338540715,6.947133103673941,4.052929933854072,6.951603103673942,4.057569933854071C6.951603103673942,4.057569933854071,6.951603103673942,4.057569933854071,6.951603103673942,4.057569933854071ZM6.851473103673942,1.2918899338540717C6.860613103673941,1.3007799338540718,6.842533103673942,1.3145099338540718,6.8333931036739415,1.3098699338540718C6.824253103673942,1.3007799338540718,6.847003103673941,1.2872499338540717,6.851473103673942,1.2918899338540717C6.851473103673942,1.2918899338540717,6.851473103673942,1.2918899338540717,6.851473103673942,1.2918899338540717ZM6.737733103673942,1.3098699338540718C6.756003103673941,1.2963399338540718,6.783223103673942,1.2872499338540717,6.819783103673942,1.2918899338540717C6.797033103673941,1.3460199338540717,6.792363103673941,1.4183299338540718,6.888023103673942,1.3912599338540717C6.847003103673941,1.4635599338540717,6.696893103673942,1.4229599338540717,6.737733103673942,1.3098699338540718C6.737733103673942,1.3098699338540718,6.737733103673942,1.3098699338540718,6.737733103673942,1.3098699338540718ZM6.751533103673942,8.32341993385407C6.737733103673942,8.332509933854071,6.724123103673942,8.341399933854072,6.719643103673942,8.32341993385407C6.724123103673942,8.305249933854071,6.751533103673942,8.309889933854071,6.751533103673942,8.32341993385407C6.751533103673942,8.32341993385407,6.751533103673942,8.32341993385407,6.751533103673942,8.32341993385407ZM6.719643103673942,0.5688659338540717C6.733253103673942,0.6050169338540717,6.6605331036739415,0.6050169338540717,6.669483103673942,0.5688659338540717C6.674153103673942,0.5506929338540717,6.714983103673942,0.5553329338540717,6.719643103673942,0.5688659338540717C6.719643103673942,0.5688659338540717,6.719643103673942,0.5688659338540717,6.719643103673942,0.5688659338540717ZM6.637793103673942,3.352519933854072C6.651403103673942,3.3208099338540715,6.6650131036739415,3.293749933854072,6.669483103673942,3.253149933854072C6.728783103673941,3.2396199338540717,6.696893103673942,3.3751399338540717,6.637793103673942,3.352519933854072C6.637793103673942,3.352519933854072,6.637793103673942,3.352519933854072,6.637793103673942,3.352519933854072ZM6.637793103673942,0.4513249338540717C6.633123103673942,0.4693039338540717,6.619513103673942,0.4604119338540717,6.619513103673942,0.4513249338540717C6.623983103673941,0.4331529338540717,6.637793103673942,0.4422389338540717,6.637793103673942,0.4513249338540717C6.637793103673942,0.4513249338540717,6.637793103673942,0.4513249338540717,6.637793103673942,0.4513249338540717ZM6.473883103673941,1.0794299338540716C6.483023103673942,1.0794299338540716,6.4966331036739415,1.0794299338540716,6.505763103673941,1.0794299338540716C6.505763103673941,1.0885199338540716,6.505763103673941,1.1020499338540717,6.505763103673941,1.1111399338540717C6.4966331036739415,1.1111399338540717,6.483023103673942,1.1111399338540717,6.473883103673941,1.1111399338540717C6.473883103673941,1.1020499338540717,6.473883103673941,1.0885199338540716,6.473883103673941,1.0794299338540716C6.473883103673941,1.0794299338540716,6.473883103673941,1.0794299338540716,6.473883103673941,1.0794299338540716ZM6.373943103673942,7.288569933854072C6.355663103673941,7.297649933854072,6.342053103673941,7.306549933854072,6.342053103673941,7.288569933854072C6.346523103673942,7.265949933854071,6.373943103673942,7.270389933854072,6.373943103673942,7.288569933854072C6.373943103673942,7.288569933854072,6.373943103673942,7.288569933854072,6.373943103673942,7.288569933854072ZM6.337383103673941,6.231089933854071C6.301023103673941,6.2357299338540715,6.282943103673942,6.217559933854072,6.287413103673941,6.181409933854072C6.305693103673941,6.199389933854071,6.351193103673942,6.190489933854072,6.337383103673941,6.231089933854071C6.337383103673941,6.231089933854071,6.337383103673941,6.231089933854071,6.337383103673941,6.231089933854071ZM6.305693103673941,8.079449933854072C6.360133103673942,8.038659933854072,6.264663103673942,8.133579933854072,6.305693103673941,8.079449933854072C6.305693103673941,8.079449933854072,6.305693103673941,8.079449933854072,6.305693103673941,8.079449933854072ZM6.223833103673941,6.628759933854072C6.223833103673941,6.579069933854072,6.301023103673941,6.5881599338540715,6.291883103673942,6.6469299338540715C6.2738031036739415,6.633399933854072,6.251053103673941,6.628759933854072,6.223833103673941,6.628759933854072C6.223833103673941,6.628759933854072,6.223833103673941,6.628759933854072,6.223833103673941,6.628759933854072ZM6.269143103673942,10.252949933854072C6.255533103673941,10.248549933854072,6.255533103673941,10.234949933854072,6.237443103673941,10.234949933854072C6.237443103673941,10.225949933854071,6.237443103673941,10.212349933854071,6.237443103673941,10.203249933854071C6.2738031036739415,10.194249933854072,6.269143103673942,10.225949933854071,6.269143103673942,10.252949933854072C6.269143103673942,10.252949933854072,6.269143103673942,10.252949933854072,6.269143103673942,10.252949933854072ZM6.287413103673941,6.561089933854071C6.246583103673942,6.561089933854071,6.223833103673941,6.5384699338540715,6.219173103673942,6.493239933854071C6.2601931036739416,6.502319933854071,6.301023103673941,6.506769933854072,6.287413103673941,6.561089933854071C6.287413103673941,6.561089933854071,6.287413103673941,6.561089933854071,6.287413103673941,6.561089933854071ZM6.2738031036739415,3.6326399338540716C6.2738031036739415,3.614659933854072,6.291883103673942,3.6191099338540718,6.305693103673941,3.614659933854072C6.305693103673941,3.628199933854072,6.287413103673941,3.628199933854072,6.2738031036739415,3.6326399338540716C6.2738031036739415,3.6326399338540716,6.2738031036739415,3.6326399338540716,6.2738031036739415,3.6326399338540716ZM6.305693103673941,2.688259933854072C6.296553103673942,2.688259933854072,6.282943103673942,2.688259933854072,6.2738031036739415,2.688259933854072C6.2738031036739415,2.679179933854072,6.2738031036739415,2.6656399338540715,6.2738031036739415,2.6565599338540715C6.282943103673942,2.6565599338540715,6.296553103673942,2.6565599338540715,6.305693103673941,2.6565599338540715C6.305693103673941,2.670089933854072,6.305693103673941,2.679179933854072,6.305693103673941,2.688259933854072C6.305693103673941,2.688259933854072,6.305693103673941,2.688259933854072,6.305693103673941,2.688259933854072ZM6.287413103673941,0.8172849338540717C6.251053103673941,0.8219249338540717,6.223833103673941,0.8128389338540717,6.205563103673941,0.7993059338540717C6.205563103673941,0.7496219338540717,6.305693103673941,0.7540689338540717,6.287413103673941,0.8172849338540717C6.287413103673941,0.8172849338540717,6.287413103673941,0.8172849338540717,6.287413103673941,0.8172849338540717ZM6.141783103673942,0.8308179338540717C6.132843103673942,0.8534359338540717,6.123703103673941,0.8308179338540717,6.110093103673941,0.8308179338540717C6.114563103673942,0.8083919338540717,6.141783103673942,0.8128389338540717,6.141783103673942,0.8308179338540717C6.141783103673942,0.8308179338540717,6.141783103673942,0.8308179338540717,6.141783103673942,0.8308179338540717ZM6.1054231036739415,4.486739933854071C6.091813103673942,4.495829933854072,6.078203103673942,4.504909933854072,6.073533103673942,4.486739933854071C6.078203103673942,4.464119933854072,6.1054231036739415,4.468759933854072,6.1054231036739415,4.486739933854071C6.1054231036739415,4.486739933854071,6.1054231036739415,4.486739933854071,6.1054231036739415,4.486739933854071ZM6.0418431036739415,4.156929933854071C6.096283103673942,4.116139933854072,6.000813103673941,4.211059933854072,6.0418431036739415,4.156929933854071C6.0418431036739415,4.156929933854071,6.0418431036739415,4.156929933854071,6.0418431036739415,4.156929933854071ZM5.9916831036739415,8.865689933854071C5.982543103673941,8.861249933854072,6.000813103673941,8.847709933854071,6.009953103673942,8.847709933854071C6.019093103673941,8.856609933854072,5.996343103673942,8.870139933854071,5.9916831036739415,8.865689933854071C5.9916831036739415,8.865689933854071,5.9916831036739415,8.865689933854071,5.9916831036739415,8.865689933854071ZM5.959793103673942,5.264089933854072C5.982543103673941,5.205319933854072,6.0371731036739416,5.282069933854071,5.9916831036739415,5.295599933854072C5.982543103673941,5.295599933854072,5.955323103673941,5.273179933854072,5.959793103673942,5.264089933854072C5.959793103673942,5.264089933854072,5.959793103673942,5.264089933854072,5.959793103673942,5.264089933854072ZM5.955323103673941,0.9935949338540717C5.955323103673941,1.0162099338540718,5.9417131036739415,1.0026819338540718,5.937233103673941,0.9935949338540717C5.9417131036739415,0.9754229338540717,5.955323103673941,0.9845089338540717,5.955323103673941,0.9935949338540717C5.955323103673941,0.9935949338540717,5.955323103673941,0.9935949338540717,5.955323103673941,0.9935949338540717ZM5.9417131036739415,0.9439109338540717C5.950843103673941,0.9529979338540717,5.9281031036739416,0.9665299338540717,5.923433103673942,0.9618899338540717C5.914493103673942,0.9529979338540717,5.937233103673941,0.9392719338540717,5.9417131036739415,0.9439109338540717C5.9417131036739415,0.9439109338540717,5.9417131036739415,0.9439109338540717,5.9417131036739415,0.9439109338540717ZM5.891743103673941,10.415749933854071C5.918963103673941,10.411149933854071,5.918963103673941,10.429249933854072,5.9417131036739415,10.433749933854072C5.946183103673942,10.465449933854071,5.864323103673941,10.45634993385407,5.891743103673941,10.415749933854071C5.891743103673941,10.415749933854071,5.891743103673941,10.415749933854071,5.891743103673941,10.415749933854071ZM5.859853103673942,3.0180699338540715C5.868993103673942,3.0271599338540716,5.846243103673942,3.040689933854072,5.841573103673942,3.0362399338540715C5.832433103673941,3.0271599338540716,5.855183103673942,3.0180699338540715,5.859853103673942,3.0180699338540715C5.859853103673942,3.0180699338540715,5.859853103673942,3.0180699338540715,5.859853103673942,3.0180699338540715ZM5.809683103673942,0.8445439338540717C5.8188231036739415,0.8534359338540717,5.796073103673941,0.8669689338540717,5.791603103673942,0.8625229338540717C5.782463103673941,0.8534359338540717,5.805213103673942,0.8445439338540717,5.809683103673942,0.8445439338540717C5.809683103673942,0.8445439338540717,5.809683103673942,0.8445439338540717,5.809683103673942,0.8445439338540717ZM5.741443103673942,1.2104999338540716C5.773323103673942,1.2149499338540717,5.814353103673942,1.2149499338540717,5.809683103673942,1.2601899338540716C5.764193103673942,1.2646299338540716,5.736973103673941,1.2557399338540718,5.741443103673942,1.2104999338540716C5.741443103673942,1.2104999338540716,5.741443103673942,1.2104999338540716,5.741443103673942,1.2104999338540716ZM3.4714031036739414,9.923169933854071C3.4760731036739414,9.900549933854071,3.5032931036739416,9.909629933854072,3.5215731036739415,9.904989933854072C3.5169031036739415,9.923169933854071,3.4896831036739417,9.918719933854073,3.4714031036739414,9.923169933854071C3.4714031036739414,9.923169933854071,3.4714031036739414,9.923169933854071,3.4714031036739414,9.923169933854071ZM3.5715431036739416,5.526239933854072C3.5715431036739416,5.508069933854071,3.589813103673942,5.512509933854072,3.6034231036739417,5.508069933854071C3.6034231036739417,5.526239933854072,3.5851531036739415,5.5215999338540716,3.5715431036739416,5.526239933854072C3.5715431036739416,5.526239933854072,3.5715431036739416,5.526239933854072,3.5715431036739416,5.526239933854072ZM3.6353131036739414,5.788189933854071C3.6353131036739414,5.801719933854072,3.6170331036739416,5.801719933854072,3.6034231036739417,5.806359933854072C3.6034231036739417,5.788189933854071,3.6215131036739416,5.792829933854072,3.6353131036739414,5.788189933854071C3.6353131036739414,5.788189933854071,3.6353131036739414,5.788189933854071,3.6353131036739414,5.788189933854071ZM3.5851531036739415,10.560349933854072C3.5851531036739415,10.578349933854073,3.5670631036739415,10.573849933854072,3.5532631036739417,10.578349933854073C3.5532631036739417,10.564849933854072,3.5760131036739415,10.569449933854072,3.5851531036739415,10.560349933854072C3.5851531036739415,10.560349933854072,3.5851531036739415,10.560349933854072,3.5851531036739415,10.560349933854072ZM3.5351831036739414,7.812859933854072C3.5396531036739414,7.799129933854072,3.5579331036739417,7.799129933854072,3.5670631036739415,7.794689933854071C3.5670631036739415,7.812859933854072,3.5487931036739417,7.808219933854072,3.5351831036739414,7.812859933854072C3.5351831036739414,7.812859933854072,3.5351831036739414,7.812859933854072,3.5351831036739414,7.812859933854072ZM3.7171731036739417,1.4544799338540717C3.7216431036739417,1.4409399338540716,3.7399231036739415,1.4453899338540717,3.7488631036739415,1.4364999338540716C3.7488631036739415,1.4544799338540717,3.7307831036739416,1.4500299338540716,3.7171731036739417,1.4544799338540717C3.7171731036739417,1.4544799338540717,3.7171731036739417,1.4544799338540717,3.7171731036739417,1.4544799338540717ZM3.7535331036739414,2.032899933854072C3.7488631036739415,2.051069933854072,3.7352531036739416,2.041979933854072,3.7352531036739416,2.032899933854072C3.7399231036739415,2.0149199338540718,3.7535331036739414,2.0239999338540717,3.7535331036739414,2.032899933854072C3.7535331036739414,2.032899933854072,3.7535331036739414,2.032899933854072,3.7535331036739414,2.032899933854072ZM3.767143103673942,10.447249933854073C3.7307831036739416,10.451949933854072,3.7033631036739414,10.447249933854073,3.6852831036739415,10.429249933854072C3.6852831036739415,10.384049933854072,3.7854231036739416,10.388649933854072,3.767143103673942,10.447249933854073C3.767143103673942,10.447249933854073,3.767143103673942,10.447249933854073,3.767143103673942,10.447249933854073ZM3.767143103673942,9.755939933854071C3.826253103673942,9.715349933854071,3.7307831036739416,9.810269933854071,3.767143103673942,9.755939933854071C3.767143103673942,9.755939933854071,3.767143103673942,9.755939933854071,3.767143103673942,9.755939933854071ZM3.9355231036739418,1.8703099338540716C3.9263831036739414,1.8612299338540716,3.9446631036739417,1.8476899338540718,3.9536031036739416,1.8521399338540716C3.9627431036739416,1.8612299338540716,3.9399931036739417,1.8747599338540717,3.9355231036739418,1.8703099338540716C3.9355231036739418,1.8703099338540716,3.9355231036739418,1.8703099338540716,3.9355231036739418,1.8703099338540716ZM3.9854931036739414,6.0006499338540715C3.9763531036739415,6.027719933854072,3.9718831036739415,6.0006499338540715,3.9536031036739416,6.0006499338540715C3.9582731036739416,5.978029933854072,3.9854931036739414,5.982479933854072,3.9854931036739414,6.0006499338540715C3.9854931036739414,6.0006499338540715,3.9854931036739414,6.0006499338540715,3.9854931036739414,6.0006499338540715ZM3.9536031036739416,10.26654993385407C3.9355231036739418,10.275549933854071,3.9219131036739414,10.289149933854072,3.9219131036739414,10.26654993385407C3.9263831036739414,10.244049933854072,3.9536031036739416,10.248549933854072,3.9536031036739416,10.26654993385407C3.9536031036739416,10.26654993385407,3.9536031036739416,10.26654993385407,3.9536031036739416,10.26654993385407ZM3.9854931036739414,10.366049933854072C3.989963103673942,10.411149933854071,3.9763531036739415,10.438349933854072,3.9355231036739418,10.433749933854072C3.9355231036739418,10.40224993385407,3.9127731036739415,10.397549933854071,3.9172431036739415,10.366049933854072C3.9399931036739417,10.366049933854072,3.9627431036739416,10.366049933854072,3.9854931036739414,10.366049933854072C3.9854931036739414,10.366049933854072,3.9854931036739414,10.366049933854072,3.9854931036739414,10.366049933854072ZM3.9991031036739417,10.465449933854071C3.9991031036739417,10.474549933854071,3.9991031036739417,10.488049933854072,3.9991031036739417,10.497149933854072C3.990163103673942,10.497149933854072,3.9763531036739415,10.497149933854072,3.9674131036739415,10.497149933854072C3.9674131036739415,10.488049933854072,3.9674131036739415,10.474549933854071,3.9674131036739415,10.465449933854071C3.9763531036739415,10.465449933854071,3.990163103673942,10.465449933854071,3.9991031036739417,10.465449933854071C3.9991031036739417,10.465449933854071,3.9991031036739417,10.465449933854071,3.9991031036739417,10.465449933854071ZM3.9036331036739416,4.256299933854072C3.9582731036739416,4.215699933854071,3.8626131036739415,4.310619933854071,3.9036331036739416,4.256299933854072C3.9036331036739416,4.256299933854072,3.9036331036739416,4.256299933854072,3.9036331036739416,4.256299933854072ZM3.9036331036739416,10.397549933854071C3.9127731036739415,10.406649933854071,3.8900231036739417,10.420149933854072,3.8853631036739418,10.415749933854071C3.8764131036739418,10.406649933854071,3.8991631036739416,10.393149933854072,3.9036331036739416,10.397549933854071C3.9036331036739416,10.397549933854071,3.9036331036739416,10.397549933854071,3.9036331036739416,10.397549933854071ZM3.8853631036739418,10.497149933854072C3.8944931036739416,10.506049933854072,3.8717431036739414,10.519549933854071,3.8672731036739414,10.515149933854072C3.8581331036739415,10.506049933854072,3.8808831036739417,10.492549933854072,3.8853631036739418,10.497149933854072C3.8853631036739418,10.497149933854072,3.8853631036739418,10.497149933854072,3.8853631036739418,10.497149933854072ZM3.8490031036739416,4.617809933854072C3.8536631036739415,4.599839933854072,3.8672731036739414,4.608729933854072,3.8672731036739414,4.617809933854072C3.8672731036739414,4.635989933854072,3.8536631036739415,4.626899933854071,3.8490031036739416,4.617809933854072C3.8490031036739416,4.617809933854072,3.8490031036739416,4.617809933854072,3.8490031036739416,4.617809933854072ZM4.030993103673942,2.9548499338540717C4.0218531036739416,2.9457699338540717,4.044603103673942,2.932229933854072,4.049263103673941,2.9366799338540717C4.058213103673942,2.9457699338540717,4.040133103673941,2.9592999338540715,4.030993103673942,2.9548499338540717C4.030993103673942,2.9548499338540717,4.030993103673942,2.9548499338540717,4.030993103673942,2.9548499338540717ZM4.067353103673941,8.391279933854072C4.076493103673942,8.400169933854071,4.053743103673941,8.409259933854072,4.049263103673941,8.409259933854072C4.040133103673941,8.400169933854071,4.062873103673941,8.386639933854072,4.067353103673941,8.391279933854072C4.067353103673941,8.391279933854072,4.067353103673941,8.391279933854072,4.067353103673941,8.391279933854072ZM4.0354631036739415,10.429249933854072C4.044603103673942,10.438349933854072,4.0218531036739416,10.451949933854072,4.017383103673942,10.447249933854073C4.008243103673942,10.438349933854072,4.030993103673942,10.429249933854072,4.0354631036739415,10.429249933854072C4.0354631036739415,10.429249933854072,4.0354631036739415,10.429249933854072,4.0354631036739415,10.429249933854072ZM4.167483103673941,10.384049933854072C4.167483103673941,10.429249933854072,4.067353103673941,10.424849933854071,4.085623103673941,10.366049933854072C4.121983103673942,10.361449933854072,4.149203103673941,10.370549933854072,4.167483103673941,10.384049933854072C4.167483103673941,10.384049933854072,4.167483103673941,10.384049933854072,4.167483103673941,10.384049933854072ZM4.167483103673941,10.26654993385407C4.176623103673942,10.275549933854071,4.153873103673941,10.289149933854072,4.149203103673941,10.284649933854071C4.1402631036739415,10.275549933854071,4.163013103673942,10.262049933854072,4.167483103673941,10.26654993385407C4.167483103673941,10.26654993385407,4.167483103673941,10.26654993385407,4.167483103673941,10.26654993385407ZM4.185763103673942,1.1111399338540717C4.185763103673942,1.1020499338540717,4.185763103673942,1.0885199338540716,4.185763103673942,1.0794299338540716C4.217453103673941,1.0703399338540718,4.217453103673941,1.1020499338540717,4.217453103673941,1.1291099338540718C4.203843103673941,1.1246699338540718,4.203843103673941,1.1111399338540717,4.185763103673942,1.1111399338540717C4.185763103673942,1.1111399338540717,4.185763103673942,1.1111399338540717,4.185763103673942,1.1111399338540717ZM4.217453103673941,9.923169933854071C4.217453103673941,9.932249933854072,4.217453103673941,9.945789933854071,4.217453103673941,9.954869933854072C4.208513103673941,9.954869933854072,4.194703103673942,9.954869933854072,4.185763103673942,9.954869933854072C4.185763103673942,9.945789933854071,4.185763103673942,9.932249933854072,4.185763103673942,9.923169933854071C4.194703103673942,9.923169933854071,4.208513103673941,9.923169933854071,4.217453103673941,9.923169933854071C4.217453103673941,9.923169933854071,4.217453103673941,9.923169933854071,4.217453103673941,9.923169933854071ZM4.262953103673942,4.423529933854072C4.262953103673942,4.400909933854072,4.262953103673942,4.378289933854072,4.262953103673942,4.355669933854072C4.299503103673942,4.351219933854072,4.3084531036739415,4.3691999338540715,4.331203103673942,4.373839933854072C4.317593103673942,4.3964599338540715,4.3084531036739415,4.423529933854072,4.262953103673942,4.423529933854072C4.262953103673942,4.423529933854072,4.262953103673942,4.423529933854072,4.262953103673942,4.423529933854072ZM4.349473103673942,6.213109933854072C4.349473103673942,6.231089933854071,4.331203103673942,6.2266499338540715,4.317593103673942,6.231089933854071C4.317593103673942,6.217559933854072,4.335863103673941,6.222009933854071,4.349473103673942,6.213109933854072C4.349473103673942,6.213109933854072,4.349473103673942,6.213109933854072,4.349473103673942,6.213109933854072ZM4.367563103673942,4.373839933854072C4.4221931036739415,4.333049933854071,4.326723103673942,4.4279699338540714,4.367563103673942,4.373839933854072C4.367563103673942,4.373839933854072,4.367563103673942,4.373839933854072,4.367563103673942,4.373839933854072ZM4.417723103673942,5.359009933854072C4.4221931036739415,5.3679099338540714,4.404113103673941,5.381629933854072,4.399443103673941,5.376989933854071C4.390303103673942,5.3679099338540714,4.413053103673942,5.354369933854072,4.417723103673942,5.359009933854072C4.417723103673942,5.359009933854072,4.417723103673942,5.359009933854072,4.417723103673942,5.359009933854072ZM4.413053103673942,4.717179933854072C4.417723103673942,4.6991999338540715,4.431333103673942,4.708289933854072,4.431333103673942,4.717179933854072C4.431333103673942,4.735349933854072,4.417723103673942,4.726269933854072,4.413053103673942,4.717179933854072C4.413053103673942,4.717179933854072,4.413053103673942,4.717179933854072,4.413053103673942,4.717179933854072ZM4.649683103673942,2.7423899338540716C4.704323103673942,2.7920799338540716,4.699653103673942,2.679179933854072,4.649683103673942,2.7423899338540716C4.649683103673942,2.7423899338540716,4.649683103673942,2.7423899338540716,4.649683103673942,2.7423899338540716ZM4.681573103673942,10.397549933854071C4.672433103673941,10.424849933854071,4.667963103673942,10.397549933854071,4.649683103673942,10.397549933854071C4.654153103673941,10.374949933854072,4.681573103673942,10.379649933854072,4.681573103673942,10.397549933854071C4.681573103673942,10.397549933854071,4.681573103673942,10.397549933854071,4.681573103673942,10.397549933854071ZM4.649683103673942,1.7709499338540717C4.6405431036739415,1.7709499338540717,4.626933103673942,1.7709499338540717,4.617793103673941,1.7709499338540717C4.617793103673941,1.7572199338540717,4.608853103673941,1.7527699338540716,4.599713103673942,1.7527699338540716C4.5905731036739414,1.7210699338540718,4.672433103673941,1.7301499338540718,4.649683103673942,1.7709499338540717C4.649683103673942,1.7709499338540717,4.649683103673942,1.7709499338540717,4.649683103673942,1.7709499338540717ZM4.613323103673942,6.461529933854072C4.599713103673942,6.4706199338540715,4.586103103673942,6.4796999338540715,4.581433103673942,6.461529933854072C4.586103103673942,6.443549933854071,4.613323103673942,6.447999933854072,4.613323103673942,6.461529933854072C4.613323103673942,6.461529933854072,4.613323103673942,6.461529933854072,4.613323103673942,6.461529933854072ZM4.713463103673941,7.699759933854072C4.708793103673941,7.672699933854072,4.731543103673942,7.672699933854072,4.731543103673942,7.650079933854072C4.7634331036739415,7.659169933854072,4.767903103673942,7.672699933854072,4.745153103673942,7.699759933854072C4.736213103673942,7.699759933854072,4.722403103673941,7.699759933854072,4.713463103673941,7.699759933854072C4.713463103673941,7.699759933854072,4.713463103673941,7.699759933854072,4.713463103673941,7.699759933854072ZM4.963703103673941,8.721089933854072C4.963703103673941,8.703109933854071,4.9817831036739415,8.707549933854072,4.995393103673941,8.703109933854071C4.995393103673941,8.721089933854072,4.977313103673942,8.716639933854072,4.963703103673941,8.721089933854072C4.963703103673941,8.721089933854072,4.963703103673941,8.721089933854072,4.963703103673941,8.721089933854072ZM5.209273103673942,2.990999933854072C5.2001331036739415,2.981919933854072,5.222883103673942,2.9683899338540716,5.227543103673941,2.972829933854072C5.236493103673942,2.981919933854072,5.218413103673941,2.990999933854072,5.209273103673942,2.990999933854072C5.209273103673942,2.990999933854072,5.209273103673942,2.990999933854072,5.209273103673942,2.990999933854072ZM5.245633103673941,8.404809933854072C5.241153103673941,8.427429933854071,5.227543103673941,8.413699933854073,5.227543103673941,8.404809933854072C5.232023103673941,8.386639933854072,5.245633103673941,8.395729933854073,5.245633103673941,8.404809933854072C5.245633103673941,8.404809933854072,5.245633103673941,8.404809933854072,5.245633103673941,8.404809933854072ZM5.527753103673942,9.426129933854071C5.5368931036739415,9.435029933854072,5.514143103673941,9.448559933854071,5.509483103673942,9.444109933854072C5.500343103673941,9.435029933854072,5.523093103673942,9.421499933854072,5.527753103673942,9.426129933854071C5.527753103673942,9.426129933854071,5.527753103673942,9.426129933854071,5.527753103673942,9.426129933854071ZM5.659583103673942,0.9122069338540717C5.668723103673941,0.9212929338540717,5.645973103673942,0.9348249338540717,5.641503103673942,0.9303789338540717C5.632363103673941,0.9212929338540717,5.6551131036739415,0.9077599338540717,5.659583103673942,0.9122069338540717C5.659583103673942,0.9122069338540717,5.659583103673942,0.9122069338540717,5.659583103673942,0.9122069338540717ZM5.645973103673942,1.9967499338540717C5.6551131036739415,2.0058299338540717,5.632363103673941,2.0193699338540716,5.627693103673941,2.0149199338540718C5.618753103673941,2.0058299338540717,5.636833103673942,1.9967499338540717,5.645973103673942,1.9967499338540717C5.645973103673942,1.9967499338540717,5.645973103673942,1.9967499338540717,5.645973103673942,1.9967499338540717ZM5.645973103673942,6.579069933854072C5.6551131036739415,6.5881599338540715,5.632363103673941,6.601689933854072,5.627693103673941,6.597249933854072C5.618753103673941,6.5881599338540715,5.636833103673942,6.574629933854072,5.645973103673942,6.579069933854072C5.645973103673942,6.579069933854072,5.645973103673942,6.579069933854072,5.645973103673942,6.579069933854072ZM5.509483103673942,8.409259933854072C5.523093103673942,8.409259933854072,5.527753103673942,8.400169933854071,5.527753103673942,8.391279933854072C5.559643103673942,8.382189933854072,5.550503103673941,8.463579933854072,5.509483103673942,8.44095993385407C5.509483103673942,8.431879933854072,5.509483103673942,8.418339933854071,5.509483103673942,8.409259933854072C5.509483103673942,8.409259933854072,5.509483103673942,8.409259933854072,5.509483103673942,8.409259933854072ZM5.509483103673942,9.032919933854071C5.454843103673942,9.046449933854072,5.459513103673942,9.005849933854071,5.427623103673942,8.996759933854072C5.427623103673942,8.960609933854071,5.468643103673942,8.960609933854071,5.509483103673942,8.965059933854072C5.509483103673942,8.987679933854071,5.509483103673942,9.010299933854071,5.509483103673942,9.032919933854071C5.509483103673942,9.032919933854071,5.509483103673942,9.032919933854071,5.509483103673942,9.032919933854071ZM5.477593103673941,8.142669933854071C5.5322231036739415,8.102069933854072,5.436763103673941,8.196799933854072,5.477593103673941,8.142669933854071C5.477593103673941,8.142669933854071,5.477593103673941,8.142669933854071,5.477593103673941,8.142669933854071ZM5.477593103673941,0.4693039338540717C5.4867331036739415,0.4783909338540717,5.463983103673941,0.4874769338540717,5.459513103673942,0.4874769338540717C5.450373103673941,0.4783909338540717,5.473123103673942,0.4648579338540717,5.477593103673941,0.4693039338540717C5.477593103673941,0.4693039338540717,5.477593103673941,0.4693039338540717,5.477593103673941,0.4693039338540717ZM5.445903103673942,5.047179933854071C5.445903103673942,5.092419933854072,5.395733103673941,5.101309933854072,5.377653103673942,5.078699933854072C5.382123103673941,5.0516299338540716,5.409343103673941,5.042539933854072,5.445903103673942,5.047179933854071C5.445903103673942,5.047179933854071,5.445903103673942,5.047179933854071,5.445903103673942,5.047179933854071ZM5.409343103673941,6.217559933854072C5.409343103673941,6.231089933854071,5.391263103673942,6.231089933854071,5.377653103673942,6.2357299338540715C5.377653103673942,6.217559933854072,5.395733103673941,6.222009933854071,5.409343103673941,6.217559933854072C5.409343103673941,6.217559933854072,5.409343103673941,6.217559933854072,5.409343103673941,6.217559933854072ZM5.327483103673941,4.6991999338540715C5.327483103673941,4.685669933854071,5.345763103673941,4.6901199338540716,5.359373103673941,4.681029933854072C5.359373103673941,4.6991999338540715,5.341093103673941,4.694559933854071,5.327483103673941,4.6991999338540715C5.327483103673941,4.6991999338540715,5.327483103673941,4.6991999338540715,5.327483103673941,4.6991999338540715ZM5.341093103673941,4.617809933854072C5.336623103673942,4.6404299338540715,5.309403103673942,4.635989933854072,5.309403103673942,4.617809933854072C5.3183531036739415,4.595199933854071,5.327483103673941,4.622259933854072,5.341093103673941,4.617809933854072C5.341093103673941,4.617809933854072,5.341093103673941,4.617809933854072,5.341093103673941,4.617809933854072ZM5.190993103673941,2.8599299338540716C5.236493103673942,2.8463999338540718,5.227543103673941,2.891639933854072,5.259243103673942,2.891639933854072C5.2502931036739415,2.9277899338540716,5.177383103673941,2.8960799338540717,5.190993103673941,2.8599299338540716C5.190993103673941,2.8599299338540716,5.190993103673941,2.8599299338540716,5.190993103673941,2.8599299338540716ZM5.1454931036739415,3.4339099338540717C5.141023103673942,3.451889933854072,5.113803103673941,3.4474399338540715,5.113803103673941,3.4339099338540717C5.118273103673942,3.411289933854072,5.127413103673941,3.4339099338540717,5.1454931036739415,3.4339099338540717C5.1454931036739415,3.4339099338540717,5.1454931036739415,3.4339099338540717,5.1454931036739415,3.4339099338540717ZM5.0955231036739415,5.309329933854071C5.172913103673942,5.322859933854072,5.081913103673942,5.408699933854072,5.0955231036739415,5.309329933854071C5.0955231036739415,5.309329933854071,5.0955231036739415,5.309329933854071,5.0955231036739415,5.309329933854071ZM4.995393103673941,1.8656699338540716C4.995393103673941,1.8567799338540718,4.995393103673941,1.8432499338540718,4.995393103673941,1.8341599338540717C5.027283103673941,1.8295199338540717,5.050023103673942,1.8386099338540718,5.045553103673941,1.8656699338540716C5.027283103673941,1.8656699338540716,5.013663103673942,1.8656699338540716,4.995393103673941,1.8656699338540716C4.995393103673941,1.8656699338540716,4.995393103673941,1.8656699338540716,4.995393103673941,1.8656699338540716ZM3.2894131036739416,0.8308179338540717C3.2849431036739416,0.8489899338540717,3.2713331036739417,0.8399039338540717,3.2713331036739417,0.8308179338540717C3.2758031036739417,0.8128389338540717,3.2894131036739416,0.8219249338540717,3.2894131036739416,0.8308179338540717C3.2894131036739416,0.8308179338540717,3.2894131036739416,0.8308179338540717,3.2894131036739416,0.8308179338540717ZM2.3250131036739417,8.174369933854072C2.3841231036739416,8.224059933854072,2.3749831036739417,8.115599933854071,2.3250131036739417,8.174369933854072C2.3250131036739417,8.174369933854072,2.3250131036739417,8.174369933854072,2.3250131036739417,8.174369933854072ZM2.411533103673942,7.794689933854071C2.4387531036739416,7.790239933854072,2.4387531036739416,7.812859933854072,2.4615031036739414,7.812859933854072C2.4659831036739415,7.844369933854072,2.3841231036739416,7.8399199338540715,2.411533103673942,7.794689933854071C2.411533103673942,7.794689933854071,2.411533103673942,7.794689933854071,2.411533103673942,7.794689933854071ZM2.4933931036739416,7.7811499338540715C2.4978631036739416,7.758529933854072,2.5252831036739414,7.762979933854072,2.5252831036739414,7.7811499338540715C2.5206131036739414,7.803769933854071,2.5114731036739415,7.7811499338540715,2.4933931036739416,7.7811499338540715C2.4933931036739416,7.7811499338540715,2.4933931036739416,7.7811499338540715,2.4933931036739416,7.7811499338540715ZM2.5752531036739414,7.600399933854072C2.5661131036739415,7.591309933854071,2.588863103673942,7.577779933854072,2.5935231036739417,7.582219933854072C2.6024731036739417,7.591309933854071,2.5797231036739414,7.6048399338540715,2.5752531036739414,7.600399933854072C2.5752531036739414,7.600399933854072,2.5752531036739414,7.600399933854072,2.5752531036739414,7.600399933854072ZM2.6571131036739417,8.49064993385407C2.647973103673942,8.481559933854072,2.6707231036739416,8.468029933854071,2.6753831036739415,8.472469933854072C2.6845231036739414,8.481559933854072,2.6617731036739416,8.495089933854072,2.6571131036739417,8.49064993385407C2.6571131036739417,8.49064993385407,2.6571131036739417,8.49064993385407,2.6571131036739417,8.49064993385407ZM2.6617731036739416,3.4157299338540716C2.6662431036739416,3.393119933854072,2.6934631036739414,3.3977599338540716,2.6934631036739414,3.4157299338540716C2.6753831036739415,3.4248199338540717,2.6617731036739416,3.4383499338540715,2.6617731036739416,3.4157299338540716C2.6617731036739416,3.4157299338540716,2.6617731036739416,3.4157299338540716,2.6617731036739416,3.4157299338540716ZM2.7389631036739415,5.160079933854072C2.7298231036739415,5.160079933854072,2.7162131036739416,5.160079933854072,2.707083103673942,5.160079933854072C2.707083103673942,5.150999933854072,2.707083103673942,5.137469933854072,2.707083103673942,5.128569933854072C2.7208831036739416,5.128569933854072,2.7298231036739415,5.128569933854072,2.7389631036739415,5.128569933854072C2.7389631036739415,5.137469933854072,2.7389631036739415,5.150999933854072,2.7389631036739415,5.160079933854072C2.7389631036739415,5.160079933854072,2.7389631036739415,5.160079933854072,2.7389631036739415,5.160079933854072ZM2.7753231036739416,5.146549933854072C2.7753231036739416,5.128569933854072,2.7891331036739415,5.137469933854072,2.7936031036739415,5.146549933854072C2.7891331036739415,5.164719933854072,2.7753231036739416,5.155639933854071,2.7753231036739416,5.146549933854072C2.7753231036739416,5.146549933854072,2.7753231036739416,5.146549933854072,2.7753231036739416,5.146549933854072ZM2.8573731036739414,8.355129933854071C2.8618531036739414,8.336949933854072,2.8890731036739417,8.341399933854072,2.8890731036739417,8.355129933854071C2.8754631036739418,8.364019933854072,2.8618531036739414,8.37310993385407,2.8573731036739414,8.355129933854071C2.8573731036739414,8.355129933854071,2.8573731036739414,8.355129933854071,2.8573731036739414,8.355129933854071ZM2.9073431036739414,9.281529933854072C2.9073431036739414,9.26335993385407,2.9256231036739417,9.267799933854072,2.9392331036739416,9.26335993385407C2.9392331036739416,9.276889933854072,2.920953103673942,9.276889933854072,2.9073431036739414,9.281529933854072C2.9073431036739414,9.281529933854072,2.9073431036739414,9.281529933854072,2.9073431036739414,9.281529933854072ZM2.9256231036739417,8.635249933854071C2.8890731036739417,8.630809933854072,2.920953103673942,8.55849993385407,2.9573131036739415,8.567399933854071C2.975593103673942,8.621719933854072,2.9345631036739417,8.60818993385407,2.9256231036739417,8.635249933854071C2.9256231036739417,8.635249933854071,2.9256231036739417,8.635249933854071,2.9256231036739417,8.635249933854071ZM2.8663231036739414,1.1064999338540717C2.8663231036739414,1.1064999338540717,3.2666631036739417,0.8851409338540717,3.2666631036739417,0.8851409338540717C3.7807531036739417,0.6726799338540717,4.326723103673942,0.3428709338540717,5.040893103673942,0.4604119338540717C4.963703103673941,0.4739439338540717,4.990923103673942,0.4648579338540717,4.909063103673941,0.5054559338540717C4.899923103673942,0.5054559338540717,4.890783103673941,0.5100959338540717,4.881643103673942,0.5145419338540717C4.394973103673942,0.7134709338540717,4.112843103673941,0.6999379338540717,3.7352531036739416,0.8172849338540717C3.7399231036739415,0.8263709338540717,3.7216431036739417,0.8354569338540717,3.7171731036739417,0.8308179338540717C3.7125031036739418,0.8263709338540717,3.7125031036739418,0.8263709338540717,3.7171731036739417,0.8219249338540717C3.6170331036739416,0.8534359338540717,3.5124331036739416,0.8942279338540717,3.3940231036739417,0.9483579338540717C3.2166931036739417,1.0297499338540717,3.2804731036739416,0.9483579338540717,2.9938731036739417,1.0838799338540717C2.9938731036739417,1.0838799338540717,2.8663231036739414,1.1064999338540717,2.8663231036739414,1.1064999338540717C2.8663231036739414,1.1064999338540717,2.8663231036739414,1.1064999338540717,2.8663231036739414,1.1064999338540717ZM3.3895431036739416,2.051069933854072C3.3804131036739418,2.0736899338540717,3.3712731036739414,2.0464299338540717,3.3576631036739415,2.051069933854072C3.3623231036739414,2.0284499338540716,3.3895431036739416,2.032899933854072,3.3895431036739416,2.051069933854072C3.3895431036739416,2.051069933854072,3.3895431036739416,2.051069933854072,3.3895431036739416,2.051069933854072ZM3.3213031036739418,2.001389933854072C3.3213031036739418,1.9832099338540716,3.3395731036739416,1.9878499338540716,3.3531831036739415,1.9832099338540716C3.3531831036739415,2.001389933854072,3.3349131036739417,1.9967499338540717,3.3213031036739418,2.001389933854072C3.3213031036739418,2.001389933854072,3.3213031036739418,2.001389933854072,3.3213031036739418,2.001389933854072ZM3.3032131036739414,9.195499933854071C3.3759331036739417,9.204589933854072,3.2894131036739416,9.295059933854072,3.3032131036739414,9.195499933854071C3.3032131036739414,9.195499933854071,3.3032131036739414,9.195499933854071,3.3032131036739414,9.195499933854071ZM3.039173103673942,2.873459933854072C3.039173103673942,2.8869999338540717,3.0210931036739415,2.8869999338540717,3.0074831036739416,2.891639933854072C3.0074831036739416,2.873459933854072,3.0255631036739414,2.8780999338540716,3.039173103673942,2.873459933854072C3.039173103673942,2.873459933854072,3.039173103673942,2.873459933854072,3.039173103673942,2.873459933854072ZM3.039173103673942,6.380339933854072C2.9847331036739417,6.3621599338540715,3.0574531036739416,6.335099933854072,3.0893431036739414,6.348629933854071C3.0846731036739414,6.371249933854072,3.039173103673942,6.3530799338540715,3.039173103673942,6.380339933854072C3.039173103673942,6.380339933854072,3.039173103673942,6.380339933854072,3.039173103673942,6.380339933854072ZM3.1029531036739417,4.355669933854072C3.1074231036739417,4.3376899338540715,3.1212231036739415,4.346779933854072,3.1212231036739415,4.355669933854072C3.1212231036739415,4.373839933854072,3.1074231036739417,4.364759933854072,3.1029531036739417,4.355669933854072C3.1029531036739417,4.355669933854072,3.1029531036739417,4.355669933854072,3.1029531036739417,4.355669933854072ZM3.1212231036739415,7.912229933854071C3.1257031036739416,7.894049933854071,3.1393131036739415,7.903139933854072,3.1393131036739415,7.912229933854071C3.1348331036739414,7.930199933854071,3.1212231036739415,7.921309933854071,3.1212231036739415,7.912229933854071C3.1212231036739415,7.912229933854071,3.1212231036739415,7.912229933854071,3.1212231036739415,7.912229933854071ZM3.1393131036739415,5.557749933854072C3.1484431036739418,5.557749933854072,3.1620531036739417,5.557749933854072,3.1711931036739416,5.557749933854072C3.1711931036739416,5.566839933854071,3.1711931036739416,5.5803699338540715,3.1711931036739416,5.5894499338540715C3.1620531036739417,5.5894499338540715,3.1484431036739418,5.5894499338540715,3.1393131036739415,5.5894499338540715C3.1393131036739415,5.5803699338540715,3.1393131036739415,5.566839933854071,3.1393131036739415,5.557749933854072C3.1393131036739415,5.557749933854072,3.1393131036739415,5.557749933854072,3.1393131036739415,5.557749933854072ZM3.1711931036739416,9.163989933854072C3.1620531036739417,9.154899933854072,3.1848031036739415,9.141369933854072,3.1894731036739414,9.14581993385407C3.1984131036739414,9.154899933854072,3.1756731036739416,9.168439933854073,3.1711931036739416,9.163989933854072C3.1711931036739416,9.163989933854072,3.1711931036739416,9.163989933854072,3.1711931036739416,9.163989933854072ZM7.684043103673941,5.277619933854072C7.688523103673941,5.255009933854072,7.715933103673942,5.2594499338540714,7.715933103673942,5.277619933854072C7.706793103673942,5.300239933854072,7.702323103673941,5.277619933854072,7.684043103673941,5.277619933854072C7.684043103673941,5.277619933854072,7.684043103673941,5.277619933854072,7.684043103673941,5.277619933854072ZM7.797793103673942,5.987119933854071C7.806933103673941,5.996199933854072,7.784183103673942,6.005099933854072,7.779513103673942,6.005099933854072C7.770573103673941,5.996199933854072,7.793323103673941,5.982479933854072,7.797793103673942,5.987119933854071C7.797793103673942,5.987119933854071,7.797793103673942,5.987119933854071,7.797793103673942,5.987119933854071ZM7.811403103673942,8.983229933854071C7.802263103673941,8.983229933854071,7.7886531036739415,8.983229933854071,7.779513103673942,8.983229933854071C7.779513103673942,8.965059933854072,7.779513103673942,8.951529933854072,7.779513103673942,8.933549933854072C7.797793103673942,8.933549933854072,7.811403103673942,8.933549933854072,7.829683103673942,8.933549933854072C7.834153103673942,8.960609933854071,7.816073103673942,8.960609933854071,7.811403103673942,8.983229933854071C7.811403103673942,8.983229933854071,7.811403103673942,8.983229933854071,7.811403103673942,8.983229933854071ZM7.847763103673942,5.408699933854072C7.856903103673941,5.444849933854072,7.834153103673942,5.453929933854072,7.829683103673942,5.476359933854072C7.784183103673942,5.4719099338540715,7.793323103673941,5.395159933854072,7.847763103673942,5.408699933854072C7.847763103673942,5.408699933854072,7.847763103673942,5.408699933854072,7.847763103673942,5.408699933854072ZM7.847763103673942,9.032919933854071C7.8388131036739415,9.023829933854072,7.861563103673942,9.010299933854071,7.866043103673942,9.014739933854072C7.870513103673941,9.023829933854072,7.852433103673942,9.037359933854072,7.847763103673942,9.032919933854071C7.847763103673942,9.032919933854071,7.847763103673942,9.032919933854071,7.847763103673942,9.032919933854071ZM7.861563103673942,6.149699933854071C7.866043103673942,6.131719933854072,7.879653103673942,6.140809933854071,7.879653103673942,6.149699933854071C7.879653103673942,6.1678799338540715,7.866043103673942,6.158789933854072,7.861563103673942,6.149699933854071C7.861563103673942,6.149699933854071,7.861563103673942,6.149699933854071,7.861563103673942,6.149699933854071ZM7.811403103673942,1.4861799338540718C7.834153103673942,1.5132499338540717,7.884313103673942,1.5087999338540716,7.879653103673942,1.5538399338540716C7.8432931036739415,1.5946399338540718,7.797793103673942,1.5538399338540716,7.811403103673942,1.4861799338540718C7.811403103673942,1.4861799338540718,7.811403103673942,1.4861799338540718,7.811403103673942,1.4861799338540718ZM7.997863103673941,2.1142899338540717C7.988923103673941,2.141349933854072,7.984253103673941,2.1142899338540717,7.966173103673942,2.1142899338540717C7.970643103673941,2.091669933854072,7.997863103673941,2.0963099338540716,7.997863103673941,2.1142899338540717C7.997863103673941,2.1142899338540717,7.997863103673941,2.1142899338540717,7.997863103673941,2.1142899338540717ZM7.911533103673942,4.107249933854072C7.916013103673942,4.089079933854071,7.929623103673942,4.098159933854071,7.929623103673942,4.107249933854072C7.925143103673942,4.125229933854071,7.916013103673942,4.116139933854072,7.911533103673942,4.107249933854072C7.911533103673942,4.107249933854072,7.911533103673942,4.107249933854072,7.911533103673942,4.107249933854072ZM7.947893103673942,8.391279933854072C7.952373103673942,8.368659933854072,7.979783103673942,8.37310993385407,7.979783103673942,8.391279933854072C7.975113103673942,8.413699933854073,7.966173103673942,8.386639933854072,7.947893103673942,8.391279933854072C7.947893103673942,8.391279933854072,7.947893103673942,8.391279933854072,7.947893103673942,8.391279933854072ZM7.993393103673942,6.199389933854071C7.984253103673941,6.199389933854071,7.970643103673941,6.199389933854071,7.961503103673942,6.199389933854071C7.966173103673942,6.185849933854072,7.9570331036739415,6.185849933854072,7.9434231036739416,6.181409933854072C7.938753103673942,6.149699933854071,8.020613103673941,6.158789933854072,7.993393103673942,6.199389933854071C7.993393103673942,6.199389933854071,7.993393103673942,6.199389933854071,7.993393103673942,6.199389933854071ZM8.04803310367394,7.351779933854072C8.107143103673941,7.401469933854072,7.997863103673941,7.406109933854072,8.04803310367394,7.351779933854072C8.04803310367394,7.351779933854072,8.04803310367394,7.351779933854072,8.04803310367394,7.351779933854072ZM8.011673103673942,5.557749933854072C8.052503103673942,5.566839933854071,8.070783103673943,5.5894499338540715,8.079923103673941,5.625609933854071C8.057173103673943,5.602989933854071,8.007003103673942,5.607429933854072,8.011673103673942,5.557749933854072C8.011673103673942,5.557749933854072,8.011673103673942,5.557749933854072,8.011673103673942,5.557749933854072ZM8.179853103673942,1.4861799338540718C8.18899310367394,1.4952699338540718,8.166243103673942,1.5087999338540716,8.16177310367394,1.5041599338540717C8.152633103673942,1.4997099338540718,8.17538310367394,1.4861799338540718,8.179853103673942,1.4861799338540718C8.179853103673942,1.4861799338540718,8.179853103673942,1.4861799338540718,8.179853103673942,1.4861799338540718ZM8.111613103673943,6.312479933854072C8.111613103673943,6.267239933854071,8.16177310367394,6.258159933854071,8.179853103673942,6.280779933854071C8.17538310367394,6.312479933854072,8.152633103673942,6.321569933854072,8.111613103673943,6.312479933854072C8.111613103673943,6.312479933854072,8.111613103673943,6.312479933854072,8.111613103673943,6.312479933854072ZM8.193663103673941,9.525499933854071C8.198133103673943,9.511969933854072,8.21641310367394,9.511969933854072,8.225353103673942,9.507329933854072C8.225353103673942,9.525499933854071,8.207273103673941,9.520859933854071,8.193663103673941,9.525499933854071C8.193663103673941,9.525499933854071,8.193663103673941,9.525499933854071,8.193663103673941,9.525499933854071ZM8.17538310367394,6.561089933854071C8.207273103673941,6.561089933854071,8.211743103673943,6.583519933854071,8.243633103673943,6.579069933854072C8.252773103673942,6.606139933854072,8.152633103673942,6.606139933854072,8.17538310367394,6.561089933854071C8.17538310367394,6.561089933854071,8.17538310367394,6.561089933854071,8.17538310367394,6.561089933854071ZM8.26171310367394,3.813399933854072C8.252773103673942,3.804309933854072,8.27552310367394,3.7907799338540715,8.279993103673942,3.7954199338540717C8.28913310367394,3.804309933854072,8.266383103673942,3.8180399338540716,8.26171310367394,3.813399933854072C8.26171310367394,3.813399933854072,8.26171310367394,3.813399933854072,8.26171310367394,3.813399933854072ZM8.293603103673941,3.167309933854072C8.298273103673942,3.1491399338540718,8.311883103673942,3.158229933854072,8.311883103673942,3.167309933854072C8.307213103673941,3.1897399338540717,8.293603103673941,3.1808499338540717,8.293603103673941,3.167309933854072C8.293603103673941,3.167309933854072,8.293603103673941,3.167309933854072,8.293603103673941,3.167309933854072ZM8.293603103673941,2.4939699338540717C8.284463103673943,2.4848899338540718,8.307213103673941,2.471349933854072,8.311883103673942,2.4757999338540717C8.321013103673941,2.4848899338540718,8.298273103673942,2.4984199338540716,8.293603103673941,2.4939699338540717C8.293603103673941,2.4939699338540717,8.293603103673941,2.4939699338540717,8.293603103673941,2.4939699338540717ZM8.43009310367394,7.613929933854072C8.43009310367394,7.5959499338540715,8.44370310367394,7.6048399338540715,8.44837310367394,7.613929933854072C8.44370310367394,7.632099933854072,8.43009310367394,7.623009933854072,8.43009310367394,7.613929933854072C8.43009310367394,7.613929933854072,8.43009310367394,7.613929933854072,8.43009310367394,7.613929933854072ZM8.57573310367394,5.2279399338540715C8.566593103673942,5.218849933854072,8.58934310367394,5.205319933854072,8.593813103673941,5.209769933854072C8.60295310367394,5.218849933854072,8.580203103673941,5.232389933854072,8.57573310367394,5.2279399338540715C8.57573310367394,5.2279399338540715,8.57573310367394,5.2279399338540715,8.57573310367394,5.2279399338540715ZM8.557453103673943,4.965799933854072C8.571063103673943,4.916109933854072,8.593813103673941,4.979329933854071,8.625703103673942,4.965799933854072C8.612083103673942,5.019929933854072,8.58934310367394,4.979329933854071,8.557453103673943,4.965799933854072C8.557453103673943,4.965799933854072,8.557453103673943,4.965799933854072,8.557453103673943,4.965799933854072ZM8.607613103673941,1.8521399338540716C8.598473103673943,1.8432499338540718,8.621223103673941,1.8295199338540717,8.625703103673942,1.8341599338540717C8.634833103673941,1.8432499338540718,8.61656310367394,1.8567799338540718,8.607613103673941,1.8521399338540716C8.607613103673941,1.8521399338540716,8.607613103673941,1.8521399338540716,8.607613103673941,1.8521399338540716ZM8.67586310367394,5.128569933854072C8.666723103673942,5.119489933854072,8.68947310367394,5.1103999338540715,8.693943103673941,5.1103999338540715C8.70308310367394,5.119489933854072,8.680333103673942,5.133019933854071,8.67586310367394,5.128569933854072C8.67586310367394,5.128569933854072,8.67586310367394,5.128569933854072,8.67586310367394,5.128569933854072ZM8.725833103673942,5.376989933854071C8.730303103673943,5.354369933854072,8.757723103673943,5.359009933854072,8.757723103673943,5.376989933854071C8.744113103673943,5.386079933854072,8.730303103673943,5.395159933854072,8.725833103673942,5.376989933854071C8.725833103673942,5.376989933854071,8.725833103673942,5.376989933854071,8.725833103673942,5.376989933854071ZM8.794083103673941,3.763719933854072C8.77580310367394,3.763719933854072,8.76219310367394,3.763719933854072,8.744113103673943,3.763719933854072C8.739443103673942,3.7366499338540717,8.757723103673943,3.7320099338540715,8.76219310367394,3.714029933854072C8.771333103673943,3.714029933854072,8.784943103673942,3.714029933854072,8.794083103673941,3.714029933854072C8.794083103673941,3.7320099338540715,8.794083103673941,3.745739933854072,8.794083103673941,3.763719933854072C8.794083103673941,3.763719933854072,8.794083103673941,3.763719933854072,8.794083103673941,3.763719933854072ZM8.77580310367394,1.7844799338540718C8.780473103673941,1.7663099338540718,8.82130310367394,1.7709499338540717,8.825963103673942,1.7844799338540718C8.839573103673942,1.8206299338540717,8.766863103673941,1.8250799338540717,8.77580310367394,1.7844799338540718C8.77580310367394,1.7844799338540718,8.77580310367394,1.7844799338540718,8.77580310367394,1.7844799338540718ZM8.825963103673942,5.539769933854072C8.86232310367394,5.535129933854072,8.880413103673941,5.553299933854071,8.87593310367394,5.5894499338540715C8.839573103673942,5.593899933854072,8.82130310367394,5.575919933854072,8.825963103673942,5.539769933854072C8.825963103673942,5.539769933854072,8.825963103673942,5.539769933854072,8.825963103673942,5.539769933854072ZM8.894213103673941,2.100749933854072C8.885073103673943,2.091669933854072,8.90316310367394,2.0781399338540716,8.912293103673942,2.082579933854072C8.921433103673941,2.091669933854072,8.898683103673942,2.1051999338540717,8.894213103673941,2.100749933854072C8.894213103673941,2.100749933854072,8.894213103673941,2.100749933854072,8.894213103673941,2.100749933854072ZM8.907823103673941,5.657119933854072C8.944183103673943,5.6482199338540715,8.930573103673943,5.688819933854072,8.957793103673943,5.688819933854072C8.953323103673942,5.7294199338540714,8.880413103673941,5.702349933854071,8.907823103673941,5.657119933854072C8.907823103673941,5.657119933854072,8.907823103673941,5.657119933854072,8.907823103673941,5.657119933854072ZM9.02157310367394,6.348629933854071C9.026043103673942,6.330459933854072,9.039653103673942,6.339549933854071,9.039653103673942,6.348629933854071C9.039653103673942,6.366609933854072,9.026043103673942,6.357719933854072,9.02157310367394,6.348629933854071C9.02157310367394,6.348629933854071,9.02157310367394,6.348629933854071,9.02157310367394,6.348629933854071ZM9.08981310367394,2.032899933854072C9.080683103673941,2.032899933854072,9.067063103673942,2.032899933854072,9.057933103673943,2.032899933854072C9.057933103673943,2.0239999338540717,9.057933103673943,2.010279933854072,9.057933103673943,2.001389933854072C9.067063103673942,2.001389933854072,9.080683103673941,2.001389933854072,9.08981310367394,2.001389933854072C9.08981310367394,2.010279933854072,9.08981310367394,2.0239999338540717,9.08981310367394,2.032899933854072C9.08981310367394,2.032899933854072,9.08981310367394,2.032899933854072,9.08981310367394,2.032899933854072ZM9.126173103673942,1.9470599338540717C9.144453103673943,1.9470599338540717,9.158063103673943,1.9470599338540717,9.17614310367394,1.9470599338540717C9.17614310367394,1.9696799338540718,9.17614310367394,1.9922999338540717,9.17614310367394,2.0149199338540718C9.11703310367394,2.032899933854072,9.12170310367394,1.9922999338540717,9.126173103673942,1.9470599338540717C9.126173103673942,1.9470599338540717,9.126173103673942,1.9470599338540717,9.126173103673942,1.9470599338540717ZM9.158063103673943,3.216999933854072C9.14892310367394,3.2123599338540716,9.171673103673943,3.1988299338540718,9.17614310367394,3.1988299338540718C9.185283103673942,3.2079099338540717,9.16253310367394,3.2214499338540716,9.158063103673943,3.216999933854072C9.158063103673943,3.216999933854072,9.158063103673943,3.216999933854072,9.158063103673943,3.216999933854072ZM9.340053103673942,8.653229933854071C9.326253103673942,8.662319933854072,9.312643103673942,8.671399933854072,9.308163103673941,8.653229933854071C9.312643103673942,8.630809933854072,9.340053103673942,8.635249933854071,9.340053103673942,8.653229933854071C9.340053103673942,8.653229933854071,9.340053103673942,8.653229933854071,9.340053103673942,8.653229933854071ZM9.308163103673941,2.511949933854072C9.303503103673943,2.530119933854072,9.28989310367394,2.521039933854072,9.28989310367394,2.511949933854072C9.294553103673941,2.4939699338540717,9.308163103673941,2.502859933854072,9.308163103673941,2.511949933854072C9.308163103673941,2.511949933854072,9.308163103673941,2.511949933854072,9.308163103673941,2.511949933854072ZM9.22164310367394,7.288569933854072C9.217173103673943,7.2524099338540715,9.24906310367394,7.256859933854072,9.271803103673943,7.256859933854072C9.26267310367394,7.275029933854071,9.24906310367394,7.288569933854072,9.22164310367394,7.288569933854072C9.22164310367394,7.288569933854072,9.22164310367394,7.288569933854072,9.22164310367394,7.288569933854072ZM9.258003103673943,5.146549933854072C9.353663103673941,5.1691699338540715,9.198893103673942,5.223299933854071,9.258003103673943,5.146549933854072C9.258003103673943,5.146549933854072,9.258003103673943,5.146549933854072,9.258003103673943,5.146549933854072ZM9.28989310367394,4.617809933854072C9.280753103673941,4.608729933854072,9.303503103673943,4.599839933854072,9.308163103673941,4.599839933854072C9.317303103673943,4.608729933854072,9.294553103673941,4.622259933854072,9.28989310367394,4.617809933854072C9.28989310367394,4.617809933854072,9.28989310367394,4.617809933854072,9.28989310367394,4.617809933854072ZM9.303503103673943,9.195499933854071C9.340053103673942,9.191049933854071,9.34900310367394,9.209229933854072,9.371753103673942,9.21366993385407C9.371753103673942,9.258909933854072,9.303503103673943,9.245379933854071,9.303503103673943,9.195499933854071C9.303503103673943,9.195499933854071,9.303503103673943,9.195499933854071,9.303503103673943,9.195499933854071ZM9.340053103673942,7.306549933854072C9.340053103673942,7.288569933854072,9.358133103673943,7.293009933854072,9.371753103673942,7.288569933854072C9.371753103673942,7.3020999338540715,9.353663103673941,7.297649933854072,9.340053103673942,7.306549933854072C9.340053103673942,7.306549933854072,9.340053103673942,7.306549933854072,9.340053103673942,7.306549933854072ZM9.42191310367394,6.100019933854072C9.42191310367394,6.086489933854072,9.444663103673943,6.086489933854072,9.453803103673941,6.082039933854071C9.453803103673941,6.100019933854072,9.43552310367394,6.095569933854072,9.42191310367394,6.100019933854072C9.42191310367394,6.100019933854072,9.42191310367394,6.100019933854072,9.42191310367394,6.100019933854072ZM9.72212310367394,3.3660499338540717C9.758483103673942,3.361599933854072,9.754013103673941,3.3886699338540716,9.754013103673941,3.4157299338540716C9.740393103673942,3.411289933854072,9.740393103673942,3.3977599338540716,9.72212310367394,3.3977599338540716C9.72212310367394,3.3886699338540716,9.72212310367394,3.3751399338540717,9.72212310367394,3.3660499338540717C9.72212310367394,3.3660499338540717,9.72212310367394,3.3660499338540717,9.72212310367394,3.3660499338540717ZM9.70851310367394,2.7244099338540715C9.703843103673943,2.7423899338540716,9.690233103673943,2.7333099338540716,9.690233103673943,2.7244099338540715C9.690233103673943,2.706239933854072,9.703843103673943,2.7153299338540715,9.70851310367394,2.7244099338540715C9.70851310367394,2.7244099338540715,9.70851310367394,2.7244099338540715,9.70851310367394,2.7244099338540715ZM9.53565310367394,5.670839933854071C9.530993103673943,5.693269933854071,9.503773103673943,5.688819933854072,9.503773103673943,5.670839933854071C9.512913103673942,5.6482199338540715,9.52204310367394,5.675289933854072,9.53565310367394,5.670839933854071C9.53565310367394,5.670839933854071,9.53565310367394,5.670839933854071,9.53565310367394,5.670839933854071ZM9.503773103673943,8.784299933854072C9.50824310367394,8.766319933854072,9.52204310367394,8.775409933854071,9.52204310367394,8.784299933854072C9.517383103673943,8.802479933854071,9.503773103673943,8.79338993385407,9.503773103673943,8.784299933854072C9.503773103673943,8.784299933854072,9.503773103673943,8.784299933854072,9.503773103673943,8.784299933854072ZM9.503773103673943,6.447999933854072C9.499293103673942,6.4118499338540715,9.530993103673943,6.416489933854072,9.553743103673941,6.416489933854072C9.544603103673943,6.434469933854071,9.530993103673943,6.447999933854072,9.503773103673943,6.447999933854072C9.503773103673943,6.447999933854072,9.503773103673943,6.447999933854072,9.503773103673943,6.447999933854072ZM9.540133103673941,5.950969933854072C9.612843103673942,5.964499933854071,9.526523103673942,6.0503399338540715,9.540133103673941,5.950969933854072C9.540133103673941,5.950969933854072,9.540133103673941,5.950969933854072,9.540133103673941,5.950969933854072ZM9.62198310367394,4.934089933854072C9.62198310367394,4.943179933854072,9.62198310367394,4.956709933854071,9.62198310367394,4.965799933854072C9.540133103673941,4.979329933854071,9.590103103673943,4.875319933854072,9.62198310367394,4.934089933854072C9.62198310367394,4.934089933854072,9.62198310367394,4.934089933854072,9.62198310367394,4.934089933854072ZM9.63559310367394,8.770769933854071C9.62198310367394,8.779859933854071,9.60837310367394,8.788939933854072,9.603903103673943,8.770769933854071C9.60837310367394,8.748149933854071,9.640263103673941,8.752789933854071,9.63559310367394,8.770769933854071C9.63559310367394,8.770769933854071,9.63559310367394,8.770769933854071,9.63559310367394,8.770769933854071ZM9.72212310367394,5.1103999338540715C9.66301310367394,5.056269933854072,9.681093103673941,4.983769933854072,9.653873103673941,4.879959933854072C9.76314310367394,4.8664299338540715,9.790363103673943,5.060719933854072,9.72212310367394,5.1103999338540715C9.72212310367394,5.1103999338540715,9.72212310367394,5.1103999338540715,9.72212310367394,5.1103999338540715ZM9.703843103673943,6.795979933854071C9.703843103673943,6.777999933854072,9.72212310367394,6.782449933854072,9.73573310367394,6.777999933854072C9.73573310367394,6.791529933854072,9.717653103673943,6.786889933854072,9.703843103673943,6.795979933854071C9.703843103673943,6.795979933854071,9.703843103673943,6.795979933854071,9.703843103673943,6.795979933854071ZM9.754013103673941,7.799129933854072C9.744873103673942,7.790239933854072,9.767623103673941,7.776709933854072,9.772093103673942,7.7811499338540715C9.78123310367394,7.790239933854072,9.758483103673942,7.803769933854071,9.754013103673941,7.799129933854072C9.754013103673941,7.799129933854072,9.754013103673941,7.799129933854072,9.754013103673941,7.799129933854072ZM9.967693103673941,5.738509933854072C9.958753103673942,5.738509933854072,9.944943103673943,5.738509933854072,9.93600310367394,5.738509933854072C9.93600310367394,5.7294199338540714,9.93600310367394,5.715889933854072,9.93600310367394,5.7069899338540715C9.944943103673943,5.7069899338540715,9.958753103673942,5.7069899338540715,9.967693103673941,5.7069899338540715C9.967693103673941,5.715889933854072,9.967693103673941,5.7294199338540714,9.967693103673941,5.738509933854072C9.967693103673941,5.738509933854072,9.967693103673941,5.738509933854072,9.967693103673941,5.738509933854072ZM10.035913103673941,4.735349933854072C10.02701310367394,4.726269933854072,10.049713103673941,4.712739933854071,10.054213103673941,4.717179933854072C10.063313103673941,4.726269933854072,10.040613103673941,4.739799933854072,10.035913103673941,4.735349933854072C10.035913103673941,4.735349933854072,10.035913103673941,4.735349933854072,10.035913103673941,4.735349933854072ZM10.067813103673942,7.320269933854072C10.058713103673941,7.311189933854072,10.081413103673942,7.297649933854072,10.086113103673942,7.3020999338540715C10.095213103673942,7.311189933854072,10.072513103673941,7.324719933854071,10.067813103673942,7.320269933854072C10.067813103673942,7.320269933854072,10.067813103673942,7.320269933854072,10.067813103673942,7.320269933854072ZM10.099713103673942,5.490089933854072C10.095213103673942,5.512509933854072,10.086113103673942,5.490089933854072,10.067813103673942,5.490089933854072C10.072513103673941,5.4719099338540715,10.104213103673942,5.476359933854072,10.099713103673942,5.490089933854072C10.099713103673942,5.490089933854072,10.099713103673942,5.490089933854072,10.099713103673942,5.490089933854072ZM10.104213103673942,2.9865599338540716C10.108813103673942,2.9639399338540717,10.136113103673942,2.9683899338540716,10.136113103673942,2.9865599338540716C10.126913103673942,3.0136199338540717,10.122513103673942,2.9865599338540716,10.104213103673942,2.9865599338540716C10.104213103673942,2.9865599338540716,10.104213103673942,2.9865599338540716,10.104213103673942,2.9865599338540716ZM10.23621310367394,4.568129933854071C10.24071310367394,4.549959933854072,10.26811310367394,4.554599933854072,10.26811310367394,4.568129933854071C10.25431310367394,4.577219933854072,10.24071310367394,4.586109933854072,10.23621310367394,4.568129933854071C10.23621310367394,4.568129933854071,10.23621310367394,4.568129933854071,10.23621310367394,4.568129933854071ZM10.336313103673941,6.809509933854072C10.336313103673941,6.791529933854072,10.349913103673941,6.800429933854072,10.354413103673942,6.809509933854072C10.349913103673941,6.827689933854072,10.336313103673941,6.818599933854072,10.336313103673941,6.809509933854072C10.336313103673941,6.809509933854072,10.336313103673941,6.809509933854072,10.336313103673941,6.809509933854072ZM10.399913103673942,4.635989933854072C10.404613103673942,4.613369933854072,10.431813103673942,4.617809933854072,10.431813103673942,4.635989933854072C10.427313103673942,4.658409933854072,10.418213103673942,4.631349933854072,10.399913103673942,4.635989933854072C10.399913103673942,4.635989933854072,10.399913103673942,4.635989933854072,10.399913103673942,4.635989933854072ZM10.60021310367394,4.5364299338540715C10.650113103673942,4.5816599338540716,10.55471310367394,4.486739933854071,10.60021310367394,4.5364299338540715C10.60021310367394,4.5364299338540715,10.60021310367394,4.5364299338540715,10.60021310367394,4.5364299338540715Z" fill="#CF5A73" fill-opacity="1"/></g></g></g></svg>