<svg xmlns="http://www.w3.org/2000/svg" xmlns:xlink="http://www.w3.org/1999/xlink" fill="none" version="1.1" width="61" height="61" viewBox="0 0 61 61"><defs><mask id="master_svg0_16_452" style="mask-type:alpha" maskUnits="userSpaceOnUse"><g><g><path d="M10,8C10,8,39.049099999999996,8,39.049099999999996,8C39.049099999999996,8,39.049099999999996,41.2587,39.049099999999996,41.2587C39.049099999999996,41.2587,10,41.2587,10,41.2587C10,41.2587,10,8,10,8C10,8,10,8,10,8Z" fill="#000000" fill-opacity="1"/></g></g></mask><mask id="master_svg1_16_441" style="mask-type:alpha" maskUnits="userSpaceOnUse"><g><g><path d="M15.181365966796875,28.635906219482422C15.181365966796875,28.635906219482422,46.99996596679688,28.635906219482422,46.99996596679688,28.635906219482422C46.99996596679688,28.635906219482422,46.99996596679688,52.00000621948242,46.99996596679688,52.00000621948242C46.99996596679688,52.00000621948242,15.181365966796875,52.00000621948242,15.181365966796875,52.00000621948242C15.181365966796875,52.00000621948242,15.181365966796875,28.635906219482422,15.181365966796875,28.635906219482422C15.181365966796875,28.635906219482422,15.181365966796875,28.635906219482422,15.181365966796875,28.635906219482422Z" fill="#000000" fill-opacity="1"/></g></g></mask></defs><g><g><path d="M0,30.5C0,13.6562,13.655,0,30.5,0C47.345,0,61,13.6562,61,30.5C61,47.345,47.345,61,30.5,61C13.655,61,0,47.345,0,30.5C0,30.5,0,30.5,0,30.5Z" fill="#FE75BA" fill-opacity="1"/></g><g><g><path d="" fill="#FE75BA" fill-opacity="1"/></g><g><path d="" fill="#FE75BA" fill-opacity="1"/></g><g mask="url(#master_svg0_16_452)"><g><g><path d="M19.666950683720316,41.20192845472907C19.666950683720316,41.20192845472907,38.362460683720315,34.43912845472907,38.362460683720315,34.43912845472907C38.42246068372032,34.41752845472907,38.48036068372031,34.38982845472907,38.53526068372032,34.35622845472908C38.59016068372031,34.32262845472907,38.64146068372032,34.28372845472907,38.68986068372031,34.239728454729075C38.73756068372032,34.19552845472907,38.780260683720314,34.14772845472908,38.818560683720314,34.09472845472907C38.857560683720315,34.04242845472908,38.890760683720316,33.985628454729074,38.91826068372031,33.92662845472907C38.94646068372032,33.866828454729074,38.96816068372031,33.805628454729074,38.984060683720315,33.74132845472907C39.00066068372031,33.677828454729074,39.01006068372031,33.61282845472907,39.013760683720314,33.54712845472908C39.018060683720314,33.48062845472907,39.01516068372032,33.41492845472907,39.00646068372031,33.349928454729074C38.997760683720315,33.28412845472907,38.98266068372031,33.220628454729074,38.96166068372032,33.15782845472907C38.96166068372032,33.15782845472907,30.70056068372031,8.802346454729074,30.70056068372031,8.802346454729074C30.678860683720316,8.739588454729073,30.652160683720318,8.680567454729074,30.619560683720316,8.623788454729073C30.587060683720317,8.567008454729073,30.548760683720317,8.513964454729074,30.506160683720317,8.464655454729074C30.463460683720314,8.415347454729073,30.416460683720317,8.370520454729073,30.365160683720312,8.330925454729073C30.314560683720316,8.291328454729074,30.259660683720313,8.257708454729073,30.201860683720312,8.228571954729073C30.144760683720314,8.200181854729074,30.08476068372031,8.177768754729074,30.022560683720315,8.161332554729073C29.960460683720314,8.144896254729074,29.897560683720315,8.134436934729074,29.833960683720314,8.130701284729074C29.769560683720314,8.126965824729073,29.705960683720313,8.129954227729074,29.643160683720318,8.138919444729074C29.579560683720317,8.147884754729073,29.517460683720316,8.163573954729074,29.457460683720313,8.185239854729074C29.457460683720313,8.185239854729074,10.762557683720315,14.945758454729074,10.762557683720315,14.945758454729074C10.701845683720315,14.967428454729074,10.644025683720315,14.995068454729074,10.589095683720315,15.028688454729075C10.534166683720315,15.062318454729073,10.482850683720315,15.101908454729074,10.435148683720314,15.145988454729075C10.387446683720315,15.190068454729074,10.344081683720315,15.238628454729074,10.305775683720315,15.290918454729074C10.267468683720315,15.343958454729073,10.234221683720314,15.399998454729074,10.206757483720315,15.459768454729073C10.178569583720314,15.519538454729073,10.156886883720315,15.580798454729074,10.140986283720315,15.645058454729075C10.125085483720314,15.709298454729073,10.114967143720314,15.774298454729074,10.111353213720315,15.840038454729074C10.108462363720315,15.906538454729073,10.110630318720315,15.971528454729073,10.120026293720315,16.037278454729073C10.128699183720315,16.103028454729074,10.143877383720314,16.166528454729075,10.164837283720315,16.229278454729073C10.164837283720315,16.229278454729073,18.423780683720317,40.58252845472907,18.423780683720317,40.58252845472907C18.445470683720316,40.64452845472907,18.472230683720312,40.70432845472908,18.504720683720315,40.761128454729075C18.537220683720314,40.81782845472907,18.575520683720313,40.87092845472907,18.618170683720315,40.92022845472907C18.660810683720314,40.96952845472907,18.707790683720315,41.01432845472907,18.758450683720312,41.053928454729075C18.809770683720316,41.09362845472907,18.863950683720315,41.12792845472907,18.921740683720316,41.15632845472908C18.979600683720314,41.18542845472908,19.039590683720313,41.20792845472907,19.100980683720316,41.224328454729076C19.163190683720316,41.24152845472908,19.226040683720313,41.25122845472907,19.290380683720315,41.25572845472908C19.353970683720313,41.259428454729075,19.417570683720314,41.256428454729075,19.481160683720315,41.247428454729075C19.544760683720312,41.238428454729075,19.606220683720316,41.22352845472908,19.666950683720316,41.20192845472907C19.666950683720316,41.20192845472907,19.666950683720316,41.20192845472907,19.666950683720316,41.20192845472907Z" fill-rule="evenodd" fill="#006694" fill-opacity="1"/></g></g></g><g><path d="M19.759479961853028,41.01829038352966C19.759479961853028,41.01829038352966,15.720515761853028,16.678920383529665,15.720515761853028,16.678920383529665C15.701498581853027,16.561350383529664,15.693452791853028,16.443040383529663,15.697109895853027,16.32399038352966C15.700767201853028,16.204940383529664,15.715395561853027,16.087360383529663,15.741727261853027,15.971290383529663C15.768058561853028,15.855210383529663,15.805361961853027,15.743590383529662,15.853635961853028,15.634950383529663C15.901179961853027,15.526320383529663,15.959694961853028,15.423630383529662,16.02771796185303,15.326160383529663C16.09574096185303,15.229420383529662,16.171808961853028,15.140130383529662,16.257386961853026,15.058290383529663C16.34223296185303,14.976430383529664,16.434393961853026,14.904250383529662,16.533864961853027,14.841010383529664C16.633341961853027,14.777760383529664,16.737209961853026,14.724930383529664,16.84691996185303,14.682510383529664C16.95663996185303,14.640100383529663,17.068549961853027,14.608850383529663,17.18410996185303,14.589500383529664C17.18410996185303,14.589500383529664,32.87334996185302,11.901090383529663,32.87334996185302,11.901090383529663C32.87334996185302,11.901090383529663,40.195749961853025,33.14949038352967,40.195749961853025,33.14949038352967C40.21694996185303,33.21119038352966,40.23224996185303,33.27519038352966,40.24104996185302,33.339890383529664C40.24984996185303,33.405390383529664,40.25274996185303,33.470890383529664,40.24834996185302,33.536390383529664C40.24474996185303,33.601890383529664,40.235149961853026,33.666590383529666,40.21834996185302,33.73059038352966C40.20224996185303,33.793890383529664,40.180349961853025,33.85559038352966,40.15184996185303,33.914390383529664C40.12404996185303,33.973890383529664,40.09034996185303,34.02969038352966,40.05084996185303,34.08259038352966C40.01214996185303,34.13469038352966,39.96894996185303,34.18299038352966,39.92064996185303,34.226890383529664C39.871649961853024,34.270790383529665,39.81974996185303,34.30879038352966,39.76414996185303,34.34219038352966C39.70854996185302,34.37569038352966,39.65004996185303,34.403290383529665,39.58934996185303,34.42479038352967C39.58934996185303,34.42479038352967,20.669389961853028,41.16029038352966,20.669389961853028,41.16029038352966C20.515779961853028,41.21389038352966,20.358529961853026,41.22809038352966,20.19687996185303,41.20359038352966C20.035959961853028,41.178290383529664,19.890409961853027,41.116490383529666,19.759479961853028,41.01829038352966C19.759479961853028,41.01829038352966,19.759479961853028,41.01829038352966,19.759479961853028,41.01829038352966Z" fill-rule="evenodd" fill="#005C85" fill-opacity="1"/></g><g><path d="M21.582156053314208,42.03909038352967C21.582156053314208,42.03909038352967,40.28954605331421,38.718390383529666,40.28954605331421,38.718390383529666C40.35044605331421,38.70739038352966,40.409246053314206,38.69059038352967,40.46594605331421,38.66729038352966C40.52344605331421,38.64459038352966,40.578146053314214,38.61549038352966,40.63004605331421,38.58109038352966C40.681946053314206,38.54679038352967,40.73044605331421,38.50739038352967,40.77474605331421,38.46289038352967C40.819746053314205,38.419090383529664,40.85994605331421,38.370090383529664,40.89514605331421,38.31759038352966C40.93114605331421,38.264990383529664,40.96094605331421,38.20959038352966,40.98664605331421,38.150490383529664C41.01144605331421,38.09129038352967,41.03084605331421,38.03069038352966,41.04474605331421,37.96719038352966C41.05854605331421,37.90449038352966,41.06684605331421,37.84089038352967,41.06824605331421,37.77599038352966C41.07034605331421,37.711690383529664,41.06614605331421,37.647490383529664,41.05654605331421,37.58389038352966C41.05654605331421,37.58389038352966,37.07674605331421,12.719953383529663,37.07674605331421,12.719953383529663C37.066346053314206,12.656445383529663,37.050446053314204,12.594396383529663,37.02834605331421,12.533807383529663C37.00614605331421,12.473949383529662,36.97914605331421,12.417010383529663,36.94664605331421,12.362261383529663C36.91404605331421,12.307512383529662,36.87674605331421,12.257143383529662,36.83454605331421,12.210424383529663C36.79224605331421,12.162976383529664,36.746546053314205,12.121366383529663,36.69664605331421,12.084137383529663C36.64694605331421,12.046178383529663,36.59424605331421,12.014789383529664,36.53824605331421,11.987779683529663C36.482846053314205,11.961499983529663,36.424646053314206,11.941060383529663,36.365146053314206,11.926460783529663C36.305646053314206,11.911861083529663,36.24534605331421,11.903831243529662,36.184446053314204,11.901641242529664C36.122846053314206,11.899451433529663,36.06194605331421,11.903831293529663,36.00174605331421,11.914050983529663C36.00174605331421,11.914050983529663,17.292300053314207,15.235480383529662,17.292300053314207,15.235480383529662C17.231383053314207,15.246430383529663,17.17254105331421,15.263220383529664,17.115777053314208,15.286580383529664C17.05832005331421,15.309210383529663,17.00363305331421,15.338410383529663,16.95171405331421,15.372720383529664C16.89979605331421,15.407020383529662,16.85203005331421,15.446450383529664,16.807034053314208,15.490980383529664C16.762730053314208,15.534770383529663,16.72258005331421,15.583690383529664,16.68727505331421,15.636240383529664C16.65197105331421,15.688800383529664,16.62151205331421,15.745010383529664,16.596590553314208,15.803410383529663C16.57167025331421,15.862540383529662,16.552286853314207,15.923860383529664,16.538442153314207,15.986640383529663C16.524596943314208,16.04941038352966,16.51698246331421,16.112920383529662,16.51490567631421,16.177890383529665C16.51352109331421,16.242130383529663,16.51767457331421,16.306370383529664,16.527366153314208,16.369870383529662C16.527366153314208,16.369870383529662,20.50502605331421,41.23389038352966,20.50502605331421,41.23389038352966C20.51540605331421,41.29739038352966,20.53202605331421,41.359390383529664,20.554176053314208,41.42009038352966C20.57563605331421,41.479890383529664,20.60332605331421,41.53759038352966,20.635856053314207,41.59159038352966C20.668396053314208,41.64639038352966,20.70577605331421,41.69749038352966,20.74799605331421,41.74409038352967C20.79023605331421,41.790890383529664,20.83660605331421,41.83319038352966,20.88645605331421,41.87039038352967C20.93629605331421,41.90769038352966,20.98890605331421,41.93979038352966,21.04497605331421,41.96609038352966C21.10104605331421,41.99239038352967,21.15850605331421,42.01279038352966,21.21873605331421,42.027390383529664C21.27826605331421,42.04189038352966,21.33849605331421,42.04999038352966,21.400096053314208,42.05219038352966C21.46101605331421,42.054390383529665,21.52193605331421,42.04999038352966,21.582156053314208,42.03909038352967C21.582156053314208,42.03909038352967,21.582156053314208,42.03909038352967,21.582156053314208,42.03909038352967Z" fill-rule="evenodd" fill="#31CEFF" fill-opacity="1"/></g><g><path d="M19.78822898864746,41.84025002136231C19.78822898864746,41.84025002136231,19.78822898864746,17.906390021362306,19.78822898864746,17.906390021362306C19.78822898864746,17.787100021362306,19.800612388647462,17.668540021362304,19.82392218864746,17.551410021362305C19.84723198864746,17.435010021362306,19.882196788647462,17.321510021362304,19.92881598864746,17.210890021362303C19.97470798864746,17.101010021362306,20.03079698864746,16.996172021362305,20.09781198864746,16.897128021362306C20.16482898864746,16.798081021362304,20.24058598864746,16.706264021362305,20.325811988647462,16.621677021362306C20.411038988647462,16.537813021362304,20.50354998864746,16.461901021362305,20.60334498864746,16.396111021362305C20.70386898864746,16.329598021362305,20.80876898864746,16.273206021362306,20.920218988647463,16.227660021362304C21.03166898864746,16.182112421362305,21.146018988647462,16.147410421362306,21.26402898864746,16.124275421362306C21.382038988647462,16.100417521362306,21.50076898864746,16.088850021362305,21.620968988647462,16.088850021362305C21.620968988647462,16.088850021362305,37.39442898864746,16.088850021362305,37.39442898864746,16.088850021362305C37.39442898864746,16.088850021362305,41.05552898864746,37.6260500213623,41.05552898864746,37.6260500213623C41.065728988647464,37.6889500213623,41.07012898864746,37.7525500213623,41.06792898864746,37.81625002136231C41.06642898864746,37.8805500213623,41.05772898864746,37.94345002136231,41.043228988647456,38.0055500213623C41.02862898864746,38.06845002136231,41.00812898864746,38.1285500213623,40.98192898864746,38.1870500213623C40.955028988647456,38.24565002136231,40.92372898864746,38.300550021362305,40.88582898864746,38.35265002136231C40.84862898864746,38.4046500213623,40.80642898864746,38.453150021362305,40.75912898864746,38.49645002136231C40.71242898864746,38.5406500213623,40.66142898864746,38.579650021362305,40.606828988647464,38.613650021362304C40.55222898864746,38.647550021362306,40.49462898864746,38.6765500213623,40.43412898864746,38.69895002136231C40.37452898864746,38.72205002136231,40.31252898864746,38.738650021362304,40.24842898864746,38.7495500213623C40.24842898864746,38.7495500213623,20.56328098864746,42.0382500213623,20.56328098864746,42.0382500213623C20.42560798864746,42.0621500213623,20.28938998864746,42.056350021362306,20.15463098864746,42.021650021362305C20.019141988647462,41.98705002136231,19.89749398864746,41.9269500213623,19.78822898864746,41.84025002136231C19.78822898864746,41.84025002136231,19.78822898864746,41.84025002136231,19.78822898864746,41.84025002136231Z" fill-rule="evenodd" fill="#2CB9E6" fill-opacity="1"/></g><g><path d="M21.598332649597168,45.4029500213623C21.598332649597168,45.4029500213623,41.71582364959717,45.4029500213623,41.71582364959717,45.4029500213623C41.781223649597166,45.4021500213623,41.84502364959717,45.39505002136231,41.90892364959717,45.381650021362304C41.97272364959717,45.367550021362305,42.03442364959717,45.34705002136231,42.09462364959717,45.320250021362305C42.15482364959717,45.29355002136231,42.21132364959717,45.2604500213623,42.26562364959717,45.2218500213623C42.31992364959717,45.1833500213623,42.369823649597166,45.1392500213623,42.41532364959717,45.0896500213623C42.46162364959717,45.0407500213623,42.50272364959717,44.986550021362305,42.538723649597166,44.9290500213623C42.57472364959717,44.870750021362305,42.60472364959717,44.809350021362306,42.62972364959717,44.74565002136231C42.65472364959717,44.6810500213623,42.673723649597164,44.614950021362304,42.68622364959717,44.546450021362304C42.699423649597165,44.477950021362304,42.70532364959717,44.40875002136231,42.70532364959717,44.3394500213623C42.70532364959717,44.3394500213623,42.70532364959717,17.149250021362306,42.70532364959717,17.149250021362306C42.70532364959717,17.079189021362303,42.69872364959717,17.010695021362306,42.68622364959717,16.942209021362306C42.673723649597164,16.873718021362304,42.65472364959717,16.807592021362304,42.62972364959717,16.743039021362303C42.60472364959717,16.679273021362306,42.57472364959717,16.617869021362306,42.53792364959717,16.560401021362306C42.50202364959716,16.502146021362304,42.46082364959717,16.448614021362303,42.41532364959717,16.399806021362306C42.36912364959717,16.350210021362305,42.31922364959716,16.306125021362305,42.26562364959717,16.267551021362305C42.21132364959717,16.228977021362304,42.15412364959717,16.196701021362305,42.09462364959717,16.169934721362306C42.03442364959717,16.143168821362305,41.97272364959717,16.122701121362304,41.90892364959717,16.109318021362306C41.84502364959717,16.095147961362304,41.78042364959717,16.088850021362305,41.71582364959717,16.088850021362305C41.71582364959717,16.088850021362305,21.598332649597168,16.088850021362305,21.598332649597168,16.088850021362305C21.53373864959717,16.088850021362305,21.469136649597168,16.095147961362304,21.40527564959717,16.109318021362306C21.341412649597167,16.122701121362304,21.279752649597167,16.143168821362305,21.21955964959717,16.169934721362306C21.159366649597168,16.195913021362305,21.102844649597166,16.228977021362304,21.04852464959717,16.267551021362305C20.994203649597168,16.306125021362305,20.94428864959717,16.350210021362305,20.898043649597167,16.399019021362303C20.852531649597168,16.448614021362303,20.811424649597168,16.502146021362304,20.77472164959717,16.559614021362304C20.738753649597168,16.617869021362306,20.707923649597166,16.678485021362306,20.682965249597167,16.743039021362303C20.65800754959717,16.807592021362304,20.63892194959717,16.873718021362304,20.62570904959717,16.942209021362306C20.613229999597166,17.009907021362306,20.606623649597168,17.079189021362303,20.606623649597168,17.149250021362306C20.606623649597168,17.149250021362306,20.606623649597168,44.3394500213623,20.606623649597168,44.3394500213623C20.606623649597168,44.409450021362304,20.613229999597166,44.477950021362304,20.62570904959717,44.546450021362304C20.63892194959717,44.614950021362304,20.65800754959717,44.6810500213623,20.682965249597167,44.74565002136231C20.707923649597166,44.810150021362304,20.738753649597168,44.871650021362306,20.77472164959717,44.9290500213623C20.810690649597166,44.9872500213623,20.851798649597168,45.0407500213623,20.898043649597167,45.0904500213623C20.94428864959717,45.1392500213623,20.99420464959717,45.1833500213623,21.047790649597168,45.2218500213623C21.10211064959717,45.2612500213623,21.159366649597168,45.29355002136231,21.21955964959717,45.320250021362305C21.279752649597167,45.34705002136231,21.341412649597167,45.367550021362305,21.40527564959717,45.381650021362304C21.469136649597168,45.39505002136231,21.53373864959717,45.4021500213623,21.598332649597168,45.4029500213623C21.598332649597168,45.4029500213623,21.598332649597168,45.4029500213623,21.598332649597168,45.4029500213623Z" fill-rule="evenodd" fill="#DFEEF5" fill-opacity="1"/></g><g mask="url(#master_svg1_16_441)"><g><g><path d="M31.852430361512305,35.81259078866959C31.852430361512305,35.81259078866959,43.26993036151231,35.81259078866959,43.26993036151231,35.81259078866959C43.392030361512305,35.81335078866959,43.513430361512306,35.82007078866958,43.6348303615123,35.832770788669585C43.7556303615123,35.84547078866959,43.8763303615123,35.86415078866958,43.99553036151231,35.888800788669585C44.114830361512304,35.91346078866959,44.2333303615123,35.944830788669584,44.3497303615123,35.98144078866959C44.4661303615123,36.01805078866958,44.581030361512305,36.060630788669584,44.6929303615123,36.109190788669586C44.8057303615123,36.157760788669584,44.9156303615123,36.211550788669584,45.02333036151231,36.27057078866959C45.13033036151231,36.33034078866959,45.2350303615123,36.395340788669586,45.3363303615123,36.46481078866959C45.4374303615123,36.53504078866958,45.5350303615123,36.60975078866959,45.6297303615123,36.68970078866958C45.723630361512306,36.76963078866959,45.8140303615123,36.854060788669585,45.90003036151231,36.94296078866959C45.986030361512306,37.031870788669586,46.0676303615123,37.12525078866959,46.145030361512305,37.222340788669584C46.222330361512306,37.319500788669586,46.2953303615123,37.420340788669584,46.3625303615123,37.524950788669585C46.430530361512304,37.629560788669586,46.49333036151231,37.737100788669586,46.5512303615123,37.84849078866959C46.6082303615123,37.959050788669586,46.66033036151231,38.07262078866958,46.707330361512305,38.189120788669584C46.7543303615123,38.304950788669586,46.795530361512306,38.423720788669584,46.8309303615123,38.54399078866959C46.867030361512306,38.66426078866959,46.896730361512304,38.78604078866959,46.920530361512306,38.909370788669584C46.9451303615123,39.03257078866959,46.9631303615123,39.15667078866959,46.9754303615123,39.282070788669586C46.987730361512305,39.407670788669584,46.99423036151231,39.53317078866959,46.99423036151231,39.65867078866958C46.99423036151231,39.65867078866958,46.99423036151231,48.15477078866959,46.99423036151231,48.15477078866959C46.99423036151231,48.28017078866959,46.987730361512305,48.405770788669585,46.9754303615123,48.53127078866959C46.9631303615123,48.655970788669585,46.9451303615123,48.780770788669585,46.9212303615123,48.904070788669586C46.896730361512304,49.02727078866958,46.867030361512306,49.14907078866959,46.8316303615123,49.26947078866959C46.7962303615123,49.38967078866959,46.755030361512304,49.508470788669584,46.7080303615123,49.62427078866959C46.6610303615123,49.740770788669586,46.6090303615123,49.854370788669584,46.5512303615123,49.96497078866959C46.494130361512305,50.07627078866959,46.431230361512306,50.18387078866959,46.363330361512304,50.288470788669585C46.2953303615123,50.39297078866959,46.223130361512304,50.493970788669586,46.14573036151231,50.59097078866959C46.0684303615123,50.68817078866959,45.9867303615123,50.78157078866958,45.90003036151231,50.87037078866959C45.8140303615123,50.95937078866959,45.723630361512306,51.04377078866959,45.6297303615123,51.123670788669585C45.53573036151231,51.203670788669584,45.4382303615123,51.27837078866959,45.3363303615123,51.34857078866959C45.2350303615123,51.41887078866959,45.1310303615123,51.483070788669586,45.02333036151231,51.54287078866959C44.91633036151231,51.601870788669586,44.8057303615123,51.65637078866959,44.69373036151231,51.704170788669586C44.581030361512305,51.75277078866959,44.466730361512305,51.79537078866959,44.3497303615123,51.83197078866959C44.2333303615123,51.86857078866959,44.1155303615123,51.899170788669586,43.99553036151231,51.92467078866959C43.8763303615123,51.94927078866959,43.7556303615123,51.96797078866959,43.6348303615123,51.980670788669585C43.513430361512306,51.99327078866959,43.392030361512305,52.00007078866959,43.26993036151231,52.00007078866959C43.26993036151231,52.00007078866959,18.932500361512304,52.00007078866959,18.932500361512304,52.00007078866959C18.811070361512304,52.00007078866959,18.688930361512302,51.99327078866959,18.568230361512303,51.980670788669585C18.446800361512302,51.96797078866959,18.326100361512303,51.94927078866959,18.206850361512302,51.92387078866959C18.087590361512305,51.899170788669586,17.969060361512305,51.86857078866959,17.852700361512305,51.83197078866959C17.736340361512305,51.794670788669585,17.621420361512303,51.75197078866958,17.509390361512303,51.704170788669586C17.396640361512304,51.655570788669586,17.286780361512303,51.601870788669586,17.179090361512305,51.54207078866959C17.072120361512304,51.483070788669586,16.967320361512304,51.41807078866958,16.866130361512305,51.347770788669585C16.764950361512305,51.27837078866959,16.667370361512305,51.202870788669586,16.573420361512305,51.12297078866959C16.478740361512305,51.04377078866959,16.389120361512305,50.95937078866959,16.302380361512302,50.86967078866959C16.216380361512304,50.780770788669585,16.134705361512303,50.68817078866959,16.057367361512302,50.59097078866959C15.980035361512304,50.49317078866959,15.907036361512304,50.39237078866958,15.839819361512303,50.28777078866959C15.771881361512303,50.18307078866958,15.709001361512303,50.07547078866959,15.651180361512303,49.96497078866959C15.594082361512303,49.85367078866959,15.542044361512303,49.740070788669584,15.495065361512303,49.62427078866959C15.448085361512303,49.507670788669586,15.406888361512303,49.38967078866959,15.371473361512303,49.26947078866959C15.335335361512303,49.14907078866959,15.305702761512304,49.02727078866958,15.281851561512303,48.904070788669586C15.257277761512304,48.78007078866959,15.239208861512303,48.655970788669585,15.226922061512303,48.53127078866959C15.214635221512303,48.405770788669585,15.208130361512303,48.28017078866959,15.208130361512303,48.15477078866959C15.208130361512303,48.15477078866959,15.208130361512303,31.969510788669588,15.208130361512303,31.969510788669588C15.208130361512303,31.866400788669587,15.213189751512303,31.763300788669586,15.223308261512303,31.660210788669588C15.233426961512304,31.557110788669586,15.248604761512304,31.454750788669585,15.268119261512304,31.353150788669588C15.287633661512304,31.251540788669587,15.312207361512304,31.151430788669586,15.341118361512303,31.052810788669586C15.370750361512304,30.953450788669585,15.404720361512304,30.856320788669585,15.443026361512302,30.760690788669585C15.481332361512303,30.665060788669585,15.523975361512303,30.571680788669585,15.571677361512304,30.480530788669586C15.618656361512304,30.389380788669587,15.670695361512303,30.300480788669585,15.726347361512303,30.214560788669587C15.781999361512304,30.128650788669585,15.841265361512303,30.045720788669588,15.904868361512303,29.965780788669587C15.968471361512304,29.885830788669587,16.035686361512305,29.808890788669586,16.106517361512303,29.735670788669587C16.178067361512305,29.662452788669587,16.251800361512302,29.592974788669586,16.329120361512302,29.527229788669587C16.406460361512302,29.462231788669587,16.487410361512303,29.400222788669588,16.570520361512305,29.342695788669587C16.6536503615123,29.285168788669587,16.739650361512304,29.232124788669587,16.827830361512305,29.182815788669586C16.916010361512303,29.134254788669587,17.007070361512305,29.090175788669587,17.099580361512302,29.050578788669586C17.192100361512303,29.010982788669587,17.286060361512302,28.975868788669587,17.382190361512304,28.945236788669586C17.477590361512302,28.915353788669588,17.575160361512303,28.889952088669585,17.6734503615123,28.869780288669585C17.771750361512304,28.849608588669586,17.870760361512303,28.833919188669586,17.970510361512304,28.823459988669587C18.070250361512304,28.813000408669588,18.169990361512305,28.807770788669586,18.270460361512303,28.807770788669586C18.270460361512303,28.807770788669586,22.643130361512302,28.807770788669586,22.643130361512302,28.807770788669586C23.719330361512306,28.807770788669586,24.4521903615123,29.492115788669587,25.223330361512303,30.268360788669586C25.223330361512303,30.268360788669586,29.272230361512303,34.354260788669585,29.272230361512303,34.354260788669585C30.041230361512305,35.12825078866959,30.7763303615123,35.81259078866959,31.853230361512303,35.81259078866959C31.853230361512303,35.81259078866959,31.852430361512305,35.81259078866959,31.852430361512305,35.81259078866959C31.852430361512305,35.81259078866959,31.852430361512305,35.81259078866959,31.852430361512305,35.81259078866959Z" fill-rule="evenodd" fill="#DDE53D" fill-opacity="1"/></g></g></g><g><path d="M27.437165832519533,26.976951763610842C27.437165832519533,26.976951763610842,22.778962832519532,26.976951763610842,22.778962832519532,26.976951763610842C22.422905832519533,26.976951763610842,22.20108693251953,26.65837176361084,22.25019798251953,26.27484176361084C22.25019798251953,26.27484176361084,22.46956183251953,24.63926176361084,22.46956183251953,24.63926176361084C22.60379883251953,23.63103876361084,23.233241832519532,22.78922176361084,24.172905832519533,22.78922176361084C24.172905832519533,22.78922176361084,26.043225832519532,22.78922176361084,26.043225832519532,22.78922176361084C26.983705832519533,22.78922176361084,27.61560583251953,23.63103876361084,27.749845832519533,24.63926176361084C27.749845832519533,24.63926176361084,27.96592583251953,26.27484176361084,27.96592583251953,26.27484176361084C28.015045832519533,26.65837176361084,27.793225832519532,26.976951763610842,27.437165832519533,26.976951763610842C27.437165832519533,26.976951763610842,27.437165832519533,26.976951763610842,27.437165832519533,26.976951763610842Z" fill-rule="evenodd" fill="#0091CA" fill-opacity="1"/></g><g><path d="M25.92980610809326,21.95169846710205C26.06461610809326,21.95169846710205,26.197476108093262,21.94609846710205,26.32936610809326,21.93528846710205C26.46027610809326,21.924478467102052,26.588256108093262,21.90847846710205,26.712316108093262,21.88765846710205C26.83639610809326,21.86644846710205,26.954606108093262,21.84042846710205,27.065976108093263,21.81000846710205C27.17734610809326,21.779188467102053,27.280896108093263,21.74436846710205,27.37565610809326,21.705538467102052C27.47041610809326,21.66671846710205,27.555406108093262,21.62428846710205,27.62966610809326,21.578658467102052C27.70390610809326,21.53262846710205,27.76740610809326,21.48458846710205,27.81820610809326,21.433758467102052C27.869006108093263,21.38292846710205,27.908076108093262,21.33048846710205,27.93445610809326,21.27646246710205C27.959856108093263,21.22242346710205,27.97255610809326,21.167991467102052,27.97255610809326,21.11315346710205C27.97255610809326,21.05831746710205,27.959856108093263,21.003882467102052,27.933486108093263,20.94984746710205C27.907106108093263,20.89581146710205,27.86802610809326,20.84337846710205,27.81624610809326,20.79294446710205C27.764476108093262,20.74211146710205,27.70194610809326,20.693680467102052,27.62673610809326,20.64805046710205C27.55150610809326,20.60242046710205,27.46748610809326,20.559992467102052,27.371746108093262,20.52116746710205C27.27699610809326,20.48234246710205,27.17342610809326,20.44792046710205,27.062056108093262,20.41750046710205C26.949716108093263,20.38668046710205,26.832486108093264,20.36106326710205,26.70744610809326,20.34024996710205C26.583366108093262,20.31903606710205,26.45539610809326,20.30342586710205,26.323506108093262,20.29261886710205C26.192596108093262,20.28181182710205,26.058756108093263,20.27660846710205,25.92491610809326,20.27660846710205C25.790096108093262,20.27660846710205,25.65723610809326,20.28221209710205,25.525356108093263,20.293019167102052C25.394446108093263,20.30342596710205,25.26646610809326,20.319436267102052,25.142396108093262,20.34065026710205C25.018326108093262,20.36146356710205,24.90011610809326,20.387481467102052,24.78875010809326,20.41790046710205C24.67640310809326,20.44872046710205,24.57382610809326,20.48314346710205,24.478087108093263,20.52236846710205C24.383324108093262,20.56119446710205,24.29930810809326,20.60362146710205,24.224085108093263,20.64925146710205C24.149838108093263,20.69488146710205,24.086338108093262,20.74331246710205,24.035538108093263,20.79414546710205C23.983761108093262,20.84457846710205,23.94566040809326,20.897013467102052,23.919283308093263,20.95104846710205C23.89290620809326,21.00508346710205,23.88020610809326,21.059518467102052,23.88020610809326,21.11435546710205C23.88020610809326,21.16959146710205,23.893883108093263,21.22402346710205,23.92026020809326,21.27765846710205C23.946637108093263,21.33169846710205,23.985714108093262,21.38412846710205,24.03749210809326,21.43495846710205C24.089269108093262,21.48579846710205,24.152769108093263,21.53382846710205,24.227016108093263,21.57945846710205C24.30223910809326,21.62508846710205,24.38723210809326,21.66750846710205,24.48199410809326,21.70633846710205C24.577733108093263,21.74516846710205,24.681288108093263,21.77998846710205,24.792654108093263,21.81040846710205C24.904036108093262,21.841228467102052,25.02223610809326,21.866848467102052,25.146306108093263,21.888058467102052C25.270376108093263,21.90887846710205,25.39835610809326,21.92487846710205,25.530236108093263,21.93568846710205C25.66212610809326,21.94649846710205,25.79595610809326,21.95169846710205,25.92980610809326,21.95169846710205C25.92980610809326,21.95169846710205,25.92980610809326,21.95169846710205,25.92980610809326,21.95169846710205Z" fill-rule="evenodd" fill="#FBBD80" fill-opacity="1"/></g><g><path d="M39.56829445678711,22.289148467102052C39.65817445678711,22.289148467102052,39.74467445678711,22.30127846710205,39.82787445678711,22.326778467102052C39.91117445678711,22.35226846710205,39.98457445678711,22.38867846710205,40.04877445678711,22.43541846710205C40.112274456787105,22.48213846710205,40.16177445678711,22.53616846710205,40.19637445678711,22.59745846710205C40.23007445678711,22.65875846710205,40.24747445678711,22.72248846710205,40.24747445678711,22.78863846710205C40.24747445678711,22.855408467102052,40.23007445678711,22.919128467102052,40.19637445678711,22.98042846710205C40.16177445678711,23.04172846710205,40.112274456787105,23.095738467102052,40.04877445678711,23.142468467102052C39.98457445678711,23.189208467102052,39.91117445678711,23.225618467102052,39.82787445678711,23.25110846710205C39.74467445678711,23.27599846710205,39.65817445678711,23.28873846710205,39.56829445678711,23.28873846710205C39.56829445678711,23.28873846710205,30.29056845678711,23.28873846710205,30.29056845678711,23.28873846710205C30.20073345678711,23.28873846710205,30.11337145678711,23.27599846710205,30.03012845678711,23.25110846710205C29.94688645678711,23.225618467102052,29.87353545678711,23.189208467102052,29.81007345678711,23.142468467102052C29.74578745678711,23.095738467102052,29.69716145678711,23.04172846710205,29.66254595678711,22.98042846710205C29.62793045678711,22.919128467102052,29.61062280678711,22.855408467102052,29.61062280678711,22.78863846710205C29.61062280678711,22.72248846710205,29.62793045678711,22.65875846710205,29.66254595678711,22.59745846710205C29.69716145678711,22.53616846710205,29.74578745678711,22.48213846710205,29.81007345678711,22.43541846710205C29.87353545678711,22.38867846710205,29.94688645678711,22.35226846710205,30.03012845678711,22.326778467102052C30.11337145678711,22.30127846710205,30.20073345678711,22.289148467102052,30.29056845678711,22.289148467102052C30.29056845678711,22.289148467102052,39.56829445678711,22.289148467102052,39.56829445678711,22.289148467102052C39.56829445678711,22.289148467102052,39.56829445678711,22.289148467102052,39.56829445678711,22.289148467102052ZM39.56829445678711,20.27660846710205C39.65817445678711,20.27660846710205,39.74547445678711,20.28935386710205,39.82877445678711,20.31484426710205C39.91197445678711,20.33972806710205,39.98617445678711,20.37614326710205,40.04967445678711,20.42348246710205C40.11397445678711,20.47021446710205,40.16257445678711,20.52423046710205,40.19717445678711,20.585529467102052C40.23187445678711,20.64743546710205,40.24907445678711,20.711161467102052,40.24907445678711,20.77731546710205C40.24907445678711,20.84407546710205,40.23187445678711,20.90780246710205,40.19717445678711,20.96910146710205C40.16257445678711,21.03100746710205,40.11397445678711,21.08502246710205,40.04967445678711,21.13175146710205C39.98617445678711,21.17909746710205,39.91197445678711,21.21490246710205,39.82877445678711,21.24038946710205C39.74547445678711,21.26588446710205,39.65817445678711,21.278628467102052,39.56829445678711,21.278628467102052C39.56829445678711,21.278628467102052,30.29056845678711,21.278628467102052,30.29056845678711,21.278628467102052C30.19990845678711,21.278628467102052,30.11337145678711,21.26588446710205,30.03012845678711,21.24038946710205C29.94606245678711,21.21490246710205,29.87271145678711,21.17909746710205,29.80842545678711,21.13175146710205C29.744963456787108,21.08502246710205,29.69551305678711,21.03100746710205,29.66089755678711,20.96910146710205C29.62628225678711,20.90780246710205,29.60897445678711,20.84407546710205,29.60897445678711,20.77731546710205C29.60897445678711,20.711161467102052,29.62628225678711,20.64743546710205,29.66089755678711,20.585529467102052C29.69551305678711,20.52423046710205,29.744963456787108,20.47021446710205,29.80842545678711,20.42348246710205C29.87271145678711,20.37614326710205,29.94606245678711,20.33972806710205,30.03012845678711,20.31484426710205C30.11337145678711,20.28935386710205,30.19990845678711,20.27660846710205,30.29056845678711,20.27660846710205C30.29056845678711,20.27660846710205,39.56829445678711,20.27660846710205,39.56829445678711,20.27660846710205C39.56829445678711,20.27660846710205,39.56829445678711,20.27660846710205,39.56829445678711,20.27660846710205ZM39.56829445678711,24.29925846710205C39.65817445678711,24.29925846710205,39.74547445678711,24.31200846710205,39.82877445678711,24.33748846710205C39.91197445678711,24.36298846710205,39.98617445678711,24.39878846710205,40.04967445678711,24.44612846710205C40.11397445678711,24.49286846710205,40.16257445678711,24.54748846710205,40.19717445678711,24.60877846710205C40.23187445678711,24.67007846710205,40.24907445678711,24.73380846710205,40.24907445678711,24.80056846710205C40.24907445678711,24.86671846710205,40.23187445678711,24.93105846710205,40.19717445678711,24.99234846710205C40.16257445678711,25.05364846710205,40.11397445678711,25.10766846710205,40.04967445678711,25.15500846710205C39.98617445678711,25.20173846710205,39.91197445678711,25.23815846710205,39.82877445678711,25.26364846710205C39.74547445678711,25.28913846710205,39.65817445678711,25.301888467102053,39.56829445678711,25.301888467102053C39.56829445678711,25.301888467102053,30.29056845678711,25.301888467102053,30.29056845678711,25.301888467102053C30.19990845678711,25.301888467102053,30.11337145678711,25.28913846710205,30.03012845678711,25.26364846710205C29.94606245678711,25.23815846710205,29.87271145678711,25.20173846710205,29.80842545678711,25.15500846710205C29.744963456787108,25.10766846710205,29.69551305678711,25.05364846710205,29.66089755678711,24.99234846710205C29.62628225678711,24.93105846710205,29.60897445678711,24.86671846710205,29.60897445678711,24.80056846710205C29.60897445678711,24.73380846710205,29.62628225678711,24.67007846710205,29.66089755678711,24.60877846710205C29.69551305678711,24.54748846710205,29.744963456787108,24.49286846710205,29.80842545678711,24.44612846710205C29.87271145678711,24.39878846710205,29.94606245678711,24.36298846710205,30.03012845678711,24.33748846710205C30.11337145678711,24.31200846710205,30.19990845678711,24.29925846710205,30.29056845678711,24.29925846710205C30.29056845678711,24.29925846710205,39.56829445678711,24.29925846710205,39.56829445678711,24.29925846710205C39.56829445678711,24.29925846710205,39.56829445678711,24.29925846710205,39.56829445678711,24.29925846710205Z" fill="#A70D34" fill-opacity="0.6700000166893005"/></g><g><path d="M24.00395166793823,46.240421295166016C24.087611667938233,46.240421295166016,24.167471667938234,46.253116095166014,24.24429166793823,46.27850529516601C24.321101667938233,46.303894695166015,24.388801667938232,46.34016549516602,24.44812166793823,46.386712295166014C24.50668166793823,46.43325929516602,24.552311667938234,46.48766529516602,24.583501667938233,46.548720295166014C24.61544166793823,46.60977529516602,24.631421667938234,46.673249295166016,24.631421667938234,46.73914029516602C24.631421667938234,46.80563629516602,24.61544166793823,46.86911029516602,24.583501667938233,46.930164295166016C24.552311667938234,46.991220295166016,24.50668166793823,47.045021295166016,24.44812166793823,47.092172295166016C24.388801667938232,47.13872229516602,24.321101667938233,47.17498829516602,24.24429166793823,47.20038329516601C24.167471667938234,47.22576929516602,24.087611667938233,47.23846629516601,24.00395166793823,47.23846629516601C24.00395166793823,47.23846629516601,17.96202866793823,47.23846629516601,17.96202866793823,47.23846629516601C17.879126667938234,47.23846629516601,17.798506667938234,47.22576929516602,17.721689667938232,47.20038329516601C17.644872667938234,47.17498829516602,17.57718266793823,47.13872229516602,17.518619667938232,47.092172295166016C17.45929466793823,47.045021295166016,17.41442196793823,46.991220295166016,17.382478367938234,46.930164295166016C17.350534767938232,46.86911029516602,17.334562797938233,46.80563629516602,17.334562797938233,46.73914029516602C17.334562797938233,46.673249295166016,17.350534767938232,46.60977529516602,17.382478367938234,46.548720295166014C17.41442196793823,46.48766529516602,17.45929466793823,46.43325929516602,17.518619667938232,46.386712295166014C17.57718266793823,46.34016549516602,17.644872667938234,46.303894695166015,17.721689667938232,46.27850529516601C17.798506667938234,46.253116095166014,17.879126667938234,46.240421295166016,17.96202866793823,46.240421295166016C17.96202866793823,46.240421295166016,24.00395166793823,46.240421295166016,24.00395166793823,46.240421295166016C24.00395166793823,46.240421295166016,24.00395166793823,46.240421295166016,24.00395166793823,46.240421295166016ZM34.711141667938236,48.591961295166016C34.79404166793823,48.591961295166016,34.874641667938235,48.604651295166015,34.95154166793823,48.630041295166016C35.028341667938236,48.65543129516602,35.096841667938236,48.69170129516601,35.15534166793823,48.738251295166016C35.21464166793823,48.785391295166015,35.25954166793824,48.83920129516601,35.29154166793823,48.90026129516602C35.32344166793823,48.96131129516601,35.33944166793823,49.02539129516602,35.33944166793823,49.09128129516601C35.33944166793823,49.15778129516602,35.32344166793823,49.22125129516601,35.29154166793823,49.282301295166015C35.25954166793824,49.34336129516601,35.21464166793823,49.39777129516602,35.15534166793823,49.44431129516602C35.096841667938236,49.49146129516602,35.028341667938236,49.527131295166015,34.95154166793823,49.55252129516602C34.874641667938235,49.57791129516602,34.79404166793823,49.59060129516602,34.711141667938236,49.59060129516602C34.711141667938236,49.59060129516602,17.96202866793823,49.59060129516602,17.96202866793823,49.59060129516602C17.87836666793823,49.59060129516602,17.798506667938234,49.57791129516602,17.721689667938232,49.55252129516602C17.64411266793823,49.527131295166015,17.576422667938232,49.49146129516602,17.51709866793823,49.44431129516602C17.45853466793823,49.39777129516602,17.412900867938234,49.34336129516601,17.380957267938232,49.282301295166015C17.349013367938234,49.22125129516601,17.333041667938232,49.15778129516602,17.333041667938232,49.09128129516601C17.333041667938232,49.02539129516602,17.349013367938234,48.96131129516601,17.380957267938232,48.90026129516602C17.412900867938234,48.83920129516601,17.45853466793823,48.785391295166015,17.51709866793823,48.738251295166016C17.576422667938232,48.69170129516601,17.64411266793823,48.65543129516602,17.721689667938232,48.630041295166016C17.798506667938234,48.604651295166015,17.87836666793823,48.591961295166016,17.96202866793823,48.591961295166016C17.96202866793823,48.591961295166016,34.711141667938236,48.591961295166016,34.711141667938236,48.591961295166016C34.711141667938236,48.591961295166016,34.711141667938236,48.591961295166016,34.711141667938236,48.591961295166016Z" fill="#800020" fill-opacity="1"/></g><g><path d="M41.06117461340332,17.94668721496582C41.06117461340332,17.94668721496582,41.06117461340332,36.18991721496582,41.06117461340332,36.18991721496582C41.06117461340332,36.18991721496582,41.88686561340332,36.18991721496582,41.88686561340332,36.18991721496582C41.88686561340332,36.18991721496582,41.88686561340332,17.94668721496582,41.88686561340332,17.94668721496582C41.88686561340332,17.87926821496582,41.88144561340332,17.81336221496582,41.87121561340332,17.74746121496582C41.86098561340332,17.68155721496582,41.84533561340332,17.61792621496582,41.82487561340332,17.55581121496582C41.80441561340332,17.494452214965822,41.77974561340332,17.43536621496582,41.74965561340332,17.38006821496582C41.72016561340332,17.32401121496582,41.68646561340332,17.27250121496582,41.64915561340332,17.22553421496582C41.61123561340332,17.17781121496582,41.570315613403324,17.13539021496582,41.52637561340332,17.098273214965822C41.48184561340332,17.06115421496582,41.43489561340332,17.03009621496582,41.38615561340332,17.00434101496582C41.33680561340332,16.978585514965822,41.28625561340332,16.958890414965822,41.233899613403324,16.94601251496582C41.18154161340332,16.93237741496582,41.12857861340332,16.92631721496582,41.07561561340332,16.92631721496582C41.07561561340332,16.92631721496582,40.24992561340332,16.92631721496582,40.24992561340332,16.92631721496582C40.30288551340332,16.92631721496582,40.35584561340332,16.93237741496582,40.40820361340332,16.94601251496582C40.46056161340332,16.958890414965822,40.51111461340332,16.978585514965822,40.56046361340332,17.00434101496582C40.60921061340332,17.03009621496582,40.65615161340332,17.06115421496582,40.70068661340332,17.098273214965822C40.74461961340332,17.13539021496582,40.78554261340332,17.17781121496582,40.82345661340332,17.22553421496582C40.86076961340332,17.27250121496582,40.89447161340332,17.32401121496582,40.923960613403324,17.38006821496582C40.95405161340332,17.43536621496582,40.97872561340332,17.494452214965822,40.99918761340332,17.55581121496582C41.01964961340332,17.61792621496582,41.03529661340332,17.68155721496582,41.04552761340332,17.74746121496582C41.05635961340332,17.81336221496582,41.06117461340332,17.87926821496582,41.06117461340332,17.94668721496582C41.06117461340332,17.94668721496582,41.06117461340332,17.94668721496582,41.06117461340332,17.94668721496582Z" fill-rule="evenodd" fill="#A70D34" fill-opacity="0.6700000166893005"/></g><g><path d="M27.143188291015626,21.11394446710205C27.143188291015626,21.16157646710205,27.133408291015623,21.20920746710205,27.113848291015625,21.25603446710205C27.094288291015626,21.30326846710205,27.064958291015625,21.349298467102052,27.025838291015624,21.39411846710205C26.986728291015623,21.43895846710205,26.938818291015625,21.48257846710205,26.882098291015623,21.52420846710205C26.825378291015625,21.56583846710205,26.759858291015625,21.60505846710205,26.686518291015624,21.642288467102052C26.613188291015625,21.67910846710205,26.532018291015625,21.71352846710205,26.444015291015624,21.74474846710205C26.356978291015626,21.77636846710205,26.263107291015626,21.80438846710205,26.163365291015626,21.82919846710205C26.063624291015625,21.85401846710205,25.959970291015626,21.87563846710205,25.851427291015625,21.892848467102052C25.742885291015625,21.91044846710205,25.631408291015624,21.92445846710205,25.516998291015625,21.93406846710205C25.655854291015626,21.94607846710205,25.796666291015626,21.95208846710205,25.939435291015624,21.951678467102052C26.073402291015626,21.95127846710205,26.205413291015624,21.94527846710205,26.336443291015627,21.93446846710205C26.467480291015626,21.92326846710205,26.594608291015625,21.90724846710205,26.718788291015624,21.88603846710205C26.842008291015624,21.86482846710205,26.959348291015626,21.83880846710205,27.069838291015625,21.808388467102052C27.181318291015625,21.77756846710205,27.283998291015624,21.74274846710205,27.377878291015627,21.70391846710205C27.471748291015626,21.66509846710205,27.556818291015624,21.62306846710205,27.630158291015626,21.577438467102052C27.704478291015626,21.53180846710205,27.767058291015626,21.483778467102052,27.817908291015627,21.43294846710205C27.868758291015624,21.382518467102052,27.907878291015624,21.33048846710205,27.933298291015625,21.276848467102052C27.959698291015624,21.22281746710205,27.972408291015626,21.168779467102052,27.972408291015626,21.11394446710205C27.972408291015626,21.05910946710205,27.959698291015624,21.00507446710205,27.933298291015625,20.95144046710205C27.907878291015624,20.89780646710205,27.868758291015624,20.845372467102052,27.817908291015627,20.79494046710205C27.767058291015626,20.74450846710205,27.704478291015626,20.69607746710205,27.630158291015626,20.65044746710205C27.556818291015624,20.605218467102052,27.471748291015626,20.56279246710205,27.377878291015627,20.52396646710205C27.283998291015624,20.48514246710205,27.181318291015625,20.45031946710205,27.069838291015625,20.41990046710205C26.959348291015626,20.38908046710205,26.842008291015624,20.36306416710205,26.718788291015624,20.34185026710205C26.594608291015625,20.32063666710205,26.467480291015626,20.30462646710205,26.336443291015627,20.29381956710205C26.205413291015624,20.28261241710205,26.073402291015626,20.27700869710205,25.939435291015624,20.27660846710205C25.797644291015626,20.27660846710205,25.656832291015625,20.28261241710205,25.516998291015625,20.29381956710205C25.631408291015624,20.30382596710205,25.742885291015625,20.317434667102052,25.850449291015625,20.33504586710205C25.958992291015626,20.35305746710205,26.062646291015625,20.37427136710205,26.162387291015627,20.39908746710205C26.262129291015626,20.42390246710205,26.356004291015626,20.452321467102053,26.443032291015626,20.48354046710205C26.531038291015626,20.51516146710205,26.611228291015625,20.54918246710205,26.685548291015625,20.58640646710205C26.758878291015627,20.62323046710205,26.823428291015624,20.66245546710205,26.881118291015625,20.70408246710205C26.937828291015624,20.74570846710205,26.985748291015625,20.78893646710205,27.024858291015626,20.83416546710205C27.063978291015626,20.87899446710205,27.093318291015624,20.92502346710205,27.112868291015626,20.97185346710205C27.133408291015623,21.01908446710205,27.143188291015626,21.06631446710205,27.143188291015626,21.11394446710205C27.143188291015626,21.11394446710205,27.143188291015626,21.11394446710205,27.143188291015626,21.11394446710205Z" fill-rule="evenodd" fill="#E2AA73" fill-opacity="1"/></g><g><path d="M27.83341390563965,24.63976176361084C27.75056390563965,23.63086276361084,27.35763390563965,22.78922176361084,26.77407590563965,22.78922176361084C26.77407590563965,22.78922176361084,26.33539390563965,22.78922176361084,26.33539390563965,22.78922176361084C26.918946905639647,22.78922176361084,27.31137190563965,23.63086276361084,27.394743905639647,24.63976176361084C27.394743905639647,24.63976176361084,27.528933905639647,26.27499176361084,27.528933905639647,26.27499176361084C27.55994390563965,26.65845176361084,27.421673905639647,26.976951763610842,27.20055890563965,26.976951763610842C27.20055890563965,26.976951763610842,27.639753905639648,26.976951763610842,27.639753905639648,26.976951763610842C27.860863905639647,26.976951763610842,27.998623905639647,26.65845176361084,27.968123905639647,26.27499176361084C27.968123905639647,26.27499176361084,27.83341390563965,24.63976176361084,27.83341390563965,24.63976176361084C27.83341390563965,24.63976176361084,27.83341390563965,24.63976176361084,27.83341390563965,24.63976176361084Z" fill-rule="evenodd" fill="#0083B6" fill-opacity="1"/></g></g></g></svg>