<svg xmlns="http://www.w3.org/2000/svg" xmlns:xlink="http://www.w3.org/1999/xlink" fill="none" version="1.1" width="29" height="27" viewBox="0 0 29 27"><defs><clipPath id="master_svg0_0_3192"><rect x="0" y="0" width="29" height="27" rx="0"/></clipPath></defs><g clip-path="url(#master_svg0_0_3192)"><g><g><path d="M14.5,0C6.525,0,0,6.075,0,13.5C0,20.925,6.525,27,14.5,27C22.475,27,29,20.925,29,13.5C29,6.075,22.475,0,14.5,0C14.5,0,14.5,0,14.5,0ZM14.5,4.5C17.1583,4.5,19.3333,6.975,19.3333,10.125C19.3333,13.275,17.1583,15.75,14.5,15.75C11.8417,15.75,9.66667,13.275,9.66667,10.125C9.66667,6.975,11.8417,4.5,14.5,4.5C14.5,4.5,14.5,4.5,14.5,4.5ZM22.475,21.9375C20.4208,23.625,17.5208,24.75,14.5,24.75C11.4792,24.75,8.57917,23.625,6.525,21.9375C6.04167,21.4875,5.92083,20.8125,6.40417,20.3625C7.73333,18.9,9.54583,17.8875,11.4792,17.325C12.4458,17.775,13.4125,18,14.5,18C15.5875,18,16.5542,17.775,17.5208,17.325C19.575,17.8875,21.2667,18.9,22.5958,20.3625C23.0792,20.8125,23.0792,21.4875,22.475,21.9375C22.475,21.9375,22.475,21.9375,22.475,21.9375Z" fill="#800020" fill-opacity="1"/></g></g></g></svg>