<svg xmlns="http://www.w3.org/2000/svg" xmlns:xlink="http://www.w3.org/1999/xlink" fill="none" version="1.1" width="131" height="42.011962890625" viewBox="0 0 131 42.011962890625"><g><g transform="matrix(0.9950562119483948,-0.09931331127882004,0.1447252333164215,0.9894719123840332,-3.120230176125915,0.4008258726535132)"><g transform="matrix(1,-1.875227084724429e-9,7.900727183596246e-9,1,-1.708078967155302e-7,3.2706601871268504e-9)"><g transform="matrix(1,-1.875227084724429e-9,-6.859002255055202e-9,1,1.482865719104609e-7,3.2706601871268504e-9)"><g transform="matrix(1,-1.875227084724429e-9,-6.859002255055202e-9,1,1.4828657257659472e-7,3.2706601871268504e-9)"><path d="M15.470140871628276,36.50996283425318C12.060240871628276,37.450962834253176,6.108370871628275,37.75246283425318,7.047140871628275,32.677362834253174C7.673780871628275,29.21468283425318,11.015070871628275,26.38930283425318,14.668540871628275,26.69308283425318C18.009740871628274,26.92834283425318,18.009740871628274,21.885132834253177,14.668540871628275,21.649874734253178C8.021390871628276,21.14509783425318,2.069504871628275,26.96260283425318,1.7573676716282751,33.21406283425318C1.5823818716282751,36.40716283425318,3.150160871628275,39.39926283425318,6.072900871628275,40.97986283425318C9.414190871628275,42.82996283425318,13.346640871628274,42.32516283425318,16.862940871628275,41.384162834253175C20.097740871628275,40.50936283425318,18.740440871628277,35.63516283425318,15.470140871628276,36.50996283425318C15.470140871628276,36.50996283425318,15.470140871628276,36.50996283425318,15.470140871628276,36.50996283425318Z" fill="#E1E336" fill-opacity="1"/></g></g></g></g><g transform="matrix(0.9950562119483948,-0.09931331127882004,0.1447252333164215,0.9894719123840332,-0.20060797426049248,8.81150972947944)"><g transform="matrix(1,-1.875227084724429e-9,7.900727183596246e-9,1,-3.477110510630155e-8,1.655034402858746e-7)"><g transform="matrix(1,-1.875227084724429e-9,-6.859002255055202e-9,1,3.018647021235665e-8,1.655034402858746e-7)"><g transform="matrix(1,-1.875227084724429e-9,-6.859002255055202e-9,1,3.018647021235665e-8,1.6550344117405302e-7)"><path d="M101.55301280793692,7.959170953894986C99.39641280793693,6.0771109538949855,96.82127280793694,5.202310953894986,94.03568280793692,4.697533953894986C93.75665280793693,4.631295953894986,93.44451280793693,4.597034953894986,93.16548280793693,4.530796953894986C91.49602280793692,4.261277953894986,89.30160280793693,4.227016953894986,89.16445480793693,6.312360953894986C88.71043680793693,12.431360953894986,88.43376980793693,18.548100953894988,88.25878409993693,24.667100953894987C88.22331380793693,25.742900953894985,89.16445480793693,26.718200953894986,90.24274280793693,26.852900953894984C91.04200280793692,26.987700953894986,91.87910280793693,26.752400953894988,92.67836280793694,26.517200953894985C95.46395280793693,25.608100953894986,98.83831280793693,24.566600953894987,101.10131280793694,22.716500953894986C103.15391280793693,21.003400953894985,104.68621280793693,18.717100953894985,104.99831280793693,16.09500095389499C105.38141280793693,12.968120953894985,103.92001280793693,10.010260953894985,101.55301280793692,7.959170953894986C101.55301280793692,7.959170953894986,101.55301280793692,7.959170953894986,101.55301280793692,7.959170953894986ZM99.60451280793693,16.396500953894986C98.63021280793693,19.052900953894984,96.12369280793693,20.028200953894988,93.54856280793693,20.834400953894985C93.68807280793693,17.170800953894986,93.89617280793694,13.507160953894985,94.10662280793693,9.875500953894985C97.34150280793693,10.547010953894986,100.96181280793692,12.732860953894987,99.60451280793693,16.396500953894986C99.60451280793693,16.396500953894986,99.60451280793693,16.396500953894986,99.60451280793693,16.396500953894986Z" fill="#E1E336" fill-opacity="1"/></g></g></g></g><g transform="matrix(0.9950562119483948,-0.09931331127882004,0.1447252333164215,0.9894719123840332,-0.5169971745526709,6.953588009899249)"><g transform="matrix(1,-1.875227084724429e-9,7.900727183596246e-9,1,-4.6950106025178684e-8,1.3011585409117288e-7)"><g transform="matrix(1,-1.875227084724429e-9,-6.859002255055202e-9,1,4.075965875927068e-8,1.301158549793513e-7)"><g transform="matrix(1,-1.875227084724429e-9,-6.859002255055202e-9,1,4.075965875927068e-8,1.301158549793513e-7)"><path d="M82.18021911955981,23.522604948755934C79.77771911955982,23.45640494875593,77.37519911955981,23.522604948755934,75.01052911955982,23.757904948755936C75.18314911955981,22.481104948755934,75.39123911955981,21.204304948755933,75.56621911955982,19.893204948755933C76.74855911955981,19.893204948755933,77.9332591195598,19.959504948755935,79.11559911955982,20.06000494875593C80.54381911955981,20.194704948755934,81.72621911955981,18.817504948755932,81.72621911955981,17.540704948755934C81.72621911955981,16.060604948755934,80.54381911955981,15.153824948755934,79.11559911955982,15.019064948755934C78.21228911955981,14.950544948755933,77.30661911955981,14.884304948755934,76.36784911955982,14.884304948755934C76.57593911955982,13.573254948755935,76.81949911955981,12.262204948755933,77.02758911955982,10.983124948755933C78.80345911955982,10.983124948755933,80.54381911955981,11.017394948755934,82.31741911955982,11.152154948755934C85.65861911955982,11.353144948755933,85.65861911955982,6.312225948755934,82.31741911955982,6.108943948755934C79.81321911955982,5.942207403755934,77.27115911955981,5.907947048755934,74.76695911955981,5.974184648755934C73.7903491195598,6.008445148755934,73.09513911955982,6.478961948755934,72.67658911955981,7.084234948755934C72.50396911955981,7.353754948755934,72.36444911955981,7.689514948755933,72.29587911955981,8.093794948755933C71.14664911955981,14.244764948755934,70.20550511955982,20.430004948755936,69.40624531955982,26.649504948755933C69.16268411955981,28.431104948755937,71.25068911955981,29.30590494875593,72.71205911955981,29.070604948755935C75.84525911955981,28.600104948755934,79.01155911955982,28.465304948755936,82.18021911955981,28.565804948755932C85.51911911955982,28.70060494875593,85.51911911955982,23.657404948755932,82.18021911955981,23.522604948755934C82.18021911955981,23.522604948755934,82.18021911955981,23.522604948755934,82.18021911955981,23.522604948755934Z" fill="#E1E336" fill-opacity="1"/></g></g></g></g><g transform="matrix(0.9950562119483948,-0.09931331127882004,0.1447252333164215,0.9894719123840332,-1.471543652802211,4.3156992878211895)"><g transform="matrix(1,-1.875227084724429e-9,7.900727183596246e-9,1,-9.172925530265275e-8,7.918073130497305e-8)"><g transform="matrix(1,-1.875227084724429e-9,-6.859002255055202e-9,1,7.963458870108298e-8,7.918073130497305e-8)"><g transform="matrix(1,-1.875227084724429e-9,-6.859002255055202e-9,1,7.963458870108298e-8,7.918073130497305e-8)"><path d="M66.45440973369786,21.405179074040113C66.41890973369786,18.481589074040112,66.03580973369786,14.884189074040114,63.60020973369786,12.833099074040113C60.92100973369786,10.546759074040112,58.31040973369786,11.757311074040112,56.29100973369786,14.075629074040112C56.22240973369786,13.975129074040114,56.11840973369786,13.840369074040114,56.047509733697865,13.705619074040113C54.16750973369786,10.916777074040112,50.19961973369786,11.117775074040113,47.90351973369786,13.269359074040112C45.43243973369786,15.621939074040114,44.17915973369786,19.45459907404011,43.44847973369786,22.61572907404011C42.68232273369786,26.078329074040113,42.43876073369786,29.641529074040115,42.23066968369786,33.170429074040115C42.02257873369786,36.397729074040114,47.24141973369786,36.397729074040114,47.45186973369786,33.170429074040115C47.695429733697864,28.935729074040115,47.97209973369786,24.632529074040114,49.46893973369786,20.598909074040115C49.81890973369786,19.72411907404011,50.19961973369786,18.849319074040114,50.72221973369786,18.008789074040113C50.89719973369786,17.741549074040112,51.348859733697864,16.83248907404011,51.76739973369786,16.73199907404011C51.76739973369786,16.73199907404011,51.800509733697865,16.73199907404011,51.800509733697865,16.69772907404011C51.800509733697865,16.766259074040114,51.800509733697865,16.800519074040114,51.87144973369786,16.86675907404011C52.29000973369786,17.405789074040115,52.150479733697864,18.984079074040114,52.18357973369786,19.623619074040114C52.21904973369786,20.834169074040112,52.150479733697864,22.076729074040113,52.01095973369786,23.287229074040113C51.73192973369786,26.078329074040113,56.67410973369786,26.74992907404011,57.16120973369786,23.961029074040113C57.44020973369786,22.145229074040113,58.03140973369786,20.464149074040115,59.041109733697866,18.917839074040113C59.388709733697866,18.447329074040113,60.15490973369786,17.842049074040112,60.60650973369786,17.271029074040115C60.67750973369786,17.807789074040112,60.954209733697866,18.346829074040112,61.02510973369786,18.883579074040114C61.85980973369786,23.321529074040114,60.954209733697866,28.264229074040113,60.50250973369786,32.73412907404011C60.15490973369786,35.961529074040115,65.37610973369786,35.92722907404011,65.72370973369786,32.73412907404011C66.10680973369786,28.970029074040113,66.52300973369786,25.169329074040114,66.45440973369786,21.405179074040113C66.45440973369786,21.405179074040113,66.45440973369786,21.405179074040113,66.45440973369786,21.405179074040113Z" fill="#E1E336" fill-opacity="1"/></g></g></g></g><g transform="matrix(0.9950562119483948,-0.09931331127882004,0.1447252333164215,0.9894719123840332,-2.345065060941124,2.179236104566371)"><g transform="matrix(1,4.695535515963911e-9,5.323333995832513e-10,1,-8.992159905574226e-9,-9.462604566579103e-8)"><g transform="matrix(1,-2.701483259315296e-9,5.323333995832513e-10,1,-8.992159905574226e-9,5.444121953246395e-8)"><g transform="matrix(1,-2.701483259315296e-9,5.323333995832513e-10,1,-8.992159905574226e-9,5.444121953246395e-8)"><path d="M37.78494380313271,20.73707980973912C34.93084380313271,16.19864780973912,27.484453803132713,15.62763980973912,23.760093803132712,19.29126980973912C20.104301403132713,22.31764980973912,19.58407380313271,29.34346980973912,20.626894803132714,33.276569809739115C21.357583803132712,35.96486980973912,23.20202380313271,38.790269809739115,26.05618380313271,39.66276980973912C29.014393803132712,40.60386980973912,32.287143803132714,39.56226980973912,34.61864380313271,37.71446980973912C36.98574380313271,35.79816980973912,38.447043803132715,33.00706980973912,38.934243803132716,30.08346980973912C39.385843803132715,27.191869809739117,39.421343803132714,23.32491980973912,37.78494380313271,20.73707980973912C37.78494380313271,20.73707980973912,37.78494380313271,20.73707980973912,37.78494380313271,20.73707980973912ZM31.452343803132713,33.813369809739115C31.345943803132712,33.881869809739115,31.277343803132712,33.948069809739124,31.173343803132713,34.04856980973912C30.05958380313271,34.957669809739116,28.283713803132713,35.32766980973912,27.101373803132713,34.45286980973912C26.335223803132713,33.91386980973912,25.987613803132714,33.00706980973912,25.74405380313271,32.13226980973912C25.396443803132712,30.68646980973912,25.32550380313271,29.17436980973912,25.500493803132713,27.69656980973912C25.67311380313271,26.351299809739118,26.023083803132714,24.63596980973912,26.82234380313271,23.52591980973912C27.553023803132714,22.55290980973912,28.77083380313271,21.94762980973912,30.024113803132714,21.91336980973912C32.18304380313271,21.87910980973912,33.57344380313271,23.290659809739118,33.81704380313271,25.24124980973912C34.23564380313271,28.19906980973912,33.783943803132715,31.66176980973912,31.452343803132713,33.813369809739115C31.452343803132713,33.813369809739115,31.452343803132713,33.813369809739115,31.452343803132713,33.813369809739115Z" fill="#E1E336" fill-opacity="1"/></g></g></g></g><g transform="matrix(0.9950562119483948,-0.09931331127882004,0.1447252333164215,0.9894719123840332,-2.9382296361109184,0.21374254050897434)"><g><g><g><path d="M13.725999963903353,35.19282406692243C10.316099963903353,36.13382406692242,4.364229963903353,36.43532406692242,5.3029999639033525,31.360224066922424C5.929639963903353,27.897544066922425,9.270929963903352,25.072164066922426,12.924399963903353,25.375944066922425C16.26559996390335,25.611204066922426,16.26559996390335,20.567994066922424,12.924399963903353,20.332735966922424C6.277249963903353,19.827959066922425,0.32536396390335254,25.645464066922425,0.013226763903352552,31.896924066922423C-0.16175903609664743,35.090024066922425,1.4060199639033526,38.082124066922425,4.3287599639033525,39.66272406692242C7.670049963903352,41.51282406692242,11.602499963903352,41.008024066922424,15.118799963903353,40.06702406692243C18.353599963903353,39.19222406692242,16.996299963903354,34.318024066922426,13.725999963903353,35.19282406692243C13.725999963903353,35.19282406692243,13.725999963903353,35.19282406692243,13.725999963903353,35.19282406692243Z" fill="#E1E336" fill-opacity="1"/></g></g></g></g><g transform="matrix(0.9950562119483948,-0.09931331127882004,0.1447252333164215,0.9894719123840332,-0.3826245359123277,8.998983574580052)"><g transform="matrix(1,-1.875227084724429e-9,7.900727183596246e-9,1,-4.517939089510037e-8,1.6878142528042872e-7)"><g transform="matrix(1,-1.875227084724429e-9,-6.859002255055202e-9,1,3.922241376130842e-8,1.6878142528042872e-7)"><g transform="matrix(1,-1.875227084724429e-9,-6.859002255055202e-9,1,3.922241376130842e-8,1.6878142616860714e-7)"><path d="M103.30105968293692,9.276553766394986C101.14445968293693,7.3944937663949855,98.56931968293694,6.519693766394986,95.78372968293692,6.014916766394986C95.50469968293693,5.948678766394986,95.19255968293693,5.914417766394986,94.91352968293693,5.848179766394986C93.24406968293692,5.578660766394986,91.04964968293693,5.544399766394986,90.91250168293693,7.629743766394986C90.45848368293693,13.748743766394986,90.18181668293693,19.865483766394988,90.00683097493693,25.984483766394987C89.97136068293693,27.060283766394985,90.91250168293693,28.035583766394986,91.99078968293693,28.170283766394984C92.79004968293692,28.305083766394986,93.62714968293693,28.069783766394988,94.42640968293694,27.834583766394985C97.21199968293693,26.925483766394986,100.58635968293693,25.883983766394987,102.84935968293694,24.033883766394986C104.90195968293693,22.320783766394985,106.43425968293693,20.034483766394985,106.74635968293693,17.41238376639499C107.12945968293693,14.285503766394985,105.66805968293693,11.327643766394985,103.30105968293692,9.276553766394986C103.30105968293692,9.276553766394986,103.30105968293692,9.276553766394986,103.30105968293692,9.276553766394986ZM101.35255968293693,17.713883766394986C100.37825968293693,20.370283766394984,97.87173968293693,21.345583766394988,95.29660968293693,22.151783766394985C95.43611968293693,18.488183766394986,95.64421968293694,14.824543766394985,95.85466968293693,11.192883766394985C99.08954968293693,11.864393766394986,102.70985968293692,14.050243766394987,101.35255968293693,17.713883766394986C101.35255968293693,17.713883766394986,101.35255968293693,17.713883766394986,101.35255968293693,17.713883766394986Z" fill="#E1E336" fill-opacity="1"/></g></g></g></g><g transform="matrix(0.9950562119483948,-0.09931331127882004,0.1447252333164215,0.9894719123840332,-0.6990330478765827,7.140673912377679)"><g transform="matrix(1,-1.875227084724429e-9,7.900727183596246e-9,1,-5.7358391813977505e-8,1.3338651427829973e-7)"><g transform="matrix(1,-1.875227084724429e-9,-6.859002255055202e-9,1,4.979558809736773e-8,1.3338651427829973e-7)"><g transform="matrix(1,-1.875227084724429e-9,-6.859002255055202e-9,1,4.979558809736773e-8,1.3338651516647815e-7)"><path d="M83.92435974455981,24.839987761255934C81.52185974455982,24.77378776125593,79.11933974455981,24.839987761255934,76.75466974455982,25.075287761255936C76.92728974455981,23.798487761255934,77.13537974455981,22.521687761255933,77.31035974455982,21.210587761255933C78.49269974455981,21.210587761255933,79.6773997445598,21.276887761255935,80.85973974455982,21.37738776125593C82.28795974455981,21.512087761255934,83.47035974455981,20.134887761255932,83.47035974455981,18.858087761255934C83.47035974455981,17.377987761255934,82.28795974455981,16.471207761255933,80.85973974455982,16.336447761255933C79.95642974455981,16.267927761255933,79.05075974455981,16.201687761255933,78.11198974455982,16.201687761255933C78.32007974455982,14.890637761255935,78.56363974455981,13.579587761255933,78.77172974455982,12.300507761255933C80.54759974455982,12.300507761255933,82.28795974455981,12.334777761255934,84.06155974455982,12.469537761255934C87.40275974455982,12.670527761255933,87.40275974455982,7.629608761255934,84.06155974455982,7.426326761255934C81.55735974455982,7.259590216255934,79.01529974455981,7.225329861255934,76.51109974455981,7.291567461255934C75.5344897445598,7.325827961255934,74.83927974455982,7.796344761255934,74.42072974455981,8.401617761255935C74.24810974455981,8.671137761255935,74.10858974455981,9.006897761255933,74.04001974455981,9.411177761255933C72.89078974455981,15.562147761255934,71.94964574455982,21.747387761255936,71.15038594455982,27.966887761255933C70.90682474455981,29.748487761255937,72.99482974455981,30.62328776125593,74.45619974455981,30.387987761255935C77.58939974455981,29.917487761255934,80.75569974455982,29.782687761255936,83.92435974455981,29.883187761255932C87.26325974455982,30.01798776125593,87.26325974455982,24.974787761255932,83.92435974455981,24.839987761255934C83.92435974455981,24.839987761255934,83.92435974455981,24.839987761255934,83.92435974455981,24.839987761255934Z" fill="#E1E336" fill-opacity="1"/></g></g></g></g><g transform="matrix(0.9950562119483948,-0.09931331127882004,0.1447252333164215,0.9894719123840332,0.10250966372768744,10.968442371449783)"><g transform="matrix(1,-1.4246012147722809e-9,6.529300433655294e-10,1,-1.993626597140974e-9,1.5687586163437572e-7)"><g transform="matrix(1,-1.4246012147722809e-9,6.529300433655294e-10,1,-1.993626597140974e-9,1.5687586163437572e-7)"><g transform="matrix(1,-1.4246012147722809e-9,6.529300433655294e-10,1,-1.993626597140974e-9,1.5687586207846493e-7)"><path d="M122.41924099543986,5.080416780736572C122.17574099543987,7.030996780736572,121.93214099543987,9.013566780736571,121.65544099543986,10.964156780736571C120.81834099543987,12.578986780736571,118.24324099543986,15.201046780736572,116.29475099543987,13.956246780736572C114.34625099543986,12.679486780736571,115.49549099543987,8.54304678073657,116.19070099543987,6.996736780736572C117.54802099543987,4.004617780736572,112.81395099543987,1.8872967807365717,111.45662099543986,4.845156780736572C109.57670699543986,9.08208678073657,109.05648099543987,16.04164678073657,114.10269099543986,18.52894678073657C115.98261099543987,19.435746780736572,117.99968099543986,19.435746780736572,119.91506099543986,18.796246780736574C119.28843099543987,20.242046780736572,118.31418099543987,21.553046780736572,116.74640099543987,22.226846780736572C113.71962099543987,23.537946780736572,115.52859099543986,28.277346780736572,118.62632099543987,26.93204678073657C126.66624099543986,23.437446780736572,126.59764099543986,13.184246780736572,127.57184099543986,5.955206780736572C127.98804099543986,2.727827780736572,122.87324099543986,1.8530367807365717,122.41924099543986,5.080416780736572C122.41924099543986,5.080416780736572,122.41924099543986,5.080416780736572,122.41924099543986,5.080416780736572Z" fill="#E1E336" fill-opacity="1"/></g></g></g></g><g transform="matrix(0.9950562119483948,-0.09931331127882004,0.1447252333164215,0.9894719123840332,0.2845905261965527,10.781547869948554)"><g transform="matrix(1,-1.875227084724429e-9,7.900727183596246e-9,1,-1.3713432167605788e-8,2.0323139793276823e-7)"><g transform="matrix(1,-1.875227084724429e-9,-6.859002255055202e-9,1,1.190528564620763e-8,2.0323139815481284e-7)"><g transform="matrix(1,-1.875227084724429e-9,-6.859002255055202e-9,1,1.1905299857062346e-8,2.0323139926503586e-7)"><path d="M120.677053826272,3.7627898477661983C120.433553826272,5.713369847766199,120.189953826272,7.695939847766198,119.913253826272,9.646529847766198C119.076153826272,11.261359847766197,116.501053826272,13.883419847766199,114.552563826272,12.638619847766199C112.604063826272,11.361859847766198,113.753303826272,7.225419847766198,114.448513826272,5.679109847766198C115.805833826272,2.6869908477661983,111.071763826272,0.5696698477661981,109.714433826272,3.527529847766198C107.834519826272,7.764459847766198,107.314293826272,14.724019847766199,112.360503826272,17.211319847766198C114.240423826272,18.1181198477662,116.257493826272,18.1181198477662,118.172873826272,17.478619847766197C117.546243826272,18.9244198477662,116.571993826272,20.2354198477662,115.00421382627201,20.9092198477662C111.977433826272,22.2203198477662,113.786403826272,26.9597198477662,116.884133826272,25.614419847766197C124.924053826272,22.1198198477662,124.855453826272,11.866619847766199,125.829653826272,4.637579847766198C126.245853826272,1.4102008477661983,121.131053826272,0.5354098477661982,120.677053826272,3.7627898477661983C120.677053826272,3.7627898477661983,120.677053826272,3.7627898477661983,120.677053826272,3.7627898477661983Z" fill="#E1E336" fill-opacity="1"/></g></g></g></g><g transform="matrix(0.9950562119483948,-0.09931331127882004,0.1447252333164215,0.9894719123840332,-1.653585891926923,4.503369674566784)"><g transform="matrix(1,-1.875227084724429e-9,7.900727183596246e-9,1,-1.0213946666226548e-7,8.246237825915159e-8)"><g transform="matrix(1,-1.875227084724429e-9,-6.859002255055202e-9,1,8.867219492003642e-8,8.246237825915159e-8)"><g transform="matrix(1,-1.875227084724429e-9,-6.859002255055202e-9,1,8.867219492003642e-8,8.246238003550843e-8)"><path d="M68.20440973369786,22.722806027165113C68.16890973369786,19.799216027165112,67.78580973369786,16.201816027165112,65.35020973369785,14.150726027165113C62.67100973369786,11.864386027165112,60.06040973369786,13.074938027165112,58.04100973369786,15.393256027165112C57.97240973369786,15.292756027165114,57.86840973369786,15.157996027165114,57.797509733697865,15.023246027165113C55.91750973369786,12.234404027165112,51.94961973369786,12.435402027165113,49.65351973369786,14.586986027165112C47.18243973369786,16.939566027165114,45.92915973369786,20.77222602716511,45.19847973369786,23.93335602716511C44.43232273369786,27.395956027165113,44.18876073369786,30.959156027165115,43.98066968369786,34.488056027165115C43.77257873369786,37.715356027165114,48.99141973369786,37.715356027165114,49.20186973369786,34.488056027165115C49.445429733697864,30.253356027165115,49.72209973369786,25.950156027165114,51.21893973369786,21.916536027165115C51.56890973369786,21.04174602716511,51.94961973369786,20.166946027165114,52.47221973369786,19.326416027165113C52.64719973369786,19.059176027165112,53.098859733697864,18.15011602716511,53.51739973369786,18.04962602716511C53.51739973369786,18.04962602716511,53.550509733697865,18.04962602716511,53.550509733697865,18.01535602716511C53.550509733697865,18.083886027165114,53.550509733697865,18.118146027165114,53.62144973369786,18.18438602716511C54.04000973369786,18.723416027165115,53.900479733697864,20.301706027165114,53.93357973369786,20.941246027165114C53.96904973369786,22.151796027165112,53.900479733697864,23.394356027165113,53.76095973369786,24.604856027165113C53.48192973369786,27.395956027165113,58.42410973369786,28.06755602716511,58.91120973369786,25.278656027165113C59.19020973369786,23.462856027165113,59.78140973369786,21.781776027165115,60.791109733697866,20.235466027165113C61.138709733697866,19.764956027165113,61.90490973369786,19.159676027165112,62.35650973369786,18.588656027165115C62.42750973369786,19.125416027165112,62.704209733697866,19.664456027165112,62.77510973369786,20.201206027165114C63.60980973369786,24.639156027165114,62.704209733697866,29.581856027165113,62.25250973369786,34.05175602716511C61.90490973369786,37.279156027165115,67.12610973369786,37.24485602716511,67.47370973369786,34.05175602716511C67.85680973369786,30.287656027165113,68.27300973369786,26.486956027165114,68.20440973369786,22.722806027165113C68.20440973369786,22.722806027165113,68.20440973369786,22.722806027165113,68.20440973369786,22.722806027165113Z" fill="#E1E336" fill-opacity="1"/></g></g></g></g><g transform="matrix(0.9950562119483948,-0.09931331127882004,0.1447252333164215,0.9894719123840332,-2.527110590101074,2.366128035733709)"><g transform="matrix(1,-1.875227084724429e-9,7.900727183596246e-9,1,-1.4386711200131685e-7,4.1057216293438614e-8)"><g transform="matrix(1,-1.875227084724429e-9,-6.859002255055202e-9,1,1.2489797640569122e-7,4.105721984615229e-8)"><g transform="matrix(1,-1.875227084724429e-9,-6.859002255055202e-9,1,1.2489799061654594e-7,4.105721984615229e-8)"><path d="M39.527131620341024,22.054462613719792C36.67303162034103,17.516030613719796,29.226641620341027,16.945022613719793,25.502281620341027,20.608652613719794C21.846489220341027,23.635032613719794,21.32626162034103,30.660852613719793,22.36908262034103,34.59395261371979C23.099771620341027,37.28225261371979,24.944211620341026,40.10765261371979,27.798371620341026,40.980152613719795C30.756581620341027,41.921252613719794,34.029331620341026,40.8796526137198,36.36083162034103,39.03185261371979C38.727931620341025,37.11555261371979,40.189231620341026,34.3244526137198,40.67643162034103,31.400852613719792C41.12803162034103,28.509252613719795,41.163531620341026,24.642302613719792,39.527131620341024,22.054462613719792C39.527131620341024,22.054462613719792,39.527131620341024,22.054462613719792,39.527131620341024,22.054462613719792ZM33.194531620341024,35.13075261371979C33.08813162034103,35.19925261371979,33.01953162034103,35.265452613719795,32.91553162034103,35.3659526137198C31.80177162034103,36.275052613719794,30.025901620341028,36.6450526137198,28.843561620341028,35.77025261371979C28.077411620341028,35.23125261371979,27.72980162034103,34.3244526137198,27.486241620341026,33.44965261371979C27.138631620341027,32.00385261371979,27.067691620341026,30.491752613719797,27.242681620341028,29.013952613719795C27.415301620341026,27.668682613719795,27.765271620341025,25.953352613719794,28.56453162034103,24.843302613719793C29.29521162034103,23.870292613719794,30.51302162034103,23.265012613719794,31.766301620341025,23.230752613719794C33.92523162034102,23.196492613719794,35.31563162034102,24.608042613719796,35.55923162034102,26.558632613719794C35.97783162034103,29.516452613719792,35.526131620341026,32.97915261371979,33.194531620341024,35.13075261371979C33.194531620341024,35.13075261371979,33.194531620341024,35.13075261371979,33.194531620341024,35.13075261371979Z" fill="#E1E336" fill-opacity="1"/></g></g></g></g></g></svg>