<svg xmlns="http://www.w3.org/2000/svg" xmlns:xlink="http://www.w3.org/1999/xlink" fill="none" version="1.1" width="125" height="125" viewBox="0 0 125 125"><g><g transform="matrix(0.010142816230654716,-0.9999485015869141,0.9999504685401917,0.009952768683433533,-19.174228321302508,88.30761946175335)"><path d="M39.65728875,63.21292609375C42.22296875,63.21292609375,44.30285875,61.11326609375,44.30285875,58.52320609375C44.30285875,55.93314609375,42.22296875,53.83349609375,39.65728875,53.83349609375C37.09160875,53.83349609375,35.01171875,55.93314609375,35.01171875,58.52320609375C35.01171875,61.11326609375,37.09160875,63.21292609375,39.65728875,63.21292609375C39.65728875,63.21292609375,39.65728875,63.21292609375,39.65728875,63.21292609375Z" fill="#FF37D0" fill-opacity="1"/></g><g><path d="M102.9747,58.1564C103.0862,65.8139,101.5407,73.4039,98.4458,80.398C95.2455,86.3464,90.7484,91.4856,85.2928,95.4288C81.8218,98.2008,77.7877,100.1682,73.47710000000001,101.1911C69.1666,102.2141,64.6854,102.26740000000001,60.352,101.3474C52.8361,99.89330000000001,45.802800000000005,96.56020000000001,39.897099999999995,91.6539C33.7547,87.1819,28.196649999999998,81.94659999999999,23.35454,76.0721C21.22544,73.6625,19.771466,70.7247,19.142075,67.5609C18.9044798,65.9907,18.965317,64.38929999999999,19.321348,62.842C19.584357,61.9577,20.12886,61.1853,20.87078,60.644C21.6127,60.1026,22.51079,59.8225,23.42638,59.8469C24.37222,59.76,25.318559999999998,60.0078,26.10287,60.5477C26.88718,61.0876,27.46051,61.8859,27.7244,62.8055C28.8585,70.6015,34.7968,74.7688,39.9324,79.4564C44.3853,83.8283,49.5513,87.3955,55.2043,90.0017C57.9699,91.4584,61.0025,92.3281,64.1147,92.5569C67.2269,92.78569999999999,70.3526,92.3688,73.2987,91.332C78.0743,89.5176,82.3214,86.5233,85.65,82.6238C88.9787,78.7243,91.2823,74.0445,92.3495,69.0141C93.06,63.9296,93.4985,58.8102,93.6632,53.67814C93.7477,52.47459,94.0569,51.29794,94.5745,50.21C95.0353,49.38066,95.7545,48.727587,96.6208,48.351892C97.4871,47.9761969,98.452,47.898845,99.3663,48.131814C100.313,48.338475,101.1699,48.843569,101.8128,49.57393C102.4557,50.30429,102.8512,51.22198,102.942,52.19406C103.0062,53.18575,103.0171,54.18021,102.9747,55.17309C102.9766,56.16677,102.9747,57.16176,102.9747,58.1564C102.9747,58.1564,102.9747,58.1564,102.9747,58.1564Z" fill="#FF37D0" fill-opacity="1"/></g><g transform="matrix(0.9998334050178528,-0.018259482458233833,0.018608059734106064,0.9998269081115723,-0.9034935904865051,1.2684155000606552)"><path d="M73.70119,58.485550859374996C76.29758,58.485550859374996,78.40236,56.400550859375,78.40236,53.828590859375C78.40236,51.256620859375,76.29758,49.171630859375,73.70119,49.171630859375C71.10479,49.171630859375,69,51.256620859375,69,53.828590859375C69,56.400550859375,71.10479,58.485550859374996,73.70119,58.485550859374996C73.70119,58.485550859374996,73.70119,58.485550859374996,73.70119,58.485550859374996Z" fill="#FF37D0" fill-opacity="1"/></g><g><path d="M53.3035,0.0332745C65.1407,0.00759829,76.8596,2.35614,87.7482,6.9362C96.4165,10.2699,104.148,15.6051,110.295,22.4943C117.593,30.9472,122.459,41.1751,124.389,52.1132C125.75,61.3115,124.829,70.698,121.704,79.4677C118.162,90.5111,112.196,100.649,104.23,109.158C99.3076,114.481,93.2469,118.657,86.4866,121.385C79.7264,124.112,72.4358,125.322,65.143,124.927C55.5738,124.319,46.2258,121.822,37.6537,117.583C29.0817,113.343,21.4603,107.449,15.2419,100.248C8.19629,92.8963,3.28377,83.8111,1.01857,73.9439C-0.0552539,68.4307,-0.281625,62.7895,0.347067,57.2099C0.542397,49.7925,2.26393,42.4917,5.40715,35.7507C9.70989,27.0809,15.7088,19.3364,23.0585,12.9631C25.2663,11.0814,27.2345,8.92307,29.4692,7.07567C35.7028,2.17973,43.5238,-0.32217,51.4839,0.0332745C52.0905,0.0324116,52.6971,0.0324116,53.3035,0.0332745C53.3035,0.0332745,53.3035,0.0332745,53.3035,0.0332745ZM9.27019,61.0975C9.4493,64.1853,9.56707,67.2782,9.8364,70.3582C9.98402,71.655,10.2679,72.9331,10.6834,74.172C13.4388,83.3519,18.7472,91.5863,26.0063,97.941C35.6577,107.659,48.4065,113.803,62.1096,115.34C66.106,115.803,70.1438,115.802,74.1399,115.335C81.4947,113.983,88.3791,110.805,94.1437,106.101C98.8974,101.944,102.848,96.9704,105.803,91.4229C110.673,83.758,113.874,75.1776,115.202,66.2268C116.662,55.2839,114.043,44.1905,107.833,35.0093C104.822,29.863,100.767,25.3841,95.923,21.8523C82.1215,12.8262,65.7545,8.39253,49.2155,9.19974C45.0526,9.22821,40.9758,10.3725,37.4213,12.5101C36.7009,12.9666,36.1666,13.6588,35.9123,14.4653C35.7034,15.3406,35.2835,16.1534,34.6882,16.8344C34.0929,17.5155,33.3397,18.0449,32.4928,18.3775C31.525,18.7702,30.6063,19.2713,29.7546,19.8709C22.5115,25.6231,16.8095,33.0402,13.1483,41.4718C10.7102,47.742,9.39783,54.3831,9.27019,61.0975C9.27019,61.0975,9.27019,61.0975,9.27019,61.0975Z" fill="#FF37D0" fill-opacity="1"/></g></g></svg>