<svg xmlns="http://www.w3.org/2000/svg" xmlns:xlink="http://www.w3.org/1999/xlink" fill="none" version="1.1" width="156.998046875" height="153.62744140625" viewBox="0 0 156.998046875 153.62744140625"><g><g transform="matrix(0.1238793358206749,-0.9922972917556763,0.99422687292099,0.10729862749576569,2.9084095010184683,141.928503798772)"><path d="M86.03226,78.7888515625C88.67343,78.7888515625,90.81451,76.5243115625,90.81451,73.73085156249999C90.81451,70.9373915625,88.67343,68.6728515625,86.03226,68.6728515625C83.39109,68.6728515625,81.25,70.9373915625,81.25,73.73085156249999C81.25,76.5243115625,83.39109,78.7888515625,86.03226,78.7888515625C86.03226,78.7888515625,86.03226,78.7888515625,86.03226,78.7888515625Z" fill="#FF37D0" fill-opacity="1"/></g><g transform="matrix(0.9969841241836548,0.07760589569807053,-0.09068115055561066,0.9958799481391907,6.657666855477146,-2.8602218514861306)"><path d="M45.740480625000004,81.6225096875C48.534400625,81.6225096875,50.799340625,79.4830896875,50.799340625,76.84396968749999C50.799340625,74.2048596875,48.534400625,72.0654296875,45.740480625000004,72.0654296875C42.946560625000004,72.0654296875,40.681640625,74.2048596875,40.681640625,76.84396968749999C40.681640625,79.4830896875,42.946560625000004,81.6225096875,45.740480625000004,81.6225096875C45.740480625000004,81.6225096875,45.740480625000004,81.6225096875,45.740480625000004,81.6225096875Z" fill="#FF37D0" fill-opacity="1"/></g><g transform="matrix(0.9961109161376953,0.0881078913807869,-0.10243317484855652,0.9947399497032166,8.424252211101702,-3.7984092527913162)"><path d="M53.754379375,103.77406328125C52.624639375,103.89736328125,51.483309375,103.67106328125,50.498179375,103.12856328125C49.513049375,102.58616328125,48.736112375,101.75596328125,48.281593375,100.76036328125C47.848241575,99.77826328124999,47.794261375,98.68106328125,48.129286375,97.66446328125C48.464310375,96.64786328125,49.166539375,95.77816328125,50.110679375000004,95.21036328125C53.353749375,93.25136328125001,56.822069375,91.65536328125,60.447109375,90.45396328125C67.007709375,88.58616328125,73.780109375,87.40827328125,80.428509375,85.80712328125C87.01800937499999,84.21943328125,93.57960937499999,82.52030328125,100.119409375,80.75616728125C101.317509375,80.31951628125,102.64040937499999,80.31098728125,103.844609375,80.73215428125C105.04880937499999,81.15332228125,106.053209375,81.97583328125,106.672909375,83.04829328125C106.975609375,83.59077328125,107.15930937499999,84.18654328125,107.212709375,84.79915328125C107.266109375,85.41176328125,107.188209375,86.02834328125,106.983609375,86.61119328125C106.77910937499999,87.19404328125,106.452209375,87.73090328125,106.023009375,88.18894328125C105.593809375,88.64698328125,105.071309375,89.01657328125,104.487509375,89.27511328125C101.89180937500001,90.49756328125,99.159509375,91.43516328125,96.342809375,92.06996328125C86.677509375,94.28696328125,76.928309375,96.17806328125,67.293209375,98.50156328125C63.809909375000004,99.56576328125,60.410109375,100.86506328125,57.119619375,102.38976328125C55.770989375,102.91706328125,54.441389375,103.48956328125,53.754379375,103.77406328125C53.754379375,103.77406328125,53.754379375,103.77406328125,53.754379375,103.77406328125Z" fill="#FF37D0" fill-opacity="1"/></g><g transform="matrix(0.9961109161376953,0.0881078913807869,-0.10243317484855652,0.9947399497032166,0.05647527053952217,-1.279457368000294)"><path d="M14.521484375,71.2248C14.636773375,62.1164,16.231734375,53.0839,19.246504375,44.4667C23.768414375,33.7035,30.641284375,24.0405,39.382484375000004,16.1565C42.247684375,13.473,45.121484375,10.7899,48.121584375,8.25462C54.436384375,3.01042,62.445884375,0.130877,70.724784375,0.128424C85.884584375,-0.634078,101.021784375,2.00641,114.980484375,7.84829C124.892484375,11.6091,133.73148437499998,17.6585,140.744484375,25.4823C149.083484375,35.0678,154.646484375,46.6675,156.855484375,59.0739C158.411484375,69.5067,157.363484375,80.1536,153.798484375,90.1024C149.758484375,102.631,142.944484375,114.131,133.841484375,123.782C128.086484375,129.953,120.977484375,134.765,113.049484375,137.855C105.121284375,140.946,96.580584375,142.234,88.070484375,141.623C66.410284375,139.918,46.320684375,129.881,32.195084375,113.707C24.089004375000002,105.412,18.482614375,95.0836,15.995684375,83.8625C15.266265375,79.6799,14.774111375,75.4608,14.521484375,71.2248C14.521484375,71.2248,14.521484375,71.2248,14.521484375,71.2248ZM93.528084375,131.253C95.542484375,131.312,97.558084375,131.185,99.548584375,130.876C107.896784375,129.142,115.713484375,125.514,122.369484375,120.283C127.993484375,115.317,132.661484375,109.403,136.152484375,102.822C142.188484375,93.371,145.825484375,82.6405,146.757484375,71.5295C147.473484375,60.3573,144.436484375,49.2626,138.110484375,39.9398C134.62548437499998,33.9841,129.915484375,28.8034,124.277484375,24.7265C108.500484375,14.5046,89.799684375,9.49274,70.907684375,10.4232C66.21608437500001,10.4584,61.621684375,11.7367,57.611684375,14.1223C56.742984375,14.6749,56.094684375,15.5033,55.775584375,16.4685C55.539284375,17.3968,55.090484375,18.2603,54.463184375,18.9937C53.835884375,19.727,53.046584375,20.311,52.154884375,20.7014C50.938484375,21.2042,49.779784375,21.8317,48.698284375,22.5734C40.333084375,29.186,33.774784374999996,37.7295,29.611984375,47.4372C27.256484375,53.7561,25.940984375,60.4015,25.714784375,67.1249C24.561684375,78.0196,27.290384375000002,88.9697,33.438384375,98.1189C42.377284375,111.237,55.119284375,121.435,70.024784375,127.401C77.528484375,130.171,85.512284375,131.48,93.528084375,131.253C93.528084375,131.253,93.528084375,131.253,93.528084375,131.253Z" fill="#FF37D0" fill-opacity="1"/></g></g></svg>